%TF.GenerationSoftware,KiCad,Pcbnew,9.0.7-1.fc42*%
%TF.CreationDate,2026-04-25T18:33:30-07:00*%
%TF.ProjectId,foxhunt-badge,666f7868-756e-4742-9d62-616467652e6b,rev?*%
%TF.SameCoordinates,Original*%
%TF.FileFunction,Other,User*%
%FSLAX46Y46*%
G04 Gerber Fmt 4.6, Leading zero omitted, Abs format (unit mm)*
G04 Created by KiCad (PCBNEW 9.0.7-1.fc42) date 2026-04-25 18:33:30*
%MOMM*%
%LPD*%
G01*
G04 APERTURE LIST*
%ADD10C,0.050000*%
G04 APERTURE END LIST*
%TO.C,C9*%
D10*
X66480000Y-37270000D02*
X63520000Y-37270000D01*
X63520000Y-38730000D01*
X66480000Y-38730000D01*
X66480000Y-37270000D01*
%TO.C,C21*%
X114480000Y-52270000D02*
X111520000Y-52270000D01*
X111520000Y-53730000D01*
X114480000Y-53730000D01*
X114480000Y-52270000D01*
%TO.C,R4*%
X89480000Y-9270000D02*
X86520000Y-9270000D01*
X86520000Y-10730000D01*
X89480000Y-10730000D01*
X89480000Y-9270000D01*
%TO.C,R31*%
X87480000Y-55270000D02*
X84520000Y-55270000D01*
X84520000Y-56730000D01*
X87480000Y-56730000D01*
X87480000Y-55270000D01*
%TO.C,C31*%
X99480000Y-55270000D02*
X96520000Y-55270000D01*
X96520000Y-56730000D01*
X99480000Y-56730000D01*
X99480000Y-55270000D01*
%TO.C,C7*%
X93480000Y-9270000D02*
X90520000Y-9270000D01*
X90520000Y-10730000D01*
X93480000Y-10730000D01*
X93480000Y-9270000D01*
%TO.C,J3*%
X61770000Y-30230000D02*
X58230000Y-30230000D01*
X58230000Y-41390000D01*
X61770000Y-41390000D01*
X61770000Y-30230000D01*
%TO.C,R41*%
X115480000Y-55270000D02*
X112520000Y-55270000D01*
X112520000Y-56730000D01*
X115480000Y-56730000D01*
X115480000Y-55270000D01*
%TO.C,C51*%
X171480000Y-62270000D02*
X168520000Y-62270000D01*
X168520000Y-63730000D01*
X171480000Y-63730000D01*
X171480000Y-62270000D01*
%TO.C,C8*%
X33480000Y-54270000D02*
X30520000Y-54270000D01*
X30520000Y-55730000D01*
X33480000Y-55730000D01*
X33480000Y-54270000D01*
%TO.C,C5*%
X114480000Y-46270000D02*
X111520000Y-46270000D01*
X111520000Y-47730000D01*
X114480000Y-47730000D01*
X114480000Y-46270000D01*
%TO.C,C2*%
X105480000Y-45270000D02*
X102520000Y-45270000D01*
X102520000Y-46730000D01*
X105480000Y-46730000D01*
X105480000Y-45270000D01*
%TO.C,R9*%
X57480000Y-55270000D02*
X54520000Y-55270000D01*
X54520000Y-56730000D01*
X57480000Y-56730000D01*
X57480000Y-55270000D01*
%TO.C,C30*%
X91480000Y-55270000D02*
X88520000Y-55270000D01*
X88520000Y-56730000D01*
X91480000Y-56730000D01*
X91480000Y-55270000D01*
%TO.C,R13*%
X105480000Y-67270000D02*
X102520000Y-67270000D01*
X102520000Y-68730000D01*
X105480000Y-68730000D01*
X105480000Y-67270000D01*
%TO.C,C11*%
X169480000Y-54270000D02*
X166520000Y-54270000D01*
X166520000Y-55730000D01*
X169480000Y-55730000D01*
X169480000Y-54270000D01*
%TO.C,R40*%
X111480000Y-55270000D02*
X108520000Y-55270000D01*
X108520000Y-56730000D01*
X111480000Y-56730000D01*
X111480000Y-55270000D01*
%TO.C,R14*%
X109480000Y-63270000D02*
X106520000Y-63270000D01*
X106520000Y-64730000D01*
X109480000Y-64730000D01*
X109480000Y-63270000D01*
%TO.C,U3*%
X81000000Y-15000000D02*
X81000000Y-39000000D01*
X81000000Y-39000000D02*
X119000000Y-39000000D01*
X119000000Y-15000000D02*
X81000000Y-15000000D01*
X119000000Y-39000000D02*
X119000000Y-15000000D01*
%TO.C,C40*%
X107480000Y-55270000D02*
X104520000Y-55270000D01*
X104520000Y-56730000D01*
X107480000Y-56730000D01*
X107480000Y-55270000D01*
%TO.C,C32*%
X103480000Y-55270000D02*
X100520000Y-55270000D01*
X100520000Y-56730000D01*
X103480000Y-56730000D01*
X103480000Y-55270000D01*
%TO.C,J2*%
X31770000Y-54230000D02*
X25680000Y-54230000D01*
X25680000Y-62850000D01*
X31770000Y-62850000D01*
X31770000Y-54230000D01*
%TO.C,C12*%
X41480000Y-55270000D02*
X38520000Y-55270000D01*
X38520000Y-56730000D01*
X41480000Y-56730000D01*
X41480000Y-55270000D01*
%TO.C,C1*%
X97480000Y-45270000D02*
X94520000Y-45270000D01*
X94520000Y-46730000D01*
X97480000Y-46730000D01*
X97480000Y-45270000D01*
%TO.C,R8*%
X109480000Y-9270000D02*
X106520000Y-9270000D01*
X106520000Y-10730000D01*
X109480000Y-10730000D01*
X109480000Y-9270000D01*
%TO.C,J4*%
X137450000Y-56150000D02*
X130550000Y-56150000D01*
X130550000Y-64750000D01*
X137450000Y-64750000D01*
X137450000Y-56150000D01*
%TO.C,C50*%
X171480000Y-56270000D02*
X168520000Y-56270000D01*
X168520000Y-57730000D01*
X171480000Y-57730000D01*
X171480000Y-56270000D01*
%TO.C,R12*%
X93480000Y-63270000D02*
X90520000Y-63270000D01*
X90520000Y-64730000D01*
X93480000Y-64730000D01*
X93480000Y-63270000D01*
%TO.C,L1*%
X171480000Y-59270000D02*
X168520000Y-59270000D01*
X168520000Y-60730000D01*
X171480000Y-60730000D01*
X171480000Y-59270000D01*
%TO.C,C10*%
X136480000Y-37270000D02*
X133520000Y-37270000D01*
X133520000Y-38730000D01*
X136480000Y-38730000D01*
X136480000Y-37270000D01*
%TO.C,R30*%
X113480000Y-9270000D02*
X110520000Y-9270000D01*
X110520000Y-10730000D01*
X113480000Y-10730000D01*
X113480000Y-9270000D01*
%TO.C,R7*%
X105480000Y-9270000D02*
X102520000Y-9270000D01*
X102520000Y-10730000D01*
X105480000Y-10730000D01*
X105480000Y-9270000D01*
%TO.C,R5*%
X97480000Y-67270000D02*
X94520000Y-67270000D01*
X94520000Y-68730000D01*
X97480000Y-68730000D01*
X97480000Y-67270000D01*
%TO.C,U1*%
X97950000Y-44500000D02*
X97950000Y-45610000D01*
X97950000Y-45610000D02*
X98950000Y-45610000D01*
X97950000Y-46390000D02*
X97950000Y-47500000D01*
X97950000Y-47500000D02*
X98950000Y-47500000D01*
X98950000Y-44300000D02*
X98950000Y-44500000D01*
X98950000Y-44500000D02*
X97950000Y-44500000D01*
X98950000Y-45610000D02*
X98950000Y-46390000D01*
X98950000Y-46390000D02*
X97950000Y-46390000D01*
X98950000Y-47500000D02*
X98950000Y-47700000D01*
X98950000Y-47700000D02*
X101050000Y-47700000D01*
X101050000Y-44300000D02*
X98950000Y-44300000D01*
X101050000Y-44500000D02*
X101050000Y-44300000D01*
X101050000Y-47500000D02*
X102050000Y-47500000D01*
X101050000Y-47700000D02*
X101050000Y-47500000D01*
X102050000Y-44500000D02*
X101050000Y-44500000D01*
X102050000Y-47500000D02*
X102050000Y-44500000D01*
%TO.C,R6*%
X101480000Y-71270000D02*
X98520000Y-71270000D01*
X98520000Y-72730000D01*
X101480000Y-72730000D01*
X101480000Y-71270000D01*
%TO.C,U4*%
X69000000Y-36000000D02*
X69000000Y-56000000D01*
X69000000Y-56000000D02*
X100000000Y-56000000D01*
X100000000Y-36000000D02*
X69000000Y-36000000D01*
X100000000Y-56000000D02*
X100000000Y-36000000D01*
%TO.C,C6*%
X114480000Y-49270000D02*
X111520000Y-49270000D01*
X111520000Y-50730000D01*
X114480000Y-50730000D01*
X114480000Y-49270000D01*
%TO.C,R32*%
X95480000Y-55270000D02*
X92520000Y-55270000D01*
X92520000Y-56730000D01*
X95480000Y-56730000D01*
X95480000Y-55270000D01*
%TO.C,C20*%
X84750000Y-42500000D02*
X84750000Y-45500000D01*
X84750000Y-45500000D02*
X85600000Y-45500000D01*
X85600000Y-39600000D02*
X85600000Y-42500000D01*
X85600000Y-42500000D02*
X84750000Y-42500000D01*
X85600000Y-45500000D02*
X85600000Y-48400000D01*
X93250000Y-39600000D02*
X85600000Y-39600000D01*
X93250000Y-48400000D02*
X85600000Y-48400000D01*
X94400000Y-40750000D02*
X93250000Y-39600000D01*
X94400000Y-40750000D02*
X94400000Y-42500000D01*
X94400000Y-42500000D02*
X95250000Y-42500000D01*
X94400000Y-45500000D02*
X94400000Y-47250000D01*
X94400000Y-47250000D02*
X93250000Y-48400000D01*
X95250000Y-42500000D02*
X95250000Y-45500000D01*
X95250000Y-45500000D02*
X94400000Y-45500000D01*
%TD*%
M02*
