M48
; DRILL file {KiCad 9.0.7-1.fc42} date 2026-04-25T18:33:30-0700
; FORMAT={-:-/ absolute / metric / decimal}
; #@! TF.CreationDate,2026-04-25T18:33:30-07:00
; #@! TF.GenerationSoftware,Kicad,Pcbnew,9.0.7-1.fc42
; #@! TF.FileFunction,MixedPlating,1,2
FMAT,2
METRIC
; #@! TA.AperFunction,Plated,PTH,ViaDrill
T1C0.300
; #@! TA.AperFunction,Plated,PTH,ComponentDrill
T2C0.600
; #@! TA.AperFunction,Plated,PTH,ComponentDrill
T3C0.750
; #@! TA.AperFunction,Plated,PTH,ComponentDrill
T4C1.000
; #@! TA.AperFunction,NonPlated,NPTH,ComponentDrill
T5C0.650
; #@! TA.AperFunction,NonPlated,NPTH,ComponentDrill
T6C2.500
%
G90
G05
T1
X32.931Y-53.98
X40.0Y-50.0
X50.0Y-50.0
X58.443Y-54.923
X60.0Y-40.0
X60.0Y-50.0
X70.0Y-30.0
X70.0Y-40.0
X70.0Y-50.0
X70.0Y-60.0
X73.106Y-52.919
X80.0Y-30.0
X80.0Y-40.0
X80.0Y-50.0
X80.0Y-60.0
X82.07Y-48.974
X84.001Y-53.227
X85.058Y-16.257
X85.058Y-57.93
X86.982Y-11.154
X88.046Y-50.831
X88.164Y-13.4
X90.0Y-20.0
X90.0Y-30.0
X90.0Y-40.0
X90.0Y-50.0
X90.0Y-60.0
X91.27Y-61.263
X91.74Y-57.028
X92.198Y-48.3
X93.761Y-46.225
X93.823Y-70.087
X95.789Y-15.932
X96.178Y-56.556
X96.385Y-45.018
X97.01Y-9.611
X99.998Y-66.82
X100.0Y-10.0
X100.0Y-20.0
X100.0Y-30.0
X100.0Y-40.0
X100.0Y-50.0
X100.0Y-60.0
X103.341Y-45.018
X104.581Y-45.018
X105.713Y-30.868
X105.91Y-66.339
X105.974Y-37.077
X106.058Y-9.837
X106.151Y-46.623
X107.121Y-62.962
X108.084Y-42.319
X108.084Y-43.956
X108.121Y-55.691
X109.104Y-57.063
X110.0Y-20.0
X110.0Y-30.0
X110.0Y-40.0
X110.0Y-50.0
X110.0Y-60.0
X111.132Y-44.937
X111.165Y-49.574
X111.603Y-42.494
X112.087Y-31.265
X112.51Y-11.136
X113.865Y-57.293
X114.074Y-54.051
X114.379Y-51.963
X115.003Y-54.527
X115.313Y-49.3
X116.416Y-51.774
X118.56Y-45.733
X118.56Y-47.944
X119.11Y-51.909
X120.0Y-30.0
X120.0Y-40.0
X120.0Y-50.0
X120.0Y-60.0
X120.914Y-33.656
X120.914Y-55.382
X121.711Y-53.802
X124.364Y-47.042
X124.699Y-35.692
X130.0Y-30.0
X130.0Y-40.0
X130.0Y-50.0
X130.0Y-60.0
X130.923Y-48.812
X135.0Y-34.845
X135.854Y-51.948
X136.224Y-36.712
X136.685Y-52.776
X140.0Y-40.0
X140.0Y-50.0
X150.0Y-50.0
X156.77Y-49.687
X160.0Y-50.0
X160.234Y-48.1
X160.431Y-53.857
X162.575Y-54.329
X163.573Y-57.077
X165.621Y-61.043
X168.385Y-53.98
X168.985Y-48.701
T3
X133.0Y-58.0
X135.0Y-58.0
T4
X27.46Y-56.0
X27.46Y-58.54
X27.46Y-61.08
X30.0Y-56.0
X30.0Y-58.54
X30.0Y-61.08
X60.0Y-32.0
X60.0Y-34.54
X60.0Y-37.08
X60.0Y-39.62
X72.0Y-40.92
X72.0Y-43.46
X72.0Y-46.0
X72.0Y-48.54
X72.0Y-51.08
X78.0Y-27.38
X78.0Y-29.92
X78.0Y-32.46
X78.0Y-35.0
X78.0Y-37.54
X78.0Y-40.08
X78.0Y-42.62
T5
X177.6Y-57.11
X177.6Y-62.89
T6
X35.0Y-55.0
X90.0Y-64.0
X110.0Y-64.0
X165.0Y-55.0
T2
X174.25Y-55.68G85X173.65Y-55.68
G05
X174.25Y-64.32G85X173.65Y-64.32
G05
X178.68Y-55.68G85X177.58Y-55.68
G05
X178.68Y-64.32G85X177.58Y-64.32
G05
M30
