%TF.GenerationSoftware,KiCad,Pcbnew,9.0.7-1.fc42*%
%TF.CreationDate,2026-04-25T18:33:30-07:00*%
%TF.ProjectId,foxhunt-badge,666f7868-756e-4742-9d62-616467652e6b,rev?*%
%TF.SameCoordinates,Original*%
%TF.FileFunction,Copper,L1,Top*%
%TF.FilePolarity,Positive*%
%FSLAX46Y46*%
G04 Gerber Fmt 4.6, Leading zero omitted, Abs format (unit mm)*
G04 Created by KiCad (PCBNEW 9.0.7-1.fc42) date 2026-04-25 18:33:30*
%MOMM*%
%LPD*%
G01*
G04 APERTURE LIST*
G04 Aperture macros list*
%AMRoundRect*
0 Rectangle with rounded corners*
0 $1 Rounding radius*
0 $2 $3 $4 $5 $6 $7 $8 $9 X,Y pos of 4 corners*
0 Add a 4 corners polygon primitive as box body*
4,1,4,$2,$3,$4,$5,$6,$7,$8,$9,$2,$3,0*
0 Add four circle primitives for the rounded corners*
1,1,$1+$1,$2,$3*
1,1,$1+$1,$4,$5*
1,1,$1+$1,$6,$7*
1,1,$1+$1,$8,$9*
0 Add four rect primitives between the rounded corners*
20,1,$1+$1,$2,$3,$4,$5,0*
20,1,$1+$1,$4,$5,$6,$7,0*
20,1,$1+$1,$6,$7,$8,$9,0*
20,1,$1+$1,$8,$9,$2,$3,0*%
%AMFreePoly0*
4,1,6,0.725000,-0.725000,-0.725000,-0.725000,-0.725000,0.125000,-0.125000,0.725000,0.725000,0.725000,0.725000,-0.725000,0.725000,-0.725000,$1*%
G04 Aperture macros list end*
%TA.AperFunction,SMDPad,CuDef*%
%ADD10RoundRect,0.225000X-0.225000X-0.375000X0.225000X-0.375000X0.225000X0.375000X-0.225000X0.375000X0*%
%TD*%
%TA.AperFunction,SMDPad,CuDef*%
%ADD11R,0.700000X0.700000*%
%TD*%
%TA.AperFunction,SMDPad,CuDef*%
%ADD12RoundRect,0.200000X-0.200000X-0.275000X0.200000X-0.275000X0.200000X0.275000X-0.200000X0.275000X0*%
%TD*%
%TA.AperFunction,SMDPad,CuDef*%
%ADD13R,1.700000X1.000000*%
%TD*%
%TA.AperFunction,SMDPad,CuDef*%
%ADD14R,0.800000X0.400000*%
%TD*%
%TA.AperFunction,SMDPad,CuDef*%
%ADD15R,0.400000X0.800000*%
%TD*%
%TA.AperFunction,SMDPad,CuDef*%
%ADD16FreePoly0,0.000000*%
%TD*%
%TA.AperFunction,SMDPad,CuDef*%
%ADD17R,1.450000X1.450000*%
%TD*%
%TA.AperFunction,ComponentPad*%
%ADD18R,1.700000X1.700000*%
%TD*%
%TA.AperFunction,ComponentPad*%
%ADD19C,1.700000*%
%TD*%
%TA.AperFunction,SMDPad,CuDef*%
%ADD20R,1.450000X0.600000*%
%TD*%
%TA.AperFunction,SMDPad,CuDef*%
%ADD21R,1.450000X0.300000*%
%TD*%
%TA.AperFunction,HeatsinkPad*%
%ADD22O,2.100000X1.000000*%
%TD*%
%TA.AperFunction,HeatsinkPad*%
%ADD23O,1.600000X1.000000*%
%TD*%
%TA.AperFunction,SMDPad,CuDef*%
%ADD24RoundRect,0.218750X-0.218750X-0.256250X0.218750X-0.256250X0.218750X0.256250X-0.218750X0.256250X0*%
%TD*%
%TA.AperFunction,ComponentPad*%
%ADD25RoundRect,0.250000X0.350000X0.625000X-0.350000X0.625000X-0.350000X-0.625000X0.350000X-0.625000X0*%
%TD*%
%TA.AperFunction,ComponentPad*%
%ADD26O,1.200000X1.750000*%
%TD*%
%TA.AperFunction,ViaPad*%
%ADD27C,0.600000*%
%TD*%
%TA.AperFunction,Conductor*%
%ADD28C,0.200000*%
%TD*%
G04 APERTURE END LIST*
D10*
%TO.P,D1,1*%
%TO.N,VBAT_RAW*%
X158350000Y-44000000D03*
%TO.P,D1,2*%
%TO.N,VBUS*%
X161650000Y-44000000D03*
%TD*%
D11*
%TO.P,D5,1*%
%TO.N,LED_C3*%
X134085000Y-34450000D03*
%TO.P,D5,2*%
%TO.N,GND*%
X134085000Y-35550000D03*
%TO.P,D5,3*%
%TO.N,LED_C2*%
X135915000Y-35550000D03*
%TO.P,D5,4*%
%TO.N,+3V3*%
X135915000Y-34450000D03*
%TD*%
D12*
%TO.P,R2,1*%
%TO.N,CC2*%
X159175000Y-50000000D03*
%TO.P,R2,2*%
%TO.N,GND*%
X160825000Y-50000000D03*
%TD*%
D13*
%TO.P,S1,1*%
%TO.N,GND*%
X96850000Y-7100000D03*
%TO.N,N/C*%
X103150000Y-7100000D03*
%TO.P,S1,2*%
%TO.N,EN*%
X96850000Y-10900000D03*
%TO.N,N/C*%
X103150000Y-10900000D03*
%TD*%
D12*
%TO.P,R3,1*%
%TO.N,+3V3*%
X95175000Y-18000000D03*
%TO.P,R3,2*%
%TO.N,STAT_LED_NODE*%
X96825000Y-18000000D03*
%TD*%
D11*
%TO.P,D4,1*%
%TO.N,LED_C2*%
X64085000Y-34450000D03*
%TO.P,D4,2*%
%TO.N,GND*%
X64085000Y-35550000D03*
%TO.P,D4,3*%
%TO.N,LED_C1*%
X65915000Y-35550000D03*
%TO.P,D4,4*%
%TO.N,+3V3*%
X65915000Y-34450000D03*
%TD*%
%TO.P,D6,1*%
%TO.N,LED_END*%
X167085000Y-51450000D03*
%TO.P,D6,2*%
%TO.N,GND*%
X167085000Y-52550000D03*
%TO.P,D6,3*%
%TO.N,LED_C3*%
X168915000Y-52550000D03*
%TO.P,D6,4*%
%TO.N,+3V3*%
X168915000Y-51450000D03*
%TD*%
D14*
%TO.P,U2,1*%
%TO.N,GND*%
X109100000Y-41700000D03*
%TO.P,U2,2*%
X109100000Y-42500000D03*
%TO.P,U2,3*%
%TO.N,+3V3*%
X109100000Y-43300000D03*
%TO.P,U2,4*%
%TO.N,N/C*%
X109100000Y-44100000D03*
%TO.P,U2,5*%
X109100000Y-44900000D03*
%TO.P,U2,6*%
%TO.N,EN*%
X109100000Y-45700000D03*
%TO.P,U2,7*%
%TO.N,SA868_AUDIO*%
X109100000Y-46500000D03*
%TO.P,U2,8*%
%TO.N,BTN_UP*%
X109100000Y-47300000D03*
%TO.P,U2,9*%
%TO.N,N/C*%
X109100000Y-48100000D03*
%TO.P,U2,10*%
X109100000Y-48900000D03*
%TO.P,U2,11*%
%TO.N,SA868_TX*%
X109100000Y-49700000D03*
D15*
%TO.P,U2,12*%
%TO.N,N/C*%
X110200000Y-50600000D03*
%TO.P,U2,13*%
%TO.N,LED_DIN_RAW*%
X111000000Y-50600000D03*
%TO.P,U2,14*%
%TO.N,OLED_DC*%
X111800000Y-50600000D03*
%TO.P,U2,15*%
%TO.N,N/C*%
X112600000Y-50600000D03*
%TO.P,U2,16*%
%TO.N,USB_DM*%
X113400000Y-50600000D03*
%TO.P,U2,17*%
%TO.N,USB_DP*%
X114200000Y-50600000D03*
%TO.P,U2,18*%
%TO.N,N/C*%
X115000000Y-50600000D03*
%TO.P,U2,19*%
%TO.N,BTN_SEL*%
X115800000Y-50600000D03*
%TO.P,U2,20*%
%TO.N,BTN_DN*%
X116600000Y-50600000D03*
%TO.P,U2,21*%
%TO.N,N/C*%
X117400000Y-50600000D03*
%TO.P,U2,22*%
X118200000Y-50600000D03*
%TO.P,U2,23*%
%TO.N,SA868_RX*%
X119000000Y-50600000D03*
%TO.P,U2,24*%
%TO.N,OLED_RST*%
X119800000Y-50600000D03*
D14*
%TO.P,U2,25*%
%TO.N,N/C*%
X120900000Y-49700000D03*
%TO.P,U2,26*%
X120900000Y-48900000D03*
%TO.P,U2,27*%
%TO.N,SA868_PTT*%
X120900000Y-48100000D03*
%TO.P,U2,28*%
%TO.N,OLED_CS*%
X120900000Y-47300000D03*
%TO.P,U2,29*%
%TO.N,N/C*%
X120900000Y-46500000D03*
%TO.P,U2,30*%
%TO.N,OLED_SCK*%
X120900000Y-45700000D03*
%TO.P,U2,31*%
%TO.N,OLED_MOSI*%
X120900000Y-44900000D03*
%TO.P,U2,32*%
%TO.N,N/C*%
X120900000Y-44100000D03*
%TO.P,U2,33*%
X120900000Y-43300000D03*
%TO.P,U2,34*%
X120900000Y-42500000D03*
%TO.P,U2,35*%
X120900000Y-41700000D03*
D15*
%TO.P,U2,36*%
X119800000Y-40800000D03*
%TO.P,U2,37*%
X119000000Y-40800000D03*
%TO.P,U2,38*%
X118200000Y-40800000D03*
%TO.P,U2,39*%
X117400000Y-40800000D03*
%TO.P,U2,40*%
X116600000Y-40800000D03*
%TO.P,U2,41*%
X115800000Y-40800000D03*
%TO.P,U2,42*%
X115000000Y-40800000D03*
%TO.P,U2,43*%
X114200000Y-40800000D03*
%TO.P,U2,44*%
X113400000Y-40800000D03*
%TO.P,U2,45*%
X112600000Y-40800000D03*
%TO.P,U2,46*%
X111800000Y-40800000D03*
%TO.P,U2,47*%
X111000000Y-40800000D03*
%TO.P,U2,48*%
X110200000Y-40800000D03*
D16*
%TO.P,U2,49*%
%TO.N,GND*%
X113025000Y-43725000D03*
D17*
%TO.N,N/C*%
X113025000Y-45700000D03*
X113025000Y-47675000D03*
X115000000Y-43725000D03*
X115000000Y-45700000D03*
X115000000Y-47675000D03*
X116975000Y-43725000D03*
X116975000Y-45700000D03*
X116975000Y-47675000D03*
D11*
%TO.P,U2,50*%
X120950000Y-40750000D03*
%TO.P,U2,51*%
X120950000Y-50650000D03*
%TO.P,U2,52*%
X109050000Y-50650000D03*
%TO.P,U2,53*%
X109050000Y-40750000D03*
%TD*%
D12*
%TO.P,R11,1*%
%TO.N,LED_DIN_RAW*%
X35175000Y-56000000D03*
%TO.P,R11,2*%
%TO.N,LED_DIN*%
X36825000Y-56000000D03*
%TD*%
D13*
%TO.P,S4,1*%
%TO.N,GND*%
X104850000Y-58100000D03*
%TO.N,N/C*%
X111150000Y-58100000D03*
%TO.P,S4,2*%
%TO.N,BTN_DN*%
X104850000Y-61900000D03*
%TO.N,N/C*%
X111150000Y-61900000D03*
%TD*%
D18*
%TO.P,DISP1,1*%
%TO.N,GND*%
X78000000Y-42620000D03*
D19*
%TO.P,DISP1,2*%
%TO.N,+3V3*%
X78000000Y-40080000D03*
%TO.P,DISP1,3*%
%TO.N,OLED_SCK*%
X78000000Y-37540000D03*
%TO.P,DISP1,4*%
%TO.N,OLED_MOSI*%
X78000000Y-35000000D03*
%TO.P,DISP1,5*%
%TO.N,OLED_RST*%
X78000000Y-32460000D03*
%TO.P,DISP1,6*%
%TO.N,OLED_DC*%
X78000000Y-29920000D03*
%TO.P,DISP1,7*%
%TO.N,OLED_CS*%
X78000000Y-27380000D03*
%TD*%
D13*
%TO.P,S3,1*%
%TO.N,GND*%
X88850000Y-58100000D03*
%TO.N,N/C*%
X95150000Y-58100000D03*
%TO.P,S3,2*%
%TO.N,BTN_UP*%
X88850000Y-61900000D03*
%TO.N,N/C*%
X95150000Y-61900000D03*
%TD*%
D11*
%TO.P,D3,1*%
%TO.N,LED_C1*%
X31085000Y-51450000D03*
%TO.P,D3,2*%
%TO.N,GND*%
X31085000Y-52550000D03*
%TO.P,D3,3*%
%TO.N,LED_DIN*%
X32915000Y-52550000D03*
%TO.P,D3,4*%
%TO.N,+3V3*%
X32915000Y-51450000D03*
%TD*%
D12*
%TO.P,R1,1*%
%TO.N,CC1*%
X159175000Y-47000000D03*
%TO.P,R1,2*%
%TO.N,GND*%
X160825000Y-47000000D03*
%TD*%
D20*
%TO.P,J1,A1*%
%TO.N,GND*%
X179045000Y-56750000D03*
%TO.P,J1,A4*%
%TO.N,VBUS*%
X179045000Y-57550000D03*
D21*
%TO.P,J1,A5*%
%TO.N,CC1*%
X179045000Y-58750000D03*
%TO.P,J1,A6*%
%TO.N,USB_DP*%
X179045000Y-59750000D03*
%TO.P,J1,A7*%
%TO.N,USB_DM*%
X179045000Y-60250000D03*
%TO.P,J1,A8*%
%TO.N,N/C*%
X179045000Y-61250000D03*
D20*
%TO.P,J1,A9*%
%TO.N,VBUS*%
X179045000Y-62450000D03*
%TO.P,J1,A12*%
%TO.N,GND*%
X179045000Y-63250000D03*
%TO.P,J1,B1*%
X179045000Y-63250000D03*
%TO.P,J1,B4*%
%TO.N,VBUS*%
X179045000Y-62450000D03*
D21*
%TO.P,J1,B5*%
%TO.N,CC2*%
X179045000Y-61750000D03*
%TO.P,J1,B6*%
%TO.N,USB_DP*%
X179045000Y-60750000D03*
%TO.P,J1,B7*%
%TO.N,USB_DM*%
X179045000Y-59250000D03*
%TO.P,J1,B8*%
%TO.N,N/C*%
X179045000Y-58250000D03*
D20*
%TO.P,J1,B9*%
%TO.N,VBUS*%
X179045000Y-57550000D03*
%TO.P,J1,B12*%
%TO.N,GND*%
X179045000Y-56750000D03*
D22*
%TO.P,J1,S1*%
X178130000Y-55680000D03*
D23*
%TO.N,N/C*%
X173950000Y-55680000D03*
D22*
X178130000Y-64320000D03*
D23*
X173950000Y-64320000D03*
%TD*%
D24*
%TO.P,D2,1*%
%TO.N,GND*%
X91212500Y-18000000D03*
%TO.P,D2,2*%
%TO.N,STAT_LED_NODE*%
X92787500Y-18000000D03*
%TD*%
D13*
%TO.P,S2,1*%
%TO.N,GND*%
X96850000Y-66100000D03*
%TO.N,N/C*%
X103150000Y-66100000D03*
%TO.P,S2,2*%
%TO.N,BTN_SEL*%
X96850000Y-69900000D03*
%TO.N,N/C*%
X103150000Y-69900000D03*
%TD*%
D18*
%TO.P,J3,1*%
%TO.N,GND*%
X60000000Y-32000000D03*
D19*
%TO.P,J3,2*%
%TO.N,+3V3*%
X60000000Y-34540000D03*
%TO.P,J3,3*%
%TO.N,SA868_RX*%
X60000000Y-37080000D03*
%TO.P,J3,4*%
%TO.N,N/C*%
X60000000Y-39620000D03*
%TD*%
D18*
%TO.P,J2,1*%
%TO.N,GND*%
X30000000Y-56000000D03*
D19*
%TO.P,J2,2*%
%TO.N,SAO_GPIO2*%
X27460000Y-56000000D03*
%TO.P,J2,3*%
%TO.N,SAO_GPIO1*%
X30000000Y-58540000D03*
%TO.P,J2,4*%
%TO.N,SAO_GPIO4*%
X27460000Y-58540000D03*
%TO.P,J2,5*%
%TO.N,SAO_GPIO3*%
X30000000Y-61080000D03*
%TO.P,J2,6*%
%TO.N,+3V3*%
X27460000Y-61080000D03*
%TD*%
D25*
%TO.P,J4,1*%
%TO.N,VBAT*%
X135000000Y-58000000D03*
D26*
%TO.P,J4,2*%
%TO.N,GND*%
X133000000Y-58000000D03*
%TD*%
D18*
%TO.P,U4,1*%
%TO.N,VBAT_RAW*%
X72000000Y-51080000D03*
D19*
%TO.P,U4,2*%
%TO.N,GND*%
X72000000Y-48540000D03*
%TO.P,U4,3*%
%TO.N,VBAT*%
X72000000Y-46000000D03*
%TO.P,U4,4*%
%TO.N,GND*%
X72000000Y-43460000D03*
%TO.P,U4,5*%
%TO.N,USB_OUT*%
X72000000Y-40920000D03*
%TD*%
D27*
%TO.N,VBAT_RAW*%
X73106000Y-52919100D03*
%TO.N,VBAT*%
X105713400Y-30867800D03*
X93761500Y-46225400D03*
X112087200Y-31265500D03*
%TO.N,+3V3*%
X136224000Y-36712000D03*
X85058000Y-16256800D03*
X136685100Y-52776100D03*
X103341200Y-45018400D03*
X114074000Y-54050800D03*
X168384700Y-53979800D03*
X32930800Y-53979800D03*
%TO.N,GND*%
X120000000Y-60000000D03*
X80000000Y-50000000D03*
X100000000Y-40000000D03*
X80000000Y-60000000D03*
X70000000Y-30000000D03*
X140000000Y-50000000D03*
X70000000Y-60000000D03*
X100000000Y-50000000D03*
X110000000Y-50000000D03*
X90000000Y-20000000D03*
X90000000Y-50000000D03*
X100000000Y-20000000D03*
X90000000Y-30000000D03*
X80000000Y-40000000D03*
X110000000Y-20000000D03*
X110000000Y-30000000D03*
X100000000Y-60000000D03*
X130000000Y-30000000D03*
X90000000Y-60000000D03*
X140000000Y-40000000D03*
X160000000Y-50000000D03*
X60000000Y-40000000D03*
X110000000Y-40000000D03*
X130000000Y-50000000D03*
X130000000Y-60000000D03*
X80000000Y-30000000D03*
X120000000Y-30000000D03*
X120000000Y-40000000D03*
X70000000Y-40000000D03*
X40000000Y-50000000D03*
X90000000Y-40000000D03*
X50000000Y-50000000D03*
X100000000Y-10000000D03*
X110000000Y-60000000D03*
X130000000Y-40000000D03*
X100000000Y-30000000D03*
X70000000Y-50000000D03*
X60000000Y-50000000D03*
X150000000Y-50000000D03*
%TO.N,CC1*%
X160234200Y-48099700D03*
X162575200Y-54329200D03*
%TO.N,CC2*%
X156770000Y-49686900D03*
X165620700Y-61042800D03*
%TO.N,USB_DP*%
X114378800Y-51963500D03*
X115002700Y-54526900D03*
%TO.N,USB_DM*%
X121711000Y-53801600D03*
X160431400Y-53857500D03*
X111131900Y-44936800D03*
X163572900Y-57077000D03*
%TO.N,EN*%
X96384700Y-45018400D03*
X86981700Y-11153600D03*
X97010000Y-9610500D03*
%TO.N,LED_DIN_RAW*%
X58442900Y-54922700D03*
X111164700Y-49573700D03*
X108121100Y-55691100D03*
%TO.N,LED_C3*%
X135000000Y-34844900D03*
X135854000Y-51948400D03*
%TO.N,OLED_CS*%
X124364400Y-47041800D03*
X124699000Y-35691600D03*
%TO.N,OLED_SCK*%
X118560000Y-45732900D03*
X108084000Y-42319200D03*
%TO.N,OLED_MOSI*%
X105974000Y-37076900D03*
X111603000Y-42494200D03*
%TO.N,OLED_DC*%
X82070000Y-48974100D03*
%TO.N,OLED_RST*%
X120913700Y-33656400D03*
X120000000Y-50000000D03*
%TO.N,SA868_PTT*%
X104580500Y-45018400D03*
X108084000Y-43956300D03*
X118560000Y-47943500D03*
%TO.N,SA868_PD*%
X106058300Y-9836600D03*
X88163700Y-13400200D03*
%TO.N,SA868_TX*%
X112509900Y-11135600D03*
X92198000Y-48300100D03*
X95788800Y-15932400D03*
%TO.N,SA868_RX*%
X119110000Y-51909500D03*
X84001500Y-53227300D03*
X120914000Y-55382300D03*
%TO.N,TX_LPF_A*%
X85058000Y-57930000D03*
X91740500Y-57028200D03*
X96178300Y-56555800D03*
%TO.N,SA868_AUDIO*%
X109104200Y-57063000D03*
X113864600Y-57293100D03*
X106151300Y-46623500D03*
%TO.N,ANT_OUT*%
X130923200Y-48812500D03*
X168984700Y-48701200D03*
%TO.N,BTN_UP*%
X88046000Y-50831500D03*
X91269600Y-61263400D03*
%TO.N,BTN_SEL*%
X115313000Y-49300000D03*
X93823200Y-70087100D03*
X105910200Y-66338700D03*
X99998000Y-66819900D03*
%TO.N,BTN_DN*%
X116416000Y-51773600D03*
X107121100Y-62962100D03*
%TD*%
D28*
%TO.N,VBUS*%
X176768800Y-54652900D02*
X178826900Y-54652900D01*
X180071500Y-57550000D02*
X180523200Y-58001700D01*
X165501000Y-47851000D02*
X169966900Y-47851000D01*
X180071700Y-57549800D02*
X180071500Y-57550000D01*
X178826900Y-54652900D02*
X180071700Y-55897700D01*
X180071700Y-55897700D02*
X180071700Y-57549800D01*
X161650000Y-44000000D02*
X165501000Y-47851000D01*
X179045000Y-57550000D02*
X180071500Y-57550000D01*
X180523200Y-61998500D02*
X180071700Y-62450000D01*
X179045000Y-62450000D02*
X180071700Y-62450000D01*
X169966900Y-47851000D02*
X176768800Y-54652900D01*
X180523200Y-58001700D02*
X180523200Y-61998500D01*
%TO.N,VBAT_RAW*%
X158350000Y-44000000D02*
X129525800Y-44000000D01*
X73399500Y-52625600D02*
X73106000Y-52919100D01*
X129525800Y-44000000D02*
X120900200Y-52625600D01*
X120900200Y-52625600D02*
X73399500Y-52625600D01*
%TO.N,VBAT*%
X106111100Y-31265500D02*
X105713400Y-30867800D01*
X112087200Y-31265500D02*
X106111100Y-31265500D01*
X93536100Y-46000000D02*
X93761500Y-46225400D01*
X72000000Y-46000000D02*
X93536100Y-46000000D01*
%TO.N,+3V3*%
X81356400Y-43436400D02*
X103341200Y-43436400D01*
X169566700Y-53078600D02*
X168665500Y-53979800D01*
X65263300Y-34450000D02*
X64574900Y-33761600D01*
X109100000Y-43300000D02*
X103477600Y-43300000D01*
X168915000Y-51450000D02*
X169566700Y-51450000D01*
X136663000Y-52798200D02*
X121295600Y-52798200D01*
X136685100Y-52776100D02*
X136663000Y-52798200D01*
X136566700Y-34450000D02*
X136566700Y-36369300D01*
X72370000Y-34450000D02*
X65915000Y-34450000D01*
X169566700Y-51450000D02*
X169566700Y-53078600D01*
X78000000Y-40080000D02*
X81356400Y-43436400D01*
X120745300Y-53348500D02*
X114776300Y-53348500D01*
X103341200Y-43436400D02*
X103341200Y-45018400D01*
X168665500Y-53979800D02*
X168384700Y-53979800D01*
X32263300Y-51450000D02*
X32263300Y-53312300D01*
X168384700Y-53979800D02*
X167135900Y-53979800D01*
X165932200Y-52776100D02*
X136685100Y-52776100D01*
X32915000Y-51450000D02*
X32263300Y-51450000D01*
X94363400Y-18811600D02*
X87612800Y-18811600D01*
X167135900Y-53979800D02*
X165932200Y-52776100D01*
X87612800Y-18811600D02*
X85058000Y-16256800D01*
X78000000Y-40080000D02*
X72370000Y-34450000D01*
X121295600Y-52798200D02*
X120745300Y-53348500D01*
X95175000Y-18000000D02*
X94363400Y-18811600D01*
X60778400Y-33761600D02*
X60000000Y-34540000D01*
X32263300Y-53312300D02*
X32930800Y-53979800D01*
X64574900Y-33761600D02*
X60778400Y-33761600D01*
X65915000Y-34450000D02*
X65263300Y-34450000D01*
X136566700Y-36369300D02*
X136224000Y-36712000D01*
X135915000Y-34450000D02*
X136566700Y-34450000D01*
X114776300Y-53348500D02*
X114074000Y-54050800D01*
X103477600Y-43300000D02*
X103341200Y-43436400D01*
%TO.N,CC1*%
X160234200Y-48099700D02*
X159175000Y-47040500D01*
X159175000Y-47040500D02*
X159175000Y-47000000D01*
X162575200Y-55140400D02*
X162575200Y-54329200D01*
X179045000Y-58750000D02*
X166184800Y-58750000D01*
X166184800Y-58750000D02*
X162575200Y-55140400D01*
%TO.N,CC2*%
X166327900Y-61750000D02*
X179045000Y-61750000D01*
X159175000Y-50000000D02*
X157083100Y-50000000D01*
X165620700Y-61042800D02*
X166327900Y-61750000D01*
X157083100Y-50000000D02*
X156770000Y-49686900D01*
%TO.N,USB_DP*%
X179045000Y-60750000D02*
X166395100Y-60750000D01*
X122160200Y-53399900D02*
X121960200Y-53199900D01*
X166395100Y-60750000D02*
X161033100Y-55388000D01*
X121461900Y-53199900D02*
X121109300Y-53552500D01*
X160680600Y-53255800D02*
X157964300Y-53255800D01*
X161033100Y-55388000D02*
X161033100Y-53608300D01*
X179045000Y-60750000D02*
X180071700Y-60750000D01*
X179045000Y-59750000D02*
X180071700Y-59750000D01*
X114200000Y-50600000D02*
X114200000Y-51784700D01*
X120237900Y-54526900D02*
X115002700Y-54526900D01*
X157820200Y-53399900D02*
X122160200Y-53399900D01*
X114200000Y-51784700D02*
X114378800Y-51963500D01*
X157964300Y-53255800D02*
X157820200Y-53399900D01*
X121109300Y-53552500D02*
X121109300Y-53655500D01*
X180071700Y-59750000D02*
X180071700Y-60750000D01*
X121960200Y-53199900D02*
X121461900Y-53199900D01*
X161033100Y-53608300D02*
X160680600Y-53255800D01*
X121109300Y-53655500D02*
X120237900Y-54526900D01*
%TO.N,USB_DM*%
X178311300Y-60249900D02*
X178311300Y-60250000D01*
X178018300Y-59456400D02*
X165952300Y-59456400D01*
X179045000Y-60250000D02*
X178311300Y-60250000D01*
X178028600Y-59396700D02*
X178028700Y-59396600D01*
X121766900Y-53857500D02*
X121711000Y-53801600D01*
X178028500Y-59396700D02*
X178028600Y-59396700D01*
X165952300Y-59456400D02*
X163572900Y-57077000D01*
X111131900Y-44936800D02*
X111131900Y-47659400D01*
X111131900Y-47659400D02*
X113370800Y-49898300D01*
X178018300Y-59456400D02*
X178018300Y-60025000D01*
X178018300Y-59250000D02*
X178018300Y-59386500D01*
X178055400Y-59423200D02*
X178055400Y-59437900D01*
X178018300Y-60025000D02*
X178243200Y-60249900D01*
X160431400Y-53857500D02*
X121766900Y-53857500D01*
X178243200Y-60249900D02*
X178311300Y-60249900D01*
X179045000Y-59250000D02*
X178018300Y-59250000D01*
X178018300Y-59386500D02*
X178028500Y-59396700D01*
X178028700Y-59396600D02*
X178028800Y-59396600D01*
X178055400Y-59437900D02*
X178036900Y-59456400D01*
X113370800Y-49898300D02*
X113400000Y-49898300D01*
X113400000Y-50600000D02*
X113400000Y-49898300D01*
X178028800Y-59396600D02*
X178055400Y-59423200D01*
X178036900Y-59456400D02*
X178018300Y-59456400D01*
%TO.N,EN*%
X87235300Y-10900000D02*
X86981700Y-11153600D01*
X109100000Y-45700000D02*
X97066300Y-45700000D01*
X96850000Y-10900000D02*
X87235300Y-10900000D01*
X97382000Y-9610500D02*
X98001700Y-10230200D01*
X97066300Y-45700000D02*
X96384700Y-45018400D01*
X97010000Y-9610500D02*
X97382000Y-9610500D01*
X97425900Y-10900000D02*
X98001700Y-10900000D01*
X97425900Y-10900000D02*
X96850000Y-10900000D01*
X98001700Y-10230200D02*
X98001700Y-10900000D01*
%TO.N,STAT_LED_NODE*%
X96825000Y-18000000D02*
X96020100Y-17195100D01*
X96020100Y-17195100D02*
X93592400Y-17195100D01*
X93592400Y-17195100D02*
X92787500Y-18000000D01*
%TO.N,LED_DIN_RAW*%
X59211300Y-55691100D02*
X108121100Y-55691100D01*
X111164700Y-49573700D02*
X111000000Y-49738400D01*
X58442900Y-54922700D02*
X59211300Y-55691100D01*
X111000000Y-49738400D02*
X111000000Y-50600000D01*
%TO.N,LED_DIN*%
X32915000Y-52550000D02*
X35158100Y-52550000D01*
X36825000Y-54216900D02*
X36825000Y-56000000D01*
X35158100Y-52550000D02*
X36825000Y-54216900D01*
%TO.N,LED_C1*%
X65263300Y-36038800D02*
X65263300Y-35550000D01*
X32306800Y-50798300D02*
X50503800Y-50798300D01*
X50503800Y-50798300D02*
X65263300Y-36038800D01*
X65915000Y-35550000D02*
X65263300Y-35550000D01*
X31736700Y-51368400D02*
X32306800Y-50798300D01*
X31085000Y-51450000D02*
X31736700Y-51450000D01*
X31736700Y-51450000D02*
X31736700Y-51368400D01*
%TO.N,LED_C2*%
X134498900Y-36314400D02*
X124423000Y-36314400D01*
X58847300Y-35038900D02*
X59500100Y-35691700D01*
X121117100Y-33008500D02*
X86075700Y-33008500D01*
X84370400Y-31303200D02*
X61509800Y-31303200D01*
X61509800Y-31303200D02*
X61030000Y-30823400D01*
X124423000Y-36314400D02*
X121117100Y-33008500D01*
X135915000Y-35550000D02*
X135263300Y-35550000D01*
X86075700Y-33008500D02*
X84370400Y-31303200D01*
X61459100Y-35691700D02*
X62700800Y-34450000D01*
X58847300Y-31018900D02*
X58847300Y-35038900D01*
X135263300Y-35550000D02*
X134498900Y-36314400D01*
X61030000Y-30823400D02*
X59042800Y-30823400D01*
X62700800Y-34450000D02*
X64085000Y-34450000D01*
X59500100Y-35691700D02*
X61459100Y-35691700D01*
X59042800Y-30823400D02*
X58847300Y-31018900D01*
%TO.N,LED_C3*%
X168263300Y-51436600D02*
X167625000Y-50798300D01*
X134085000Y-34450000D02*
X134736700Y-34450000D01*
X134736700Y-34581600D02*
X134736700Y-34450000D01*
X168263300Y-52550000D02*
X168263300Y-51436600D01*
X168915000Y-52550000D02*
X168263300Y-52550000D01*
X135000000Y-34844900D02*
X134736700Y-34581600D01*
X137004100Y-50798300D02*
X135854000Y-51948400D01*
X167625000Y-50798300D02*
X137004100Y-50798300D01*
%TO.N,OLED_CS*%
X120900000Y-47300000D02*
X121601700Y-47300000D01*
X124364400Y-47041800D02*
X121859900Y-47041800D01*
X124699000Y-35691600D02*
X116387400Y-27380000D01*
X121859900Y-47041800D02*
X121601700Y-47300000D01*
X116387400Y-27380000D02*
X78000000Y-27380000D01*
%TO.N,OLED_SCK*%
X120198300Y-45700000D02*
X120165400Y-45732900D01*
X78000000Y-37540000D02*
X103304800Y-37540000D01*
X103304800Y-37540000D02*
X108084000Y-42319200D01*
X120165400Y-45732900D02*
X118560000Y-45732900D01*
X120900000Y-45700000D02*
X120198300Y-45700000D01*
%TO.N,OLED_MOSI*%
X117792500Y-42494200D02*
X111603000Y-42494200D01*
X120900000Y-44900000D02*
X120198300Y-44900000D01*
X80076900Y-37076900D02*
X78000000Y-35000000D01*
X105974000Y-37076900D02*
X80076900Y-37076900D01*
X120198300Y-44900000D02*
X117792500Y-42494200D01*
%TO.N,OLED_DC*%
X82070000Y-48974100D02*
X84529100Y-51433200D01*
X84529100Y-51433200D02*
X111668500Y-51433200D01*
X111668500Y-51433200D02*
X111800000Y-51301700D01*
X111800000Y-50600000D02*
X111800000Y-51301700D01*
%TO.N,OLED_RST*%
X120000000Y-50000000D02*
X119800000Y-50200000D01*
X119800000Y-50200000D02*
X119800000Y-50600000D01*
X120913700Y-33656400D02*
X79196400Y-33656400D01*
X79196400Y-33656400D02*
X78000000Y-32460000D01*
%TO.N,SA868_PTT*%
X104580500Y-45018400D02*
X107021900Y-45018400D01*
X118560000Y-47943500D02*
X120041800Y-47943500D01*
X120900000Y-48100000D02*
X120198300Y-48100000D01*
X107021900Y-45018400D02*
X108084000Y-43956300D01*
X120041800Y-47943500D02*
X120198300Y-48100000D01*
%TO.N,SA868_PD*%
X102494700Y-13400200D02*
X88163700Y-13400200D01*
X106058300Y-9836600D02*
X102494700Y-13400200D01*
%TO.N,SA868_TX*%
X92198000Y-48300100D02*
X103974200Y-48300100D01*
X103974200Y-48300100D02*
X105374100Y-49700000D01*
X105374100Y-49700000D02*
X109100000Y-49700000D01*
X107713100Y-15932400D02*
X95788800Y-15932400D01*
X112509900Y-11135600D02*
X107713100Y-15932400D01*
%TO.N,SA868_RX*%
X108663200Y-55382300D02*
X106508200Y-53227300D01*
X120914000Y-55382300D02*
X108663200Y-55382300D01*
X119110000Y-51411700D02*
X119110000Y-51909500D01*
X119000000Y-50600000D02*
X119000000Y-51301700D01*
X119000000Y-51301700D02*
X119110000Y-51411700D01*
X106508200Y-53227300D02*
X84001500Y-53227300D01*
%TO.N,TX_LPF_A*%
X92212900Y-56555800D02*
X91740500Y-57028200D01*
X85959800Y-57028200D02*
X85058000Y-57930000D01*
X91740500Y-57028200D02*
X85959800Y-57028200D01*
X96178300Y-56555800D02*
X92212900Y-56555800D01*
%TO.N,SA868_AUDIO*%
X106274800Y-46500000D02*
X109100000Y-46500000D01*
X109104200Y-57063000D02*
X113634500Y-57063000D01*
X113634500Y-57063000D02*
X113864600Y-57293100D01*
X106151300Y-46623500D02*
X106274800Y-46500000D01*
%TO.N,ANT_OUT*%
X130923200Y-48812500D02*
X168873400Y-48812500D01*
X168873400Y-48812500D02*
X168984700Y-48701200D01*
%TO.N,BTN_UP*%
X91577500Y-47300000D02*
X88046000Y-50831500D01*
X91269600Y-61263400D02*
X90633000Y-61900000D01*
X90633000Y-61900000D02*
X88850000Y-61900000D01*
X109100000Y-47300000D02*
X91577500Y-47300000D01*
%TO.N,BTN_SEL*%
X96274200Y-69900000D02*
X95698300Y-69900000D01*
X93823200Y-70087100D02*
X95511200Y-70087100D01*
X101519600Y-65298300D02*
X104869800Y-65298300D01*
X98001700Y-69900000D02*
X98001700Y-68816200D01*
X95511200Y-70087100D02*
X95698300Y-69900000D01*
X99998000Y-66819900D02*
X101519600Y-65298300D01*
X115800000Y-49787000D02*
X115800000Y-50600000D01*
X96274200Y-69900000D02*
X96850000Y-69900000D01*
X98001700Y-68816200D02*
X99998000Y-66819900D01*
X115313000Y-49300000D02*
X115800000Y-49787000D01*
X104869800Y-65298300D02*
X105910200Y-66338700D01*
X96850000Y-69900000D02*
X98001700Y-69900000D01*
%TO.N,BTN_DN*%
X104850000Y-61900000D02*
X106059000Y-61900000D01*
X116600000Y-50600000D02*
X116600000Y-51301700D01*
X116600000Y-51301700D02*
X116416000Y-51485700D01*
X106059000Y-61900000D02*
X107121100Y-62962100D01*
X116416000Y-51485700D02*
X116416000Y-51773600D01*
%TD*%
%TA.AperFunction,Conductor*%
%TO.N,GND*%
G36*
X100064522Y-648574D02*
G01*
X100069661Y-651875D01*
X112438187Y-9036100D01*
X162070313Y-42680120D01*
X162114759Y-42734029D01*
X162123004Y-42803411D01*
X162092430Y-42866236D01*
X162032743Y-42902558D01*
X161988135Y-42906118D01*
X161923348Y-42899500D01*
X161376662Y-42899500D01*
X161376644Y-42899501D01*
X161277292Y-42909650D01*
X161277289Y-42909651D01*
X161116305Y-42962996D01*
X161116294Y-42963001D01*
X160971959Y-43052029D01*
X160971955Y-43052032D01*
X160852032Y-43171955D01*
X160852029Y-43171959D01*
X160763001Y-43316294D01*
X160762996Y-43316305D01*
X160709651Y-43477290D01*
X160699500Y-43576647D01*
X160699500Y-44423337D01*
X160699501Y-44423355D01*
X160709650Y-44522707D01*
X160709651Y-44522710D01*
X160762996Y-44683694D01*
X160763001Y-44683705D01*
X160852029Y-44828040D01*
X160852032Y-44828044D01*
X160971955Y-44947967D01*
X160971959Y-44947970D01*
X161116294Y-45036998D01*
X161116297Y-45036999D01*
X161116303Y-45037003D01*
X161277292Y-45090349D01*
X161376655Y-45100500D01*
X161849902Y-45100499D01*
X161916941Y-45120183D01*
X161937583Y-45136818D01*
X164801084Y-48000319D01*
X164834569Y-48061642D01*
X164829585Y-48131334D01*
X164787713Y-48187267D01*
X164722249Y-48211684D01*
X164713403Y-48212000D01*
X161158700Y-48212000D01*
X161157133Y-48211539D01*
X161155556Y-48211960D01*
X161123725Y-48201730D01*
X161091661Y-48192315D01*
X161090592Y-48191081D01*
X161089037Y-48190582D01*
X161067780Y-48164755D01*
X161045906Y-48139511D01*
X161045340Y-48137491D01*
X161044636Y-48136635D01*
X161043379Y-48130486D01*
X161035554Y-48102529D01*
X161034700Y-48095290D01*
X161034700Y-48020858D01*
X161013115Y-47912346D01*
X161012542Y-47907485D01*
X161017603Y-47877670D01*
X161020298Y-47847556D01*
X161023391Y-47843573D01*
X161024236Y-47838601D01*
X161044613Y-47816254D01*
X161063161Y-47792379D01*
X161068118Y-47790479D01*
X161071315Y-47786974D01*
X161090819Y-47781780D01*
X161122434Y-47769666D01*
X161132379Y-47768596D01*
X161267086Y-47718354D01*
X161267093Y-47718350D01*
X161382187Y-47632190D01*
X161382190Y-47632187D01*
X161468350Y-47517093D01*
X161468354Y-47517086D01*
X161518596Y-47382379D01*
X161518598Y-47382372D01*
X161524999Y-47322844D01*
X161525000Y-47322827D01*
X161525000Y-47150000D01*
X160949000Y-47150000D01*
X160940314Y-47147449D01*
X160931353Y-47148738D01*
X160907312Y-47137759D01*
X160881961Y-47130315D01*
X160876033Y-47123474D01*
X160867797Y-47119713D01*
X160853507Y-47097478D01*
X160836206Y-47077511D01*
X160833918Y-47066996D01*
X160830023Y-47060935D01*
X160825000Y-47026000D01*
X160825000Y-47000000D01*
X160799000Y-47000000D01*
X160731961Y-46980315D01*
X160686206Y-46927511D01*
X160675000Y-46876000D01*
X160675000Y-46850000D01*
X160975000Y-46850000D01*
X161525000Y-46850000D01*
X161525000Y-46677172D01*
X161524999Y-46677155D01*
X161518598Y-46617627D01*
X161518596Y-46617620D01*
X161468354Y-46482913D01*
X161468350Y-46482906D01*
X161382190Y-46367812D01*
X161382187Y-46367809D01*
X161267093Y-46281649D01*
X161267086Y-46281645D01*
X161132379Y-46231403D01*
X161132372Y-46231401D01*
X161072844Y-46225000D01*
X160975000Y-46225000D01*
X160975000Y-46850000D01*
X160675000Y-46850000D01*
X160675000Y-46225000D01*
X160577155Y-46225000D01*
X160517627Y-46231401D01*
X160517620Y-46231403D01*
X160382913Y-46281645D01*
X160382906Y-46281649D01*
X160267812Y-46367809D01*
X160217494Y-46435025D01*
X160161560Y-46476895D01*
X160091868Y-46481879D01*
X160030545Y-46448393D01*
X160012114Y-46424867D01*
X159930472Y-46289815D01*
X159930470Y-46289813D01*
X159930469Y-46289811D01*
X159810188Y-46169530D01*
X159664606Y-46081522D01*
X159623509Y-46068716D01*
X159502196Y-46030914D01*
X159502194Y-46030913D01*
X159502192Y-46030913D01*
X159452778Y-46026423D01*
X159431616Y-46024500D01*
X158918384Y-46024500D01*
X158899145Y-46026248D01*
X158847807Y-46030913D01*
X158685393Y-46081522D01*
X158539811Y-46169530D01*
X158419530Y-46289811D01*
X158331522Y-46435393D01*
X158280913Y-46597807D01*
X158276849Y-46642539D01*
X158274500Y-46668384D01*
X158274500Y-47331616D01*
X158275535Y-47343000D01*
X158280913Y-47402192D01*
X158280913Y-47402194D01*
X158280914Y-47402196D01*
X158331522Y-47564606D01*
X158397437Y-47673643D01*
X158419530Y-47710188D01*
X158539811Y-47830469D01*
X158539813Y-47830470D01*
X158539815Y-47830472D01*
X158685394Y-47918478D01*
X158847804Y-47969086D01*
X158847807Y-47969086D01*
X158849501Y-47969614D01*
X158907649Y-48008352D01*
X158935623Y-48072377D01*
X158924542Y-48141362D01*
X158877923Y-48193405D01*
X158812611Y-48212000D01*
X131502966Y-48212000D01*
X131435927Y-48192315D01*
X131434075Y-48191102D01*
X131302385Y-48103109D01*
X131302372Y-48103102D01*
X131156701Y-48042764D01*
X131156689Y-48042761D01*
X131002045Y-48012000D01*
X131002042Y-48012000D01*
X130844358Y-48012000D01*
X130844355Y-48012000D01*
X130689710Y-48042761D01*
X130689698Y-48042764D01*
X130544027Y-48103102D01*
X130544014Y-48103109D01*
X130412911Y-48190710D01*
X130412907Y-48190713D01*
X130301413Y-48302207D01*
X130301410Y-48302211D01*
X130213809Y-48433314D01*
X130213802Y-48433327D01*
X130153464Y-48578998D01*
X130153461Y-48579010D01*
X130122700Y-48733653D01*
X130122700Y-48891346D01*
X130153461Y-49045989D01*
X130153464Y-49046001D01*
X130213802Y-49191672D01*
X130213809Y-49191685D01*
X130301410Y-49322788D01*
X130301413Y-49322792D01*
X130412907Y-49434286D01*
X130412911Y-49434289D01*
X130544014Y-49521890D01*
X130544027Y-49521897D01*
X130638895Y-49561192D01*
X130689703Y-49582237D01*
X130819498Y-49608055D01*
X130844353Y-49612999D01*
X130844356Y-49613000D01*
X130844358Y-49613000D01*
X131002044Y-49613000D01*
X131002045Y-49612999D01*
X131156697Y-49582237D01*
X131302379Y-49521894D01*
X131327390Y-49505182D01*
X131434075Y-49433898D01*
X131500753Y-49413020D01*
X131502966Y-49413000D01*
X155857205Y-49413000D01*
X155924244Y-49432685D01*
X155969999Y-49485489D01*
X155979943Y-49554647D01*
X155978822Y-49561192D01*
X155969500Y-49608055D01*
X155969500Y-49765746D01*
X156000261Y-49920389D01*
X156000263Y-49920397D01*
X156044149Y-50026347D01*
X156051618Y-50095817D01*
X156020343Y-50158296D01*
X155960254Y-50193948D01*
X155929588Y-50197800D01*
X137090769Y-50197800D01*
X137090753Y-50197799D01*
X137083157Y-50197799D01*
X136925043Y-50197799D01*
X136810497Y-50228492D01*
X136772314Y-50238723D01*
X136739713Y-50257546D01*
X136739712Y-50257546D01*
X136635387Y-50317777D01*
X136635382Y-50317781D01*
X135839339Y-51113825D01*
X135778016Y-51147310D01*
X135775850Y-51147761D01*
X135620508Y-51178661D01*
X135620498Y-51178664D01*
X135474827Y-51239002D01*
X135474814Y-51239009D01*
X135343711Y-51326610D01*
X135343707Y-51326613D01*
X135232213Y-51438107D01*
X135232210Y-51438111D01*
X135144609Y-51569214D01*
X135144602Y-51569227D01*
X135084264Y-51714898D01*
X135084261Y-51714910D01*
X135053500Y-51869553D01*
X135053500Y-51869558D01*
X135053500Y-52027242D01*
X135056501Y-52042331D01*
X135057929Y-52049507D01*
X135051703Y-52119098D01*
X135008841Y-52174276D01*
X134942951Y-52197522D01*
X134936312Y-52197700D01*
X122476697Y-52197700D01*
X122409658Y-52178015D01*
X122363903Y-52125211D01*
X122353959Y-52056053D01*
X122382984Y-51992497D01*
X122389016Y-51986019D01*
X125996094Y-48378942D01*
X129738217Y-44636819D01*
X129799540Y-44603334D01*
X129825898Y-44600500D01*
X157345887Y-44600500D01*
X157412926Y-44620185D01*
X157458681Y-44672989D01*
X157462295Y-44682192D01*
X157462999Y-44683702D01*
X157552031Y-44828043D01*
X157671955Y-44947967D01*
X157671959Y-44947970D01*
X157816294Y-45036998D01*
X157816297Y-45036999D01*
X157816303Y-45037003D01*
X157977292Y-45090349D01*
X158076655Y-45100500D01*
X158623344Y-45100499D01*
X158623352Y-45100498D01*
X158623355Y-45100498D01*
X158717754Y-45090855D01*
X158722708Y-45090349D01*
X158883697Y-45037003D01*
X159028044Y-44947968D01*
X159147968Y-44828044D01*
X159237003Y-44683697D01*
X159290349Y-44522708D01*
X159300500Y-44423345D01*
X159300499Y-43576656D01*
X159294658Y-43519480D01*
X159290349Y-43477292D01*
X159290348Y-43477289D01*
X159278132Y-43440423D01*
X159237003Y-43316303D01*
X159236999Y-43316297D01*
X159236998Y-43316294D01*
X159147970Y-43171959D01*
X159147967Y-43171955D01*
X159028044Y-43052032D01*
X159028040Y-43052029D01*
X158883705Y-42963001D01*
X158883699Y-42962998D01*
X158883697Y-42962997D01*
X158874653Y-42960000D01*
X158722709Y-42909651D01*
X158623346Y-42899500D01*
X158076662Y-42899500D01*
X158076644Y-42899501D01*
X157977292Y-42909650D01*
X157977289Y-42909651D01*
X157816305Y-42962996D01*
X157816294Y-42963001D01*
X157671959Y-43052029D01*
X157671955Y-43052032D01*
X157552031Y-43171956D01*
X157462999Y-43316297D01*
X157459947Y-43322845D01*
X157458338Y-43322095D01*
X157423816Y-43371953D01*
X157359299Y-43398773D01*
X157345887Y-43399500D01*
X129612470Y-43399500D01*
X129612454Y-43399499D01*
X129604858Y-43399499D01*
X129446743Y-43399499D01*
X129370379Y-43419961D01*
X129294014Y-43440423D01*
X129294009Y-43440426D01*
X129157090Y-43519475D01*
X129157082Y-43519481D01*
X125356854Y-47319709D01*
X125295531Y-47353194D01*
X125225839Y-47348210D01*
X125169906Y-47306338D01*
X125145489Y-47240874D01*
X125147556Y-47207836D01*
X125164900Y-47120644D01*
X125164900Y-46962955D01*
X125164899Y-46962953D01*
X125134137Y-46808303D01*
X125117533Y-46768216D01*
X125073797Y-46662627D01*
X125073790Y-46662614D01*
X124986189Y-46531511D01*
X124986186Y-46531507D01*
X124874692Y-46420013D01*
X124874688Y-46420010D01*
X124743585Y-46332409D01*
X124743572Y-46332402D01*
X124597901Y-46272064D01*
X124597889Y-46272061D01*
X124443245Y-46241300D01*
X124443242Y-46241300D01*
X124285558Y-46241300D01*
X124285555Y-46241300D01*
X124130910Y-46272061D01*
X124130898Y-46272064D01*
X123985227Y-46332402D01*
X123985214Y-46332409D01*
X123853525Y-46420402D01*
X123786847Y-46441280D01*
X123784634Y-46441300D01*
X121946563Y-46441300D01*
X121938959Y-46441299D01*
X121938957Y-46441299D01*
X121924493Y-46441299D01*
X121888633Y-46430767D01*
X121857460Y-46421614D01*
X121857458Y-46421611D01*
X121857455Y-46421611D01*
X121828033Y-46387654D01*
X121811705Y-46368810D01*
X121811704Y-46368807D01*
X121811702Y-46368805D01*
X121811698Y-46368779D01*
X121800499Y-46317299D01*
X121800499Y-46252129D01*
X121800498Y-46252123D01*
X121798271Y-46231403D01*
X121794091Y-46192517D01*
X121794090Y-46192514D01*
X121775747Y-46143334D01*
X121770762Y-46073643D01*
X121775747Y-46056665D01*
X121794089Y-46007488D01*
X121794088Y-46007488D01*
X121794091Y-46007483D01*
X121800500Y-45947873D01*
X121800499Y-45452128D01*
X121794091Y-45392517D01*
X121794090Y-45392514D01*
X121775747Y-45343334D01*
X121770762Y-45273643D01*
X121775747Y-45256665D01*
X121794089Y-45207488D01*
X121794088Y-45207488D01*
X121794091Y-45207483D01*
X121800500Y-45147873D01*
X121800499Y-44652128D01*
X121794091Y-44592517D01*
X121781078Y-44557627D01*
X121775747Y-44543334D01*
X121770762Y-44473643D01*
X121775747Y-44456665D01*
X121794089Y-44407488D01*
X121794088Y-44407488D01*
X121794091Y-44407483D01*
X121800500Y-44347873D01*
X121800499Y-43852128D01*
X121794091Y-43792517D01*
X121785692Y-43769998D01*
X121775747Y-43743334D01*
X121770762Y-43673643D01*
X121775747Y-43656665D01*
X121794089Y-43607488D01*
X121794088Y-43607488D01*
X121794091Y-43607483D01*
X121800500Y-43547873D01*
X121800499Y-43052128D01*
X121794091Y-42992517D01*
X121775747Y-42943334D01*
X121770762Y-42873643D01*
X121775747Y-42856665D01*
X121794089Y-42807488D01*
X121794088Y-42807488D01*
X121794091Y-42807483D01*
X121800500Y-42747873D01*
X121800499Y-42252128D01*
X121794091Y-42192517D01*
X121789807Y-42181031D01*
X121775747Y-42143334D01*
X121770762Y-42073643D01*
X121775747Y-42056665D01*
X121794089Y-42007488D01*
X121794088Y-42007488D01*
X121794091Y-42007483D01*
X121800500Y-41947873D01*
X121800499Y-41452128D01*
X121794091Y-41392517D01*
X121781973Y-41360026D01*
X121775747Y-41343334D01*
X121770762Y-41273643D01*
X121775747Y-41256665D01*
X121783364Y-41236243D01*
X121794091Y-41207483D01*
X121800500Y-41147873D01*
X121800499Y-40352128D01*
X121794091Y-40292517D01*
X121754469Y-40186286D01*
X121743797Y-40157671D01*
X121743793Y-40157664D01*
X121657547Y-40042455D01*
X121657546Y-40042454D01*
X121649685Y-40036569D01*
X121607816Y-39980633D01*
X121600000Y-39937305D01*
X121600000Y-34700000D01*
X108400000Y-34700000D01*
X108400000Y-39937305D01*
X108380315Y-40004344D01*
X108350315Y-40036569D01*
X108342453Y-40042454D01*
X108342452Y-40042455D01*
X108256206Y-40157664D01*
X108256202Y-40157671D01*
X108205908Y-40292517D01*
X108202113Y-40327820D01*
X108199501Y-40352123D01*
X108199500Y-40352135D01*
X108199500Y-41147870D01*
X108199501Y-41147876D01*
X108205908Y-41207483D01*
X108235361Y-41286449D01*
X108240345Y-41356141D01*
X108206860Y-41417464D01*
X108145536Y-41450948D01*
X108075845Y-41445963D01*
X108031498Y-41417463D01*
X104503116Y-37889081D01*
X104469631Y-37827758D01*
X104474615Y-37758066D01*
X104516487Y-37702133D01*
X104581951Y-37677716D01*
X104590797Y-37677400D01*
X105394234Y-37677400D01*
X105461273Y-37697085D01*
X105463125Y-37698298D01*
X105594814Y-37786290D01*
X105594827Y-37786297D01*
X105740498Y-37846635D01*
X105740503Y-37846637D01*
X105895153Y-37877399D01*
X105895156Y-37877400D01*
X105895158Y-37877400D01*
X106052844Y-37877400D01*
X106052845Y-37877399D01*
X106207497Y-37846637D01*
X106353179Y-37786294D01*
X106484289Y-37698689D01*
X106595789Y-37587189D01*
X106683394Y-37456079D01*
X106743737Y-37310397D01*
X106774500Y-37155742D01*
X106774500Y-36998058D01*
X106774500Y-36998055D01*
X106774499Y-36998053D01*
X106757959Y-36914900D01*
X106743737Y-36843403D01*
X106739088Y-36832179D01*
X106683397Y-36697727D01*
X106683390Y-36697714D01*
X106595789Y-36566611D01*
X106595786Y-36566607D01*
X106484292Y-36455113D01*
X106484288Y-36455110D01*
X106353185Y-36367509D01*
X106353172Y-36367502D01*
X106207501Y-36307164D01*
X106207489Y-36307161D01*
X106052845Y-36276400D01*
X106052842Y-36276400D01*
X105895158Y-36276400D01*
X105895155Y-36276400D01*
X105740510Y-36307161D01*
X105740498Y-36307164D01*
X105594827Y-36367502D01*
X105594814Y-36367509D01*
X105463125Y-36455502D01*
X105396447Y-36476380D01*
X105394234Y-36476400D01*
X80376997Y-36476400D01*
X80309958Y-36456715D01*
X80289316Y-36440081D01*
X79333757Y-35484522D01*
X79300272Y-35423199D01*
X79303507Y-35358523D01*
X79317246Y-35316243D01*
X79350500Y-35106287D01*
X79350500Y-34893713D01*
X79317246Y-34683757D01*
X79251557Y-34481588D01*
X79238978Y-34456900D01*
X79228938Y-34437194D01*
X79216042Y-34368525D01*
X79242319Y-34303785D01*
X79299425Y-34263528D01*
X79339423Y-34256900D01*
X120333934Y-34256900D01*
X120352077Y-34262227D01*
X120370987Y-34262565D01*
X120399204Y-34276065D01*
X120400973Y-34276585D01*
X120402825Y-34277798D01*
X120534514Y-34365790D01*
X120534527Y-34365797D01*
X120680198Y-34426135D01*
X120680203Y-34426137D01*
X120718290Y-34433713D01*
X120810221Y-34452000D01*
X120810224Y-34452000D01*
X120834858Y-34456900D01*
X120992542Y-34456900D01*
X121017176Y-34452000D01*
X121017179Y-34452000D01*
X121091610Y-34437194D01*
X121147197Y-34426137D01*
X121292879Y-34365794D01*
X121407454Y-34289236D01*
X121474129Y-34268360D01*
X121541509Y-34286844D01*
X121564023Y-34304658D01*
X124054284Y-36794920D01*
X124054286Y-36794921D01*
X124054290Y-36794924D01*
X124191209Y-36873973D01*
X124191212Y-36873975D01*
X124191216Y-36873977D01*
X124343943Y-36914901D01*
X124343945Y-36914901D01*
X124509654Y-36914901D01*
X124509670Y-36914900D01*
X134412231Y-36914900D01*
X134412247Y-36914901D01*
X134419843Y-36914901D01*
X134577954Y-36914901D01*
X134577957Y-36914901D01*
X134730685Y-36873977D01*
X134803072Y-36832184D01*
X134867616Y-36794920D01*
X134979420Y-36683116D01*
X134979420Y-36683114D01*
X134989624Y-36672911D01*
X134989628Y-36672906D01*
X135232318Y-36430215D01*
X135293639Y-36396732D01*
X135363331Y-36401716D01*
X135419264Y-36443588D01*
X135443681Y-36509052D01*
X135441614Y-36542089D01*
X135423500Y-36633152D01*
X135423500Y-36790846D01*
X135454261Y-36945489D01*
X135454264Y-36945501D01*
X135514602Y-37091172D01*
X135514609Y-37091185D01*
X135602210Y-37222288D01*
X135602213Y-37222292D01*
X135713707Y-37333786D01*
X135713711Y-37333789D01*
X135844814Y-37421390D01*
X135844827Y-37421397D01*
X135990498Y-37481735D01*
X135990503Y-37481737D01*
X136145153Y-37512499D01*
X136145156Y-37512500D01*
X136145158Y-37512500D01*
X136302844Y-37512500D01*
X136302845Y-37512499D01*
X136457497Y-37481737D01*
X136603179Y-37421394D01*
X136734289Y-37333789D01*
X136845789Y-37222289D01*
X136933394Y-37091179D01*
X136993737Y-36945497D01*
X137024500Y-36790842D01*
X137025094Y-36787857D01*
X137026474Y-36784221D01*
X137026386Y-36782085D01*
X137030625Y-36773293D01*
X137039701Y-36749399D01*
X137045157Y-36740078D01*
X137047220Y-36738016D01*
X137107759Y-36633158D01*
X137126277Y-36601085D01*
X137167201Y-36448357D01*
X137167201Y-36290243D01*
X137167201Y-36282648D01*
X137167200Y-36282630D01*
X137167200Y-34370945D01*
X137167200Y-34370943D01*
X137126277Y-34218216D01*
X137126273Y-34218209D01*
X137047224Y-34081290D01*
X137047218Y-34081282D01*
X136935417Y-33969481D01*
X136935409Y-33969475D01*
X136798490Y-33890426D01*
X136798486Y-33890424D01*
X136798484Y-33890423D01*
X136798482Y-33890422D01*
X136798479Y-33890421D01*
X136758416Y-33879686D01*
X136698756Y-33843321D01*
X136691245Y-33834223D01*
X136622547Y-33742455D01*
X136622544Y-33742452D01*
X136507335Y-33656206D01*
X136507328Y-33656202D01*
X136372482Y-33605908D01*
X136372483Y-33605908D01*
X136312883Y-33599501D01*
X136312881Y-33599500D01*
X136312873Y-33599500D01*
X136312864Y-33599500D01*
X135517129Y-33599500D01*
X135517123Y-33599501D01*
X135457516Y-33605908D01*
X135322671Y-33656202D01*
X135322664Y-33656206D01*
X135207455Y-33742452D01*
X135123950Y-33853999D01*
X135068016Y-33895869D01*
X134998324Y-33900853D01*
X134988168Y-33898188D01*
X134974796Y-33894067D01*
X134968484Y-33890423D01*
X134926207Y-33879094D01*
X134923995Y-33878413D01*
X134896709Y-33860359D01*
X134868756Y-33843321D01*
X134866106Y-33840111D01*
X134865725Y-33839859D01*
X134865527Y-33839409D01*
X134861245Y-33834223D01*
X134792547Y-33742455D01*
X134792544Y-33742452D01*
X134677335Y-33656206D01*
X134677328Y-33656202D01*
X134542482Y-33605908D01*
X134542483Y-33605908D01*
X134482883Y-33599501D01*
X134482881Y-33599500D01*
X134482873Y-33599500D01*
X134482864Y-33599500D01*
X133687129Y-33599500D01*
X133687123Y-33599501D01*
X133627516Y-33605908D01*
X133492671Y-33656202D01*
X133492664Y-33656206D01*
X133377455Y-33742452D01*
X133377452Y-33742455D01*
X133291206Y-33857664D01*
X133291202Y-33857671D01*
X133240908Y-33992517D01*
X133234501Y-34052116D01*
X133234500Y-34052135D01*
X133234500Y-34847870D01*
X133234501Y-34847876D01*
X133240908Y-34907483D01*
X133291202Y-35042328D01*
X133291206Y-35042335D01*
X133377451Y-35157543D01*
X133377452Y-35157544D01*
X133377454Y-35157546D01*
X133385312Y-35163428D01*
X133427182Y-35219361D01*
X133435000Y-35262694D01*
X133435000Y-35400000D01*
X133961000Y-35400000D01*
X133969685Y-35402550D01*
X133978647Y-35401262D01*
X134002687Y-35412240D01*
X134028039Y-35419685D01*
X134033966Y-35426525D01*
X134042203Y-35430287D01*
X134056492Y-35452521D01*
X134073794Y-35472489D01*
X134076081Y-35483003D01*
X134079977Y-35489065D01*
X134085000Y-35524000D01*
X134085000Y-35576000D01*
X134065315Y-35643039D01*
X134012511Y-35688794D01*
X133961000Y-35700000D01*
X133416363Y-35700000D01*
X133396097Y-35711066D01*
X133369739Y-35713900D01*
X125621383Y-35713900D01*
X125554344Y-35694215D01*
X125508589Y-35641411D01*
X125499766Y-35614092D01*
X125468738Y-35458108D01*
X125468737Y-35458107D01*
X125468737Y-35458103D01*
X125455657Y-35426525D01*
X125408397Y-35312427D01*
X125408390Y-35312414D01*
X125320789Y-35181311D01*
X125320786Y-35181307D01*
X125209292Y-35069813D01*
X125209288Y-35069810D01*
X125078185Y-34982209D01*
X125078172Y-34982202D01*
X124932501Y-34921864D01*
X124932491Y-34921861D01*
X124777149Y-34890961D01*
X124715238Y-34858576D01*
X124713660Y-34857025D01*
X116874990Y-27018355D01*
X116874988Y-27018352D01*
X116756117Y-26899481D01*
X116756116Y-26899480D01*
X116669304Y-26849360D01*
X116669304Y-26849359D01*
X116669300Y-26849358D01*
X116619185Y-26820423D01*
X116466457Y-26779499D01*
X116308343Y-26779499D01*
X116300747Y-26779499D01*
X116300731Y-26779500D01*
X79285719Y-26779500D01*
X79218680Y-26759815D01*
X79175235Y-26711795D01*
X79155052Y-26672185D01*
X79155051Y-26672184D01*
X79030109Y-26500213D01*
X78879786Y-26349890D01*
X78707820Y-26224951D01*
X78518414Y-26128444D01*
X78518413Y-26128443D01*
X78518412Y-26128443D01*
X78316243Y-26062754D01*
X78316241Y-26062753D01*
X78316240Y-26062753D01*
X78154957Y-26037208D01*
X78106287Y-26029500D01*
X77893713Y-26029500D01*
X77845042Y-26037208D01*
X77683760Y-26062753D01*
X77481585Y-26128444D01*
X77292179Y-26224951D01*
X77120213Y-26349890D01*
X76969890Y-26500213D01*
X76844951Y-26672179D01*
X76748444Y-26861585D01*
X76682753Y-27063760D01*
X76649500Y-27273713D01*
X76649500Y-27486286D01*
X76682753Y-27696239D01*
X76748444Y-27898414D01*
X76844951Y-28087820D01*
X76969890Y-28259786D01*
X77120213Y-28410109D01*
X77292182Y-28535050D01*
X77300946Y-28539516D01*
X77351742Y-28587491D01*
X77368536Y-28655312D01*
X77345998Y-28721447D01*
X77300946Y-28760484D01*
X77292182Y-28764949D01*
X77120213Y-28889890D01*
X76969890Y-29040213D01*
X76844951Y-29212179D01*
X76748444Y-29401585D01*
X76682753Y-29603760D01*
X76649500Y-29813713D01*
X76649500Y-30026286D01*
X76680640Y-30222900D01*
X76682754Y-30236243D01*
X76722155Y-30357507D01*
X76748445Y-30438417D01*
X76791239Y-30522406D01*
X76804135Y-30591075D01*
X76777858Y-30655815D01*
X76720752Y-30696072D01*
X76680754Y-30702700D01*
X61809898Y-30702700D01*
X61742859Y-30683015D01*
X61722217Y-30666381D01*
X61398717Y-30342881D01*
X61398709Y-30342875D01*
X61309438Y-30291335D01*
X61309437Y-30291335D01*
X61261785Y-30263823D01*
X61109057Y-30222899D01*
X60950943Y-30222899D01*
X60943347Y-30222899D01*
X60943331Y-30222900D01*
X59129470Y-30222900D01*
X59129454Y-30222899D01*
X59121858Y-30222899D01*
X58963743Y-30222899D01*
X58913959Y-30236239D01*
X58811014Y-30263823D01*
X58811009Y-30263826D01*
X58674090Y-30342875D01*
X58674082Y-30342881D01*
X58366781Y-30650182D01*
X58366779Y-30650185D01*
X58316661Y-30736994D01*
X58316659Y-30736996D01*
X58287725Y-30787109D01*
X58287724Y-30787110D01*
X58278193Y-30822680D01*
X58246799Y-30939843D01*
X58246799Y-30939845D01*
X58246799Y-31107946D01*
X58246800Y-31107959D01*
X58246800Y-34952230D01*
X58246799Y-34952248D01*
X58246799Y-35117954D01*
X58246798Y-35117954D01*
X58287722Y-35270683D01*
X58304937Y-35300501D01*
X58366775Y-35407609D01*
X58366781Y-35407617D01*
X58485649Y-35526485D01*
X58485655Y-35526490D01*
X58976952Y-36017787D01*
X59010437Y-36079110D01*
X59005453Y-36148802D01*
X58976961Y-36193141D01*
X58969897Y-36200206D01*
X58969892Y-36200211D01*
X58844951Y-36372179D01*
X58748444Y-36561585D01*
X58682753Y-36763760D01*
X58658815Y-36914900D01*
X58649500Y-36973713D01*
X58649500Y-37186287D01*
X58682754Y-37396243D01*
X58744797Y-37587192D01*
X58748444Y-37598414D01*
X58844951Y-37787820D01*
X58969890Y-37959786D01*
X59120213Y-38110109D01*
X59292182Y-38235050D01*
X59300946Y-38239516D01*
X59351742Y-38287491D01*
X59368536Y-38355312D01*
X59345998Y-38421447D01*
X59300946Y-38460484D01*
X59292182Y-38464949D01*
X59120213Y-38589890D01*
X58969890Y-38740213D01*
X58844951Y-38912179D01*
X58748444Y-39101585D01*
X58682753Y-39303760D01*
X58671917Y-39372179D01*
X58649500Y-39513713D01*
X58649500Y-39726287D01*
X58682754Y-39936243D01*
X58717264Y-40042454D01*
X58748444Y-40138414D01*
X58844951Y-40327820D01*
X58969890Y-40499786D01*
X59120213Y-40650109D01*
X59281134Y-40767023D01*
X59292184Y-40775051D01*
X59368063Y-40813713D01*
X59395578Y-40827733D01*
X59446374Y-40875708D01*
X59463169Y-40943529D01*
X59440631Y-41009664D01*
X59426964Y-41025899D01*
X50291384Y-50161481D01*
X50230061Y-50194966D01*
X50203703Y-50197800D01*
X32227743Y-50197800D01*
X32075013Y-50238723D01*
X32042413Y-50257546D01*
X32042412Y-50257546D01*
X31938087Y-50317777D01*
X31938082Y-50317781D01*
X31826280Y-50429583D01*
X31826280Y-50429584D01*
X31826278Y-50429586D01*
X31679161Y-50576703D01*
X31677109Y-50578755D01*
X31615786Y-50612239D01*
X31550070Y-50607541D01*
X31550035Y-50607693D01*
X31549100Y-50607472D01*
X31546104Y-50607258D01*
X31546096Y-50607255D01*
X31546094Y-50607255D01*
X31546092Y-50607253D01*
X31542489Y-50605910D01*
X31542483Y-50605908D01*
X31482883Y-50599501D01*
X31482881Y-50599500D01*
X31482873Y-50599500D01*
X31482864Y-50599500D01*
X30687129Y-50599500D01*
X30687123Y-50599501D01*
X30627516Y-50605908D01*
X30492671Y-50656202D01*
X30492664Y-50656206D01*
X30377455Y-50742452D01*
X30377452Y-50742455D01*
X30291206Y-50857664D01*
X30291202Y-50857671D01*
X30240908Y-50992517D01*
X30234501Y-51052116D01*
X30234500Y-51052135D01*
X30234500Y-51847870D01*
X30234501Y-51847876D01*
X30240908Y-51907483D01*
X30291202Y-52042328D01*
X30291206Y-52042335D01*
X30377451Y-52157543D01*
X30377452Y-52157544D01*
X30377454Y-52157546D01*
X30385312Y-52163428D01*
X30427182Y-52219361D01*
X30435000Y-52262694D01*
X30435000Y-52400000D01*
X30961000Y-52400000D01*
X30969685Y-52402550D01*
X30978647Y-52401262D01*
X31002687Y-52412240D01*
X31028039Y-52419685D01*
X31033966Y-52426525D01*
X31042203Y-52430287D01*
X31056492Y-52452521D01*
X31073794Y-52472489D01*
X31076081Y-52483003D01*
X31079977Y-52489065D01*
X31085000Y-52524000D01*
X31085000Y-52550000D01*
X31111000Y-52550000D01*
X31178039Y-52569685D01*
X31223794Y-52622489D01*
X31235000Y-52674000D01*
X31235000Y-53199999D01*
X31479786Y-53199999D01*
X31479808Y-53199997D01*
X31504868Y-53197091D01*
X31506237Y-53196719D01*
X31507809Y-53196750D01*
X31514141Y-53196016D01*
X31514240Y-53196878D01*
X31576093Y-53198108D01*
X31634108Y-53237044D01*
X31661863Y-53301164D01*
X31662799Y-53316367D01*
X31662799Y-53391354D01*
X31662798Y-53391354D01*
X31677793Y-53447316D01*
X31703723Y-53544085D01*
X31719448Y-53571321D01*
X31722403Y-53576438D01*
X31722404Y-53576442D01*
X31782775Y-53681009D01*
X31782781Y-53681017D01*
X31901649Y-53799885D01*
X31901655Y-53799890D01*
X32096225Y-53994460D01*
X32129710Y-54055783D01*
X32130161Y-54057949D01*
X32161061Y-54213291D01*
X32161064Y-54213301D01*
X32221402Y-54358972D01*
X32221409Y-54358985D01*
X32309010Y-54490088D01*
X32309013Y-54490092D01*
X32420507Y-54601586D01*
X32420511Y-54601589D01*
X32551614Y-54689190D01*
X32551627Y-54689197D01*
X32694662Y-54748443D01*
X32697303Y-54749537D01*
X32828757Y-54775685D01*
X32851953Y-54780299D01*
X32851956Y-54780300D01*
X32851958Y-54780300D01*
X33009644Y-54780300D01*
X33009645Y-54780299D01*
X33164297Y-54749537D01*
X33281153Y-54701134D01*
X33309972Y-54689197D01*
X33309972Y-54689196D01*
X33309979Y-54689194D01*
X33320349Y-54682265D01*
X33387025Y-54661384D01*
X33454406Y-54679866D01*
X33501099Y-54731843D01*
X33512278Y-54800812D01*
X33511718Y-54804761D01*
X33499500Y-54881907D01*
X33499500Y-55118097D01*
X33536446Y-55351368D01*
X33609433Y-55575996D01*
X33701009Y-55755723D01*
X33716657Y-55786433D01*
X33855483Y-55977510D01*
X34022490Y-56144517D01*
X34116732Y-56212988D01*
X34213571Y-56283346D01*
X34217724Y-56285891D01*
X34216897Y-56287239D01*
X34262643Y-56330428D01*
X34279054Y-56381731D01*
X34280914Y-56402196D01*
X34331522Y-56564606D01*
X34399577Y-56677183D01*
X34419530Y-56710188D01*
X34539811Y-56830469D01*
X34539813Y-56830470D01*
X34539815Y-56830472D01*
X34685394Y-56918478D01*
X34847804Y-56969086D01*
X34918384Y-56975500D01*
X34918387Y-56975500D01*
X35431613Y-56975500D01*
X35431616Y-56975500D01*
X35502196Y-56969086D01*
X35664606Y-56918478D01*
X35810185Y-56830472D01*
X35858369Y-56782288D01*
X35912319Y-56728339D01*
X35973642Y-56694854D01*
X36043334Y-56699838D01*
X36087681Y-56728339D01*
X36189811Y-56830469D01*
X36189813Y-56830470D01*
X36189815Y-56830472D01*
X36335394Y-56918478D01*
X36497804Y-56969086D01*
X36568384Y-56975500D01*
X36568387Y-56975500D01*
X37081613Y-56975500D01*
X37081616Y-56975500D01*
X37152196Y-56969086D01*
X37314606Y-56918478D01*
X37460185Y-56830472D01*
X37580472Y-56710185D01*
X37668478Y-56564606D01*
X37719086Y-56402196D01*
X37725500Y-56331616D01*
X37725500Y-55668384D01*
X37719086Y-55597804D01*
X37668478Y-55435394D01*
X37580472Y-55289815D01*
X37580470Y-55289813D01*
X37580469Y-55289811D01*
X37461819Y-55171161D01*
X37428334Y-55109838D01*
X37425500Y-55083480D01*
X37425500Y-54305960D01*
X37425501Y-54305947D01*
X37425501Y-54137844D01*
X37425150Y-54136534D01*
X37384577Y-53985116D01*
X37363755Y-53949051D01*
X37305524Y-53848190D01*
X37305518Y-53848182D01*
X35645690Y-52188355D01*
X35645688Y-52188352D01*
X35526817Y-52069481D01*
X35526816Y-52069480D01*
X35423060Y-52009577D01*
X35423059Y-52009576D01*
X35389883Y-51990422D01*
X35328158Y-51973883D01*
X35237157Y-51949499D01*
X35079043Y-51949499D01*
X35071447Y-51949499D01*
X35071431Y-51949500D01*
X33889500Y-51949500D01*
X33822461Y-51929815D01*
X33776706Y-51877011D01*
X33765500Y-51825500D01*
X33765500Y-51675996D01*
X33765499Y-51522799D01*
X33785183Y-51455761D01*
X33837987Y-51410006D01*
X33889499Y-51398800D01*
X50417131Y-51398800D01*
X50417147Y-51398801D01*
X50424743Y-51398801D01*
X50582854Y-51398801D01*
X50582857Y-51398801D01*
X50735585Y-51357877D01*
X50796168Y-51322899D01*
X50872516Y-51278820D01*
X50984320Y-51167016D01*
X50984320Y-51167014D01*
X50994524Y-51156811D01*
X50994528Y-51156806D01*
X65632013Y-36519321D01*
X65632016Y-36519320D01*
X65714521Y-36436814D01*
X65775843Y-36403332D01*
X65775847Y-36403332D01*
X65802199Y-36400499D01*
X66312871Y-36400499D01*
X66312872Y-36400499D01*
X66372483Y-36394091D01*
X66507331Y-36343796D01*
X66622546Y-36257546D01*
X66708796Y-36142331D01*
X66759091Y-36007483D01*
X66765500Y-35947873D01*
X66765499Y-35174499D01*
X66785183Y-35107461D01*
X66837987Y-35061706D01*
X66889499Y-35050500D01*
X72069903Y-35050500D01*
X72136942Y-35070185D01*
X72157584Y-35086819D01*
X76666241Y-39595476D01*
X76699726Y-39656799D01*
X76696492Y-39721473D01*
X76682753Y-39763757D01*
X76649500Y-39973713D01*
X76649500Y-40186286D01*
X76682753Y-40396239D01*
X76682753Y-40396241D01*
X76682754Y-40396243D01*
X76737431Y-40564522D01*
X76748444Y-40598414D01*
X76844951Y-40787820D01*
X76969890Y-40959786D01*
X77120213Y-41110109D01*
X77292180Y-41235049D01*
X77293087Y-41235511D01*
X77293370Y-41235778D01*
X77296336Y-41237596D01*
X77295954Y-41238218D01*
X77343887Y-41283481D01*
X77360688Y-41351300D01*
X77338155Y-41417437D01*
X77283444Y-41460893D01*
X77236802Y-41470000D01*
X77105214Y-41470000D01*
X77105191Y-41470002D01*
X77080130Y-41472908D01*
X77080126Y-41472909D01*
X76977525Y-41518211D01*
X76977520Y-41518214D01*
X76898214Y-41597520D01*
X76898211Y-41597525D01*
X76852910Y-41700122D01*
X76852910Y-41700124D01*
X76850000Y-41725205D01*
X76850000Y-42470000D01*
X77522555Y-42470000D01*
X77500000Y-42554174D01*
X77500000Y-42685826D01*
X77522555Y-42770000D01*
X76850001Y-42770000D01*
X76850001Y-43514785D01*
X76850002Y-43514808D01*
X76852908Y-43539869D01*
X76852909Y-43539873D01*
X76898211Y-43642474D01*
X76898214Y-43642479D01*
X76977520Y-43721785D01*
X76977525Y-43721788D01*
X77080123Y-43767089D01*
X77105206Y-43769999D01*
X77849999Y-43769999D01*
X77850000Y-43769998D01*
X77850000Y-43097445D01*
X77934174Y-43120000D01*
X78065826Y-43120000D01*
X78150000Y-43097445D01*
X78150000Y-43769999D01*
X78894786Y-43769999D01*
X78894808Y-43769997D01*
X78919869Y-43767091D01*
X78919873Y-43767090D01*
X79022474Y-43721788D01*
X79022479Y-43721785D01*
X79101785Y-43642479D01*
X79101788Y-43642474D01*
X79147089Y-43539877D01*
X79147089Y-43539875D01*
X79149999Y-43514794D01*
X79150000Y-43514791D01*
X79150000Y-42770000D01*
X78477445Y-42770000D01*
X78500000Y-42685826D01*
X78500000Y-42554174D01*
X78477445Y-42470000D01*
X79149999Y-42470000D01*
X79149999Y-42378596D01*
X79169684Y-42311557D01*
X79222488Y-42265802D01*
X79291646Y-42255858D01*
X79355202Y-42284883D01*
X79361680Y-42290915D01*
X80871539Y-43800774D01*
X80871549Y-43800785D01*
X80875879Y-43805115D01*
X80875880Y-43805116D01*
X80987684Y-43916920D01*
X80987686Y-43916921D01*
X80987690Y-43916924D01*
X81084799Y-43972989D01*
X81124616Y-43995977D01*
X81236419Y-44025934D01*
X81277342Y-44036900D01*
X81277343Y-44036900D01*
X96039053Y-44036900D01*
X96106092Y-44056585D01*
X96151847Y-44109389D01*
X96161791Y-44178547D01*
X96132766Y-44242103D01*
X96086505Y-44275461D01*
X96005527Y-44309002D01*
X96005514Y-44309009D01*
X95874411Y-44396610D01*
X95874407Y-44396613D01*
X95762913Y-44508107D01*
X95762910Y-44508111D01*
X95675309Y-44639214D01*
X95675302Y-44639227D01*
X95614964Y-44784898D01*
X95614961Y-44784910D01*
X95584200Y-44939553D01*
X95584200Y-45097246D01*
X95614961Y-45251889D01*
X95614964Y-45251901D01*
X95675302Y-45397572D01*
X95675309Y-45397585D01*
X95762910Y-45528688D01*
X95762913Y-45528692D01*
X95874407Y-45640186D01*
X95874411Y-45640189D01*
X96005514Y-45727790D01*
X96005527Y-45727797D01*
X96151198Y-45788135D01*
X96151203Y-45788137D01*
X96215847Y-45800995D01*
X96306549Y-45819038D01*
X96368460Y-45851423D01*
X96370039Y-45852974D01*
X96581439Y-46064374D01*
X96581449Y-46064385D01*
X96585779Y-46068715D01*
X96585780Y-46068716D01*
X96697584Y-46180520D01*
X96774628Y-46225000D01*
X96784395Y-46230639D01*
X96784397Y-46230641D01*
X96821605Y-46252123D01*
X96834515Y-46259577D01*
X96987243Y-46300501D01*
X96987246Y-46300501D01*
X97152953Y-46300501D01*
X97152969Y-46300500D01*
X105248272Y-46300500D01*
X105265287Y-46305496D01*
X105283023Y-46305469D01*
X105298116Y-46315136D01*
X105315311Y-46320185D01*
X105326922Y-46333585D01*
X105341859Y-46343152D01*
X105349330Y-46359445D01*
X105361066Y-46372989D01*
X105363610Y-46390586D01*
X105370982Y-46406663D01*
X105370212Y-46436253D01*
X105371037Y-46441957D01*
X105370556Y-46445335D01*
X105350800Y-46544658D01*
X105350800Y-46584271D01*
X105349565Y-46592957D01*
X105338584Y-46617099D01*
X105331115Y-46642539D01*
X105324348Y-46648402D01*
X105320639Y-46656558D01*
X105298346Y-46670933D01*
X105278311Y-46688294D01*
X105267917Y-46690555D01*
X105261919Y-46694423D01*
X105250053Y-46694441D01*
X105226800Y-46699500D01*
X94617155Y-46699500D01*
X94550116Y-46679815D01*
X94504361Y-46627011D01*
X94494417Y-46557853D01*
X94502594Y-46528047D01*
X94506585Y-46518412D01*
X94531237Y-46458897D01*
X94562000Y-46304242D01*
X94562000Y-46146558D01*
X94562000Y-46146555D01*
X94561999Y-46146553D01*
X94561359Y-46143334D01*
X94531237Y-45991903D01*
X94531235Y-45991898D01*
X94470897Y-45846227D01*
X94470890Y-45846214D01*
X94383289Y-45715111D01*
X94383286Y-45715107D01*
X94271792Y-45603613D01*
X94271788Y-45603610D01*
X94140685Y-45516009D01*
X94140672Y-45516002D01*
X93995001Y-45455664D01*
X93994989Y-45455661D01*
X93840345Y-45424900D01*
X93840342Y-45424900D01*
X93726279Y-45424900D01*
X93694185Y-45420675D01*
X93615157Y-45399499D01*
X93457043Y-45399499D01*
X93449447Y-45399499D01*
X93449431Y-45399500D01*
X73285719Y-45399500D01*
X73218680Y-45379815D01*
X73175235Y-45331795D01*
X73155052Y-45292185D01*
X73155051Y-45292184D01*
X73030109Y-45120213D01*
X72879786Y-44969890D01*
X72707820Y-44844951D01*
X72518414Y-44748444D01*
X72518413Y-44748443D01*
X72518412Y-44748443D01*
X72489246Y-44738966D01*
X72431571Y-44699529D01*
X72404373Y-44635171D01*
X72416288Y-44566324D01*
X72463532Y-44514849D01*
X72471270Y-44510551D01*
X72602730Y-44443568D01*
X72700442Y-44372574D01*
X72700443Y-44372574D01*
X72231539Y-43903670D01*
X72307007Y-43860099D01*
X72400099Y-43767007D01*
X72443670Y-43691538D01*
X72912574Y-44160443D01*
X72912574Y-44160442D01*
X72983568Y-44062730D01*
X73065747Y-43901447D01*
X73065748Y-43901444D01*
X73121682Y-43729293D01*
X73150000Y-43550506D01*
X73150000Y-43369493D01*
X73121682Y-43190706D01*
X73065748Y-43018555D01*
X73065747Y-43018552D01*
X72983567Y-42857268D01*
X72935801Y-42791524D01*
X72912574Y-42759556D01*
X72912574Y-42759555D01*
X72443670Y-43228460D01*
X72400099Y-43152993D01*
X72307007Y-43059901D01*
X72231539Y-43016329D01*
X72700443Y-42547425D01*
X72700442Y-42547424D01*
X72602729Y-42476430D01*
X72471269Y-42409447D01*
X72420474Y-42361473D01*
X72403679Y-42293651D01*
X72426217Y-42227517D01*
X72480932Y-42184066D01*
X72489216Y-42181043D01*
X72518412Y-42171557D01*
X72707816Y-42075051D01*
X72742414Y-42049914D01*
X72879786Y-41950109D01*
X72879788Y-41950106D01*
X72879792Y-41950104D01*
X73030104Y-41799792D01*
X73030106Y-41799788D01*
X73030109Y-41799786D01*
X73155048Y-41627820D01*
X73155047Y-41627820D01*
X73155051Y-41627816D01*
X73251557Y-41438412D01*
X73317246Y-41236243D01*
X73350500Y-41026287D01*
X73350500Y-40813713D01*
X73317246Y-40603757D01*
X73251557Y-40401588D01*
X73155051Y-40212184D01*
X73155049Y-40212181D01*
X73155048Y-40212179D01*
X73030109Y-40040213D01*
X72879786Y-39889890D01*
X72707820Y-39764951D01*
X72518414Y-39668444D01*
X72518413Y-39668443D01*
X72518412Y-39668443D01*
X72316243Y-39602754D01*
X72316241Y-39602753D01*
X72316240Y-39602753D01*
X72154957Y-39577208D01*
X72106287Y-39569500D01*
X71893713Y-39569500D01*
X71845042Y-39577208D01*
X71683760Y-39602753D01*
X71481585Y-39668444D01*
X71292179Y-39764951D01*
X71120213Y-39889890D01*
X70969890Y-40040213D01*
X70844951Y-40212179D01*
X70748444Y-40401585D01*
X70682753Y-40603760D01*
X70649500Y-40813713D01*
X70649500Y-41026286D01*
X70678199Y-41207488D01*
X70682754Y-41236243D01*
X70745872Y-41430500D01*
X70748444Y-41438414D01*
X70844951Y-41627820D01*
X70969890Y-41799786D01*
X71120213Y-41950109D01*
X71292179Y-42075048D01*
X71292181Y-42075049D01*
X71292184Y-42075051D01*
X71481588Y-42171557D01*
X71510753Y-42181033D01*
X71568426Y-42220468D01*
X71595625Y-42284826D01*
X71583712Y-42353673D01*
X71536469Y-42405149D01*
X71528730Y-42409447D01*
X71397267Y-42476432D01*
X71299556Y-42547423D01*
X71299556Y-42547425D01*
X71768461Y-43016329D01*
X71692993Y-43059901D01*
X71599901Y-43152993D01*
X71556329Y-43228460D01*
X71087425Y-42759556D01*
X71087423Y-42759556D01*
X71016434Y-42857265D01*
X70934252Y-43018552D01*
X70934251Y-43018555D01*
X70878317Y-43190706D01*
X70850000Y-43369493D01*
X70850000Y-43550506D01*
X70878317Y-43729293D01*
X70934251Y-43901444D01*
X70934252Y-43901447D01*
X71016432Y-44062731D01*
X71087424Y-44160442D01*
X71087425Y-44160443D01*
X71556329Y-43691538D01*
X71599901Y-43767007D01*
X71692993Y-43860099D01*
X71768460Y-43903670D01*
X71299555Y-44372574D01*
X71397268Y-44443567D01*
X71528729Y-44510551D01*
X71579525Y-44558526D01*
X71596320Y-44626347D01*
X71573782Y-44692482D01*
X71519067Y-44735933D01*
X71510761Y-44738964D01*
X71500716Y-44742227D01*
X71481583Y-44748444D01*
X71292179Y-44844951D01*
X71120213Y-44969890D01*
X70969890Y-45120213D01*
X70844951Y-45292179D01*
X70748444Y-45481585D01*
X70682753Y-45683760D01*
X70649500Y-45893713D01*
X70649500Y-46106286D01*
X70682578Y-46315136D01*
X70682754Y-46316243D01*
X70743317Y-46502637D01*
X70748444Y-46518414D01*
X70844951Y-46707820D01*
X70969890Y-46879786D01*
X71120213Y-47030109D01*
X71292179Y-47155048D01*
X71292181Y-47155049D01*
X71292184Y-47155051D01*
X71481588Y-47251557D01*
X71510753Y-47261033D01*
X71568426Y-47300468D01*
X71595625Y-47364826D01*
X71583712Y-47433673D01*
X71536469Y-47485149D01*
X71528730Y-47489447D01*
X71397267Y-47556432D01*
X71299556Y-47627423D01*
X71299556Y-47627425D01*
X71768461Y-48096329D01*
X71692993Y-48139901D01*
X71599901Y-48232993D01*
X71556329Y-48308460D01*
X71087425Y-47839556D01*
X71087423Y-47839556D01*
X71016434Y-47937265D01*
X70934252Y-48098552D01*
X70934251Y-48098555D01*
X70878317Y-48270706D01*
X70850000Y-48449493D01*
X70850000Y-48630506D01*
X70878317Y-48809293D01*
X70934251Y-48981444D01*
X70934252Y-48981447D01*
X71016432Y-49142731D01*
X71087424Y-49240442D01*
X71087425Y-49240443D01*
X71556329Y-48771538D01*
X71599901Y-48847007D01*
X71692993Y-48940099D01*
X71768460Y-48983670D01*
X71299555Y-49452574D01*
X71299556Y-49452575D01*
X71371963Y-49505182D01*
X71414629Y-49560512D01*
X71420608Y-49630125D01*
X71388002Y-49691920D01*
X71327164Y-49726277D01*
X71299079Y-49729500D01*
X71102130Y-49729500D01*
X71102123Y-49729501D01*
X71042516Y-49735908D01*
X70907671Y-49786202D01*
X70907664Y-49786206D01*
X70792455Y-49872452D01*
X70792452Y-49872455D01*
X70706206Y-49987664D01*
X70706202Y-49987671D01*
X70655908Y-50122517D01*
X70649931Y-50178115D01*
X70649501Y-50182123D01*
X70649500Y-50182135D01*
X70649500Y-51977870D01*
X70649501Y-51977876D01*
X70655908Y-52037483D01*
X70706202Y-52172328D01*
X70706206Y-52172335D01*
X70792452Y-52287544D01*
X70792455Y-52287547D01*
X70907664Y-52373793D01*
X70907671Y-52373797D01*
X71042517Y-52424091D01*
X71042516Y-52424091D01*
X71049444Y-52424835D01*
X71102127Y-52430500D01*
X72256351Y-52430499D01*
X72323390Y-52450184D01*
X72369145Y-52502987D01*
X72379089Y-52572146D01*
X72370912Y-52601951D01*
X72336264Y-52685598D01*
X72336261Y-52685610D01*
X72305500Y-52840253D01*
X72305500Y-52997946D01*
X72336261Y-53152589D01*
X72336264Y-53152601D01*
X72396602Y-53298272D01*
X72396609Y-53298285D01*
X72484210Y-53429388D01*
X72484213Y-53429392D01*
X72595707Y-53540886D01*
X72595711Y-53540889D01*
X72726814Y-53628490D01*
X72726827Y-53628497D01*
X72872498Y-53688835D01*
X72872503Y-53688837D01*
X73012363Y-53716657D01*
X73027153Y-53719599D01*
X73027156Y-53719600D01*
X73027158Y-53719600D01*
X73184844Y-53719600D01*
X73184845Y-53719599D01*
X73339497Y-53688837D01*
X73485179Y-53628494D01*
X73616289Y-53540889D01*
X73727789Y-53429389D01*
X73815394Y-53298279D01*
X73815397Y-53298272D01*
X73818262Y-53292913D01*
X73820482Y-53294099D01*
X73857391Y-53248268D01*
X73923678Y-53226181D01*
X73928145Y-53226100D01*
X83083314Y-53226100D01*
X83150353Y-53245785D01*
X83196108Y-53298589D01*
X83204931Y-53325908D01*
X83231761Y-53460791D01*
X83231764Y-53460801D01*
X83292102Y-53606472D01*
X83292109Y-53606485D01*
X83379710Y-53737588D01*
X83379713Y-53737592D01*
X83491207Y-53849086D01*
X83491211Y-53849089D01*
X83622314Y-53936690D01*
X83622327Y-53936697D01*
X83767998Y-53997035D01*
X83768003Y-53997037D01*
X83895948Y-54022487D01*
X83922653Y-54027799D01*
X83922656Y-54027800D01*
X83922658Y-54027800D01*
X84080344Y-54027800D01*
X84080345Y-54027799D01*
X84234997Y-53997037D01*
X84380679Y-53936694D01*
X84466023Y-53879669D01*
X84512375Y-53848698D01*
X84579053Y-53827820D01*
X84581266Y-53827800D01*
X106208103Y-53827800D01*
X106275142Y-53847485D01*
X106295784Y-53864119D01*
X107310584Y-54878919D01*
X107344069Y-54940242D01*
X107339085Y-55009934D01*
X107297213Y-55065867D01*
X107231749Y-55090284D01*
X107222903Y-55090600D01*
X59511398Y-55090600D01*
X59481957Y-55081955D01*
X59451971Y-55075432D01*
X59446955Y-55071677D01*
X59444359Y-55070915D01*
X59423717Y-55054281D01*
X59277473Y-54908037D01*
X59243988Y-54846714D01*
X59243537Y-54844547D01*
X59235623Y-54804761D01*
X59212637Y-54689203D01*
X59201114Y-54661384D01*
X59152297Y-54543527D01*
X59152290Y-54543514D01*
X59064689Y-54412411D01*
X59064686Y-54412407D01*
X58953192Y-54300913D01*
X58953188Y-54300910D01*
X58822085Y-54213309D01*
X58822072Y-54213302D01*
X58676401Y-54152964D01*
X58676389Y-54152961D01*
X58521745Y-54122200D01*
X58521742Y-54122200D01*
X58364058Y-54122200D01*
X58364055Y-54122200D01*
X58209410Y-54152961D01*
X58209398Y-54152964D01*
X58063727Y-54213302D01*
X58063714Y-54213309D01*
X57932611Y-54300910D01*
X57932607Y-54300913D01*
X57821113Y-54412407D01*
X57821110Y-54412411D01*
X57733509Y-54543514D01*
X57733502Y-54543527D01*
X57673164Y-54689198D01*
X57673161Y-54689210D01*
X57642400Y-54843853D01*
X57642400Y-55001546D01*
X57673161Y-55156189D01*
X57673164Y-55156201D01*
X57733502Y-55301872D01*
X57733509Y-55301885D01*
X57821110Y-55432988D01*
X57821113Y-55432992D01*
X57932607Y-55544486D01*
X57932611Y-55544489D01*
X58063714Y-55632090D01*
X58063727Y-55632097D01*
X58209398Y-55692435D01*
X58209403Y-55692437D01*
X58274047Y-55705295D01*
X58364749Y-55723338D01*
X58426660Y-55755723D01*
X58428234Y-55757269D01*
X58842584Y-56171620D01*
X58842586Y-56171621D01*
X58842590Y-56171624D01*
X58914236Y-56212988D01*
X58979516Y-56250677D01*
X59132243Y-56291601D01*
X59132245Y-56291601D01*
X59297954Y-56291601D01*
X59297970Y-56291600D01*
X85571854Y-56291600D01*
X85638893Y-56311285D01*
X85684648Y-56364089D01*
X85694592Y-56433247D01*
X85665567Y-56496803D01*
X85633858Y-56522984D01*
X85591084Y-56547680D01*
X85591081Y-56547682D01*
X85043339Y-57095425D01*
X84982016Y-57128910D01*
X84979850Y-57129361D01*
X84824508Y-57160261D01*
X84824498Y-57160264D01*
X84678827Y-57220602D01*
X84678814Y-57220609D01*
X84547711Y-57308210D01*
X84547707Y-57308213D01*
X84436213Y-57419707D01*
X84436210Y-57419711D01*
X84348609Y-57550814D01*
X84348602Y-57550827D01*
X84288264Y-57696498D01*
X84288261Y-57696510D01*
X84257500Y-57851153D01*
X84257500Y-58008846D01*
X84288261Y-58163489D01*
X84288264Y-58163501D01*
X84348602Y-58309172D01*
X84348609Y-58309185D01*
X84436210Y-58440288D01*
X84436213Y-58440292D01*
X84547707Y-58551786D01*
X84547711Y-58551789D01*
X84678814Y-58639390D01*
X84678827Y-58639397D01*
X84824498Y-58699735D01*
X84824503Y-58699737D01*
X84979153Y-58730499D01*
X84979156Y-58730500D01*
X84979158Y-58730500D01*
X85136844Y-58730500D01*
X85136845Y-58730499D01*
X85291497Y-58699737D01*
X85416685Y-58647883D01*
X85424164Y-58644785D01*
X87700001Y-58644785D01*
X87700002Y-58644808D01*
X87702908Y-58669869D01*
X87702909Y-58669873D01*
X87748211Y-58772474D01*
X87748214Y-58772479D01*
X87827520Y-58851785D01*
X87827525Y-58851788D01*
X87930123Y-58897089D01*
X87955206Y-58899999D01*
X88699999Y-58899999D01*
X89000000Y-58899999D01*
X89744786Y-58899999D01*
X89744808Y-58899997D01*
X89769869Y-58897091D01*
X89769873Y-58897090D01*
X89872474Y-58851788D01*
X89872479Y-58851785D01*
X89951785Y-58772479D01*
X89951788Y-58772474D01*
X89997089Y-58669877D01*
X89997089Y-58669875D01*
X89999999Y-58644794D01*
X90000000Y-58644791D01*
X90000000Y-58250000D01*
X89000000Y-58250000D01*
X89000000Y-58899999D01*
X88699999Y-58899999D01*
X88700000Y-58899998D01*
X88700000Y-58250000D01*
X87700001Y-58250000D01*
X87700001Y-58644785D01*
X85424164Y-58644785D01*
X85437172Y-58639397D01*
X85437172Y-58639396D01*
X85437179Y-58639394D01*
X85568289Y-58551789D01*
X85679789Y-58440289D01*
X85767394Y-58309179D01*
X85800085Y-58230255D01*
X85826789Y-58165786D01*
X85826789Y-58165785D01*
X85827737Y-58163497D01*
X85858500Y-58008842D01*
X85858500Y-58008829D01*
X85858711Y-58007785D01*
X85874935Y-57976993D01*
X85891023Y-57946239D01*
X85891277Y-57945979D01*
X85891282Y-57945971D01*
X85891291Y-57945965D01*
X85892457Y-57944778D01*
X86172218Y-57665016D01*
X86233540Y-57631534D01*
X86259898Y-57628700D01*
X87576000Y-57628700D01*
X87643039Y-57648385D01*
X87688794Y-57701189D01*
X87700000Y-57752700D01*
X87700000Y-57950000D01*
X89999999Y-57950000D01*
X89999999Y-57752700D01*
X90019684Y-57685661D01*
X90072488Y-57639906D01*
X90123999Y-57628700D01*
X91160734Y-57628700D01*
X91227773Y-57648385D01*
X91229625Y-57649598D01*
X91361314Y-57737590D01*
X91361327Y-57737597D01*
X91504149Y-57796755D01*
X91507003Y-57797937D01*
X91661653Y-57828699D01*
X91661656Y-57828700D01*
X91661658Y-57828700D01*
X91819344Y-57828700D01*
X91819345Y-57828699D01*
X91973997Y-57797937D01*
X92119679Y-57737594D01*
X92250789Y-57649989D01*
X92362289Y-57538489D01*
X92449894Y-57407379D01*
X92510237Y-57261697D01*
X92511349Y-57256109D01*
X92543734Y-57194198D01*
X92604449Y-57159624D01*
X92632966Y-57156300D01*
X93759226Y-57156300D01*
X93826265Y-57175985D01*
X93872020Y-57228789D01*
X93881964Y-57297947D01*
X93860450Y-57349884D01*
X93860454Y-57349886D01*
X93860438Y-57349913D01*
X93858494Y-57354609D01*
X93856205Y-57357665D01*
X93856202Y-57357671D01*
X93805908Y-57492517D01*
X93799501Y-57552116D01*
X93799500Y-57552135D01*
X93799500Y-58647870D01*
X93799501Y-58647876D01*
X93805908Y-58707483D01*
X93856202Y-58842328D01*
X93856206Y-58842335D01*
X93942452Y-58957544D01*
X93942455Y-58957547D01*
X94057664Y-59043793D01*
X94057671Y-59043797D01*
X94192517Y-59094091D01*
X94192516Y-59094091D01*
X94199444Y-59094835D01*
X94252127Y-59100500D01*
X96047872Y-59100499D01*
X96107483Y-59094091D01*
X96242331Y-59043796D01*
X96357546Y-58957546D01*
X96443796Y-58842331D01*
X96494091Y-58707483D01*
X96500500Y-58647873D01*
X96500500Y-58644785D01*
X103700001Y-58644785D01*
X103700002Y-58644808D01*
X103702908Y-58669869D01*
X103702909Y-58669873D01*
X103748211Y-58772474D01*
X103748214Y-58772479D01*
X103827520Y-58851785D01*
X103827525Y-58851788D01*
X103930123Y-58897089D01*
X103955206Y-58899999D01*
X104699999Y-58899999D01*
X105000000Y-58899999D01*
X105744786Y-58899999D01*
X105744808Y-58899997D01*
X105769869Y-58897091D01*
X105769873Y-58897090D01*
X105872474Y-58851788D01*
X105872479Y-58851785D01*
X105951785Y-58772479D01*
X105951788Y-58772474D01*
X105997089Y-58669877D01*
X105997089Y-58669875D01*
X105999999Y-58644794D01*
X106000000Y-58644791D01*
X106000000Y-58250000D01*
X105000000Y-58250000D01*
X105000000Y-58899999D01*
X104699999Y-58899999D01*
X104700000Y-58899998D01*
X104700000Y-58250000D01*
X103700001Y-58250000D01*
X103700001Y-58644785D01*
X96500500Y-58644785D01*
X96500499Y-58093600D01*
X96500499Y-57565534D01*
X96500499Y-57555205D01*
X103700000Y-57555205D01*
X103700000Y-57950000D01*
X104700000Y-57950000D01*
X105000000Y-57950000D01*
X105999999Y-57950000D01*
X105999999Y-57555214D01*
X105999997Y-57555191D01*
X105997091Y-57530130D01*
X105997090Y-57530126D01*
X105951788Y-57427525D01*
X105951785Y-57427520D01*
X105872479Y-57348214D01*
X105872474Y-57348211D01*
X105769876Y-57302910D01*
X105744794Y-57300000D01*
X105000000Y-57300000D01*
X105000000Y-57950000D01*
X104700000Y-57950000D01*
X104700000Y-57300000D01*
X103955214Y-57300000D01*
X103955191Y-57300002D01*
X103930130Y-57302908D01*
X103930126Y-57302909D01*
X103827525Y-57348211D01*
X103827520Y-57348214D01*
X103748214Y-57427520D01*
X103748211Y-57427525D01*
X103702910Y-57530122D01*
X103702910Y-57530124D01*
X103700000Y-57555205D01*
X96500499Y-57555205D01*
X96500499Y-57552128D01*
X96494091Y-57492517D01*
X96468046Y-57422687D01*
X96466209Y-57414600D01*
X96467886Y-57387676D01*
X96465962Y-57360771D01*
X96470025Y-57353328D01*
X96470553Y-57344865D01*
X96486520Y-57323120D01*
X96499447Y-57299448D01*
X96508198Y-57293600D01*
X96511908Y-57288549D01*
X96520945Y-57285083D01*
X96539674Y-57272568D01*
X96557479Y-57265194D01*
X96688589Y-57177589D01*
X96800089Y-57066089D01*
X96887694Y-56934979D01*
X96948037Y-56789297D01*
X96978800Y-56634642D01*
X96978800Y-56476958D01*
X96974709Y-56456393D01*
X96971407Y-56439790D01*
X96977635Y-56370199D01*
X97020499Y-56315022D01*
X97086389Y-56291778D01*
X97093025Y-56291600D01*
X107541334Y-56291600D01*
X107608373Y-56311285D01*
X107610225Y-56312498D01*
X107741914Y-56400490D01*
X107741927Y-56400497D01*
X107876874Y-56456393D01*
X107887603Y-56460837D01*
X107994318Y-56482064D01*
X108042253Y-56491599D01*
X108042256Y-56491600D01*
X108042258Y-56491600D01*
X108199944Y-56491600D01*
X108279188Y-56475837D01*
X108348780Y-56482064D01*
X108403957Y-56524927D01*
X108427202Y-56590816D01*
X108411134Y-56658813D01*
X108406483Y-56666343D01*
X108394811Y-56683811D01*
X108394802Y-56683827D01*
X108334464Y-56829498D01*
X108334461Y-56829510D01*
X108303700Y-56984153D01*
X108303700Y-57141846D01*
X108334461Y-57296489D01*
X108334464Y-57296501D01*
X108394802Y-57442172D01*
X108394809Y-57442185D01*
X108482410Y-57573288D01*
X108482413Y-57573292D01*
X108593907Y-57684786D01*
X108593911Y-57684789D01*
X108725014Y-57772390D01*
X108725027Y-57772397D01*
X108799857Y-57803392D01*
X108870703Y-57832737D01*
X108983908Y-57855255D01*
X109025353Y-57863499D01*
X109025356Y-57863500D01*
X109025358Y-57863500D01*
X109183044Y-57863500D01*
X109183045Y-57863499D01*
X109337697Y-57832737D01*
X109483379Y-57772394D01*
X109606609Y-57690053D01*
X109673286Y-57669176D01*
X109740666Y-57687660D01*
X109787357Y-57739639D01*
X109799500Y-57793156D01*
X109799500Y-58647870D01*
X109799501Y-58647876D01*
X109805908Y-58707483D01*
X109856202Y-58842328D01*
X109856206Y-58842335D01*
X109942452Y-58957544D01*
X109942455Y-58957547D01*
X110057664Y-59043793D01*
X110057671Y-59043797D01*
X110192517Y-59094091D01*
X110192516Y-59094091D01*
X110199444Y-59094835D01*
X110252127Y-59100500D01*
X112047872Y-59100499D01*
X112107483Y-59094091D01*
X112242331Y-59043796D01*
X112357546Y-58957546D01*
X112443796Y-58842331D01*
X112494091Y-58707483D01*
X112500500Y-58647873D01*
X112500499Y-57787499D01*
X112520183Y-57720461D01*
X112572987Y-57674706D01*
X112624499Y-57663500D01*
X113083061Y-57663500D01*
X113150100Y-57683185D01*
X113186162Y-57718608D01*
X113208942Y-57752700D01*
X113242812Y-57803391D01*
X113354307Y-57914886D01*
X113354311Y-57914889D01*
X113485414Y-58002490D01*
X113485427Y-58002497D01*
X113631098Y-58062835D01*
X113631103Y-58062837D01*
X113785753Y-58093599D01*
X113785756Y-58093600D01*
X113785758Y-58093600D01*
X113943444Y-58093600D01*
X113943445Y-58093599D01*
X114098097Y-58062837D01*
X114228444Y-58008846D01*
X114243772Y-58002497D01*
X114243772Y-58002496D01*
X114243779Y-58002494D01*
X114243784Y-58002490D01*
X114243787Y-58002489D01*
X114254192Y-57995537D01*
X114254193Y-57995536D01*
X114374892Y-57914887D01*
X114374892Y-57914886D01*
X114486386Y-57803392D01*
X114486387Y-57803391D01*
X114486389Y-57803389D01*
X114573994Y-57672279D01*
X114588875Y-57636353D01*
X132100000Y-57636353D01*
X132100000Y-57850000D01*
X132653590Y-57850000D01*
X132650556Y-57855255D01*
X132625000Y-57950630D01*
X132625000Y-58049370D01*
X132650556Y-58144745D01*
X132653590Y-58150000D01*
X132100000Y-58150000D01*
X132100000Y-58363646D01*
X132134584Y-58537512D01*
X132134586Y-58537520D01*
X132202428Y-58701307D01*
X132202433Y-58701316D01*
X132300923Y-58848716D01*
X132300926Y-58848720D01*
X132426279Y-58974073D01*
X132426283Y-58974076D01*
X132573683Y-59072566D01*
X132573692Y-59072571D01*
X132737477Y-59140412D01*
X132737487Y-59140415D01*
X132849999Y-59162795D01*
X132850000Y-59162795D01*
X132850000Y-58346410D01*
X132855255Y-58349444D01*
X132950630Y-58375000D01*
X133049370Y-58375000D01*
X133144745Y-58349444D01*
X133150000Y-58346410D01*
X133150000Y-59162795D01*
X133262512Y-59140415D01*
X133262522Y-59140412D01*
X133426307Y-59072571D01*
X133426316Y-59072566D01*
X133573716Y-58974076D01*
X133573720Y-58974073D01*
X133699073Y-58848720D01*
X133699075Y-58848717D01*
X133714797Y-58825188D01*
X133768409Y-58780381D01*
X133837733Y-58771672D01*
X133900761Y-58801826D01*
X133935607Y-58855071D01*
X133965186Y-58944334D01*
X134057288Y-59093656D01*
X134181344Y-59217712D01*
X134330666Y-59309814D01*
X134497203Y-59364999D01*
X134599991Y-59375500D01*
X135400008Y-59375499D01*
X135400016Y-59375498D01*
X135400019Y-59375498D01*
X135456302Y-59369748D01*
X135502797Y-59364999D01*
X135669334Y-59309814D01*
X135818656Y-59217712D01*
X135942712Y-59093656D01*
X136034814Y-58944334D01*
X136089999Y-58777797D01*
X136100500Y-58675009D01*
X136100499Y-57324992D01*
X136097812Y-57298692D01*
X136089999Y-57222203D01*
X136089998Y-57222200D01*
X136077925Y-57185766D01*
X136034814Y-57055666D01*
X135942712Y-56906344D01*
X135818656Y-56782288D01*
X135697928Y-56707823D01*
X135669336Y-56690187D01*
X135669331Y-56690185D01*
X135650126Y-56683821D01*
X135502797Y-56635001D01*
X135502795Y-56635000D01*
X135400010Y-56624500D01*
X134599998Y-56624500D01*
X134599980Y-56624501D01*
X134497203Y-56635000D01*
X134497200Y-56635001D01*
X134330668Y-56690185D01*
X134330663Y-56690187D01*
X134181342Y-56782289D01*
X134057289Y-56906342D01*
X133965187Y-57055663D01*
X133965182Y-57055674D01*
X133935606Y-57144928D01*
X133895833Y-57202373D01*
X133831317Y-57229195D01*
X133762541Y-57216879D01*
X133714798Y-57174813D01*
X133699074Y-57151280D01*
X133573720Y-57025926D01*
X133573716Y-57025923D01*
X133426316Y-56927433D01*
X133426307Y-56927428D01*
X133262520Y-56859586D01*
X133262512Y-56859584D01*
X133150000Y-56837203D01*
X133150000Y-57653589D01*
X133144745Y-57650556D01*
X133049370Y-57625000D01*
X132950630Y-57625000D01*
X132855255Y-57650556D01*
X132850000Y-57653589D01*
X132850000Y-56837204D01*
X132849999Y-56837203D01*
X132737487Y-56859584D01*
X132737479Y-56859586D01*
X132573692Y-56927428D01*
X132573683Y-56927433D01*
X132426283Y-57025923D01*
X132426279Y-57025926D01*
X132300926Y-57151279D01*
X132300923Y-57151283D01*
X132202433Y-57298683D01*
X132202428Y-57298692D01*
X132134586Y-57462479D01*
X132134584Y-57462487D01*
X132100000Y-57636353D01*
X114588875Y-57636353D01*
X114634337Y-57526597D01*
X114665100Y-57371942D01*
X114665100Y-57214258D01*
X114665100Y-57214255D01*
X114665099Y-57214253D01*
X114660175Y-57189500D01*
X114634337Y-57059603D01*
X114620388Y-57025926D01*
X114573997Y-56913927D01*
X114573990Y-56913914D01*
X114486389Y-56782811D01*
X114486386Y-56782807D01*
X114374892Y-56671313D01*
X114374888Y-56671310D01*
X114243785Y-56583709D01*
X114243772Y-56583702D01*
X114098101Y-56523364D01*
X114098089Y-56523361D01*
X113943445Y-56492600D01*
X113943442Y-56492600D01*
X113842220Y-56492600D01*
X113810127Y-56488375D01*
X113763334Y-56475837D01*
X113713557Y-56462499D01*
X113555443Y-56462499D01*
X113547847Y-56462499D01*
X113547831Y-56462500D01*
X109683966Y-56462500D01*
X109616927Y-56442815D01*
X109615075Y-56441602D01*
X109483385Y-56353609D01*
X109483372Y-56353602D01*
X109337701Y-56293264D01*
X109337689Y-56293261D01*
X109183045Y-56262500D01*
X109183042Y-56262500D01*
X109025358Y-56262500D01*
X108946109Y-56278263D01*
X108929014Y-56276732D01*
X108912223Y-56280265D01*
X108894939Y-56273682D01*
X108876518Y-56272034D01*
X108862966Y-56261506D01*
X108846928Y-56255399D01*
X108835945Y-56240516D01*
X108821341Y-56229171D01*
X108815632Y-56212988D01*
X108805442Y-56199179D01*
X108804249Y-56180721D01*
X108798097Y-56163281D01*
X108802022Y-56146252D01*
X108800937Y-56129454D01*
X108811659Y-56104448D01*
X108813498Y-56096471D01*
X108815974Y-56092009D01*
X108830494Y-56070279D01*
X108837729Y-56052809D01*
X108841162Y-56046626D01*
X108861199Y-56026862D01*
X108878861Y-56004945D01*
X108885743Y-56002654D01*
X108890906Y-55997562D01*
X108918446Y-55991768D01*
X108945155Y-55982879D01*
X108949583Y-55982800D01*
X120334234Y-55982800D01*
X120401273Y-56002485D01*
X120403125Y-56003698D01*
X120534814Y-56091690D01*
X120534827Y-56091697D01*
X120672538Y-56148738D01*
X120680503Y-56152037D01*
X120824706Y-56180721D01*
X120835153Y-56182799D01*
X120835156Y-56182800D01*
X120835158Y-56182800D01*
X120992844Y-56182800D01*
X120992845Y-56182799D01*
X121147497Y-56152037D01*
X121293179Y-56091694D01*
X121424289Y-56004089D01*
X121535789Y-55892589D01*
X121623394Y-55761479D01*
X121625367Y-55756717D01*
X121651762Y-55692993D01*
X121683737Y-55615797D01*
X121714500Y-55461142D01*
X121714500Y-55303458D01*
X121714500Y-55303455D01*
X121714499Y-55303453D01*
X121706897Y-55265236D01*
X121683737Y-55148803D01*
X121671016Y-55118092D01*
X121623397Y-55003127D01*
X121623390Y-55003114D01*
X121535789Y-54872011D01*
X121535786Y-54872007D01*
X121463976Y-54800197D01*
X121430491Y-54738874D01*
X121435475Y-54669182D01*
X121477347Y-54613249D01*
X121542811Y-54588832D01*
X121575845Y-54590898D01*
X121617528Y-54599190D01*
X121632157Y-54602100D01*
X121632158Y-54602100D01*
X121789844Y-54602100D01*
X121789845Y-54602099D01*
X121944497Y-54571337D01*
X122090179Y-54510994D01*
X122138214Y-54478897D01*
X122204891Y-54458020D01*
X122207105Y-54458000D01*
X152734313Y-54458000D01*
X152801352Y-54477685D01*
X152847107Y-54530489D01*
X152857051Y-54599647D01*
X152828026Y-54663203D01*
X152806791Y-54682613D01*
X128420969Y-72249240D01*
X128355068Y-72272452D01*
X128287079Y-72256351D01*
X128279087Y-72251385D01*
X117960408Y-65282049D01*
X116463520Y-64271035D01*
X116458877Y-64267899D01*
X116425355Y-64240548D01*
X116404486Y-64231164D01*
X116385529Y-64218360D01*
X116349928Y-64206076D01*
X116339522Y-64201951D01*
X116305164Y-64186502D01*
X116293095Y-64184545D01*
X116282575Y-64182839D01*
X116260951Y-64175378D01*
X116217797Y-64172333D01*
X116212265Y-64171436D01*
X116212263Y-64171435D01*
X116175084Y-64165406D01*
X116175075Y-64165406D01*
X116162913Y-64166637D01*
X116162914Y-64166638D01*
X116152310Y-64167712D01*
X116129494Y-64166104D01*
X116087031Y-64174329D01*
X116081445Y-64174896D01*
X116081443Y-64174895D01*
X116043970Y-64178696D01*
X116043969Y-64178696D01*
X116032536Y-64183036D01*
X116032530Y-64183038D01*
X116032529Y-64183037D01*
X116022569Y-64186818D01*
X116000115Y-64191169D01*
X115961222Y-64210108D01*
X115955970Y-64212102D01*
X115955969Y-64212102D01*
X115920766Y-64225467D01*
X115920752Y-64225474D01*
X115910836Y-64232622D01*
X115892630Y-64243508D01*
X115881632Y-64248864D01*
X115853184Y-64273562D01*
X115844408Y-64280512D01*
X100072513Y-75650722D01*
X100006621Y-75673958D01*
X99938626Y-75657882D01*
X99927485Y-75650722D01*
X96771778Y-73375723D01*
X93621432Y-71104588D01*
X93578563Y-71049417D01*
X93572327Y-70979826D01*
X93604704Y-70917911D01*
X93665416Y-70883329D01*
X93718139Y-70882385D01*
X93744355Y-70887600D01*
X93744358Y-70887600D01*
X93902044Y-70887600D01*
X93902045Y-70887599D01*
X94056697Y-70856837D01*
X94202379Y-70796494D01*
X94260666Y-70757548D01*
X94334075Y-70708498D01*
X94400753Y-70687620D01*
X94402966Y-70687600D01*
X95424532Y-70687600D01*
X95432139Y-70687600D01*
X95432143Y-70687601D01*
X95528024Y-70687601D01*
X95595063Y-70707286D01*
X95595067Y-70707290D01*
X95627289Y-70737289D01*
X95642450Y-70757542D01*
X95642452Y-70757544D01*
X95642454Y-70757546D01*
X95642457Y-70757548D01*
X95757664Y-70843793D01*
X95757671Y-70843797D01*
X95892517Y-70894091D01*
X95892516Y-70894091D01*
X95899444Y-70894835D01*
X95952127Y-70900500D01*
X97747872Y-70900499D01*
X97807483Y-70894091D01*
X97942331Y-70843796D01*
X98057546Y-70757546D01*
X98143796Y-70642331D01*
X98190474Y-70517179D01*
X98232345Y-70461247D01*
X98244640Y-70453135D01*
X98370416Y-70380520D01*
X98482220Y-70268716D01*
X98561277Y-70131784D01*
X98602200Y-69979057D01*
X98602200Y-69352135D01*
X101799500Y-69352135D01*
X101799500Y-70447870D01*
X101799501Y-70447876D01*
X101805908Y-70507483D01*
X101856202Y-70642328D01*
X101856206Y-70642335D01*
X101942452Y-70757544D01*
X101942455Y-70757547D01*
X102057664Y-70843793D01*
X102057671Y-70843797D01*
X102192517Y-70894091D01*
X102192516Y-70894091D01*
X102199444Y-70894835D01*
X102252127Y-70900500D01*
X104047872Y-70900499D01*
X104107483Y-70894091D01*
X104242331Y-70843796D01*
X104357546Y-70757546D01*
X104443796Y-70642331D01*
X104494091Y-70507483D01*
X104500500Y-70447873D01*
X104500499Y-69352128D01*
X104494091Y-69292517D01*
X104443796Y-69157669D01*
X104443795Y-69157668D01*
X104443793Y-69157664D01*
X104357547Y-69042455D01*
X104357544Y-69042452D01*
X104242335Y-68956206D01*
X104242328Y-68956202D01*
X104107482Y-68905908D01*
X104107483Y-68905908D01*
X104047883Y-68899501D01*
X104047881Y-68899500D01*
X104047873Y-68899500D01*
X104047864Y-68899500D01*
X102252129Y-68899500D01*
X102252123Y-68899501D01*
X102192516Y-68905908D01*
X102057671Y-68956202D01*
X102057664Y-68956206D01*
X101942455Y-69042452D01*
X101942452Y-69042455D01*
X101856206Y-69157664D01*
X101856202Y-69157671D01*
X101805908Y-69292517D01*
X101799501Y-69352116D01*
X101799501Y-69352123D01*
X101799500Y-69352135D01*
X98602200Y-69352135D01*
X98602200Y-69116297D01*
X98621885Y-69049258D01*
X98638519Y-69028616D01*
X99219653Y-68447482D01*
X100012664Y-67654471D01*
X100073985Y-67620988D01*
X100076152Y-67620537D01*
X100076841Y-67620400D01*
X100076842Y-67620400D01*
X100231497Y-67589637D01*
X100377179Y-67529294D01*
X100508289Y-67441689D01*
X100619789Y-67330189D01*
X100707394Y-67199079D01*
X100767737Y-67053397D01*
X100798250Y-66899999D01*
X100798638Y-66898050D01*
X100831023Y-66836139D01*
X100832518Y-66834616D01*
X101587821Y-66079313D01*
X101649142Y-66045830D01*
X101718834Y-66050814D01*
X101774767Y-66092686D01*
X101799184Y-66158150D01*
X101799500Y-66166996D01*
X101799500Y-66647870D01*
X101799501Y-66647876D01*
X101805908Y-66707483D01*
X101856202Y-66842328D01*
X101856206Y-66842335D01*
X101942452Y-66957544D01*
X101942455Y-66957547D01*
X102057664Y-67043793D01*
X102057671Y-67043797D01*
X102192517Y-67094091D01*
X102192516Y-67094091D01*
X102199444Y-67094835D01*
X102252127Y-67100500D01*
X104047872Y-67100499D01*
X104107483Y-67094091D01*
X104242331Y-67043796D01*
X104357546Y-66957546D01*
X104443796Y-66842331D01*
X104494091Y-66707483D01*
X104500500Y-66647873D01*
X104500499Y-66077595D01*
X104520183Y-66010557D01*
X104572987Y-65964802D01*
X104642146Y-65954858D01*
X104705702Y-65983883D01*
X104712180Y-65989915D01*
X105075625Y-66353360D01*
X105109110Y-66414683D01*
X105109561Y-66416849D01*
X105140461Y-66572191D01*
X105140464Y-66572201D01*
X105200802Y-66717872D01*
X105200809Y-66717885D01*
X105288410Y-66848988D01*
X105288413Y-66848992D01*
X105399907Y-66960486D01*
X105399911Y-66960489D01*
X105531014Y-67048090D01*
X105531027Y-67048097D01*
X105642068Y-67094091D01*
X105676703Y-67108437D01*
X105831353Y-67139199D01*
X105831356Y-67139200D01*
X105831358Y-67139200D01*
X105989044Y-67139200D01*
X105989045Y-67139199D01*
X106143697Y-67108437D01*
X106289379Y-67048094D01*
X106420489Y-66960489D01*
X106531989Y-66848989D01*
X106619594Y-66717879D01*
X106679937Y-66572197D01*
X106710700Y-66417542D01*
X106710700Y-66259858D01*
X106710700Y-66259855D01*
X106710699Y-66259853D01*
X106680992Y-66110509D01*
X106679937Y-66105203D01*
X106657409Y-66050814D01*
X106619597Y-65959527D01*
X106619590Y-65959514D01*
X106531989Y-65828411D01*
X106531986Y-65828407D01*
X106420492Y-65716913D01*
X106420488Y-65716910D01*
X106289385Y-65629309D01*
X106289372Y-65629302D01*
X106143701Y-65568964D01*
X106143691Y-65568961D01*
X105988351Y-65538062D01*
X105926441Y-65505677D01*
X105924862Y-65504126D01*
X105357390Y-64936655D01*
X105357388Y-64936652D01*
X105238517Y-64817781D01*
X105238516Y-64817780D01*
X105151704Y-64767660D01*
X105151704Y-64767659D01*
X105151700Y-64767658D01*
X105101585Y-64738723D01*
X104948857Y-64697799D01*
X104790743Y-64697799D01*
X104783147Y-64697799D01*
X104783131Y-64697800D01*
X101440540Y-64697800D01*
X101399619Y-64708764D01*
X101399619Y-64708765D01*
X101362351Y-64718751D01*
X101287814Y-64738723D01*
X101287809Y-64738726D01*
X101150890Y-64817775D01*
X101150882Y-64817781D01*
X99983339Y-65985325D01*
X99922016Y-66018810D01*
X99919850Y-66019261D01*
X99764508Y-66050161D01*
X99764498Y-66050164D01*
X99618827Y-66110502D01*
X99618814Y-66110509D01*
X99487711Y-66198110D01*
X99487707Y-66198113D01*
X99376213Y-66309607D01*
X99376210Y-66309611D01*
X99288609Y-66440714D01*
X99288602Y-66440727D01*
X99228264Y-66586398D01*
X99228261Y-66586408D01*
X99197362Y-66741748D01*
X99164977Y-66803659D01*
X99163426Y-66805237D01*
X97632986Y-68335678D01*
X97521181Y-68447482D01*
X97521179Y-68447485D01*
X97471061Y-68534294D01*
X97471059Y-68534296D01*
X97442125Y-68584409D01*
X97442124Y-68584410D01*
X97442123Y-68584415D01*
X97401199Y-68737143D01*
X97401199Y-68737145D01*
X97401199Y-68775500D01*
X97381514Y-68842539D01*
X97328710Y-68888294D01*
X97277199Y-68899500D01*
X95952129Y-68899500D01*
X95952123Y-68899501D01*
X95892516Y-68905908D01*
X95757671Y-68956202D01*
X95757664Y-68956206D01*
X95642455Y-69042452D01*
X95642452Y-69042455D01*
X95556206Y-69157664D01*
X95556203Y-69157669D01*
X95509525Y-69282819D01*
X95497082Y-69299439D01*
X95488894Y-69318517D01*
X95472306Y-69332535D01*
X95467653Y-69338752D01*
X95462757Y-69342235D01*
X95459109Y-69344699D01*
X95329584Y-69419480D01*
X95290373Y-69458690D01*
X95280516Y-69465350D01*
X95258105Y-69472492D01*
X95237460Y-69483766D01*
X95215237Y-69486155D01*
X95213946Y-69486567D01*
X95213221Y-69486372D01*
X95211102Y-69486600D01*
X94402966Y-69486600D01*
X94335927Y-69466915D01*
X94334075Y-69465702D01*
X94202385Y-69377709D01*
X94202372Y-69377702D01*
X94056701Y-69317364D01*
X94056689Y-69317361D01*
X93902045Y-69286600D01*
X93902042Y-69286600D01*
X93744358Y-69286600D01*
X93744355Y-69286600D01*
X93589710Y-69317361D01*
X93589698Y-69317364D01*
X93444027Y-69377702D01*
X93444014Y-69377709D01*
X93312911Y-69465310D01*
X93312907Y-69465313D01*
X93201413Y-69576807D01*
X93201410Y-69576811D01*
X93113809Y-69707914D01*
X93113802Y-69707927D01*
X93053464Y-69853598D01*
X93053461Y-69853610D01*
X93022700Y-70008253D01*
X93022700Y-70165946D01*
X93053461Y-70320589D01*
X93053464Y-70320601D01*
X93107574Y-70451235D01*
X93115043Y-70520704D01*
X93083767Y-70583183D01*
X93023678Y-70618835D01*
X92953853Y-70616341D01*
X92920499Y-70599274D01*
X87569630Y-66741748D01*
X87435130Y-66644785D01*
X95700001Y-66644785D01*
X95700002Y-66644808D01*
X95702908Y-66669869D01*
X95702909Y-66669873D01*
X95748211Y-66772474D01*
X95748214Y-66772479D01*
X95827520Y-66851785D01*
X95827525Y-66851788D01*
X95930123Y-66897089D01*
X95955206Y-66899999D01*
X96699999Y-66899999D01*
X97000000Y-66899999D01*
X97744786Y-66899999D01*
X97744808Y-66899997D01*
X97769869Y-66897091D01*
X97769873Y-66897090D01*
X97872474Y-66851788D01*
X97872479Y-66851785D01*
X97951785Y-66772479D01*
X97951788Y-66772474D01*
X97997089Y-66669877D01*
X97997089Y-66669875D01*
X97999999Y-66644794D01*
X98000000Y-66644791D01*
X98000000Y-66250000D01*
X97000000Y-66250000D01*
X97000000Y-66899999D01*
X96699999Y-66899999D01*
X96700000Y-66899998D01*
X96700000Y-66250000D01*
X95700001Y-66250000D01*
X95700001Y-66644785D01*
X87435130Y-66644785D01*
X85923747Y-65555205D01*
X95700000Y-65555205D01*
X95700000Y-65950000D01*
X96700000Y-65950000D01*
X97000000Y-65950000D01*
X97999999Y-65950000D01*
X97999999Y-65555214D01*
X97999997Y-65555191D01*
X97997091Y-65530130D01*
X97997090Y-65530126D01*
X97951788Y-65427525D01*
X97951785Y-65427520D01*
X97872479Y-65348214D01*
X97872474Y-65348211D01*
X97769876Y-65302910D01*
X97744794Y-65300000D01*
X97000000Y-65300000D01*
X97000000Y-65950000D01*
X96700000Y-65950000D01*
X96700000Y-65300000D01*
X95955214Y-65300000D01*
X95955191Y-65300002D01*
X95930130Y-65302908D01*
X95930126Y-65302909D01*
X95827525Y-65348211D01*
X95827520Y-65348214D01*
X95748214Y-65427520D01*
X95748211Y-65427525D01*
X95702910Y-65530122D01*
X95702910Y-65530124D01*
X95700000Y-65555205D01*
X85923747Y-65555205D01*
X84151042Y-64277234D01*
X84118368Y-64248866D01*
X84097796Y-64238848D01*
X84079239Y-64225470D01*
X84079237Y-64225469D01*
X84079235Y-64225468D01*
X84044027Y-64212102D01*
X84033748Y-64207659D01*
X83999884Y-64191168D01*
X83987879Y-64188842D01*
X83967466Y-64183036D01*
X83956036Y-64178697D01*
X83956037Y-64178697D01*
X83923296Y-64175378D01*
X83918551Y-64174896D01*
X83912970Y-64174330D01*
X83870506Y-64166104D01*
X83847687Y-64167713D01*
X83837082Y-64166638D01*
X83824923Y-64165406D01*
X83824914Y-64165406D01*
X83787731Y-64171435D01*
X83787732Y-64171436D01*
X83782197Y-64172333D01*
X83739049Y-64175378D01*
X83717428Y-64182837D01*
X83706906Y-64184544D01*
X83706905Y-64184543D01*
X83694840Y-64186501D01*
X83694835Y-64186502D01*
X83660481Y-64201949D01*
X83655359Y-64204251D01*
X83614471Y-64218360D01*
X83595518Y-64231160D01*
X83585794Y-64235533D01*
X83585793Y-64235533D01*
X83574651Y-64240543D01*
X83574641Y-64240550D01*
X83545456Y-64264361D01*
X83536473Y-64271039D01*
X71720912Y-72251385D01*
X71654339Y-72272595D01*
X71586868Y-72254446D01*
X71579030Y-72249240D01*
X69706721Y-70900499D01*
X56451775Y-61352135D01*
X87499500Y-61352135D01*
X87499500Y-62447870D01*
X87499501Y-62447876D01*
X87505908Y-62507483D01*
X87556202Y-62642328D01*
X87556206Y-62642335D01*
X87642452Y-62757544D01*
X87642455Y-62757547D01*
X87757664Y-62843793D01*
X87757671Y-62843797D01*
X87892517Y-62894091D01*
X87892516Y-62894091D01*
X87899444Y-62894835D01*
X87952127Y-62900500D01*
X88700750Y-62900499D01*
X88767789Y-62920183D01*
X88813544Y-62972987D01*
X88823488Y-63042146D01*
X88801068Y-63097384D01*
X88716659Y-63213563D01*
X88609433Y-63424003D01*
X88536446Y-63648631D01*
X88499500Y-63881902D01*
X88499500Y-64118097D01*
X88536446Y-64351368D01*
X88609433Y-64575996D01*
X88692349Y-64738726D01*
X88716657Y-64786433D01*
X88855483Y-64977510D01*
X89022490Y-65144517D01*
X89213567Y-65283343D01*
X89286492Y-65320500D01*
X89424003Y-65390566D01*
X89424005Y-65390566D01*
X89424008Y-65390568D01*
X89537734Y-65427520D01*
X89648631Y-65463553D01*
X89881903Y-65500500D01*
X89881908Y-65500500D01*
X90118097Y-65500500D01*
X90351368Y-65463553D01*
X90443264Y-65433694D01*
X90462250Y-65427525D01*
X90575992Y-65390568D01*
X90786433Y-65283343D01*
X90977510Y-65144517D01*
X91144517Y-64977510D01*
X91283343Y-64786433D01*
X91390568Y-64575992D01*
X91463553Y-64351368D01*
X91468844Y-64317962D01*
X91500500Y-64118097D01*
X91500500Y-63881902D01*
X108499500Y-63881902D01*
X108499500Y-64118097D01*
X108536446Y-64351368D01*
X108609433Y-64575996D01*
X108692349Y-64738726D01*
X108716657Y-64786433D01*
X108855483Y-64977510D01*
X109022490Y-65144517D01*
X109213567Y-65283343D01*
X109286492Y-65320500D01*
X109424003Y-65390566D01*
X109424005Y-65390566D01*
X109424008Y-65390568D01*
X109537734Y-65427520D01*
X109648631Y-65463553D01*
X109881903Y-65500500D01*
X109881908Y-65500500D01*
X110118097Y-65500500D01*
X110351368Y-65463553D01*
X110575992Y-65390568D01*
X110786433Y-65283343D01*
X110977510Y-65144517D01*
X111144517Y-64977510D01*
X111283343Y-64786433D01*
X111390568Y-64575992D01*
X111463553Y-64351368D01*
X111468844Y-64317962D01*
X111500500Y-64118097D01*
X111500500Y-63881902D01*
X111463553Y-63648631D01*
X111406288Y-63472389D01*
X111390568Y-63424008D01*
X111390566Y-63424005D01*
X111390566Y-63424003D01*
X111328405Y-63302007D01*
X111283343Y-63213567D01*
X111198930Y-63097383D01*
X111175451Y-63031579D01*
X111191276Y-62963525D01*
X111241382Y-62914830D01*
X111299249Y-62900499D01*
X112047871Y-62900499D01*
X112047872Y-62900499D01*
X112107483Y-62894091D01*
X112242331Y-62843796D01*
X112357546Y-62757546D01*
X112443796Y-62642331D01*
X112494091Y-62507483D01*
X112500500Y-62447873D01*
X112500499Y-61352128D01*
X112494091Y-61292517D01*
X112491498Y-61285566D01*
X112443797Y-61157671D01*
X112443793Y-61157664D01*
X112357547Y-61042455D01*
X112357544Y-61042452D01*
X112242335Y-60956206D01*
X112242328Y-60956202D01*
X112107482Y-60905908D01*
X112107483Y-60905908D01*
X112047883Y-60899501D01*
X112047881Y-60899500D01*
X112047873Y-60899500D01*
X112047864Y-60899500D01*
X110252129Y-60899500D01*
X110252123Y-60899501D01*
X110192516Y-60905908D01*
X110057671Y-60956202D01*
X110057664Y-60956206D01*
X109942455Y-61042452D01*
X109942452Y-61042455D01*
X109856206Y-61157664D01*
X109856202Y-61157671D01*
X109805908Y-61292517D01*
X109799501Y-61352116D01*
X109799501Y-61352123D01*
X109799500Y-61352135D01*
X109799500Y-62406645D01*
X109779815Y-62473684D01*
X109727011Y-62519439D01*
X109694900Y-62529118D01*
X109648633Y-62536446D01*
X109424005Y-62609433D01*
X109213566Y-62716657D01*
X109108024Y-62793339D01*
X109022490Y-62855483D01*
X109022488Y-62855485D01*
X109022487Y-62855485D01*
X108855485Y-63022487D01*
X108855485Y-63022488D01*
X108855483Y-63022490D01*
X108842074Y-63040946D01*
X108716657Y-63213566D01*
X108609433Y-63424003D01*
X108536446Y-63648631D01*
X108499500Y-63881902D01*
X91500500Y-63881902D01*
X91463553Y-63648631D01*
X91406288Y-63472389D01*
X91390568Y-63424008D01*
X91390566Y-63424005D01*
X91390566Y-63424003D01*
X91328405Y-63302007D01*
X91283343Y-63213567D01*
X91144517Y-63022490D01*
X90977510Y-62855483D01*
X90802885Y-62728610D01*
X90786431Y-62716655D01*
X90770599Y-62708589D01*
X90757521Y-62696237D01*
X90741515Y-62688029D01*
X90732647Y-62672746D01*
X90719803Y-62660615D01*
X90715479Y-62643155D01*
X90706451Y-62627595D01*
X90707254Y-62609943D01*
X90703007Y-62592794D01*
X90708809Y-62575766D01*
X90709627Y-62557798D01*
X90719844Y-62543384D01*
X90725544Y-62526659D01*
X90739631Y-62515471D01*
X90750034Y-62500797D01*
X90771978Y-62489783D01*
X90780259Y-62483207D01*
X90780561Y-62483085D01*
X90787529Y-62480277D01*
X90864785Y-62459577D01*
X90916905Y-62429485D01*
X91001716Y-62380520D01*
X91113520Y-62268716D01*
X91113520Y-62268714D01*
X91123720Y-62258515D01*
X91123723Y-62258510D01*
X91284264Y-62097970D01*
X91345583Y-62064489D01*
X91347750Y-62064038D01*
X91405685Y-62052513D01*
X91503097Y-62033137D01*
X91648779Y-61972794D01*
X91779889Y-61885189D01*
X91891389Y-61773689D01*
X91978994Y-61642579D01*
X92039337Y-61496897D01*
X92068132Y-61352135D01*
X93799500Y-61352135D01*
X93799500Y-62447870D01*
X93799501Y-62447876D01*
X93805908Y-62507483D01*
X93856202Y-62642328D01*
X93856206Y-62642335D01*
X93942452Y-62757544D01*
X93942455Y-62757547D01*
X94057664Y-62843793D01*
X94057671Y-62843797D01*
X94192517Y-62894091D01*
X94192516Y-62894091D01*
X94199444Y-62894835D01*
X94252127Y-62900500D01*
X96047872Y-62900499D01*
X96107483Y-62894091D01*
X96242331Y-62843796D01*
X96357546Y-62757546D01*
X96443796Y-62642331D01*
X96494091Y-62507483D01*
X96500500Y-62447873D01*
X96500499Y-61352135D01*
X103499500Y-61352135D01*
X103499500Y-62447870D01*
X103499501Y-62447876D01*
X103505908Y-62507483D01*
X103556202Y-62642328D01*
X103556206Y-62642335D01*
X103642452Y-62757544D01*
X103642455Y-62757547D01*
X103757664Y-62843793D01*
X103757671Y-62843797D01*
X103892517Y-62894091D01*
X103892516Y-62894091D01*
X103899444Y-62894835D01*
X103952127Y-62900500D01*
X105747872Y-62900499D01*
X105807483Y-62894091D01*
X105942331Y-62843796D01*
X105977116Y-62817756D01*
X106001929Y-62808501D01*
X106042578Y-62793339D01*
X106042580Y-62793339D01*
X106072282Y-62799800D01*
X106110851Y-62808190D01*
X106110852Y-62808190D01*
X106110853Y-62808191D01*
X106139107Y-62829342D01*
X106286525Y-62976760D01*
X106320010Y-63038083D01*
X106320461Y-63040249D01*
X106351361Y-63195591D01*
X106351364Y-63195601D01*
X106411702Y-63341272D01*
X106411709Y-63341285D01*
X106499310Y-63472388D01*
X106499313Y-63472392D01*
X106610807Y-63583886D01*
X106610811Y-63583889D01*
X106741914Y-63671490D01*
X106741927Y-63671497D01*
X106887598Y-63731835D01*
X106887603Y-63731837D01*
X107006152Y-63755418D01*
X107042253Y-63762599D01*
X107042256Y-63762600D01*
X107042258Y-63762600D01*
X107199944Y-63762600D01*
X107236045Y-63755419D01*
X107236045Y-63755418D01*
X107354597Y-63731837D01*
X107500279Y-63671494D01*
X107631389Y-63583889D01*
X107742889Y-63472389D01*
X107830494Y-63341279D01*
X107890837Y-63195597D01*
X107921600Y-63040942D01*
X107921600Y-62883258D01*
X107921600Y-62883255D01*
X107921599Y-62883253D01*
X107890837Y-62728603D01*
X107874031Y-62688029D01*
X107830497Y-62582927D01*
X107830490Y-62582914D01*
X107742889Y-62451811D01*
X107742886Y-62451807D01*
X107631392Y-62340313D01*
X107631388Y-62340310D01*
X107500285Y-62252709D01*
X107500272Y-62252702D01*
X107354601Y-62192364D01*
X107354591Y-62192361D01*
X107199249Y-62161461D01*
X107137338Y-62129076D01*
X107135760Y-62127525D01*
X106546590Y-61538355D01*
X106546588Y-61538352D01*
X106427717Y-61419481D01*
X106427716Y-61419480D01*
X106387461Y-61396239D01*
X106346061Y-61372337D01*
X106346058Y-61372335D01*
X106340904Y-61369360D01*
X106290785Y-61340423D01*
X106255001Y-61330834D01*
X106245621Y-61326559D01*
X106226679Y-61310171D01*
X106205292Y-61297134D01*
X106198241Y-61285566D01*
X106192783Y-61280844D01*
X106190371Y-61272654D01*
X106180866Y-61257059D01*
X106143797Y-61157671D01*
X106143793Y-61157664D01*
X106057547Y-61042455D01*
X106057544Y-61042452D01*
X105942335Y-60956206D01*
X105942328Y-60956202D01*
X105807482Y-60905908D01*
X105807483Y-60905908D01*
X105747883Y-60899501D01*
X105747881Y-60899500D01*
X105747873Y-60899500D01*
X105747864Y-60899500D01*
X103952129Y-60899500D01*
X103952123Y-60899501D01*
X103892516Y-60905908D01*
X103757671Y-60956202D01*
X103757664Y-60956206D01*
X103642455Y-61042452D01*
X103642452Y-61042455D01*
X103556206Y-61157664D01*
X103556202Y-61157671D01*
X103505908Y-61292517D01*
X103499501Y-61352116D01*
X103499501Y-61352123D01*
X103499500Y-61352135D01*
X96500499Y-61352135D01*
X96500499Y-61352128D01*
X96494091Y-61292517D01*
X96491498Y-61285566D01*
X96443797Y-61157671D01*
X96443793Y-61157664D01*
X96357547Y-61042455D01*
X96357544Y-61042452D01*
X96242335Y-60956206D01*
X96242328Y-60956202D01*
X96107482Y-60905908D01*
X96107483Y-60905908D01*
X96047883Y-60899501D01*
X96047881Y-60899500D01*
X96047873Y-60899500D01*
X96047864Y-60899500D01*
X94252129Y-60899500D01*
X94252123Y-60899501D01*
X94192516Y-60905908D01*
X94057671Y-60956202D01*
X94057664Y-60956206D01*
X93942455Y-61042452D01*
X93942452Y-61042455D01*
X93856206Y-61157664D01*
X93856202Y-61157671D01*
X93805908Y-61292517D01*
X93799501Y-61352116D01*
X93799501Y-61352123D01*
X93799500Y-61352135D01*
X92068132Y-61352135D01*
X92070100Y-61342242D01*
X92070100Y-61184558D01*
X92070100Y-61184555D01*
X92070099Y-61184553D01*
X92057585Y-61121642D01*
X92039337Y-61029903D01*
X92008810Y-60956204D01*
X91978997Y-60884227D01*
X91978990Y-60884214D01*
X91891389Y-60753111D01*
X91891386Y-60753107D01*
X91779892Y-60641613D01*
X91779888Y-60641610D01*
X91648785Y-60554009D01*
X91648772Y-60554002D01*
X91503101Y-60493664D01*
X91503089Y-60493661D01*
X91348445Y-60462900D01*
X91348442Y-60462900D01*
X91190758Y-60462900D01*
X91190755Y-60462900D01*
X91036110Y-60493661D01*
X91036098Y-60493664D01*
X90890427Y-60554002D01*
X90890414Y-60554009D01*
X90759311Y-60641610D01*
X90759307Y-60641613D01*
X90647813Y-60753107D01*
X90647810Y-60753111D01*
X90560209Y-60884214D01*
X90560202Y-60884227D01*
X90499864Y-61029898D01*
X90499861Y-61029908D01*
X90468961Y-61185250D01*
X90460196Y-61202004D01*
X90456178Y-61220481D01*
X90437432Y-61245524D01*
X90436576Y-61247161D01*
X90435028Y-61248736D01*
X90420587Y-61263178D01*
X90359265Y-61296665D01*
X90332903Y-61299500D01*
X90282791Y-61299500D01*
X90215752Y-61279815D01*
X90169997Y-61227011D01*
X90166609Y-61218833D01*
X90143797Y-61157671D01*
X90143793Y-61157664D01*
X90057547Y-61042455D01*
X90057544Y-61042452D01*
X89942335Y-60956206D01*
X89942328Y-60956202D01*
X89807482Y-60905908D01*
X89807483Y-60905908D01*
X89747883Y-60899501D01*
X89747881Y-60899500D01*
X89747873Y-60899500D01*
X89747864Y-60899500D01*
X87952129Y-60899500D01*
X87952123Y-60899501D01*
X87892516Y-60905908D01*
X87757671Y-60956202D01*
X87757664Y-60956206D01*
X87642455Y-61042452D01*
X87642452Y-61042455D01*
X87556206Y-61157664D01*
X87556202Y-61157671D01*
X87505908Y-61292517D01*
X87499501Y-61352116D01*
X87499501Y-61352123D01*
X87499500Y-61352135D01*
X56451775Y-61352135D01*
X52227581Y-58309185D01*
X46564785Y-54229920D01*
X46560364Y-54226735D01*
X46527111Y-54198038D01*
X46507104Y-54188369D01*
X46489077Y-54175383D01*
X46489075Y-54175382D01*
X46489071Y-54175379D01*
X46453085Y-54161731D01*
X46453085Y-54161732D01*
X46447992Y-54159800D01*
X46408457Y-54140695D01*
X46386634Y-54136534D01*
X46376517Y-54132698D01*
X46376515Y-54132697D01*
X46365855Y-54128655D01*
X46327557Y-54124786D01*
X46327557Y-54124785D01*
X46322135Y-54124237D01*
X46279004Y-54116015D01*
X46256849Y-54117643D01*
X46246081Y-54116556D01*
X46246080Y-54116555D01*
X46234739Y-54115411D01*
X46196750Y-54121585D01*
X46196751Y-54121586D01*
X46191377Y-54122459D01*
X46147575Y-54125681D01*
X46126596Y-54132988D01*
X46115914Y-54134725D01*
X46115913Y-54134724D01*
X46104664Y-54136553D01*
X46104658Y-54136555D01*
X46069568Y-54152349D01*
X46059471Y-54156371D01*
X46023129Y-54169032D01*
X46013689Y-54175448D01*
X46013688Y-54175447D01*
X46004742Y-54181527D01*
X45984489Y-54190645D01*
X45950468Y-54218422D01*
X45945965Y-54221484D01*
X45945963Y-54221484D01*
X13226755Y-76462637D01*
X13160246Y-76484046D01*
X13092721Y-76466098D01*
X13085447Y-76461327D01*
X1025155Y-67931995D01*
X981786Y-67877214D01*
X974919Y-67807683D01*
X1006734Y-67745476D01*
X1027147Y-67728135D01*
X18476899Y-55893713D01*
X26109500Y-55893713D01*
X26109500Y-56106287D01*
X26116224Y-56148738D01*
X26142560Y-56315022D01*
X26142754Y-56316243D01*
X26199731Y-56491600D01*
X26208444Y-56518414D01*
X26304951Y-56707820D01*
X26429890Y-56879786D01*
X26580213Y-57030109D01*
X26752182Y-57155050D01*
X26760946Y-57159516D01*
X26811742Y-57207491D01*
X26828536Y-57275312D01*
X26805998Y-57341447D01*
X26760946Y-57380484D01*
X26752182Y-57384949D01*
X26580213Y-57509890D01*
X26429890Y-57660213D01*
X26304951Y-57832179D01*
X26208444Y-58021585D01*
X26142753Y-58223760D01*
X26109500Y-58433713D01*
X26109500Y-58646286D01*
X26141561Y-58848716D01*
X26142754Y-58856243D01*
X26203694Y-59043797D01*
X26208444Y-59058414D01*
X26304951Y-59247820D01*
X26429890Y-59419786D01*
X26580213Y-59570109D01*
X26752182Y-59695050D01*
X26760946Y-59699516D01*
X26811742Y-59747491D01*
X26828536Y-59815312D01*
X26805998Y-59881447D01*
X26760946Y-59920484D01*
X26752182Y-59924949D01*
X26580213Y-60049890D01*
X26429890Y-60200213D01*
X26304951Y-60372179D01*
X26208444Y-60561585D01*
X26142753Y-60763760D01*
X26109500Y-60973713D01*
X26109500Y-61186286D01*
X26138967Y-61372337D01*
X26142754Y-61396243D01*
X26188929Y-61538355D01*
X26208444Y-61598414D01*
X26304951Y-61787820D01*
X26429890Y-61959786D01*
X26580213Y-62110109D01*
X26752179Y-62235048D01*
X26752181Y-62235049D01*
X26752184Y-62235051D01*
X26941588Y-62331557D01*
X27143757Y-62397246D01*
X27353713Y-62430500D01*
X27353714Y-62430500D01*
X27566286Y-62430500D01*
X27566287Y-62430500D01*
X27776243Y-62397246D01*
X27978412Y-62331557D01*
X28167816Y-62235051D01*
X28226570Y-62192364D01*
X28339786Y-62110109D01*
X28339788Y-62110106D01*
X28339792Y-62110104D01*
X28490104Y-61959792D01*
X28490106Y-61959788D01*
X28490109Y-61959786D01*
X28615048Y-61787820D01*
X28615047Y-61787820D01*
X28615051Y-61787816D01*
X28619514Y-61779054D01*
X28667488Y-61728259D01*
X28735308Y-61711463D01*
X28801444Y-61733999D01*
X28840486Y-61779056D01*
X28844951Y-61787820D01*
X28969890Y-61959786D01*
X29120213Y-62110109D01*
X29292179Y-62235048D01*
X29292181Y-62235049D01*
X29292184Y-62235051D01*
X29481588Y-62331557D01*
X29683757Y-62397246D01*
X29893713Y-62430500D01*
X29893714Y-62430500D01*
X30106286Y-62430500D01*
X30106287Y-62430500D01*
X30316243Y-62397246D01*
X30518412Y-62331557D01*
X30707816Y-62235051D01*
X30766570Y-62192364D01*
X30879786Y-62110109D01*
X30879788Y-62110106D01*
X30879792Y-62110104D01*
X31030104Y-61959792D01*
X31030106Y-61959788D01*
X31030109Y-61959786D01*
X31155048Y-61787820D01*
X31155047Y-61787820D01*
X31155051Y-61787816D01*
X31251557Y-61598412D01*
X31317246Y-61396243D01*
X31350500Y-61186287D01*
X31350500Y-60973713D01*
X31317246Y-60763757D01*
X31251557Y-60561588D01*
X31155051Y-60372184D01*
X31155049Y-60372181D01*
X31155048Y-60372179D01*
X31030109Y-60200213D01*
X30879786Y-60049890D01*
X30707820Y-59924951D01*
X30707115Y-59924591D01*
X30699054Y-59920485D01*
X30648259Y-59872512D01*
X30631463Y-59804692D01*
X30653999Y-59738556D01*
X30699054Y-59699515D01*
X30707816Y-59695051D01*
X30729789Y-59679086D01*
X30879786Y-59570109D01*
X30879788Y-59570106D01*
X30879792Y-59570104D01*
X31030104Y-59419792D01*
X31030106Y-59419788D01*
X31030109Y-59419786D01*
X31155048Y-59247820D01*
X31155047Y-59247820D01*
X31155051Y-59247816D01*
X31251557Y-59058412D01*
X31317246Y-58856243D01*
X31350500Y-58646287D01*
X31350500Y-58433713D01*
X31317246Y-58223757D01*
X31251557Y-58021588D01*
X31155051Y-57832184D01*
X31155049Y-57832181D01*
X31155048Y-57832179D01*
X31030109Y-57660213D01*
X30879786Y-57509890D01*
X30707817Y-57384949D01*
X30706904Y-57384484D01*
X30706618Y-57384214D01*
X30703664Y-57382404D01*
X30704044Y-57381783D01*
X30656108Y-57336510D01*
X30639312Y-57268689D01*
X30661849Y-57202554D01*
X30716564Y-57159102D01*
X30763198Y-57149999D01*
X30894786Y-57149999D01*
X30894808Y-57149997D01*
X30919869Y-57147091D01*
X30919873Y-57147090D01*
X31022474Y-57101788D01*
X31022479Y-57101785D01*
X31101785Y-57022479D01*
X31101788Y-57022474D01*
X31147089Y-56919877D01*
X31147089Y-56919875D01*
X31149999Y-56894794D01*
X31150000Y-56894791D01*
X31150000Y-56150000D01*
X30477445Y-56150000D01*
X30500000Y-56065826D01*
X30500000Y-55934174D01*
X30477445Y-55850000D01*
X31149999Y-55850000D01*
X31149999Y-55105214D01*
X31149997Y-55105191D01*
X31147091Y-55080130D01*
X31147090Y-55080126D01*
X31101788Y-54977525D01*
X31101785Y-54977520D01*
X31022479Y-54898214D01*
X31022474Y-54898211D01*
X30919876Y-54852910D01*
X30894794Y-54850000D01*
X30150000Y-54850000D01*
X30150000Y-55522554D01*
X30065826Y-55500000D01*
X29934174Y-55500000D01*
X29850000Y-55522554D01*
X29850000Y-54850000D01*
X29105214Y-54850000D01*
X29105191Y-54850002D01*
X29080130Y-54852908D01*
X29080126Y-54852909D01*
X28977525Y-54898211D01*
X28977520Y-54898214D01*
X28898214Y-54977520D01*
X28898211Y-54977525D01*
X28852910Y-55080122D01*
X28852910Y-55080124D01*
X28850000Y-55105205D01*
X28850000Y-55236800D01*
X28830315Y-55303839D01*
X28777511Y-55349594D01*
X28708353Y-55359538D01*
X28644797Y-55330513D01*
X28617904Y-55296147D01*
X28617596Y-55296336D01*
X28615949Y-55293649D01*
X28615515Y-55293094D01*
X28615050Y-55292182D01*
X28490109Y-55120213D01*
X28339786Y-54969890D01*
X28167820Y-54844951D01*
X27978414Y-54748444D01*
X27978413Y-54748443D01*
X27978412Y-54748443D01*
X27776243Y-54682754D01*
X27776241Y-54682753D01*
X27776240Y-54682753D01*
X27595128Y-54654068D01*
X27566287Y-54649500D01*
X27353713Y-54649500D01*
X27324872Y-54654068D01*
X27143760Y-54682753D01*
X26941585Y-54748444D01*
X26752179Y-54844951D01*
X26580213Y-54969890D01*
X26429890Y-55120213D01*
X26304951Y-55292179D01*
X26208444Y-55481585D01*
X26142753Y-55683760D01*
X26114174Y-55864205D01*
X26109500Y-55893713D01*
X18476899Y-55893713D01*
X22825068Y-52944785D01*
X30435001Y-52944785D01*
X30435002Y-52944808D01*
X30437908Y-52969869D01*
X30437909Y-52969873D01*
X30483211Y-53072474D01*
X30483214Y-53072479D01*
X30562520Y-53151785D01*
X30562525Y-53151788D01*
X30665123Y-53197089D01*
X30690206Y-53199999D01*
X30934999Y-53199999D01*
X30935000Y-53199998D01*
X30935000Y-52700000D01*
X30435001Y-52700000D01*
X30435001Y-52944785D01*
X22825068Y-52944785D01*
X77037441Y-16177953D01*
X84257500Y-16177953D01*
X84257500Y-16335646D01*
X84288261Y-16490289D01*
X84288264Y-16490301D01*
X84348602Y-16635972D01*
X84348609Y-16635985D01*
X84436210Y-16767088D01*
X84436213Y-16767092D01*
X84547707Y-16878586D01*
X84547711Y-16878589D01*
X84678814Y-16966190D01*
X84678827Y-16966197D01*
X84782966Y-17009332D01*
X84824503Y-17026537D01*
X84889147Y-17039395D01*
X84979849Y-17057438D01*
X85041760Y-17089823D01*
X85043339Y-17091374D01*
X87127939Y-19175974D01*
X87127949Y-19175985D01*
X87132279Y-19180315D01*
X87132280Y-19180316D01*
X87244084Y-19292120D01*
X87330895Y-19342239D01*
X87330897Y-19342241D01*
X87368951Y-19364211D01*
X87381015Y-19371177D01*
X87533743Y-19412101D01*
X87533746Y-19412101D01*
X87699454Y-19412101D01*
X87699470Y-19412100D01*
X94276731Y-19412100D01*
X94276747Y-19412101D01*
X94284343Y-19412101D01*
X94442454Y-19412101D01*
X94442457Y-19412101D01*
X94595185Y-19371177D01*
X94645304Y-19342239D01*
X94732116Y-19292120D01*
X94843920Y-19180316D01*
X94843921Y-19180313D01*
X95012417Y-19011817D01*
X95073740Y-18978334D01*
X95100097Y-18975500D01*
X95431613Y-18975500D01*
X95431616Y-18975500D01*
X95502196Y-18969086D01*
X95664606Y-18918478D01*
X95810185Y-18830472D01*
X95810189Y-18830468D01*
X95912319Y-18728339D01*
X95973642Y-18694854D01*
X96043334Y-18699838D01*
X96087681Y-18728339D01*
X96189811Y-18830469D01*
X96189813Y-18830470D01*
X96189815Y-18830472D01*
X96335394Y-18918478D01*
X96497804Y-18969086D01*
X96568384Y-18975500D01*
X96568387Y-18975500D01*
X97081613Y-18975500D01*
X97081616Y-18975500D01*
X97152196Y-18969086D01*
X97314606Y-18918478D01*
X97460185Y-18830472D01*
X97580472Y-18710185D01*
X97668478Y-18564606D01*
X97719086Y-18402196D01*
X97725500Y-18331616D01*
X97725500Y-17668384D01*
X97719086Y-17597804D01*
X97668478Y-17435394D01*
X97580472Y-17289815D01*
X97580470Y-17289813D01*
X97580469Y-17289811D01*
X97460188Y-17169530D01*
X97314606Y-17081522D01*
X97163906Y-17034563D01*
X97152196Y-17030914D01*
X97152194Y-17030913D01*
X97152192Y-17030913D01*
X97102778Y-17026423D01*
X97081616Y-17024500D01*
X97081613Y-17024500D01*
X96750097Y-17024500D01*
X96720656Y-17015855D01*
X96690670Y-17009332D01*
X96685654Y-17005577D01*
X96683058Y-17004815D01*
X96662416Y-16988181D01*
X96507690Y-16833455D01*
X96507688Y-16833452D01*
X96418817Y-16744581D01*
X96385332Y-16683258D01*
X96390316Y-16613566D01*
X96432188Y-16557633D01*
X96497652Y-16533216D01*
X96506498Y-16532900D01*
X107626431Y-16532900D01*
X107626447Y-16532901D01*
X107634043Y-16532901D01*
X107792154Y-16532901D01*
X107792157Y-16532901D01*
X107944885Y-16491977D01*
X107995004Y-16463039D01*
X108081816Y-16412920D01*
X108193620Y-16301116D01*
X108193620Y-16301114D01*
X108203828Y-16290907D01*
X108203829Y-16290904D01*
X112524564Y-11970171D01*
X112585885Y-11936688D01*
X112588052Y-11936237D01*
X112588741Y-11936100D01*
X112588742Y-11936100D01*
X112743397Y-11905337D01*
X112889079Y-11844994D01*
X113020189Y-11757389D01*
X113131689Y-11645889D01*
X113219294Y-11514779D01*
X113220941Y-11510804D01*
X113238246Y-11469024D01*
X113279637Y-11369097D01*
X113310400Y-11214442D01*
X113310400Y-11056758D01*
X113310400Y-11056755D01*
X113310399Y-11056753D01*
X113292355Y-10966041D01*
X113279637Y-10902103D01*
X113279635Y-10902098D01*
X113219297Y-10756427D01*
X113219290Y-10756414D01*
X113131689Y-10625311D01*
X113131686Y-10625307D01*
X113020192Y-10513813D01*
X113020188Y-10513810D01*
X112889085Y-10426209D01*
X112889072Y-10426202D01*
X112743401Y-10365864D01*
X112743389Y-10365861D01*
X112588745Y-10335100D01*
X112588742Y-10335100D01*
X112431058Y-10335100D01*
X112431055Y-10335100D01*
X112276410Y-10365861D01*
X112276398Y-10365864D01*
X112130727Y-10426202D01*
X112130714Y-10426209D01*
X111999611Y-10513810D01*
X111999607Y-10513813D01*
X111888113Y-10625307D01*
X111888110Y-10625311D01*
X111800509Y-10756414D01*
X111800502Y-10756427D01*
X111740164Y-10902098D01*
X111740161Y-10902108D01*
X111709262Y-11057448D01*
X111676877Y-11119359D01*
X111675326Y-11120937D01*
X107500684Y-15295581D01*
X107439361Y-15329066D01*
X107413003Y-15331900D01*
X96368566Y-15331900D01*
X96301527Y-15312215D01*
X96299675Y-15311002D01*
X96167985Y-15223009D01*
X96167972Y-15223002D01*
X96022301Y-15162664D01*
X96022289Y-15162661D01*
X95867645Y-15131900D01*
X95867642Y-15131900D01*
X95709958Y-15131900D01*
X95709955Y-15131900D01*
X95555310Y-15162661D01*
X95555298Y-15162664D01*
X95409627Y-15223002D01*
X95409614Y-15223009D01*
X95278511Y-15310610D01*
X95278507Y-15310613D01*
X95167013Y-15422107D01*
X95167010Y-15422111D01*
X95079409Y-15553214D01*
X95079402Y-15553227D01*
X95019064Y-15698898D01*
X95019061Y-15698910D01*
X94988300Y-15853553D01*
X94988300Y-16011246D01*
X95019061Y-16165889D01*
X95019064Y-16165901D01*
X95079402Y-16311572D01*
X95079409Y-16311584D01*
X95139629Y-16401709D01*
X95160507Y-16468386D01*
X95142023Y-16535766D01*
X95090044Y-16582457D01*
X95036527Y-16594600D01*
X93513340Y-16594600D01*
X93472419Y-16605564D01*
X93472419Y-16605565D01*
X93435151Y-16615551D01*
X93360614Y-16635523D01*
X93360609Y-16635526D01*
X93223690Y-16714575D01*
X93223682Y-16714581D01*
X93111878Y-16826385D01*
X93111878Y-16826386D01*
X92950082Y-16988182D01*
X92888761Y-17021666D01*
X92862403Y-17024500D01*
X92520818Y-17024500D01*
X92422316Y-17034563D01*
X92422315Y-17034564D01*
X92353286Y-17057438D01*
X92262715Y-17087450D01*
X92262704Y-17087455D01*
X92119612Y-17175716D01*
X92119608Y-17175719D01*
X92000719Y-17294608D01*
X92000716Y-17294612D01*
X91975759Y-17335073D01*
X91923810Y-17381797D01*
X91854848Y-17393017D01*
X91795297Y-17368778D01*
X91687886Y-17287325D01*
X91555224Y-17235010D01*
X91471856Y-17225000D01*
X91362500Y-17225000D01*
X91362500Y-17876000D01*
X91359949Y-17884685D01*
X91361238Y-17893647D01*
X91350259Y-17917687D01*
X91342815Y-17943039D01*
X91335974Y-17948966D01*
X91332213Y-17957203D01*
X91309978Y-17971492D01*
X91290011Y-17988794D01*
X91279496Y-17991081D01*
X91273435Y-17994977D01*
X91238500Y-18000000D01*
X91212500Y-18000000D01*
X91212500Y-18026000D01*
X91192815Y-18093039D01*
X91140011Y-18138794D01*
X91088500Y-18150000D01*
X90475000Y-18150000D01*
X90450219Y-18174781D01*
X90388896Y-18208266D01*
X90362538Y-18211100D01*
X87912897Y-18211100D01*
X87845858Y-18191415D01*
X87825216Y-18174781D01*
X87353579Y-17703144D01*
X90475000Y-17703144D01*
X90475000Y-17850000D01*
X91062500Y-17850000D01*
X91062500Y-17225000D01*
X90953144Y-17225000D01*
X90869775Y-17235010D01*
X90737113Y-17287325D01*
X90623489Y-17373489D01*
X90537325Y-17487113D01*
X90485010Y-17619775D01*
X90475000Y-17703144D01*
X87353579Y-17703144D01*
X85892574Y-16242139D01*
X85859089Y-16180816D01*
X85858638Y-16178649D01*
X85827738Y-16023310D01*
X85827737Y-16023303D01*
X85822741Y-16011242D01*
X85767397Y-15877627D01*
X85767390Y-15877614D01*
X85679789Y-15746511D01*
X85679786Y-15746507D01*
X85568292Y-15635013D01*
X85568288Y-15635010D01*
X85437185Y-15547409D01*
X85437172Y-15547402D01*
X85291501Y-15487064D01*
X85291489Y-15487061D01*
X85136845Y-15456300D01*
X85136842Y-15456300D01*
X84979158Y-15456300D01*
X84979155Y-15456300D01*
X84824510Y-15487061D01*
X84824498Y-15487064D01*
X84678827Y-15547402D01*
X84678814Y-15547409D01*
X84547711Y-15635010D01*
X84547707Y-15635013D01*
X84436213Y-15746507D01*
X84436210Y-15746511D01*
X84348609Y-15877614D01*
X84348602Y-15877627D01*
X84288264Y-16023298D01*
X84288261Y-16023310D01*
X84257500Y-16177953D01*
X77037441Y-16177953D01*
X81249473Y-13321353D01*
X87363200Y-13321353D01*
X87363200Y-13479046D01*
X87393961Y-13633689D01*
X87393964Y-13633701D01*
X87454302Y-13779372D01*
X87454309Y-13779385D01*
X87541910Y-13910488D01*
X87541913Y-13910492D01*
X87653407Y-14021986D01*
X87653411Y-14021989D01*
X87784514Y-14109590D01*
X87784527Y-14109597D01*
X87930198Y-14169935D01*
X87930203Y-14169937D01*
X88084853Y-14200699D01*
X88084856Y-14200700D01*
X88084858Y-14200700D01*
X88242544Y-14200700D01*
X88242545Y-14200699D01*
X88397197Y-14169937D01*
X88542879Y-14109594D01*
X88542885Y-14109590D01*
X88674575Y-14021598D01*
X88741253Y-14000720D01*
X88743466Y-14000700D01*
X102408031Y-14000700D01*
X102408047Y-14000701D01*
X102415643Y-14000701D01*
X102573754Y-14000701D01*
X102573757Y-14000701D01*
X102726485Y-13959777D01*
X102776604Y-13930839D01*
X102863416Y-13880720D01*
X102975220Y-13768916D01*
X102975220Y-13768914D01*
X102985428Y-13758707D01*
X102985429Y-13758704D01*
X106072962Y-10671172D01*
X106134283Y-10637689D01*
X106136450Y-10637238D01*
X106196429Y-10625307D01*
X106291797Y-10606337D01*
X106437479Y-10545994D01*
X106568589Y-10458389D01*
X106680089Y-10346889D01*
X106767694Y-10215779D01*
X106828037Y-10070097D01*
X106858800Y-9915442D01*
X106858800Y-9757758D01*
X106858800Y-9757755D01*
X106858799Y-9757753D01*
X106828038Y-9603110D01*
X106828038Y-9603108D01*
X106828037Y-9603103D01*
X106798442Y-9531653D01*
X106767697Y-9457427D01*
X106767690Y-9457414D01*
X106680089Y-9326311D01*
X106680086Y-9326307D01*
X106568592Y-9214813D01*
X106568588Y-9214810D01*
X106437485Y-9127209D01*
X106437472Y-9127202D01*
X106291801Y-9066864D01*
X106291789Y-9066861D01*
X106137145Y-9036100D01*
X106137142Y-9036100D01*
X105979458Y-9036100D01*
X105979455Y-9036100D01*
X105824810Y-9066861D01*
X105824798Y-9066864D01*
X105679127Y-9127202D01*
X105679114Y-9127209D01*
X105548011Y-9214810D01*
X105548007Y-9214813D01*
X105436513Y-9326307D01*
X105436510Y-9326311D01*
X105348909Y-9457414D01*
X105348902Y-9457427D01*
X105288564Y-9603098D01*
X105288561Y-9603108D01*
X105257661Y-9758450D01*
X105225276Y-9820361D01*
X105223725Y-9821939D01*
X104700830Y-10344833D01*
X104639507Y-10378318D01*
X104569815Y-10373334D01*
X104513882Y-10331462D01*
X104498744Y-10299060D01*
X104496802Y-10299785D01*
X104443797Y-10157671D01*
X104443793Y-10157664D01*
X104357547Y-10042455D01*
X104357544Y-10042452D01*
X104242335Y-9956206D01*
X104242328Y-9956202D01*
X104107482Y-9905908D01*
X104107483Y-9905908D01*
X104047883Y-9899501D01*
X104047881Y-9899500D01*
X104047873Y-9899500D01*
X104047864Y-9899500D01*
X102252129Y-9899500D01*
X102252123Y-9899501D01*
X102192516Y-9905908D01*
X102057671Y-9956202D01*
X102057664Y-9956206D01*
X101942455Y-10042452D01*
X101942452Y-10042455D01*
X101856206Y-10157664D01*
X101856202Y-10157671D01*
X101805908Y-10292517D01*
X101799501Y-10352116D01*
X101799500Y-10352135D01*
X101799500Y-11447870D01*
X101799501Y-11447876D01*
X101805908Y-11507483D01*
X101856202Y-11642328D01*
X101856206Y-11642335D01*
X101942452Y-11757544D01*
X101942455Y-11757547D01*
X102057664Y-11843793D01*
X102057671Y-11843797D01*
X102192517Y-11894091D01*
X102192516Y-11894091D01*
X102199444Y-11894835D01*
X102252127Y-11900500D01*
X102845803Y-11900499D01*
X102912841Y-11920183D01*
X102958596Y-11972987D01*
X102968540Y-12042146D01*
X102939515Y-12105702D01*
X102933483Y-12112180D01*
X102282284Y-12763381D01*
X102220961Y-12796866D01*
X102194603Y-12799700D01*
X88743466Y-12799700D01*
X88676427Y-12780015D01*
X88674575Y-12778802D01*
X88542885Y-12690809D01*
X88542872Y-12690802D01*
X88397201Y-12630464D01*
X88397189Y-12630461D01*
X88242545Y-12599700D01*
X88242542Y-12599700D01*
X88084858Y-12599700D01*
X88084855Y-12599700D01*
X87930210Y-12630461D01*
X87930198Y-12630464D01*
X87784527Y-12690802D01*
X87784514Y-12690809D01*
X87653411Y-12778410D01*
X87653407Y-12778413D01*
X87541913Y-12889907D01*
X87541910Y-12889911D01*
X87454309Y-13021014D01*
X87454302Y-13021027D01*
X87393964Y-13166698D01*
X87393961Y-13166710D01*
X87363200Y-13321353D01*
X81249473Y-13321353D01*
X84562065Y-11074753D01*
X86181200Y-11074753D01*
X86181200Y-11232446D01*
X86211961Y-11387089D01*
X86211964Y-11387101D01*
X86272302Y-11532772D01*
X86272309Y-11532785D01*
X86359910Y-11663888D01*
X86359913Y-11663892D01*
X86471407Y-11775386D01*
X86471411Y-11775389D01*
X86602514Y-11862990D01*
X86602527Y-11862997D01*
X86748198Y-11923335D01*
X86748203Y-11923337D01*
X86902853Y-11954099D01*
X86902856Y-11954100D01*
X86902858Y-11954100D01*
X87060544Y-11954100D01*
X87060545Y-11954099D01*
X87215197Y-11923337D01*
X87360879Y-11862994D01*
X87491989Y-11775389D01*
X87603489Y-11663889D01*
X87664227Y-11572989D01*
X87675840Y-11555609D01*
X87729452Y-11510804D01*
X87778942Y-11500500D01*
X95417209Y-11500500D01*
X95484248Y-11520185D01*
X95530003Y-11572989D01*
X95533391Y-11581167D01*
X95556202Y-11642328D01*
X95556206Y-11642335D01*
X95642452Y-11757544D01*
X95642455Y-11757547D01*
X95757664Y-11843793D01*
X95757671Y-11843797D01*
X95892517Y-11894091D01*
X95892516Y-11894091D01*
X95899444Y-11894835D01*
X95952127Y-11900500D01*
X97747872Y-11900499D01*
X97807483Y-11894091D01*
X97942331Y-11843796D01*
X98057546Y-11757546D01*
X98143796Y-11642331D01*
X98190474Y-11517179D01*
X98232345Y-11461247D01*
X98244640Y-11453135D01*
X98370416Y-11380520D01*
X98482220Y-11268716D01*
X98561277Y-11131784D01*
X98602200Y-10979057D01*
X98602200Y-10151143D01*
X98594067Y-10120789D01*
X98561277Y-9998415D01*
X98561275Y-9998411D01*
X98513372Y-9915441D01*
X98513371Y-9915440D01*
X98482221Y-9861486D01*
X98482220Y-9861484D01*
X98370416Y-9749680D01*
X98370415Y-9749679D01*
X98366085Y-9745349D01*
X98366074Y-9745339D01*
X97869590Y-9248855D01*
X97869588Y-9248852D01*
X97750717Y-9129981D01*
X97750716Y-9129980D01*
X97699147Y-9100207D01*
X97667677Y-9082038D01*
X97667673Y-9082036D01*
X97663904Y-9079860D01*
X97613785Y-9050923D01*
X97591637Y-9044988D01*
X97580923Y-9039768D01*
X97567367Y-9027415D01*
X97547556Y-9015977D01*
X97520292Y-8988713D01*
X97520288Y-8988710D01*
X97389185Y-8901109D01*
X97389172Y-8901102D01*
X97243501Y-8840764D01*
X97243489Y-8840761D01*
X97088845Y-8810000D01*
X97088842Y-8810000D01*
X96931158Y-8810000D01*
X96931155Y-8810000D01*
X96776510Y-8840761D01*
X96776498Y-8840764D01*
X96630827Y-8901102D01*
X96630814Y-8901109D01*
X96499711Y-8988710D01*
X96499707Y-8988713D01*
X96388213Y-9100207D01*
X96388210Y-9100211D01*
X96300609Y-9231314D01*
X96300602Y-9231327D01*
X96240264Y-9376998D01*
X96240261Y-9377010D01*
X96209500Y-9531653D01*
X96209500Y-9689346D01*
X96221825Y-9751309D01*
X96215598Y-9820901D01*
X96172734Y-9876078D01*
X96106844Y-9899322D01*
X96100209Y-9899500D01*
X95952130Y-9899500D01*
X95952123Y-9899501D01*
X95892516Y-9905908D01*
X95757671Y-9956202D01*
X95757664Y-9956206D01*
X95642455Y-10042452D01*
X95642452Y-10042455D01*
X95556206Y-10157664D01*
X95556202Y-10157671D01*
X95533391Y-10218833D01*
X95491520Y-10274767D01*
X95426056Y-10299184D01*
X95417209Y-10299500D01*
X87321970Y-10299500D01*
X87321954Y-10299499D01*
X87314358Y-10299499D01*
X87156243Y-10299499D01*
X87095152Y-10315868D01*
X87003513Y-10340423D01*
X86996005Y-10343534D01*
X86994814Y-10340659D01*
X86948332Y-10353100D01*
X86902855Y-10353100D01*
X86748210Y-10383861D01*
X86748198Y-10383864D01*
X86602527Y-10444202D01*
X86602514Y-10444209D01*
X86471411Y-10531810D01*
X86471407Y-10531813D01*
X86359913Y-10643307D01*
X86359910Y-10643311D01*
X86272309Y-10774414D01*
X86272302Y-10774427D01*
X86211964Y-10920098D01*
X86211961Y-10920110D01*
X86181200Y-11074753D01*
X84562065Y-11074753D01*
X89619523Y-7644785D01*
X95700001Y-7644785D01*
X95700002Y-7644808D01*
X95702908Y-7669869D01*
X95702909Y-7669873D01*
X95748211Y-7772474D01*
X95748214Y-7772479D01*
X95827520Y-7851785D01*
X95827525Y-7851788D01*
X95930123Y-7897089D01*
X95955206Y-7899999D01*
X96699999Y-7899999D01*
X97000000Y-7899999D01*
X97744786Y-7899999D01*
X97744808Y-7899997D01*
X97769869Y-7897091D01*
X97769873Y-7897090D01*
X97872474Y-7851788D01*
X97872479Y-7851785D01*
X97951785Y-7772479D01*
X97951788Y-7772474D01*
X97997089Y-7669877D01*
X97997089Y-7669875D01*
X97999999Y-7644794D01*
X98000000Y-7644791D01*
X98000000Y-7250000D01*
X97000000Y-7250000D01*
X97000000Y-7899999D01*
X96699999Y-7899999D01*
X96700000Y-7899998D01*
X96700000Y-7250000D01*
X95700001Y-7250000D01*
X95700001Y-7644785D01*
X89619523Y-7644785D01*
X91226099Y-6555205D01*
X95700000Y-6555205D01*
X95700000Y-6950000D01*
X96700000Y-6950000D01*
X97000000Y-6950000D01*
X97999999Y-6950000D01*
X97999999Y-6555213D01*
X97999997Y-6555192D01*
X97999643Y-6552135D01*
X101799500Y-6552135D01*
X101799500Y-7647870D01*
X101799501Y-7647876D01*
X101805908Y-7707483D01*
X101856202Y-7842328D01*
X101856206Y-7842335D01*
X101942452Y-7957544D01*
X101942455Y-7957547D01*
X102057664Y-8043793D01*
X102057671Y-8043797D01*
X102192517Y-8094091D01*
X102192516Y-8094091D01*
X102199444Y-8094835D01*
X102252127Y-8100500D01*
X104047872Y-8100499D01*
X104107483Y-8094091D01*
X104242331Y-8043796D01*
X104357546Y-7957546D01*
X104443796Y-7842331D01*
X104494091Y-7707483D01*
X104500500Y-7647873D01*
X104500499Y-6552128D01*
X104494091Y-6492517D01*
X104477860Y-6449000D01*
X104443797Y-6357671D01*
X104443793Y-6357664D01*
X104357547Y-6242455D01*
X104357544Y-6242452D01*
X104242335Y-6156206D01*
X104242328Y-6156202D01*
X104107482Y-6105908D01*
X104107483Y-6105908D01*
X104047883Y-6099501D01*
X104047881Y-6099500D01*
X104047873Y-6099500D01*
X104047864Y-6099500D01*
X102252129Y-6099500D01*
X102252123Y-6099501D01*
X102192516Y-6105908D01*
X102057671Y-6156202D01*
X102057664Y-6156206D01*
X101942455Y-6242452D01*
X101942452Y-6242455D01*
X101856206Y-6357664D01*
X101856202Y-6357671D01*
X101805908Y-6492517D01*
X101801865Y-6530126D01*
X101799501Y-6552123D01*
X101799500Y-6552135D01*
X97999643Y-6552135D01*
X97997091Y-6530130D01*
X97997090Y-6530126D01*
X97951788Y-6427525D01*
X97951785Y-6427520D01*
X97872479Y-6348214D01*
X97872474Y-6348211D01*
X97769876Y-6302910D01*
X97744794Y-6300000D01*
X97000000Y-6300000D01*
X97000000Y-6950000D01*
X96700000Y-6950000D01*
X96700000Y-6300000D01*
X95955214Y-6300000D01*
X95955191Y-6300002D01*
X95930130Y-6302908D01*
X95930126Y-6302909D01*
X95827525Y-6348211D01*
X95827520Y-6348214D01*
X95748214Y-6427520D01*
X95748211Y-6427525D01*
X95702910Y-6530122D01*
X95702910Y-6530124D01*
X95700000Y-6555205D01*
X91226099Y-6555205D01*
X99930486Y-651890D01*
X99997016Y-630554D01*
X100064522Y-648574D01*
G37*
%TD.AperFunction*%
%TA.AperFunction,Conductor*%
G36*
X169946197Y-48696705D02*
G01*
X169992626Y-48725961D01*
X176283939Y-55017274D01*
X176283949Y-55017285D01*
X176288279Y-55021615D01*
X176288280Y-55021616D01*
X176400084Y-55133420D01*
X176400086Y-55133421D01*
X176400090Y-55133424D01*
X176482167Y-55180811D01*
X176482168Y-55180811D01*
X176537015Y-55212477D01*
X176689742Y-55253400D01*
X176689743Y-55253400D01*
X176705210Y-55253400D01*
X176772249Y-55273085D01*
X176818004Y-55325889D01*
X176827948Y-55395047D01*
X176819772Y-55424851D01*
X176810744Y-55446647D01*
X176810741Y-55446656D01*
X176794163Y-55529999D01*
X176794164Y-55530000D01*
X177320192Y-55530000D01*
X177300444Y-55564204D01*
X177280000Y-55640504D01*
X177280000Y-55719496D01*
X177300444Y-55795796D01*
X177320192Y-55830000D01*
X176794163Y-55830000D01*
X176810741Y-55913343D01*
X176810744Y-55913353D01*
X176871047Y-56058939D01*
X176871052Y-56058948D01*
X176958598Y-56189969D01*
X176958601Y-56189973D01*
X177070026Y-56301398D01*
X177070030Y-56301401D01*
X177201051Y-56388947D01*
X177201064Y-56388954D01*
X177258038Y-56412553D01*
X177312442Y-56456393D01*
X177334507Y-56522687D01*
X177317228Y-56590387D01*
X177272589Y-56634499D01*
X177246641Y-56649481D01*
X177246632Y-56649487D01*
X177139487Y-56756632D01*
X177139485Y-56756635D01*
X177063719Y-56887863D01*
X177027651Y-57022474D01*
X177024500Y-57034234D01*
X177024500Y-57185766D01*
X177027927Y-57198556D01*
X177063719Y-57332136D01*
X177092383Y-57381783D01*
X177139485Y-57463365D01*
X177246635Y-57570515D01*
X177377865Y-57646281D01*
X177524234Y-57685500D01*
X177524236Y-57685500D01*
X177675759Y-57685500D01*
X177675766Y-57685500D01*
X177675772Y-57685498D01*
X177679304Y-57685033D01*
X177682300Y-57685500D01*
X177683894Y-57685500D01*
X177683894Y-57685748D01*
X177693478Y-57687242D01*
X177707567Y-57684560D01*
X177727307Y-57692514D01*
X177748340Y-57695793D01*
X177759069Y-57705313D01*
X177772373Y-57710675D01*
X177784679Y-57728040D01*
X177800600Y-57742168D01*
X177805244Y-57757058D01*
X177812772Y-57767680D01*
X177817627Y-57796755D01*
X177819373Y-57802352D01*
X177819500Y-57805165D01*
X177819501Y-57897872D01*
X177825909Y-57957483D01*
X177826479Y-57959012D01*
X177826950Y-57969384D01*
X177826367Y-57971763D01*
X177826367Y-57988256D01*
X177825909Y-57992517D01*
X177820937Y-58038756D01*
X177794202Y-58103304D01*
X177736810Y-58143154D01*
X177697649Y-58149500D01*
X166484897Y-58149500D01*
X166417858Y-58129815D01*
X166397216Y-58113181D01*
X164996216Y-56712181D01*
X164962731Y-56650858D01*
X164967715Y-56581166D01*
X165009587Y-56525233D01*
X165075051Y-56500816D01*
X165083897Y-56500500D01*
X165118097Y-56500500D01*
X165351368Y-56463553D01*
X165373404Y-56456393D01*
X165575992Y-56390568D01*
X165786433Y-56283343D01*
X165977510Y-56144517D01*
X166144517Y-55977510D01*
X166283343Y-55786433D01*
X166287363Y-55778543D01*
X172649499Y-55778543D01*
X172687947Y-55971829D01*
X172687950Y-55971839D01*
X172763364Y-56153907D01*
X172763371Y-56153920D01*
X172872860Y-56317781D01*
X172872863Y-56317785D01*
X173012214Y-56457136D01*
X173012218Y-56457139D01*
X173176079Y-56566628D01*
X173176092Y-56566635D01*
X173351550Y-56639311D01*
X173358165Y-56642051D01*
X173358169Y-56642051D01*
X173358170Y-56642052D01*
X173551456Y-56680500D01*
X173551459Y-56680500D01*
X174348543Y-56680500D01*
X174489325Y-56652496D01*
X174541835Y-56642051D01*
X174723914Y-56566632D01*
X174887782Y-56457139D01*
X175027139Y-56317782D01*
X175136632Y-56153914D01*
X175137410Y-56152037D01*
X175175968Y-56058948D01*
X175212051Y-55971835D01*
X175247068Y-55795796D01*
X175250500Y-55778543D01*
X175250500Y-55581456D01*
X175212052Y-55388170D01*
X175212051Y-55388169D01*
X175212051Y-55388165D01*
X175205432Y-55372185D01*
X175136635Y-55206092D01*
X175136628Y-55206079D01*
X175027139Y-55042218D01*
X175027136Y-55042214D01*
X174887785Y-54902863D01*
X174887781Y-54902860D01*
X174723920Y-54793371D01*
X174723907Y-54793364D01*
X174541839Y-54717950D01*
X174541829Y-54717947D01*
X174348543Y-54679500D01*
X174348541Y-54679500D01*
X173551459Y-54679500D01*
X173551457Y-54679500D01*
X173358170Y-54717947D01*
X173358160Y-54717950D01*
X173176092Y-54793364D01*
X173176079Y-54793371D01*
X173012218Y-54902860D01*
X173012214Y-54902863D01*
X172872863Y-55042214D01*
X172872860Y-55042218D01*
X172763371Y-55206079D01*
X172763364Y-55206092D01*
X172687950Y-55388160D01*
X172687947Y-55388170D01*
X172649500Y-55581456D01*
X172649500Y-55581459D01*
X172649500Y-55778541D01*
X172649500Y-55778543D01*
X172649499Y-55778543D01*
X166287363Y-55778543D01*
X166390568Y-55575992D01*
X166463553Y-55351368D01*
X166466856Y-55330513D01*
X166500500Y-55118097D01*
X166500500Y-54881902D01*
X166463553Y-54648631D01*
X166441351Y-54580301D01*
X166390568Y-54424008D01*
X166390564Y-54424000D01*
X166390563Y-54423997D01*
X166388701Y-54419499D01*
X166390775Y-54418639D01*
X166389518Y-54411960D01*
X166381795Y-54397816D01*
X166383188Y-54378332D01*
X166379575Y-54359137D01*
X166385629Y-54344201D01*
X166386779Y-54328124D01*
X166398485Y-54312486D01*
X166405823Y-54294385D01*
X166418992Y-54285092D01*
X166428651Y-54272191D01*
X166446950Y-54265365D01*
X166462912Y-54254103D01*
X166479015Y-54253405D01*
X166494115Y-54247774D01*
X166513200Y-54251925D01*
X166532717Y-54251081D01*
X166547390Y-54259363D01*
X166562388Y-54262626D01*
X166590642Y-54283777D01*
X166651039Y-54344174D01*
X166651049Y-54344185D01*
X166655379Y-54348515D01*
X166655380Y-54348516D01*
X166767184Y-54460320D01*
X166843092Y-54504145D01*
X166843093Y-54504146D01*
X166904109Y-54539374D01*
X166904110Y-54539375D01*
X166904112Y-54539375D01*
X166904115Y-54539377D01*
X167056843Y-54580301D01*
X167056846Y-54580301D01*
X167222553Y-54580301D01*
X167222569Y-54580300D01*
X167804934Y-54580300D01*
X167871973Y-54599985D01*
X167873825Y-54601198D01*
X168005514Y-54689190D01*
X168005527Y-54689197D01*
X168148562Y-54748443D01*
X168151203Y-54749537D01*
X168282657Y-54775685D01*
X168305853Y-54780299D01*
X168305856Y-54780300D01*
X168305858Y-54780300D01*
X168463544Y-54780300D01*
X168463545Y-54780299D01*
X168618197Y-54749537D01*
X168735053Y-54701134D01*
X168763872Y-54689197D01*
X168763872Y-54689196D01*
X168763879Y-54689194D01*
X168894989Y-54601589D01*
X169006489Y-54490089D01*
X169006761Y-54489681D01*
X169022663Y-54470412D01*
X169030973Y-54462191D01*
X169034216Y-54460320D01*
X169146020Y-54348516D01*
X169146021Y-54348513D01*
X169925206Y-53569328D01*
X169925211Y-53569324D01*
X169935414Y-53559120D01*
X169935416Y-53559120D01*
X170047220Y-53447316D01*
X170079528Y-53391357D01*
X170115355Y-53329303D01*
X170115356Y-53329301D01*
X170122823Y-53316367D01*
X170126277Y-53310385D01*
X170167200Y-53157658D01*
X170167200Y-52999543D01*
X170167200Y-51370943D01*
X170126277Y-51218216D01*
X170090825Y-51156811D01*
X170047224Y-51081290D01*
X170047218Y-51081282D01*
X169935417Y-50969481D01*
X169935409Y-50969475D01*
X169798490Y-50890426D01*
X169798486Y-50890424D01*
X169798484Y-50890423D01*
X169798482Y-50890422D01*
X169798479Y-50890421D01*
X169758416Y-50879686D01*
X169698756Y-50843321D01*
X169691245Y-50834223D01*
X169622547Y-50742455D01*
X169622544Y-50742452D01*
X169507335Y-50656206D01*
X169507328Y-50656202D01*
X169372482Y-50605908D01*
X169372483Y-50605908D01*
X169312883Y-50599501D01*
X169312881Y-50599500D01*
X169312873Y-50599500D01*
X169312864Y-50599500D01*
X168517129Y-50599500D01*
X168517123Y-50599501D01*
X168457516Y-50605908D01*
X168404230Y-50625783D01*
X168386448Y-50627054D01*
X168369744Y-50633285D01*
X168352322Y-50629495D01*
X168334538Y-50630767D01*
X168318890Y-50622222D01*
X168301471Y-50618433D01*
X168273217Y-50597282D01*
X168112590Y-50436655D01*
X168112588Y-50436652D01*
X167993717Y-50317781D01*
X167993709Y-50317775D01*
X167889388Y-50257546D01*
X167889387Y-50257545D01*
X167889387Y-50257546D01*
X167856785Y-50238723D01*
X167704057Y-50197799D01*
X167545943Y-50197799D01*
X167538347Y-50197799D01*
X167538331Y-50197800D01*
X161624162Y-50197800D01*
X161557123Y-50178115D01*
X161536481Y-50161481D01*
X161525000Y-50150000D01*
X160949000Y-50150000D01*
X160940314Y-50147449D01*
X160931353Y-50148738D01*
X160907312Y-50137759D01*
X160881961Y-50130315D01*
X160876033Y-50123474D01*
X160867797Y-50119713D01*
X160853507Y-50097478D01*
X160836206Y-50077511D01*
X160833918Y-50066996D01*
X160830023Y-50060935D01*
X160825000Y-50026000D01*
X160825000Y-49974000D01*
X160844685Y-49906961D01*
X160897489Y-49861206D01*
X160949000Y-49850000D01*
X161525000Y-49850000D01*
X161525000Y-49677172D01*
X161524999Y-49677155D01*
X161518598Y-49617627D01*
X161518595Y-49617616D01*
X161504690Y-49580332D01*
X161499706Y-49510640D01*
X161533192Y-49449318D01*
X161594515Y-49415833D01*
X161620872Y-49413000D01*
X168586665Y-49413000D01*
X168634117Y-49422439D01*
X168706873Y-49452575D01*
X168751203Y-49470937D01*
X168883014Y-49497156D01*
X168905853Y-49501699D01*
X168905856Y-49501700D01*
X168905858Y-49501700D01*
X169063544Y-49501700D01*
X169063545Y-49501699D01*
X169218197Y-49470937D01*
X169358022Y-49413020D01*
X169363872Y-49410597D01*
X169363872Y-49410596D01*
X169363879Y-49410594D01*
X169494989Y-49322989D01*
X169606489Y-49211489D01*
X169694094Y-49080379D01*
X169698462Y-49069835D01*
X169723457Y-49009490D01*
X169754437Y-48934697D01*
X169783328Y-48789449D01*
X169815712Y-48727540D01*
X169876428Y-48692966D01*
X169946197Y-48696705D01*
G37*
%TD.AperFunction*%
%TA.AperFunction,Conductor*%
G36*
X91195911Y-46620185D02*
G01*
X91241666Y-46672989D01*
X91251610Y-46742147D01*
X91222585Y-46805703D01*
X91214304Y-46813506D01*
X91214531Y-46813733D01*
X88031339Y-49996925D01*
X87970016Y-50030410D01*
X87967850Y-50030861D01*
X87812508Y-50061761D01*
X87812498Y-50061764D01*
X87666827Y-50122102D01*
X87666814Y-50122109D01*
X87535711Y-50209710D01*
X87535707Y-50209713D01*
X87424213Y-50321207D01*
X87424210Y-50321211D01*
X87336609Y-50452314D01*
X87336602Y-50452327D01*
X87276264Y-50597998D01*
X87276261Y-50598008D01*
X87249431Y-50732892D01*
X87217046Y-50794803D01*
X87156330Y-50829377D01*
X87127814Y-50832700D01*
X84829198Y-50832700D01*
X84762159Y-50813015D01*
X84741517Y-50796381D01*
X82904573Y-48959437D01*
X82871088Y-48898114D01*
X82870637Y-48895947D01*
X82861982Y-48852435D01*
X82839737Y-48740603D01*
X82820005Y-48692966D01*
X82779397Y-48594927D01*
X82779390Y-48594914D01*
X82691789Y-48463811D01*
X82691786Y-48463807D01*
X82580292Y-48352313D01*
X82580288Y-48352310D01*
X82449185Y-48264709D01*
X82449172Y-48264702D01*
X82303501Y-48204364D01*
X82303489Y-48204361D01*
X82148845Y-48173600D01*
X82148842Y-48173600D01*
X81991158Y-48173600D01*
X81991155Y-48173600D01*
X81836510Y-48204361D01*
X81836498Y-48204364D01*
X81690827Y-48264702D01*
X81690814Y-48264709D01*
X81559711Y-48352310D01*
X81559707Y-48352313D01*
X81448213Y-48463807D01*
X81448210Y-48463811D01*
X81360609Y-48594914D01*
X81360602Y-48594927D01*
X81300264Y-48740598D01*
X81300261Y-48740610D01*
X81269500Y-48895253D01*
X81269500Y-49052946D01*
X81300261Y-49207589D01*
X81300264Y-49207601D01*
X81360602Y-49353272D01*
X81360609Y-49353285D01*
X81448210Y-49484388D01*
X81448213Y-49484392D01*
X81559707Y-49595886D01*
X81559711Y-49595889D01*
X81690814Y-49683490D01*
X81690827Y-49683497D01*
X81817363Y-49735909D01*
X81836503Y-49743837D01*
X81901147Y-49756695D01*
X81991849Y-49774738D01*
X82053760Y-49807123D01*
X82055339Y-49808674D01*
X84060083Y-51813419D01*
X84093568Y-51874742D01*
X84088584Y-51944434D01*
X84046712Y-52000367D01*
X83981248Y-52024784D01*
X83972402Y-52025100D01*
X73486159Y-52025100D01*
X73478559Y-52025099D01*
X73478558Y-52025099D01*
X73474489Y-52025099D01*
X73471135Y-52024114D01*
X73470790Y-52024142D01*
X73470782Y-52024141D01*
X73470797Y-52024014D01*
X73435735Y-52013716D01*
X73407461Y-52005414D01*
X73407458Y-52005410D01*
X73407452Y-52005409D01*
X73378850Y-51972395D01*
X73361706Y-51952610D01*
X73361705Y-51952605D01*
X73361701Y-51952601D01*
X73361695Y-51952559D01*
X73350500Y-51901099D01*
X73350499Y-50182129D01*
X73350498Y-50182123D01*
X73350497Y-50182116D01*
X73344091Y-50122517D01*
X73343936Y-50122102D01*
X73293797Y-49987671D01*
X73293793Y-49987664D01*
X73207547Y-49872455D01*
X73207544Y-49872452D01*
X73092335Y-49786206D01*
X73092328Y-49786202D01*
X72957482Y-49735908D01*
X72957483Y-49735908D01*
X72897883Y-49729501D01*
X72897881Y-49729500D01*
X72897873Y-49729500D01*
X72897865Y-49729500D01*
X72700922Y-49729500D01*
X72633883Y-49709815D01*
X72588128Y-49657011D01*
X72578184Y-49587853D01*
X72607209Y-49524297D01*
X72628036Y-49505182D01*
X72700442Y-49452574D01*
X72700443Y-49452574D01*
X72231539Y-48983670D01*
X72307007Y-48940099D01*
X72400099Y-48847007D01*
X72443670Y-48771538D01*
X72912574Y-49240443D01*
X72912574Y-49240442D01*
X72983568Y-49142730D01*
X73065747Y-48981447D01*
X73065748Y-48981444D01*
X73121682Y-48809293D01*
X73150000Y-48630506D01*
X73150000Y-48449493D01*
X73121682Y-48270706D01*
X73065748Y-48098555D01*
X73065747Y-48098552D01*
X72983567Y-47937268D01*
X72912574Y-47839556D01*
X72912574Y-47839555D01*
X72443670Y-48308460D01*
X72400099Y-48232993D01*
X72307007Y-48139901D01*
X72231539Y-48096329D01*
X72700443Y-47627425D01*
X72700442Y-47627424D01*
X72602729Y-47556430D01*
X72471269Y-47489447D01*
X72420474Y-47441473D01*
X72403679Y-47373651D01*
X72426217Y-47307517D01*
X72480932Y-47264066D01*
X72489216Y-47261043D01*
X72518412Y-47251557D01*
X72707816Y-47155051D01*
X72755176Y-47120642D01*
X72879786Y-47030109D01*
X72879788Y-47030106D01*
X72879792Y-47030104D01*
X73030104Y-46879792D01*
X73030106Y-46879788D01*
X73030109Y-46879786D01*
X73125948Y-46747873D01*
X73155051Y-46707816D01*
X73163846Y-46690555D01*
X73175235Y-46668205D01*
X73223209Y-46617409D01*
X73285719Y-46600500D01*
X91128872Y-46600500D01*
X91195911Y-46620185D01*
G37*
%TD.AperFunction*%
%TA.AperFunction,Conductor*%
G36*
X91359187Y-48470061D02*
G01*
X91415120Y-48511933D01*
X91430414Y-48538791D01*
X91488602Y-48679272D01*
X91488609Y-48679285D01*
X91576210Y-48810388D01*
X91576213Y-48810392D01*
X91687707Y-48921886D01*
X91687711Y-48921889D01*
X91818814Y-49009490D01*
X91818827Y-49009497D01*
X91941790Y-49060429D01*
X91964503Y-49069837D01*
X92113628Y-49099500D01*
X92119153Y-49100599D01*
X92119156Y-49100600D01*
X92119158Y-49100600D01*
X92276844Y-49100600D01*
X92276845Y-49100599D01*
X92431497Y-49069837D01*
X92577179Y-49009494D01*
X92587799Y-49002398D01*
X92708875Y-48921498D01*
X92775553Y-48900620D01*
X92777766Y-48900600D01*
X103674103Y-48900600D01*
X103741142Y-48920285D01*
X103761783Y-48936918D01*
X105005384Y-50180520D01*
X105005386Y-50180521D01*
X105005390Y-50180524D01*
X105138796Y-50257545D01*
X105142316Y-50259577D01*
X105295043Y-50300501D01*
X105295045Y-50300501D01*
X105460754Y-50300501D01*
X105460770Y-50300500D01*
X108075500Y-50300500D01*
X108142539Y-50320185D01*
X108188294Y-50372989D01*
X108199500Y-50424500D01*
X108199501Y-50708700D01*
X108179817Y-50775739D01*
X108127013Y-50821494D01*
X108075501Y-50832700D01*
X89193397Y-50832700D01*
X89126358Y-50813015D01*
X89080603Y-50760211D01*
X89070659Y-50691053D01*
X89099684Y-50627497D01*
X89105716Y-50621019D01*
X90166223Y-49560512D01*
X91228174Y-48498560D01*
X91289495Y-48465077D01*
X91359187Y-48470061D01*
G37*
%TD.AperFunction*%
%TA.AperFunction,Conductor*%
G36*
X109684356Y-41588914D02*
G01*
X109699832Y-41600499D01*
X109734877Y-41626734D01*
X109776747Y-41682668D01*
X109781731Y-41752360D01*
X109748245Y-41813682D01*
X109686922Y-41847167D01*
X109660565Y-41850000D01*
X109250000Y-41850000D01*
X109250000Y-42350000D01*
X109799999Y-42350000D01*
X109799999Y-42255214D01*
X109799997Y-42255191D01*
X109797091Y-42230130D01*
X109797090Y-42230127D01*
X109761749Y-42150085D01*
X109752678Y-42080807D01*
X109761750Y-42049914D01*
X109797088Y-41969879D01*
X109797089Y-41969875D01*
X109799999Y-41944794D01*
X109800000Y-41944791D01*
X109800000Y-41822190D01*
X109819685Y-41755151D01*
X109872489Y-41709396D01*
X109937255Y-41698901D01*
X109952127Y-41700500D01*
X110447872Y-41700499D01*
X110507483Y-41694091D01*
X110556665Y-41675746D01*
X110626355Y-41670761D01*
X110643333Y-41675747D01*
X110692508Y-41694088D01*
X110692511Y-41694089D01*
X110692517Y-41694091D01*
X110752127Y-41700500D01*
X110965259Y-41700499D01*
X111032298Y-41720183D01*
X111078053Y-41772987D01*
X111087997Y-41842145D01*
X111058972Y-41905701D01*
X111052941Y-41912180D01*
X110981210Y-41983911D01*
X110893609Y-42115014D01*
X110893602Y-42115027D01*
X110833264Y-42260698D01*
X110833261Y-42260710D01*
X110802500Y-42415353D01*
X110802500Y-42573046D01*
X110833261Y-42727689D01*
X110833264Y-42727701D01*
X110893602Y-42873372D01*
X110893609Y-42873385D01*
X110981210Y-43004488D01*
X110981213Y-43004492D01*
X111092707Y-43115986D01*
X111092711Y-43115989D01*
X111223814Y-43203590D01*
X111223827Y-43203597D01*
X111357405Y-43258926D01*
X111369503Y-43263937D01*
X111524153Y-43294699D01*
X111524156Y-43294700D01*
X111524158Y-43294700D01*
X111681844Y-43294700D01*
X111681845Y-43294699D01*
X111836497Y-43263937D01*
X111982179Y-43203594D01*
X112099998Y-43124870D01*
X112113875Y-43115598D01*
X112180553Y-43094720D01*
X112182766Y-43094700D01*
X113650500Y-43094700D01*
X113717539Y-43114385D01*
X113763294Y-43167189D01*
X113774500Y-43218700D01*
X113774500Y-44350500D01*
X113754815Y-44417539D01*
X113702011Y-44463294D01*
X113650500Y-44474500D01*
X112252129Y-44474500D01*
X112252123Y-44474501D01*
X112192516Y-44480908D01*
X112057671Y-44531202D01*
X112057665Y-44531206D01*
X112006401Y-44569582D01*
X111940937Y-44593999D01*
X111872664Y-44579147D01*
X111828990Y-44539206D01*
X111753689Y-44426511D01*
X111753687Y-44426508D01*
X111642192Y-44315013D01*
X111642188Y-44315010D01*
X111511085Y-44227409D01*
X111511072Y-44227402D01*
X111365401Y-44167064D01*
X111365389Y-44167061D01*
X111210745Y-44136300D01*
X111210742Y-44136300D01*
X111053058Y-44136300D01*
X111053055Y-44136300D01*
X110898410Y-44167061D01*
X110898398Y-44167064D01*
X110752727Y-44227402D01*
X110752714Y-44227409D01*
X110621611Y-44315010D01*
X110621607Y-44315013D01*
X110510113Y-44426507D01*
X110510110Y-44426511D01*
X110422509Y-44557614D01*
X110422502Y-44557627D01*
X110362164Y-44703298D01*
X110362161Y-44703310D01*
X110331400Y-44857953D01*
X110331400Y-45015646D01*
X110362161Y-45170289D01*
X110362164Y-45170301D01*
X110422502Y-45315972D01*
X110422509Y-45315985D01*
X110510502Y-45447674D01*
X110531380Y-45514351D01*
X110531400Y-45516565D01*
X110531400Y-47572730D01*
X110531399Y-47572748D01*
X110531399Y-47738454D01*
X110531398Y-47738454D01*
X110572323Y-47891187D01*
X110572325Y-47891190D01*
X110594765Y-47930056D01*
X110594766Y-47930058D01*
X110651375Y-48028109D01*
X110651381Y-48028117D01*
X110770249Y-48146985D01*
X110770255Y-48146990D01*
X111184784Y-48561519D01*
X111218269Y-48622842D01*
X111213285Y-48692534D01*
X111171413Y-48748467D01*
X111105949Y-48772884D01*
X111097103Y-48773200D01*
X111085855Y-48773200D01*
X110931210Y-48803961D01*
X110931198Y-48803964D01*
X110785527Y-48864302D01*
X110785514Y-48864309D01*
X110654411Y-48951910D01*
X110654407Y-48951913D01*
X110542913Y-49063407D01*
X110542910Y-49063411D01*
X110455309Y-49194514D01*
X110455302Y-49194527D01*
X110394964Y-49340198D01*
X110394961Y-49340210D01*
X110364200Y-49494853D01*
X110364200Y-49575500D01*
X110361649Y-49584185D01*
X110362938Y-49593147D01*
X110351959Y-49617187D01*
X110344515Y-49642539D01*
X110337674Y-49648466D01*
X110333913Y-49656703D01*
X110311678Y-49670992D01*
X110291711Y-49688294D01*
X110281196Y-49690581D01*
X110275135Y-49694477D01*
X110240200Y-49699500D01*
X110124499Y-49699500D01*
X110057460Y-49679815D01*
X110011705Y-49627011D01*
X110000499Y-49575500D01*
X110000499Y-49452129D01*
X110000498Y-49452123D01*
X109994091Y-49392517D01*
X109994090Y-49392514D01*
X109975747Y-49343334D01*
X109970762Y-49273643D01*
X109975747Y-49256665D01*
X109977761Y-49251265D01*
X109994091Y-49207483D01*
X110000500Y-49147873D01*
X110000499Y-48652128D01*
X109994091Y-48592517D01*
X109994089Y-48592511D01*
X109975747Y-48543334D01*
X109970762Y-48473643D01*
X109975747Y-48456665D01*
X109984454Y-48433321D01*
X109994091Y-48407483D01*
X110000500Y-48347873D01*
X110000499Y-47852128D01*
X109994091Y-47792517D01*
X109990086Y-47781780D01*
X109975747Y-47743334D01*
X109970762Y-47673643D01*
X109975747Y-47656665D01*
X109994089Y-47607488D01*
X109994088Y-47607488D01*
X109994091Y-47607483D01*
X110000500Y-47547873D01*
X110000499Y-47052128D01*
X109994091Y-46992517D01*
X109975747Y-46943334D01*
X109970762Y-46873643D01*
X109975747Y-46856665D01*
X109991760Y-46813733D01*
X109994091Y-46807483D01*
X110000500Y-46747873D01*
X110000499Y-46252128D01*
X109994091Y-46192517D01*
X109994090Y-46192514D01*
X109975747Y-46143334D01*
X109970762Y-46073643D01*
X109975747Y-46056665D01*
X109994089Y-46007488D01*
X109994088Y-46007488D01*
X109994091Y-46007483D01*
X110000500Y-45947873D01*
X110000499Y-45452128D01*
X109994091Y-45392517D01*
X109994090Y-45392514D01*
X109975747Y-45343334D01*
X109970762Y-45273643D01*
X109975747Y-45256665D01*
X109994089Y-45207488D01*
X109994088Y-45207488D01*
X109994091Y-45207483D01*
X110000500Y-45147873D01*
X110000499Y-44652128D01*
X109994091Y-44592517D01*
X109981078Y-44557627D01*
X109975747Y-44543334D01*
X109970762Y-44473643D01*
X109975747Y-44456665D01*
X109994089Y-44407488D01*
X109994088Y-44407488D01*
X109994091Y-44407483D01*
X110000500Y-44347873D01*
X110000499Y-43852128D01*
X109994091Y-43792517D01*
X109985692Y-43769998D01*
X109975747Y-43743334D01*
X109970762Y-43673643D01*
X109975747Y-43656665D01*
X109994089Y-43607488D01*
X109994088Y-43607488D01*
X109994091Y-43607483D01*
X110000500Y-43547873D01*
X110000499Y-43052128D01*
X109995299Y-43003757D01*
X109994091Y-42992516D01*
X109943797Y-42857671D01*
X109943793Y-42857664D01*
X109878167Y-42770000D01*
X109857546Y-42742454D01*
X109857544Y-42742452D01*
X109857542Y-42742450D01*
X109853582Y-42739486D01*
X109853577Y-42739483D01*
X109742331Y-42656204D01*
X109692665Y-42637680D01*
X109692664Y-42637679D01*
X109607482Y-42605908D01*
X109607483Y-42605908D01*
X109547883Y-42599501D01*
X109547881Y-42599500D01*
X109547873Y-42599500D01*
X109547865Y-42599500D01*
X109224000Y-42599500D01*
X109215314Y-42596949D01*
X109206353Y-42598238D01*
X109182312Y-42587259D01*
X109156961Y-42579815D01*
X109151033Y-42572974D01*
X109142797Y-42569213D01*
X109128507Y-42546978D01*
X109111206Y-42527011D01*
X109108918Y-42516496D01*
X109105023Y-42510435D01*
X109103523Y-42500000D01*
X109074000Y-42500000D01*
X109006961Y-42480315D01*
X108961206Y-42427511D01*
X108950000Y-42376000D01*
X108950000Y-41824000D01*
X108969685Y-41756961D01*
X109022489Y-41711206D01*
X109074000Y-41700000D01*
X109107194Y-41700000D01*
X109119685Y-41657460D01*
X109172489Y-41611705D01*
X109223998Y-41600499D01*
X109447872Y-41600499D01*
X109507483Y-41594091D01*
X109539747Y-41582056D01*
X109566712Y-41572000D01*
X109636403Y-41567015D01*
X109684356Y-41588914D01*
G37*
%TD.AperFunction*%
%TA.AperFunction,Conductor*%
G36*
X103071742Y-38160185D02*
G01*
X103092384Y-38176819D01*
X107249425Y-42333860D01*
X107282910Y-42395183D01*
X107283361Y-42397349D01*
X107313986Y-42551308D01*
X107307759Y-42620900D01*
X107264896Y-42676077D01*
X107199007Y-42699322D01*
X107192369Y-42699500D01*
X103564270Y-42699500D01*
X103564254Y-42699499D01*
X103556658Y-42699499D01*
X103398543Y-42699499D01*
X103322179Y-42719961D01*
X103245814Y-42740423D01*
X103245813Y-42740424D01*
X103109218Y-42819287D01*
X103047218Y-42835900D01*
X81656497Y-42835900D01*
X81589458Y-42816215D01*
X81568816Y-42799581D01*
X79333757Y-40564522D01*
X79300272Y-40503199D01*
X79303507Y-40438523D01*
X79317246Y-40396243D01*
X79350500Y-40186287D01*
X79350500Y-39973713D01*
X79317246Y-39763757D01*
X79251557Y-39561588D01*
X79155051Y-39372184D01*
X79155049Y-39372181D01*
X79155048Y-39372179D01*
X79030109Y-39200213D01*
X78879786Y-39049890D01*
X78707820Y-38924951D01*
X78707115Y-38924591D01*
X78699054Y-38920485D01*
X78648259Y-38872512D01*
X78631463Y-38804692D01*
X78653999Y-38738556D01*
X78699054Y-38699515D01*
X78707816Y-38695051D01*
X78729789Y-38679086D01*
X78879786Y-38570109D01*
X78879788Y-38570106D01*
X78879792Y-38570104D01*
X79030104Y-38419792D01*
X79030106Y-38419788D01*
X79030109Y-38419786D01*
X79094210Y-38331557D01*
X79155051Y-38247816D01*
X79161557Y-38235048D01*
X79175235Y-38208205D01*
X79223209Y-38157409D01*
X79285719Y-38140500D01*
X103004703Y-38140500D01*
X103071742Y-38160185D01*
G37*
%TD.AperFunction*%
%TA.AperFunction,Conductor*%
G36*
X63235518Y-35050579D02*
G01*
X63235789Y-35050501D01*
X63269146Y-35060453D01*
X63302288Y-35070185D01*
X63302535Y-35070415D01*
X63302742Y-35070477D01*
X63329314Y-35093706D01*
X63332032Y-35096871D01*
X63377454Y-35157546D01*
X63396201Y-35171580D01*
X63405065Y-35181900D01*
X63433814Y-35245581D01*
X63435000Y-35262694D01*
X63435000Y-35400000D01*
X63961000Y-35400000D01*
X63969685Y-35402550D01*
X63978647Y-35401262D01*
X64002687Y-35412240D01*
X64028039Y-35419685D01*
X64033966Y-35426525D01*
X64042203Y-35430287D01*
X64056492Y-35452521D01*
X64073794Y-35472489D01*
X64076081Y-35483003D01*
X64079977Y-35489065D01*
X64085000Y-35524000D01*
X64085000Y-35550000D01*
X64111000Y-35550000D01*
X64178039Y-35569685D01*
X64223794Y-35622489D01*
X64235000Y-35674000D01*
X64235000Y-36166502D01*
X64215315Y-36233541D01*
X64198681Y-36254183D01*
X64146683Y-36306180D01*
X64146681Y-36306184D01*
X64041183Y-36411681D01*
X64041182Y-36411680D01*
X61405899Y-39046964D01*
X61344576Y-39080449D01*
X61274884Y-39075465D01*
X61218951Y-39033593D01*
X61207733Y-39015578D01*
X61198216Y-38996900D01*
X61155051Y-38912184D01*
X61126228Y-38872512D01*
X61030109Y-38740213D01*
X60879786Y-38589890D01*
X60707820Y-38464951D01*
X60707115Y-38464591D01*
X60699054Y-38460485D01*
X60648259Y-38412512D01*
X60631463Y-38344692D01*
X60653999Y-38278556D01*
X60699054Y-38239515D01*
X60707816Y-38235051D01*
X60814682Y-38157409D01*
X60879786Y-38110109D01*
X60879788Y-38110106D01*
X60879792Y-38110104D01*
X61030104Y-37959792D01*
X61030106Y-37959788D01*
X61030109Y-37959786D01*
X61155048Y-37787820D01*
X61155047Y-37787820D01*
X61155051Y-37787816D01*
X61251557Y-37598412D01*
X61317246Y-37396243D01*
X61350500Y-37186287D01*
X61350500Y-36973713D01*
X61317246Y-36763757D01*
X61251557Y-36561588D01*
X61206162Y-36472495D01*
X61205653Y-36469789D01*
X61203853Y-36467711D01*
X61199244Y-36435661D01*
X61193266Y-36403826D01*
X61194300Y-36401276D01*
X61193909Y-36398553D01*
X61207362Y-36369094D01*
X61219542Y-36339085D01*
X61221791Y-36337499D01*
X61222934Y-36334997D01*
X61250177Y-36317488D01*
X61276649Y-36298828D01*
X61280105Y-36298255D01*
X61281712Y-36297223D01*
X61316647Y-36292200D01*
X61372431Y-36292200D01*
X61372447Y-36292201D01*
X61380043Y-36292201D01*
X61538154Y-36292201D01*
X61538157Y-36292201D01*
X61690885Y-36251277D01*
X61741004Y-36222339D01*
X61827816Y-36172220D01*
X61939620Y-36060416D01*
X61939620Y-36060414D01*
X61949828Y-36050207D01*
X61949829Y-36050204D01*
X62055248Y-35944785D01*
X63435001Y-35944785D01*
X63435002Y-35944808D01*
X63437908Y-35969869D01*
X63437909Y-35969873D01*
X63483211Y-36072474D01*
X63483214Y-36072479D01*
X63562520Y-36151785D01*
X63562525Y-36151788D01*
X63665123Y-36197089D01*
X63690206Y-36199999D01*
X63902139Y-36199999D01*
X63935000Y-36167138D01*
X63935000Y-35700000D01*
X63435001Y-35700000D01*
X63435001Y-35944785D01*
X62055248Y-35944785D01*
X62913216Y-35086819D01*
X62974539Y-35053334D01*
X63000897Y-35050500D01*
X63235249Y-35050500D01*
X63235518Y-35050579D01*
G37*
%TD.AperFunction*%
%TA.AperFunction,Conductor*%
G36*
X61252482Y-31850019D02*
G01*
X61271153Y-31858815D01*
X61274878Y-31860965D01*
X61278016Y-31862777D01*
X61430743Y-31903701D01*
X61430745Y-31903701D01*
X61596454Y-31903701D01*
X61596470Y-31903700D01*
X76590082Y-31903700D01*
X76657121Y-31923385D01*
X76702876Y-31976189D01*
X76712820Y-32045347D01*
X76708013Y-32066018D01*
X76682753Y-32143759D01*
X76649500Y-32353713D01*
X76649500Y-32566286D01*
X76682753Y-32776239D01*
X76682753Y-32776241D01*
X76682754Y-32776243D01*
X76747410Y-32975234D01*
X76748444Y-32978414D01*
X76844951Y-33167820D01*
X76969890Y-33339786D01*
X77120213Y-33490109D01*
X77292182Y-33615050D01*
X77300946Y-33619516D01*
X77351742Y-33667491D01*
X77368536Y-33735312D01*
X77345998Y-33801447D01*
X77300946Y-33840484D01*
X77292182Y-33844949D01*
X77120213Y-33969890D01*
X76969890Y-34120213D01*
X76844951Y-34292179D01*
X76748444Y-34481585D01*
X76682753Y-34683760D01*
X76649500Y-34893713D01*
X76649500Y-35106286D01*
X76682753Y-35316239D01*
X76682753Y-35316241D01*
X76682754Y-35316243D01*
X76737431Y-35484522D01*
X76748444Y-35518414D01*
X76844951Y-35707820D01*
X76969890Y-35879786D01*
X77120213Y-36030109D01*
X77292182Y-36155050D01*
X77300946Y-36159516D01*
X77351742Y-36207491D01*
X77368536Y-36275312D01*
X77345998Y-36341447D01*
X77300946Y-36380484D01*
X77292182Y-36384949D01*
X77120213Y-36509890D01*
X76969890Y-36660213D01*
X76844951Y-36832179D01*
X76748444Y-37021585D01*
X76682753Y-37223760D01*
X76649500Y-37433713D01*
X76649500Y-37580903D01*
X76629815Y-37647942D01*
X76577011Y-37693697D01*
X76507853Y-37703641D01*
X76444297Y-37674616D01*
X76437819Y-37668584D01*
X72857590Y-34088355D01*
X72857588Y-34088352D01*
X72738717Y-33969481D01*
X72738709Y-33969475D01*
X72622215Y-33902218D01*
X72622215Y-33902217D01*
X72622210Y-33902216D01*
X72615082Y-33898100D01*
X72601786Y-33890423D01*
X72556964Y-33878413D01*
X72449057Y-33849499D01*
X72290943Y-33849499D01*
X72283347Y-33849499D01*
X72283331Y-33849500D01*
X66764751Y-33849500D01*
X66697712Y-33829815D01*
X66665485Y-33799812D01*
X66622548Y-33742457D01*
X66622546Y-33742454D01*
X66581273Y-33711557D01*
X66507335Y-33656206D01*
X66507328Y-33656202D01*
X66372482Y-33605908D01*
X66372483Y-33605908D01*
X66312883Y-33599501D01*
X66312881Y-33599500D01*
X66312873Y-33599500D01*
X66312864Y-33599500D01*
X65517129Y-33599500D01*
X65517123Y-33599501D01*
X65457515Y-33605909D01*
X65394470Y-33629423D01*
X65324779Y-33634407D01*
X65263457Y-33600922D01*
X65062490Y-33399955D01*
X65062488Y-33399952D01*
X64943617Y-33281081D01*
X64943616Y-33281080D01*
X64856804Y-33230960D01*
X64856804Y-33230959D01*
X64856800Y-33230958D01*
X64806685Y-33202023D01*
X64653957Y-33161099D01*
X64495843Y-33161099D01*
X64488247Y-33161099D01*
X64488231Y-33161100D01*
X61230881Y-33161100D01*
X61163842Y-33141415D01*
X61118087Y-33088611D01*
X61108143Y-33019453D01*
X61117446Y-32987015D01*
X61147089Y-32919877D01*
X61147089Y-32919875D01*
X61149999Y-32894794D01*
X61150000Y-32894791D01*
X61150000Y-32150000D01*
X60477445Y-32150000D01*
X60500000Y-32065826D01*
X60500000Y-31934174D01*
X60477445Y-31850000D01*
X61173706Y-31850000D01*
X61182790Y-31845039D01*
X61252482Y-31850019D01*
G37*
%TD.AperFunction*%
%TA.AperFunction,Conductor*%
G36*
X116154342Y-28000185D02*
G01*
X116174984Y-28016819D01*
X120354484Y-32196319D01*
X120387969Y-32257642D01*
X120382985Y-32327334D01*
X120341113Y-32383267D01*
X120275649Y-32407684D01*
X120266803Y-32408000D01*
X86375797Y-32408000D01*
X86308758Y-32388315D01*
X86288116Y-32371681D01*
X84857990Y-30941555D01*
X84850921Y-30934486D01*
X84850920Y-30934484D01*
X84739116Y-30822680D01*
X84680699Y-30788953D01*
X104912900Y-30788953D01*
X104912900Y-30946646D01*
X104943661Y-31101289D01*
X104943664Y-31101301D01*
X105004002Y-31246972D01*
X105004009Y-31246985D01*
X105091610Y-31378088D01*
X105091613Y-31378092D01*
X105203107Y-31489586D01*
X105203111Y-31489589D01*
X105334214Y-31577190D01*
X105334227Y-31577197D01*
X105479898Y-31637535D01*
X105479903Y-31637537D01*
X105634558Y-31668300D01*
X105635247Y-31668437D01*
X105697158Y-31700822D01*
X105698737Y-31702373D01*
X105742384Y-31746020D01*
X105742386Y-31746021D01*
X105742390Y-31746024D01*
X105879309Y-31825073D01*
X105879316Y-31825077D01*
X106032043Y-31866001D01*
X106032045Y-31866001D01*
X106197754Y-31866001D01*
X106197770Y-31866000D01*
X111507434Y-31866000D01*
X111574473Y-31885685D01*
X111576325Y-31886898D01*
X111708014Y-31974890D01*
X111708027Y-31974897D01*
X111853698Y-32035235D01*
X111853703Y-32035237D01*
X111982895Y-32060935D01*
X112008353Y-32065999D01*
X112008356Y-32066000D01*
X112008358Y-32066000D01*
X112166044Y-32066000D01*
X112166045Y-32065999D01*
X112320697Y-32035237D01*
X112466379Y-31974894D01*
X112597489Y-31887289D01*
X112708989Y-31775789D01*
X112796594Y-31644679D01*
X112856937Y-31498997D01*
X112887700Y-31344342D01*
X112887700Y-31186658D01*
X112887700Y-31186655D01*
X112887699Y-31186653D01*
X112856937Y-31032003D01*
X112856935Y-31031998D01*
X112796597Y-30886327D01*
X112796590Y-30886314D01*
X112708989Y-30755211D01*
X112708986Y-30755207D01*
X112597492Y-30643713D01*
X112597488Y-30643710D01*
X112466385Y-30556109D01*
X112466372Y-30556102D01*
X112320701Y-30495764D01*
X112320689Y-30495761D01*
X112166045Y-30465000D01*
X112166042Y-30465000D01*
X112008358Y-30465000D01*
X112008355Y-30465000D01*
X111853710Y-30495761D01*
X111853698Y-30495764D01*
X111708027Y-30556102D01*
X111708014Y-30556109D01*
X111576325Y-30644102D01*
X111509647Y-30664980D01*
X111507434Y-30665000D01*
X106578706Y-30665000D01*
X106511667Y-30645315D01*
X106465912Y-30592511D01*
X106464145Y-30588452D01*
X106422797Y-30488626D01*
X106422790Y-30488614D01*
X106335189Y-30357511D01*
X106335186Y-30357507D01*
X106223692Y-30246013D01*
X106223688Y-30246010D01*
X106092585Y-30158409D01*
X106092572Y-30158402D01*
X105946901Y-30098064D01*
X105946889Y-30098061D01*
X105792245Y-30067300D01*
X105792242Y-30067300D01*
X105634558Y-30067300D01*
X105634555Y-30067300D01*
X105479910Y-30098061D01*
X105479898Y-30098064D01*
X105334227Y-30158402D01*
X105334214Y-30158409D01*
X105203111Y-30246010D01*
X105203107Y-30246013D01*
X105091613Y-30357507D01*
X105091610Y-30357511D01*
X105004009Y-30488614D01*
X105004002Y-30488627D01*
X104943664Y-30634298D01*
X104943661Y-30634310D01*
X104912900Y-30788953D01*
X84680699Y-30788953D01*
X84630939Y-30760224D01*
X84630937Y-30760223D01*
X84602185Y-30743623D01*
X84602184Y-30743622D01*
X84602183Y-30743622D01*
X84546281Y-30728643D01*
X84449457Y-30702699D01*
X84291343Y-30702699D01*
X84283747Y-30702699D01*
X84283731Y-30702700D01*
X79319246Y-30702700D01*
X79252207Y-30683015D01*
X79206452Y-30630211D01*
X79196508Y-30561053D01*
X79208761Y-30522406D01*
X79238320Y-30464390D01*
X79251557Y-30438412D01*
X79317246Y-30236243D01*
X79350500Y-30026287D01*
X79350500Y-29813713D01*
X79317246Y-29603757D01*
X79251557Y-29401588D01*
X79155051Y-29212184D01*
X79155049Y-29212181D01*
X79155048Y-29212179D01*
X79030109Y-29040213D01*
X78879786Y-28889890D01*
X78707820Y-28764951D01*
X78707115Y-28764591D01*
X78699054Y-28760485D01*
X78648259Y-28712512D01*
X78631463Y-28644692D01*
X78653999Y-28578556D01*
X78699054Y-28539515D01*
X78707816Y-28535051D01*
X78729789Y-28519086D01*
X78879786Y-28410109D01*
X78879788Y-28410106D01*
X78879792Y-28410104D01*
X79030104Y-28259792D01*
X79030106Y-28259788D01*
X79030109Y-28259786D01*
X79088661Y-28179193D01*
X79155051Y-28087816D01*
X79155349Y-28087230D01*
X79175235Y-28048205D01*
X79223209Y-27997409D01*
X79285719Y-27980500D01*
X116087303Y-27980500D01*
X116154342Y-28000185D01*
G37*
%TD.AperFunction*%
%TD*%
M02*
