%TF.GenerationSoftware,KiCad,Pcbnew,9.0.7-1.fc42*%
%TF.CreationDate,2026-04-25T18:33:30-07:00*%
%TF.ProjectId,foxhunt-badge,666f7868-756e-4742-9d62-616467652e6b,rev?*%
%TF.SameCoordinates,Original*%
%TF.FileFunction,Soldermask,Top*%
%TF.FilePolarity,Negative*%
%FSLAX46Y46*%
G04 Gerber Fmt 4.6, Leading zero omitted, Abs format (unit mm)*
G04 Created by KiCad (PCBNEW 9.0.7-1.fc42) date 2026-04-25 18:33:30*
%MOMM*%
%LPD*%
G01*
G04 APERTURE LIST*
G04 Aperture macros list*
%AMRoundRect*
0 Rectangle with rounded corners*
0 $1 Rounding radius*
0 $2 $3 $4 $5 $6 $7 $8 $9 X,Y pos of 4 corners*
0 Add a 4 corners polygon primitive as box body*
4,1,4,$2,$3,$4,$5,$6,$7,$8,$9,$2,$3,0*
0 Add four circle primitives for the rounded corners*
1,1,$1+$1,$2,$3*
1,1,$1+$1,$4,$5*
1,1,$1+$1,$6,$7*
1,1,$1+$1,$8,$9*
0 Add four rect primitives between the rounded corners*
20,1,$1+$1,$2,$3,$4,$5,0*
20,1,$1+$1,$4,$5,$6,$7,0*
20,1,$1+$1,$6,$7,$8,$9,0*
20,1,$1+$1,$8,$9,$2,$3,0*%
%AMFreePoly0*
4,1,6,0.725000,-0.725000,-0.725000,-0.725000,-0.725000,0.125000,-0.125000,0.725000,0.725000,0.725000,0.725000,-0.725000,0.725000,-0.725000,$1*%
G04 Aperture macros list end*
%ADD10RoundRect,0.225000X-0.225000X-0.375000X0.225000X-0.375000X0.225000X0.375000X-0.225000X0.375000X0*%
%ADD11C,2.500000*%
%ADD12R,0.700000X0.700000*%
%ADD13RoundRect,0.200000X-0.200000X-0.275000X0.200000X-0.275000X0.200000X0.275000X-0.200000X0.275000X0*%
%ADD14R,1.700000X1.000000*%
%ADD15R,0.800000X0.400000*%
%ADD16R,0.400000X0.800000*%
%ADD17FreePoly0,0.000000*%
%ADD18R,1.450000X1.450000*%
%ADD19R,1.700000X1.700000*%
%ADD20C,1.700000*%
%ADD21C,0.650000*%
%ADD22R,1.450000X0.600000*%
%ADD23R,1.450000X0.300000*%
%ADD24O,2.100000X1.000000*%
%ADD25O,1.600000X1.000000*%
%ADD26RoundRect,0.218750X-0.218750X-0.256250X0.218750X-0.256250X0.218750X0.256250X-0.218750X0.256250X0*%
%ADD27RoundRect,0.250000X0.350000X0.625000X-0.350000X0.625000X-0.350000X-0.625000X0.350000X-0.625000X0*%
%ADD28O,1.200000X1.750000*%
G04 APERTURE END LIST*
D10*
%TO.C,D1*%
X158350000Y-44000000D03*
X161650000Y-44000000D03*
%TD*%
D11*
%TO.C,H3*%
X90000000Y-64000000D03*
%TD*%
D12*
%TO.C,D5*%
X134085000Y-34450000D03*
X134085000Y-35550000D03*
X135915000Y-35550000D03*
X135915000Y-34450000D03*
%TD*%
D13*
%TO.C,R2*%
X159175000Y-50000000D03*
X160825000Y-50000000D03*
%TD*%
D14*
%TO.C,S1*%
X96850000Y-7100000D03*
X103150000Y-7100000D03*
X96850000Y-10900000D03*
X103150000Y-10900000D03*
%TD*%
D11*
%TO.C,H1*%
X35000000Y-55000000D03*
%TD*%
D13*
%TO.C,R3*%
X95175000Y-18000000D03*
X96825000Y-18000000D03*
%TD*%
D12*
%TO.C,D4*%
X64085000Y-34450000D03*
X64085000Y-35550000D03*
X65915000Y-35550000D03*
X65915000Y-34450000D03*
%TD*%
%TO.C,D6*%
X167085000Y-51450000D03*
X167085000Y-52550000D03*
X168915000Y-52550000D03*
X168915000Y-51450000D03*
%TD*%
D15*
%TO.C,U2*%
X109100000Y-41700000D03*
X109100000Y-42500000D03*
X109100000Y-43300000D03*
X109100000Y-44100000D03*
X109100000Y-44900000D03*
X109100000Y-45700000D03*
X109100000Y-46500000D03*
X109100000Y-47300000D03*
X109100000Y-48100000D03*
X109100000Y-48900000D03*
X109100000Y-49700000D03*
D16*
X110200000Y-50600000D03*
X111000000Y-50600000D03*
X111800000Y-50600000D03*
X112600000Y-50600000D03*
X113400000Y-50600000D03*
X114200000Y-50600000D03*
X115000000Y-50600000D03*
X115800000Y-50600000D03*
X116600000Y-50600000D03*
X117400000Y-50600000D03*
X118200000Y-50600000D03*
X119000000Y-50600000D03*
X119800000Y-50600000D03*
D15*
X120900000Y-49700000D03*
X120900000Y-48900000D03*
X120900000Y-48100000D03*
X120900000Y-47300000D03*
X120900000Y-46500000D03*
X120900000Y-45700000D03*
X120900000Y-44900000D03*
X120900000Y-44100000D03*
X120900000Y-43300000D03*
X120900000Y-42500000D03*
X120900000Y-41700000D03*
D16*
X119800000Y-40800000D03*
X119000000Y-40800000D03*
X118200000Y-40800000D03*
X117400000Y-40800000D03*
X116600000Y-40800000D03*
X115800000Y-40800000D03*
X115000000Y-40800000D03*
X114200000Y-40800000D03*
X113400000Y-40800000D03*
X112600000Y-40800000D03*
X111800000Y-40800000D03*
X111000000Y-40800000D03*
X110200000Y-40800000D03*
D17*
X113025000Y-43725000D03*
D18*
X113025000Y-45700000D03*
X113025000Y-47675000D03*
X115000000Y-43725000D03*
X115000000Y-45700000D03*
X115000000Y-47675000D03*
X116975000Y-43725000D03*
X116975000Y-45700000D03*
X116975000Y-47675000D03*
D12*
X120950000Y-40750000D03*
X120950000Y-50650000D03*
X109050000Y-50650000D03*
X109050000Y-40750000D03*
%TD*%
D13*
%TO.C,R11*%
X35175000Y-56000000D03*
X36825000Y-56000000D03*
%TD*%
D11*
%TO.C,H2*%
X165000000Y-55000000D03*
%TD*%
D14*
%TO.C,S4*%
X104850000Y-58100000D03*
X111150000Y-58100000D03*
X104850000Y-61900000D03*
X111150000Y-61900000D03*
%TD*%
D11*
%TO.C,H4*%
X110000000Y-64000000D03*
%TD*%
D19*
%TO.C,DISP1*%
X78000000Y-42620000D03*
D20*
X78000000Y-40080000D03*
X78000000Y-37540000D03*
X78000000Y-35000000D03*
X78000000Y-32460000D03*
X78000000Y-29920000D03*
X78000000Y-27380000D03*
%TD*%
D14*
%TO.C,S3*%
X88850000Y-58100000D03*
X95150000Y-58100000D03*
X88850000Y-61900000D03*
X95150000Y-61900000D03*
%TD*%
D12*
%TO.C,D3*%
X31085000Y-51450000D03*
X31085000Y-52550000D03*
X32915000Y-52550000D03*
X32915000Y-51450000D03*
%TD*%
D13*
%TO.C,R1*%
X159175000Y-47000000D03*
X160825000Y-47000000D03*
%TD*%
D21*
%TO.C,J1*%
X177600000Y-57110000D03*
X177600000Y-62890000D03*
D22*
X179045000Y-56750000D03*
X179045000Y-57550000D03*
D23*
X179045000Y-58750000D03*
X179045000Y-59750000D03*
X179045000Y-60250000D03*
X179045000Y-61250000D03*
D22*
X179045000Y-62450000D03*
X179045000Y-63250000D03*
X179045000Y-63250000D03*
X179045000Y-62450000D03*
D23*
X179045000Y-61750000D03*
X179045000Y-60750000D03*
X179045000Y-59250000D03*
X179045000Y-58250000D03*
D22*
X179045000Y-57550000D03*
X179045000Y-56750000D03*
D24*
X178130000Y-55680000D03*
D25*
X173950000Y-55680000D03*
D24*
X178130000Y-64320000D03*
D25*
X173950000Y-64320000D03*
%TD*%
D26*
%TO.C,D2*%
X91212500Y-18000000D03*
X92787500Y-18000000D03*
%TD*%
D14*
%TO.C,S2*%
X96850000Y-66100000D03*
X103150000Y-66100000D03*
X96850000Y-69900000D03*
X103150000Y-69900000D03*
%TD*%
D19*
%TO.C,J3*%
X60000000Y-32000000D03*
D20*
X60000000Y-34540000D03*
X60000000Y-37080000D03*
X60000000Y-39620000D03*
%TD*%
D19*
%TO.C,J2*%
X30000000Y-56000000D03*
D20*
X27460000Y-56000000D03*
X30000000Y-58540000D03*
X27460000Y-58540000D03*
X30000000Y-61080000D03*
X27460000Y-61080000D03*
%TD*%
D27*
%TO.C,J4*%
X135000000Y-58000000D03*
D28*
X133000000Y-58000000D03*
%TD*%
D19*
%TO.C,U4*%
X72000000Y-51080000D03*
D20*
X72000000Y-48540000D03*
X72000000Y-46000000D03*
X72000000Y-43460000D03*
X72000000Y-40920000D03*
%TD*%
M02*
