%TF.GenerationSoftware,KiCad,Pcbnew,9.0.7-1.fc42*%
%TF.CreationDate,2026-04-25T18:33:30-07:00*%
%TF.ProjectId,foxhunt-badge,666f7868-756e-4742-9d62-616467652e6b,rev?*%
%TF.SameCoordinates,Original*%
%TF.FileFunction,AssemblyDrawing,Bot*%
%FSLAX46Y46*%
G04 Gerber Fmt 4.6, Leading zero omitted, Abs format (unit mm)*
G04 Created by KiCad (PCBNEW 9.0.7-1.fc42) date 2026-04-25 18:33:30*
%MOMM*%
%LPD*%
G01*
G04 APERTURE LIST*
%ADD10C,0.150000*%
%ADD11C,0.060000*%
%ADD12C,0.110000*%
%ADD13C,0.100000*%
G04 APERTURE END LIST*
D10*
X66547619Y-39884819D02*
X67119047Y-39884819D01*
X66833333Y-39884819D02*
X66833333Y-38884819D01*
X66833333Y-38884819D02*
X66928571Y-39027676D01*
X66928571Y-39027676D02*
X67023809Y-39122914D01*
X67023809Y-39122914D02*
X67119047Y-39170533D01*
X65928571Y-38884819D02*
X65833333Y-38884819D01*
X65833333Y-38884819D02*
X65738095Y-38932438D01*
X65738095Y-38932438D02*
X65690476Y-38980057D01*
X65690476Y-38980057D02*
X65642857Y-39075295D01*
X65642857Y-39075295D02*
X65595238Y-39265771D01*
X65595238Y-39265771D02*
X65595238Y-39503866D01*
X65595238Y-39503866D02*
X65642857Y-39694342D01*
X65642857Y-39694342D02*
X65690476Y-39789580D01*
X65690476Y-39789580D02*
X65738095Y-39837200D01*
X65738095Y-39837200D02*
X65833333Y-39884819D01*
X65833333Y-39884819D02*
X65928571Y-39884819D01*
X65928571Y-39884819D02*
X66023809Y-39837200D01*
X66023809Y-39837200D02*
X66071428Y-39789580D01*
X66071428Y-39789580D02*
X66119047Y-39694342D01*
X66119047Y-39694342D02*
X66166666Y-39503866D01*
X66166666Y-39503866D02*
X66166666Y-39265771D01*
X66166666Y-39265771D02*
X66119047Y-39075295D01*
X66119047Y-39075295D02*
X66071428Y-38980057D01*
X66071428Y-38980057D02*
X66023809Y-38932438D01*
X66023809Y-38932438D02*
X65928571Y-38884819D01*
X64976190Y-38884819D02*
X64880952Y-38884819D01*
X64880952Y-38884819D02*
X64785714Y-38932438D01*
X64785714Y-38932438D02*
X64738095Y-38980057D01*
X64738095Y-38980057D02*
X64690476Y-39075295D01*
X64690476Y-39075295D02*
X64642857Y-39265771D01*
X64642857Y-39265771D02*
X64642857Y-39503866D01*
X64642857Y-39503866D02*
X64690476Y-39694342D01*
X64690476Y-39694342D02*
X64738095Y-39789580D01*
X64738095Y-39789580D02*
X64785714Y-39837200D01*
X64785714Y-39837200D02*
X64880952Y-39884819D01*
X64880952Y-39884819D02*
X64976190Y-39884819D01*
X64976190Y-39884819D02*
X65071428Y-39837200D01*
X65071428Y-39837200D02*
X65119047Y-39789580D01*
X65119047Y-39789580D02*
X65166666Y-39694342D01*
X65166666Y-39694342D02*
X65214285Y-39503866D01*
X65214285Y-39503866D02*
X65214285Y-39265771D01*
X65214285Y-39265771D02*
X65166666Y-39075295D01*
X65166666Y-39075295D02*
X65119047Y-38980057D01*
X65119047Y-38980057D02*
X65071428Y-38932438D01*
X65071428Y-38932438D02*
X64976190Y-38884819D01*
X64214285Y-39218152D02*
X64214285Y-39884819D01*
X64214285Y-39313390D02*
X64166666Y-39265771D01*
X64166666Y-39265771D02*
X64071428Y-39218152D01*
X64071428Y-39218152D02*
X63928571Y-39218152D01*
X63928571Y-39218152D02*
X63833333Y-39265771D01*
X63833333Y-39265771D02*
X63785714Y-39361009D01*
X63785714Y-39361009D02*
X63785714Y-39884819D01*
X62976190Y-39361009D02*
X63309523Y-39361009D01*
X63309523Y-39884819D02*
X63309523Y-38884819D01*
X63309523Y-38884819D02*
X62833333Y-38884819D01*
D11*
X65066666Y-38143832D02*
X65085714Y-38162880D01*
X65085714Y-38162880D02*
X65142856Y-38181927D01*
X65142856Y-38181927D02*
X65180952Y-38181927D01*
X65180952Y-38181927D02*
X65238095Y-38162880D01*
X65238095Y-38162880D02*
X65276190Y-38124784D01*
X65276190Y-38124784D02*
X65295237Y-38086689D01*
X65295237Y-38086689D02*
X65314285Y-38010499D01*
X65314285Y-38010499D02*
X65314285Y-37953356D01*
X65314285Y-37953356D02*
X65295237Y-37877165D01*
X65295237Y-37877165D02*
X65276190Y-37839070D01*
X65276190Y-37839070D02*
X65238095Y-37800975D01*
X65238095Y-37800975D02*
X65180952Y-37781927D01*
X65180952Y-37781927D02*
X65142856Y-37781927D01*
X65142856Y-37781927D02*
X65085714Y-37800975D01*
X65085714Y-37800975D02*
X65066666Y-37820022D01*
X64876190Y-38181927D02*
X64799999Y-38181927D01*
X64799999Y-38181927D02*
X64761904Y-38162880D01*
X64761904Y-38162880D02*
X64742856Y-38143832D01*
X64742856Y-38143832D02*
X64704761Y-38086689D01*
X64704761Y-38086689D02*
X64685714Y-38010499D01*
X64685714Y-38010499D02*
X64685714Y-37858118D01*
X64685714Y-37858118D02*
X64704761Y-37820022D01*
X64704761Y-37820022D02*
X64723809Y-37800975D01*
X64723809Y-37800975D02*
X64761904Y-37781927D01*
X64761904Y-37781927D02*
X64838095Y-37781927D01*
X64838095Y-37781927D02*
X64876190Y-37800975D01*
X64876190Y-37800975D02*
X64895237Y-37820022D01*
X64895237Y-37820022D02*
X64914285Y-37858118D01*
X64914285Y-37858118D02*
X64914285Y-37953356D01*
X64914285Y-37953356D02*
X64895237Y-37991451D01*
X64895237Y-37991451D02*
X64876190Y-38010499D01*
X64876190Y-38010499D02*
X64838095Y-38029546D01*
X64838095Y-38029546D02*
X64761904Y-38029546D01*
X64761904Y-38029546D02*
X64723809Y-38010499D01*
X64723809Y-38010499D02*
X64704761Y-37991451D01*
X64704761Y-37991451D02*
X64685714Y-37953356D01*
D10*
X114547619Y-54884819D02*
X115119047Y-54884819D01*
X114833333Y-54884819D02*
X114833333Y-53884819D01*
X114833333Y-53884819D02*
X114928571Y-54027676D01*
X114928571Y-54027676D02*
X115023809Y-54122914D01*
X115023809Y-54122914D02*
X115119047Y-54170533D01*
X113928571Y-53884819D02*
X113833333Y-53884819D01*
X113833333Y-53884819D02*
X113738095Y-53932438D01*
X113738095Y-53932438D02*
X113690476Y-53980057D01*
X113690476Y-53980057D02*
X113642857Y-54075295D01*
X113642857Y-54075295D02*
X113595238Y-54265771D01*
X113595238Y-54265771D02*
X113595238Y-54503866D01*
X113595238Y-54503866D02*
X113642857Y-54694342D01*
X113642857Y-54694342D02*
X113690476Y-54789580D01*
X113690476Y-54789580D02*
X113738095Y-54837200D01*
X113738095Y-54837200D02*
X113833333Y-54884819D01*
X113833333Y-54884819D02*
X113928571Y-54884819D01*
X113928571Y-54884819D02*
X114023809Y-54837200D01*
X114023809Y-54837200D02*
X114071428Y-54789580D01*
X114071428Y-54789580D02*
X114119047Y-54694342D01*
X114119047Y-54694342D02*
X114166666Y-54503866D01*
X114166666Y-54503866D02*
X114166666Y-54265771D01*
X114166666Y-54265771D02*
X114119047Y-54075295D01*
X114119047Y-54075295D02*
X114071428Y-53980057D01*
X114071428Y-53980057D02*
X114023809Y-53932438D01*
X114023809Y-53932438D02*
X113928571Y-53884819D01*
X112976190Y-53884819D02*
X112880952Y-53884819D01*
X112880952Y-53884819D02*
X112785714Y-53932438D01*
X112785714Y-53932438D02*
X112738095Y-53980057D01*
X112738095Y-53980057D02*
X112690476Y-54075295D01*
X112690476Y-54075295D02*
X112642857Y-54265771D01*
X112642857Y-54265771D02*
X112642857Y-54503866D01*
X112642857Y-54503866D02*
X112690476Y-54694342D01*
X112690476Y-54694342D02*
X112738095Y-54789580D01*
X112738095Y-54789580D02*
X112785714Y-54837200D01*
X112785714Y-54837200D02*
X112880952Y-54884819D01*
X112880952Y-54884819D02*
X112976190Y-54884819D01*
X112976190Y-54884819D02*
X113071428Y-54837200D01*
X113071428Y-54837200D02*
X113119047Y-54789580D01*
X113119047Y-54789580D02*
X113166666Y-54694342D01*
X113166666Y-54694342D02*
X113214285Y-54503866D01*
X113214285Y-54503866D02*
X113214285Y-54265771D01*
X113214285Y-54265771D02*
X113166666Y-54075295D01*
X113166666Y-54075295D02*
X113119047Y-53980057D01*
X113119047Y-53980057D02*
X113071428Y-53932438D01*
X113071428Y-53932438D02*
X112976190Y-53884819D01*
X112214285Y-54218152D02*
X112214285Y-54884819D01*
X112214285Y-54313390D02*
X112166666Y-54265771D01*
X112166666Y-54265771D02*
X112071428Y-54218152D01*
X112071428Y-54218152D02*
X111928571Y-54218152D01*
X111928571Y-54218152D02*
X111833333Y-54265771D01*
X111833333Y-54265771D02*
X111785714Y-54361009D01*
X111785714Y-54361009D02*
X111785714Y-54884819D01*
X110976190Y-54361009D02*
X111309523Y-54361009D01*
X111309523Y-54884819D02*
X111309523Y-53884819D01*
X111309523Y-53884819D02*
X110833333Y-53884819D01*
D11*
X113257142Y-53143832D02*
X113276190Y-53162880D01*
X113276190Y-53162880D02*
X113333332Y-53181927D01*
X113333332Y-53181927D02*
X113371428Y-53181927D01*
X113371428Y-53181927D02*
X113428571Y-53162880D01*
X113428571Y-53162880D02*
X113466666Y-53124784D01*
X113466666Y-53124784D02*
X113485713Y-53086689D01*
X113485713Y-53086689D02*
X113504761Y-53010499D01*
X113504761Y-53010499D02*
X113504761Y-52953356D01*
X113504761Y-52953356D02*
X113485713Y-52877165D01*
X113485713Y-52877165D02*
X113466666Y-52839070D01*
X113466666Y-52839070D02*
X113428571Y-52800975D01*
X113428571Y-52800975D02*
X113371428Y-52781927D01*
X113371428Y-52781927D02*
X113333332Y-52781927D01*
X113333332Y-52781927D02*
X113276190Y-52800975D01*
X113276190Y-52800975D02*
X113257142Y-52820022D01*
X113104761Y-52820022D02*
X113085713Y-52800975D01*
X113085713Y-52800975D02*
X113047618Y-52781927D01*
X113047618Y-52781927D02*
X112952380Y-52781927D01*
X112952380Y-52781927D02*
X112914285Y-52800975D01*
X112914285Y-52800975D02*
X112895237Y-52820022D01*
X112895237Y-52820022D02*
X112876190Y-52858118D01*
X112876190Y-52858118D02*
X112876190Y-52896213D01*
X112876190Y-52896213D02*
X112895237Y-52953356D01*
X112895237Y-52953356D02*
X113123809Y-53181927D01*
X113123809Y-53181927D02*
X112876190Y-53181927D01*
X112495238Y-53181927D02*
X112723809Y-53181927D01*
X112609523Y-53181927D02*
X112609523Y-52781927D01*
X112609523Y-52781927D02*
X112647619Y-52839070D01*
X112647619Y-52839070D02*
X112685714Y-52877165D01*
X112685714Y-52877165D02*
X112723809Y-52896213D01*
D10*
X88595238Y-11884819D02*
X89166666Y-11884819D01*
X88880952Y-11884819D02*
X88880952Y-10884819D01*
X88880952Y-10884819D02*
X88976190Y-11027676D01*
X88976190Y-11027676D02*
X89071428Y-11122914D01*
X89071428Y-11122914D02*
X89166666Y-11170533D01*
X87976190Y-10884819D02*
X87880952Y-10884819D01*
X87880952Y-10884819D02*
X87785714Y-10932438D01*
X87785714Y-10932438D02*
X87738095Y-10980057D01*
X87738095Y-10980057D02*
X87690476Y-11075295D01*
X87690476Y-11075295D02*
X87642857Y-11265771D01*
X87642857Y-11265771D02*
X87642857Y-11503866D01*
X87642857Y-11503866D02*
X87690476Y-11694342D01*
X87690476Y-11694342D02*
X87738095Y-11789580D01*
X87738095Y-11789580D02*
X87785714Y-11837200D01*
X87785714Y-11837200D02*
X87880952Y-11884819D01*
X87880952Y-11884819D02*
X87976190Y-11884819D01*
X87976190Y-11884819D02*
X88071428Y-11837200D01*
X88071428Y-11837200D02*
X88119047Y-11789580D01*
X88119047Y-11789580D02*
X88166666Y-11694342D01*
X88166666Y-11694342D02*
X88214285Y-11503866D01*
X88214285Y-11503866D02*
X88214285Y-11265771D01*
X88214285Y-11265771D02*
X88166666Y-11075295D01*
X88166666Y-11075295D02*
X88119047Y-10980057D01*
X88119047Y-10980057D02*
X88071428Y-10932438D01*
X88071428Y-10932438D02*
X87976190Y-10884819D01*
X87214285Y-11884819D02*
X87214285Y-10884819D01*
X87119047Y-11503866D02*
X86833333Y-11884819D01*
X86833333Y-11218152D02*
X87214285Y-11599104D01*
D11*
X88066666Y-10181927D02*
X88199999Y-9991451D01*
X88295237Y-10181927D02*
X88295237Y-9781927D01*
X88295237Y-9781927D02*
X88142856Y-9781927D01*
X88142856Y-9781927D02*
X88104761Y-9800975D01*
X88104761Y-9800975D02*
X88085714Y-9820022D01*
X88085714Y-9820022D02*
X88066666Y-9858118D01*
X88066666Y-9858118D02*
X88066666Y-9915260D01*
X88066666Y-9915260D02*
X88085714Y-9953356D01*
X88085714Y-9953356D02*
X88104761Y-9972403D01*
X88104761Y-9972403D02*
X88142856Y-9991451D01*
X88142856Y-9991451D02*
X88295237Y-9991451D01*
X87723809Y-9915260D02*
X87723809Y-10181927D01*
X87819047Y-9762880D02*
X87914285Y-10048594D01*
X87914285Y-10048594D02*
X87666666Y-10048594D01*
D10*
X86119047Y-57884819D02*
X86690475Y-57884819D01*
X86404761Y-57884819D02*
X86404761Y-56884819D01*
X86404761Y-56884819D02*
X86499999Y-57027676D01*
X86499999Y-57027676D02*
X86595237Y-57122914D01*
X86595237Y-57122914D02*
X86690475Y-57170533D01*
X85690475Y-57884819D02*
X85690475Y-56884819D01*
X85595237Y-57503866D02*
X85309523Y-57884819D01*
X85309523Y-57218152D02*
X85690475Y-57599104D01*
D11*
X86257142Y-56181927D02*
X86390475Y-55991451D01*
X86485713Y-56181927D02*
X86485713Y-55781927D01*
X86485713Y-55781927D02*
X86333332Y-55781927D01*
X86333332Y-55781927D02*
X86295237Y-55800975D01*
X86295237Y-55800975D02*
X86276190Y-55820022D01*
X86276190Y-55820022D02*
X86257142Y-55858118D01*
X86257142Y-55858118D02*
X86257142Y-55915260D01*
X86257142Y-55915260D02*
X86276190Y-55953356D01*
X86276190Y-55953356D02*
X86295237Y-55972403D01*
X86295237Y-55972403D02*
X86333332Y-55991451D01*
X86333332Y-55991451D02*
X86485713Y-55991451D01*
X86123809Y-55781927D02*
X85876190Y-55781927D01*
X85876190Y-55781927D02*
X86009523Y-55934308D01*
X86009523Y-55934308D02*
X85952380Y-55934308D01*
X85952380Y-55934308D02*
X85914285Y-55953356D01*
X85914285Y-55953356D02*
X85895237Y-55972403D01*
X85895237Y-55972403D02*
X85876190Y-56010499D01*
X85876190Y-56010499D02*
X85876190Y-56105737D01*
X85876190Y-56105737D02*
X85895237Y-56143832D01*
X85895237Y-56143832D02*
X85914285Y-56162880D01*
X85914285Y-56162880D02*
X85952380Y-56181927D01*
X85952380Y-56181927D02*
X86066666Y-56181927D01*
X86066666Y-56181927D02*
X86104761Y-56162880D01*
X86104761Y-56162880D02*
X86123809Y-56143832D01*
X85495238Y-56181927D02*
X85723809Y-56181927D01*
X85609523Y-56181927D02*
X85609523Y-55781927D01*
X85609523Y-55781927D02*
X85647619Y-55839070D01*
X85647619Y-55839070D02*
X85685714Y-55877165D01*
X85685714Y-55877165D02*
X85723809Y-55896213D01*
D10*
X99547619Y-57884819D02*
X100119047Y-57884819D01*
X99833333Y-57884819D02*
X99833333Y-56884819D01*
X99833333Y-56884819D02*
X99928571Y-57027676D01*
X99928571Y-57027676D02*
X100023809Y-57122914D01*
X100023809Y-57122914D02*
X100119047Y-57170533D01*
X98928571Y-56884819D02*
X98833333Y-56884819D01*
X98833333Y-56884819D02*
X98738095Y-56932438D01*
X98738095Y-56932438D02*
X98690476Y-56980057D01*
X98690476Y-56980057D02*
X98642857Y-57075295D01*
X98642857Y-57075295D02*
X98595238Y-57265771D01*
X98595238Y-57265771D02*
X98595238Y-57503866D01*
X98595238Y-57503866D02*
X98642857Y-57694342D01*
X98642857Y-57694342D02*
X98690476Y-57789580D01*
X98690476Y-57789580D02*
X98738095Y-57837200D01*
X98738095Y-57837200D02*
X98833333Y-57884819D01*
X98833333Y-57884819D02*
X98928571Y-57884819D01*
X98928571Y-57884819D02*
X99023809Y-57837200D01*
X99023809Y-57837200D02*
X99071428Y-57789580D01*
X99071428Y-57789580D02*
X99119047Y-57694342D01*
X99119047Y-57694342D02*
X99166666Y-57503866D01*
X99166666Y-57503866D02*
X99166666Y-57265771D01*
X99166666Y-57265771D02*
X99119047Y-57075295D01*
X99119047Y-57075295D02*
X99071428Y-56980057D01*
X99071428Y-56980057D02*
X99023809Y-56932438D01*
X99023809Y-56932438D02*
X98928571Y-56884819D01*
X97976190Y-56884819D02*
X97880952Y-56884819D01*
X97880952Y-56884819D02*
X97785714Y-56932438D01*
X97785714Y-56932438D02*
X97738095Y-56980057D01*
X97738095Y-56980057D02*
X97690476Y-57075295D01*
X97690476Y-57075295D02*
X97642857Y-57265771D01*
X97642857Y-57265771D02*
X97642857Y-57503866D01*
X97642857Y-57503866D02*
X97690476Y-57694342D01*
X97690476Y-57694342D02*
X97738095Y-57789580D01*
X97738095Y-57789580D02*
X97785714Y-57837200D01*
X97785714Y-57837200D02*
X97880952Y-57884819D01*
X97880952Y-57884819D02*
X97976190Y-57884819D01*
X97976190Y-57884819D02*
X98071428Y-57837200D01*
X98071428Y-57837200D02*
X98119047Y-57789580D01*
X98119047Y-57789580D02*
X98166666Y-57694342D01*
X98166666Y-57694342D02*
X98214285Y-57503866D01*
X98214285Y-57503866D02*
X98214285Y-57265771D01*
X98214285Y-57265771D02*
X98166666Y-57075295D01*
X98166666Y-57075295D02*
X98119047Y-56980057D01*
X98119047Y-56980057D02*
X98071428Y-56932438D01*
X98071428Y-56932438D02*
X97976190Y-56884819D01*
X97214285Y-57218152D02*
X97214285Y-57884819D01*
X97214285Y-57313390D02*
X97166666Y-57265771D01*
X97166666Y-57265771D02*
X97071428Y-57218152D01*
X97071428Y-57218152D02*
X96928571Y-57218152D01*
X96928571Y-57218152D02*
X96833333Y-57265771D01*
X96833333Y-57265771D02*
X96785714Y-57361009D01*
X96785714Y-57361009D02*
X96785714Y-57884819D01*
X95976190Y-57361009D02*
X96309523Y-57361009D01*
X96309523Y-57884819D02*
X96309523Y-56884819D01*
X96309523Y-56884819D02*
X95833333Y-56884819D01*
D11*
X98257142Y-56143832D02*
X98276190Y-56162880D01*
X98276190Y-56162880D02*
X98333332Y-56181927D01*
X98333332Y-56181927D02*
X98371428Y-56181927D01*
X98371428Y-56181927D02*
X98428571Y-56162880D01*
X98428571Y-56162880D02*
X98466666Y-56124784D01*
X98466666Y-56124784D02*
X98485713Y-56086689D01*
X98485713Y-56086689D02*
X98504761Y-56010499D01*
X98504761Y-56010499D02*
X98504761Y-55953356D01*
X98504761Y-55953356D02*
X98485713Y-55877165D01*
X98485713Y-55877165D02*
X98466666Y-55839070D01*
X98466666Y-55839070D02*
X98428571Y-55800975D01*
X98428571Y-55800975D02*
X98371428Y-55781927D01*
X98371428Y-55781927D02*
X98333332Y-55781927D01*
X98333332Y-55781927D02*
X98276190Y-55800975D01*
X98276190Y-55800975D02*
X98257142Y-55820022D01*
X98123809Y-55781927D02*
X97876190Y-55781927D01*
X97876190Y-55781927D02*
X98009523Y-55934308D01*
X98009523Y-55934308D02*
X97952380Y-55934308D01*
X97952380Y-55934308D02*
X97914285Y-55953356D01*
X97914285Y-55953356D02*
X97895237Y-55972403D01*
X97895237Y-55972403D02*
X97876190Y-56010499D01*
X97876190Y-56010499D02*
X97876190Y-56105737D01*
X97876190Y-56105737D02*
X97895237Y-56143832D01*
X97895237Y-56143832D02*
X97914285Y-56162880D01*
X97914285Y-56162880D02*
X97952380Y-56181927D01*
X97952380Y-56181927D02*
X98066666Y-56181927D01*
X98066666Y-56181927D02*
X98104761Y-56162880D01*
X98104761Y-56162880D02*
X98123809Y-56143832D01*
X97495238Y-56181927D02*
X97723809Y-56181927D01*
X97609523Y-56181927D02*
X97609523Y-55781927D01*
X97609523Y-55781927D02*
X97647619Y-55839070D01*
X97647619Y-55839070D02*
X97685714Y-55877165D01*
X97685714Y-55877165D02*
X97723809Y-55896213D01*
D10*
X92595238Y-11884819D02*
X93166666Y-11884819D01*
X92880952Y-11884819D02*
X92880952Y-10884819D01*
X92880952Y-10884819D02*
X92976190Y-11027676D01*
X92976190Y-11027676D02*
X93071428Y-11122914D01*
X93071428Y-11122914D02*
X93166666Y-11170533D01*
X91738095Y-11218152D02*
X91738095Y-11884819D01*
X92166666Y-11218152D02*
X92166666Y-11741961D01*
X92166666Y-11741961D02*
X92119047Y-11837200D01*
X92119047Y-11837200D02*
X92023809Y-11884819D01*
X92023809Y-11884819D02*
X91880952Y-11884819D01*
X91880952Y-11884819D02*
X91785714Y-11837200D01*
X91785714Y-11837200D02*
X91738095Y-11789580D01*
X90928571Y-11361009D02*
X91261904Y-11361009D01*
X91261904Y-11884819D02*
X91261904Y-10884819D01*
X91261904Y-10884819D02*
X90785714Y-10884819D01*
D11*
X92066666Y-10143832D02*
X92085714Y-10162880D01*
X92085714Y-10162880D02*
X92142856Y-10181927D01*
X92142856Y-10181927D02*
X92180952Y-10181927D01*
X92180952Y-10181927D02*
X92238095Y-10162880D01*
X92238095Y-10162880D02*
X92276190Y-10124784D01*
X92276190Y-10124784D02*
X92295237Y-10086689D01*
X92295237Y-10086689D02*
X92314285Y-10010499D01*
X92314285Y-10010499D02*
X92314285Y-9953356D01*
X92314285Y-9953356D02*
X92295237Y-9877165D01*
X92295237Y-9877165D02*
X92276190Y-9839070D01*
X92276190Y-9839070D02*
X92238095Y-9800975D01*
X92238095Y-9800975D02*
X92180952Y-9781927D01*
X92180952Y-9781927D02*
X92142856Y-9781927D01*
X92142856Y-9781927D02*
X92085714Y-9800975D01*
X92085714Y-9800975D02*
X92066666Y-9820022D01*
X91933333Y-9781927D02*
X91666666Y-9781927D01*
X91666666Y-9781927D02*
X91838095Y-10181927D01*
D10*
X62047618Y-42454819D02*
X62047618Y-41454819D01*
X62047618Y-41454819D02*
X61809523Y-41454819D01*
X61809523Y-41454819D02*
X61666666Y-41502438D01*
X61666666Y-41502438D02*
X61571428Y-41597676D01*
X61571428Y-41597676D02*
X61523809Y-41692914D01*
X61523809Y-41692914D02*
X61476190Y-41883390D01*
X61476190Y-41883390D02*
X61476190Y-42026247D01*
X61476190Y-42026247D02*
X61523809Y-42216723D01*
X61523809Y-42216723D02*
X61571428Y-42311961D01*
X61571428Y-42311961D02*
X61666666Y-42407200D01*
X61666666Y-42407200D02*
X61809523Y-42454819D01*
X61809523Y-42454819D02*
X62047618Y-42454819D01*
X60666666Y-42407200D02*
X60761904Y-42454819D01*
X60761904Y-42454819D02*
X60952380Y-42454819D01*
X60952380Y-42454819D02*
X61047618Y-42407200D01*
X61047618Y-42407200D02*
X61095237Y-42311961D01*
X61095237Y-42311961D02*
X61095237Y-41931009D01*
X61095237Y-41931009D02*
X61047618Y-41835771D01*
X61047618Y-41835771D02*
X60952380Y-41788152D01*
X60952380Y-41788152D02*
X60761904Y-41788152D01*
X60761904Y-41788152D02*
X60666666Y-41835771D01*
X60666666Y-41835771D02*
X60619047Y-41931009D01*
X60619047Y-41931009D02*
X60619047Y-42026247D01*
X60619047Y-42026247D02*
X61095237Y-42121485D01*
X60190475Y-42454819D02*
X60190475Y-41454819D01*
X60190475Y-41835771D02*
X60095237Y-41788152D01*
X60095237Y-41788152D02*
X59904761Y-41788152D01*
X59904761Y-41788152D02*
X59809523Y-41835771D01*
X59809523Y-41835771D02*
X59761904Y-41883390D01*
X59761904Y-41883390D02*
X59714285Y-41978628D01*
X59714285Y-41978628D02*
X59714285Y-42264342D01*
X59714285Y-42264342D02*
X59761904Y-42359580D01*
X59761904Y-42359580D02*
X59809523Y-42407200D01*
X59809523Y-42407200D02*
X59904761Y-42454819D01*
X59904761Y-42454819D02*
X60095237Y-42454819D01*
X60095237Y-42454819D02*
X60190475Y-42407200D01*
X58857142Y-41788152D02*
X58857142Y-42454819D01*
X59285713Y-41788152D02*
X59285713Y-42311961D01*
X59285713Y-42311961D02*
X59238094Y-42407200D01*
X59238094Y-42407200D02*
X59142856Y-42454819D01*
X59142856Y-42454819D02*
X58999999Y-42454819D01*
X58999999Y-42454819D02*
X58904761Y-42407200D01*
X58904761Y-42407200D02*
X58857142Y-42359580D01*
X57952380Y-41788152D02*
X57952380Y-42597676D01*
X57952380Y-42597676D02*
X57999999Y-42692914D01*
X57999999Y-42692914D02*
X58047618Y-42740533D01*
X58047618Y-42740533D02*
X58142856Y-42788152D01*
X58142856Y-42788152D02*
X58285713Y-42788152D01*
X58285713Y-42788152D02*
X58380951Y-42740533D01*
X57952380Y-42407200D02*
X58047618Y-42454819D01*
X58047618Y-42454819D02*
X58238094Y-42454819D01*
X58238094Y-42454819D02*
X58333332Y-42407200D01*
X58333332Y-42407200D02*
X58380951Y-42359580D01*
X58380951Y-42359580D02*
X58428570Y-42264342D01*
X58428570Y-42264342D02*
X58428570Y-41978628D01*
X58428570Y-41978628D02*
X58380951Y-41883390D01*
X58380951Y-41883390D02*
X58333332Y-41835771D01*
X58333332Y-41835771D02*
X58238094Y-41788152D01*
X58238094Y-41788152D02*
X58047618Y-41788152D01*
X58047618Y-41788152D02*
X57952380Y-41835771D01*
X59454819Y-35476666D02*
X60169104Y-35476666D01*
X60169104Y-35476666D02*
X60311961Y-35429047D01*
X60311961Y-35429047D02*
X60407200Y-35333809D01*
X60407200Y-35333809D02*
X60454819Y-35190952D01*
X60454819Y-35190952D02*
X60454819Y-35095714D01*
X59454819Y-35857619D02*
X59454819Y-36476666D01*
X59454819Y-36476666D02*
X59835771Y-36143333D01*
X59835771Y-36143333D02*
X59835771Y-36286190D01*
X59835771Y-36286190D02*
X59883390Y-36381428D01*
X59883390Y-36381428D02*
X59931009Y-36429047D01*
X59931009Y-36429047D02*
X60026247Y-36476666D01*
X60026247Y-36476666D02*
X60264342Y-36476666D01*
X60264342Y-36476666D02*
X60359580Y-36429047D01*
X60359580Y-36429047D02*
X60407200Y-36381428D01*
X60407200Y-36381428D02*
X60454819Y-36286190D01*
X60454819Y-36286190D02*
X60454819Y-36000476D01*
X60454819Y-36000476D02*
X60407200Y-35905238D01*
X60407200Y-35905238D02*
X60359580Y-35857619D01*
X114595238Y-57884819D02*
X115166666Y-57884819D01*
X114880952Y-57884819D02*
X114880952Y-56884819D01*
X114880952Y-56884819D02*
X114976190Y-57027676D01*
X114976190Y-57027676D02*
X115071428Y-57122914D01*
X115071428Y-57122914D02*
X115166666Y-57170533D01*
X113976190Y-56884819D02*
X113880952Y-56884819D01*
X113880952Y-56884819D02*
X113785714Y-56932438D01*
X113785714Y-56932438D02*
X113738095Y-56980057D01*
X113738095Y-56980057D02*
X113690476Y-57075295D01*
X113690476Y-57075295D02*
X113642857Y-57265771D01*
X113642857Y-57265771D02*
X113642857Y-57503866D01*
X113642857Y-57503866D02*
X113690476Y-57694342D01*
X113690476Y-57694342D02*
X113738095Y-57789580D01*
X113738095Y-57789580D02*
X113785714Y-57837200D01*
X113785714Y-57837200D02*
X113880952Y-57884819D01*
X113880952Y-57884819D02*
X113976190Y-57884819D01*
X113976190Y-57884819D02*
X114071428Y-57837200D01*
X114071428Y-57837200D02*
X114119047Y-57789580D01*
X114119047Y-57789580D02*
X114166666Y-57694342D01*
X114166666Y-57694342D02*
X114214285Y-57503866D01*
X114214285Y-57503866D02*
X114214285Y-57265771D01*
X114214285Y-57265771D02*
X114166666Y-57075295D01*
X114166666Y-57075295D02*
X114119047Y-56980057D01*
X114119047Y-56980057D02*
X114071428Y-56932438D01*
X114071428Y-56932438D02*
X113976190Y-56884819D01*
X113214285Y-57884819D02*
X113214285Y-56884819D01*
X113119047Y-57503866D02*
X112833333Y-57884819D01*
X112833333Y-57218152D02*
X113214285Y-57599104D01*
D11*
X114257142Y-56181927D02*
X114390475Y-55991451D01*
X114485713Y-56181927D02*
X114485713Y-55781927D01*
X114485713Y-55781927D02*
X114333332Y-55781927D01*
X114333332Y-55781927D02*
X114295237Y-55800975D01*
X114295237Y-55800975D02*
X114276190Y-55820022D01*
X114276190Y-55820022D02*
X114257142Y-55858118D01*
X114257142Y-55858118D02*
X114257142Y-55915260D01*
X114257142Y-55915260D02*
X114276190Y-55953356D01*
X114276190Y-55953356D02*
X114295237Y-55972403D01*
X114295237Y-55972403D02*
X114333332Y-55991451D01*
X114333332Y-55991451D02*
X114485713Y-55991451D01*
X113914285Y-55915260D02*
X113914285Y-56181927D01*
X114009523Y-55762880D02*
X114104761Y-56048594D01*
X114104761Y-56048594D02*
X113857142Y-56048594D01*
X113495238Y-56181927D02*
X113723809Y-56181927D01*
X113609523Y-56181927D02*
X113609523Y-55781927D01*
X113609523Y-55781927D02*
X113647619Y-55839070D01*
X113647619Y-55839070D02*
X113685714Y-55877165D01*
X113685714Y-55877165D02*
X113723809Y-55896213D01*
D10*
X171285713Y-64884819D02*
X171285713Y-63884819D01*
X171285713Y-63884819D02*
X171047618Y-63884819D01*
X171047618Y-63884819D02*
X170904761Y-63932438D01*
X170904761Y-63932438D02*
X170809523Y-64027676D01*
X170809523Y-64027676D02*
X170761904Y-64122914D01*
X170761904Y-64122914D02*
X170714285Y-64313390D01*
X170714285Y-64313390D02*
X170714285Y-64456247D01*
X170714285Y-64456247D02*
X170761904Y-64646723D01*
X170761904Y-64646723D02*
X170809523Y-64741961D01*
X170809523Y-64741961D02*
X170904761Y-64837200D01*
X170904761Y-64837200D02*
X171047618Y-64884819D01*
X171047618Y-64884819D02*
X171285713Y-64884819D01*
X170285713Y-64884819D02*
X170285713Y-63884819D01*
X170285713Y-63884819D02*
X169714285Y-64884819D01*
X169714285Y-64884819D02*
X169714285Y-63884819D01*
X169238094Y-64884819D02*
X169238094Y-63884819D01*
X169238094Y-63884819D02*
X168857142Y-63884819D01*
X168857142Y-63884819D02*
X168761904Y-63932438D01*
X168761904Y-63932438D02*
X168714285Y-63980057D01*
X168714285Y-63980057D02*
X168666666Y-64075295D01*
X168666666Y-64075295D02*
X168666666Y-64218152D01*
X168666666Y-64218152D02*
X168714285Y-64313390D01*
X168714285Y-64313390D02*
X168761904Y-64361009D01*
X168761904Y-64361009D02*
X168857142Y-64408628D01*
X168857142Y-64408628D02*
X169238094Y-64408628D01*
D11*
X170257142Y-63143832D02*
X170276190Y-63162880D01*
X170276190Y-63162880D02*
X170333332Y-63181927D01*
X170333332Y-63181927D02*
X170371428Y-63181927D01*
X170371428Y-63181927D02*
X170428571Y-63162880D01*
X170428571Y-63162880D02*
X170466666Y-63124784D01*
X170466666Y-63124784D02*
X170485713Y-63086689D01*
X170485713Y-63086689D02*
X170504761Y-63010499D01*
X170504761Y-63010499D02*
X170504761Y-62953356D01*
X170504761Y-62953356D02*
X170485713Y-62877165D01*
X170485713Y-62877165D02*
X170466666Y-62839070D01*
X170466666Y-62839070D02*
X170428571Y-62800975D01*
X170428571Y-62800975D02*
X170371428Y-62781927D01*
X170371428Y-62781927D02*
X170333332Y-62781927D01*
X170333332Y-62781927D02*
X170276190Y-62800975D01*
X170276190Y-62800975D02*
X170257142Y-62820022D01*
X169895237Y-62781927D02*
X170085713Y-62781927D01*
X170085713Y-62781927D02*
X170104761Y-62972403D01*
X170104761Y-62972403D02*
X170085713Y-62953356D01*
X170085713Y-62953356D02*
X170047618Y-62934308D01*
X170047618Y-62934308D02*
X169952380Y-62934308D01*
X169952380Y-62934308D02*
X169914285Y-62953356D01*
X169914285Y-62953356D02*
X169895237Y-62972403D01*
X169895237Y-62972403D02*
X169876190Y-63010499D01*
X169876190Y-63010499D02*
X169876190Y-63105737D01*
X169876190Y-63105737D02*
X169895237Y-63143832D01*
X169895237Y-63143832D02*
X169914285Y-63162880D01*
X169914285Y-63162880D02*
X169952380Y-63181927D01*
X169952380Y-63181927D02*
X170047618Y-63181927D01*
X170047618Y-63181927D02*
X170085713Y-63162880D01*
X170085713Y-63162880D02*
X170104761Y-63143832D01*
X169495238Y-63181927D02*
X169723809Y-63181927D01*
X169609523Y-63181927D02*
X169609523Y-62781927D01*
X169609523Y-62781927D02*
X169647619Y-62839070D01*
X169647619Y-62839070D02*
X169685714Y-62877165D01*
X169685714Y-62877165D02*
X169723809Y-62896213D01*
D10*
X33547619Y-56884819D02*
X34119047Y-56884819D01*
X33833333Y-56884819D02*
X33833333Y-55884819D01*
X33833333Y-55884819D02*
X33928571Y-56027676D01*
X33928571Y-56027676D02*
X34023809Y-56122914D01*
X34023809Y-56122914D02*
X34119047Y-56170533D01*
X32928571Y-55884819D02*
X32833333Y-55884819D01*
X32833333Y-55884819D02*
X32738095Y-55932438D01*
X32738095Y-55932438D02*
X32690476Y-55980057D01*
X32690476Y-55980057D02*
X32642857Y-56075295D01*
X32642857Y-56075295D02*
X32595238Y-56265771D01*
X32595238Y-56265771D02*
X32595238Y-56503866D01*
X32595238Y-56503866D02*
X32642857Y-56694342D01*
X32642857Y-56694342D02*
X32690476Y-56789580D01*
X32690476Y-56789580D02*
X32738095Y-56837200D01*
X32738095Y-56837200D02*
X32833333Y-56884819D01*
X32833333Y-56884819D02*
X32928571Y-56884819D01*
X32928571Y-56884819D02*
X33023809Y-56837200D01*
X33023809Y-56837200D02*
X33071428Y-56789580D01*
X33071428Y-56789580D02*
X33119047Y-56694342D01*
X33119047Y-56694342D02*
X33166666Y-56503866D01*
X33166666Y-56503866D02*
X33166666Y-56265771D01*
X33166666Y-56265771D02*
X33119047Y-56075295D01*
X33119047Y-56075295D02*
X33071428Y-55980057D01*
X33071428Y-55980057D02*
X33023809Y-55932438D01*
X33023809Y-55932438D02*
X32928571Y-55884819D01*
X31976190Y-55884819D02*
X31880952Y-55884819D01*
X31880952Y-55884819D02*
X31785714Y-55932438D01*
X31785714Y-55932438D02*
X31738095Y-55980057D01*
X31738095Y-55980057D02*
X31690476Y-56075295D01*
X31690476Y-56075295D02*
X31642857Y-56265771D01*
X31642857Y-56265771D02*
X31642857Y-56503866D01*
X31642857Y-56503866D02*
X31690476Y-56694342D01*
X31690476Y-56694342D02*
X31738095Y-56789580D01*
X31738095Y-56789580D02*
X31785714Y-56837200D01*
X31785714Y-56837200D02*
X31880952Y-56884819D01*
X31880952Y-56884819D02*
X31976190Y-56884819D01*
X31976190Y-56884819D02*
X32071428Y-56837200D01*
X32071428Y-56837200D02*
X32119047Y-56789580D01*
X32119047Y-56789580D02*
X32166666Y-56694342D01*
X32166666Y-56694342D02*
X32214285Y-56503866D01*
X32214285Y-56503866D02*
X32214285Y-56265771D01*
X32214285Y-56265771D02*
X32166666Y-56075295D01*
X32166666Y-56075295D02*
X32119047Y-55980057D01*
X32119047Y-55980057D02*
X32071428Y-55932438D01*
X32071428Y-55932438D02*
X31976190Y-55884819D01*
X31214285Y-56218152D02*
X31214285Y-56884819D01*
X31214285Y-56313390D02*
X31166666Y-56265771D01*
X31166666Y-56265771D02*
X31071428Y-56218152D01*
X31071428Y-56218152D02*
X30928571Y-56218152D01*
X30928571Y-56218152D02*
X30833333Y-56265771D01*
X30833333Y-56265771D02*
X30785714Y-56361009D01*
X30785714Y-56361009D02*
X30785714Y-56884819D01*
X29976190Y-56361009D02*
X30309523Y-56361009D01*
X30309523Y-56884819D02*
X30309523Y-55884819D01*
X30309523Y-55884819D02*
X29833333Y-55884819D01*
D11*
X32066666Y-55143832D02*
X32085714Y-55162880D01*
X32085714Y-55162880D02*
X32142856Y-55181927D01*
X32142856Y-55181927D02*
X32180952Y-55181927D01*
X32180952Y-55181927D02*
X32238095Y-55162880D01*
X32238095Y-55162880D02*
X32276190Y-55124784D01*
X32276190Y-55124784D02*
X32295237Y-55086689D01*
X32295237Y-55086689D02*
X32314285Y-55010499D01*
X32314285Y-55010499D02*
X32314285Y-54953356D01*
X32314285Y-54953356D02*
X32295237Y-54877165D01*
X32295237Y-54877165D02*
X32276190Y-54839070D01*
X32276190Y-54839070D02*
X32238095Y-54800975D01*
X32238095Y-54800975D02*
X32180952Y-54781927D01*
X32180952Y-54781927D02*
X32142856Y-54781927D01*
X32142856Y-54781927D02*
X32085714Y-54800975D01*
X32085714Y-54800975D02*
X32066666Y-54820022D01*
X31838095Y-54953356D02*
X31876190Y-54934308D01*
X31876190Y-54934308D02*
X31895237Y-54915260D01*
X31895237Y-54915260D02*
X31914285Y-54877165D01*
X31914285Y-54877165D02*
X31914285Y-54858118D01*
X31914285Y-54858118D02*
X31895237Y-54820022D01*
X31895237Y-54820022D02*
X31876190Y-54800975D01*
X31876190Y-54800975D02*
X31838095Y-54781927D01*
X31838095Y-54781927D02*
X31761904Y-54781927D01*
X31761904Y-54781927D02*
X31723809Y-54800975D01*
X31723809Y-54800975D02*
X31704761Y-54820022D01*
X31704761Y-54820022D02*
X31685714Y-54858118D01*
X31685714Y-54858118D02*
X31685714Y-54877165D01*
X31685714Y-54877165D02*
X31704761Y-54915260D01*
X31704761Y-54915260D02*
X31723809Y-54934308D01*
X31723809Y-54934308D02*
X31761904Y-54953356D01*
X31761904Y-54953356D02*
X31838095Y-54953356D01*
X31838095Y-54953356D02*
X31876190Y-54972403D01*
X31876190Y-54972403D02*
X31895237Y-54991451D01*
X31895237Y-54991451D02*
X31914285Y-55029546D01*
X31914285Y-55029546D02*
X31914285Y-55105737D01*
X31914285Y-55105737D02*
X31895237Y-55143832D01*
X31895237Y-55143832D02*
X31876190Y-55162880D01*
X31876190Y-55162880D02*
X31838095Y-55181927D01*
X31838095Y-55181927D02*
X31761904Y-55181927D01*
X31761904Y-55181927D02*
X31723809Y-55162880D01*
X31723809Y-55162880D02*
X31704761Y-55143832D01*
X31704761Y-55143832D02*
X31685714Y-55105737D01*
X31685714Y-55105737D02*
X31685714Y-55029546D01*
X31685714Y-55029546D02*
X31704761Y-54991451D01*
X31704761Y-54991451D02*
X31723809Y-54972403D01*
X31723809Y-54972403D02*
X31761904Y-54953356D01*
D10*
X114071428Y-48884819D02*
X114642856Y-48884819D01*
X114357142Y-48884819D02*
X114357142Y-47884819D01*
X114357142Y-47884819D02*
X114452380Y-48027676D01*
X114452380Y-48027676D02*
X114547618Y-48122914D01*
X114547618Y-48122914D02*
X114642856Y-48170533D01*
X113452380Y-47884819D02*
X113357142Y-47884819D01*
X113357142Y-47884819D02*
X113261904Y-47932438D01*
X113261904Y-47932438D02*
X113214285Y-47980057D01*
X113214285Y-47980057D02*
X113166666Y-48075295D01*
X113166666Y-48075295D02*
X113119047Y-48265771D01*
X113119047Y-48265771D02*
X113119047Y-48503866D01*
X113119047Y-48503866D02*
X113166666Y-48694342D01*
X113166666Y-48694342D02*
X113214285Y-48789580D01*
X113214285Y-48789580D02*
X113261904Y-48837200D01*
X113261904Y-48837200D02*
X113357142Y-48884819D01*
X113357142Y-48884819D02*
X113452380Y-48884819D01*
X113452380Y-48884819D02*
X113547618Y-48837200D01*
X113547618Y-48837200D02*
X113595237Y-48789580D01*
X113595237Y-48789580D02*
X113642856Y-48694342D01*
X113642856Y-48694342D02*
X113690475Y-48503866D01*
X113690475Y-48503866D02*
X113690475Y-48265771D01*
X113690475Y-48265771D02*
X113642856Y-48075295D01*
X113642856Y-48075295D02*
X113595237Y-47980057D01*
X113595237Y-47980057D02*
X113547618Y-47932438D01*
X113547618Y-47932438D02*
X113452380Y-47884819D01*
X112261904Y-48218152D02*
X112261904Y-48884819D01*
X112690475Y-48218152D02*
X112690475Y-48741961D01*
X112690475Y-48741961D02*
X112642856Y-48837200D01*
X112642856Y-48837200D02*
X112547618Y-48884819D01*
X112547618Y-48884819D02*
X112404761Y-48884819D01*
X112404761Y-48884819D02*
X112309523Y-48837200D01*
X112309523Y-48837200D02*
X112261904Y-48789580D01*
X111452380Y-48361009D02*
X111785713Y-48361009D01*
X111785713Y-48884819D02*
X111785713Y-47884819D01*
X111785713Y-47884819D02*
X111309523Y-47884819D01*
D11*
X113066666Y-47143832D02*
X113085714Y-47162880D01*
X113085714Y-47162880D02*
X113142856Y-47181927D01*
X113142856Y-47181927D02*
X113180952Y-47181927D01*
X113180952Y-47181927D02*
X113238095Y-47162880D01*
X113238095Y-47162880D02*
X113276190Y-47124784D01*
X113276190Y-47124784D02*
X113295237Y-47086689D01*
X113295237Y-47086689D02*
X113314285Y-47010499D01*
X113314285Y-47010499D02*
X113314285Y-46953356D01*
X113314285Y-46953356D02*
X113295237Y-46877165D01*
X113295237Y-46877165D02*
X113276190Y-46839070D01*
X113276190Y-46839070D02*
X113238095Y-46800975D01*
X113238095Y-46800975D02*
X113180952Y-46781927D01*
X113180952Y-46781927D02*
X113142856Y-46781927D01*
X113142856Y-46781927D02*
X113085714Y-46800975D01*
X113085714Y-46800975D02*
X113066666Y-46820022D01*
X112704761Y-46781927D02*
X112895237Y-46781927D01*
X112895237Y-46781927D02*
X112914285Y-46972403D01*
X112914285Y-46972403D02*
X112895237Y-46953356D01*
X112895237Y-46953356D02*
X112857142Y-46934308D01*
X112857142Y-46934308D02*
X112761904Y-46934308D01*
X112761904Y-46934308D02*
X112723809Y-46953356D01*
X112723809Y-46953356D02*
X112704761Y-46972403D01*
X112704761Y-46972403D02*
X112685714Y-47010499D01*
X112685714Y-47010499D02*
X112685714Y-47105737D01*
X112685714Y-47105737D02*
X112704761Y-47143832D01*
X112704761Y-47143832D02*
X112723809Y-47162880D01*
X112723809Y-47162880D02*
X112761904Y-47181927D01*
X112761904Y-47181927D02*
X112857142Y-47181927D01*
X112857142Y-47181927D02*
X112895237Y-47162880D01*
X112895237Y-47162880D02*
X112914285Y-47143832D01*
D10*
X104595238Y-47884819D02*
X105166666Y-47884819D01*
X104880952Y-47884819D02*
X104880952Y-46884819D01*
X104880952Y-46884819D02*
X104976190Y-47027676D01*
X104976190Y-47027676D02*
X105071428Y-47122914D01*
X105071428Y-47122914D02*
X105166666Y-47170533D01*
X103738095Y-47218152D02*
X103738095Y-47884819D01*
X104166666Y-47218152D02*
X104166666Y-47741961D01*
X104166666Y-47741961D02*
X104119047Y-47837200D01*
X104119047Y-47837200D02*
X104023809Y-47884819D01*
X104023809Y-47884819D02*
X103880952Y-47884819D01*
X103880952Y-47884819D02*
X103785714Y-47837200D01*
X103785714Y-47837200D02*
X103738095Y-47789580D01*
X102928571Y-47361009D02*
X103261904Y-47361009D01*
X103261904Y-47884819D02*
X103261904Y-46884819D01*
X103261904Y-46884819D02*
X102785714Y-46884819D01*
D11*
X104066666Y-46143832D02*
X104085714Y-46162880D01*
X104085714Y-46162880D02*
X104142856Y-46181927D01*
X104142856Y-46181927D02*
X104180952Y-46181927D01*
X104180952Y-46181927D02*
X104238095Y-46162880D01*
X104238095Y-46162880D02*
X104276190Y-46124784D01*
X104276190Y-46124784D02*
X104295237Y-46086689D01*
X104295237Y-46086689D02*
X104314285Y-46010499D01*
X104314285Y-46010499D02*
X104314285Y-45953356D01*
X104314285Y-45953356D02*
X104295237Y-45877165D01*
X104295237Y-45877165D02*
X104276190Y-45839070D01*
X104276190Y-45839070D02*
X104238095Y-45800975D01*
X104238095Y-45800975D02*
X104180952Y-45781927D01*
X104180952Y-45781927D02*
X104142856Y-45781927D01*
X104142856Y-45781927D02*
X104085714Y-45800975D01*
X104085714Y-45800975D02*
X104066666Y-45820022D01*
X103914285Y-45820022D02*
X103895237Y-45800975D01*
X103895237Y-45800975D02*
X103857142Y-45781927D01*
X103857142Y-45781927D02*
X103761904Y-45781927D01*
X103761904Y-45781927D02*
X103723809Y-45800975D01*
X103723809Y-45800975D02*
X103704761Y-45820022D01*
X103704761Y-45820022D02*
X103685714Y-45858118D01*
X103685714Y-45858118D02*
X103685714Y-45896213D01*
X103685714Y-45896213D02*
X103704761Y-45953356D01*
X103704761Y-45953356D02*
X103933333Y-46181927D01*
X103933333Y-46181927D02*
X103685714Y-46181927D01*
D10*
X56595238Y-57884819D02*
X57166666Y-57884819D01*
X56880952Y-57884819D02*
X56880952Y-56884819D01*
X56880952Y-56884819D02*
X56976190Y-57027676D01*
X56976190Y-57027676D02*
X57071428Y-57122914D01*
X57071428Y-57122914D02*
X57166666Y-57170533D01*
X55976190Y-56884819D02*
X55880952Y-56884819D01*
X55880952Y-56884819D02*
X55785714Y-56932438D01*
X55785714Y-56932438D02*
X55738095Y-56980057D01*
X55738095Y-56980057D02*
X55690476Y-57075295D01*
X55690476Y-57075295D02*
X55642857Y-57265771D01*
X55642857Y-57265771D02*
X55642857Y-57503866D01*
X55642857Y-57503866D02*
X55690476Y-57694342D01*
X55690476Y-57694342D02*
X55738095Y-57789580D01*
X55738095Y-57789580D02*
X55785714Y-57837200D01*
X55785714Y-57837200D02*
X55880952Y-57884819D01*
X55880952Y-57884819D02*
X55976190Y-57884819D01*
X55976190Y-57884819D02*
X56071428Y-57837200D01*
X56071428Y-57837200D02*
X56119047Y-57789580D01*
X56119047Y-57789580D02*
X56166666Y-57694342D01*
X56166666Y-57694342D02*
X56214285Y-57503866D01*
X56214285Y-57503866D02*
X56214285Y-57265771D01*
X56214285Y-57265771D02*
X56166666Y-57075295D01*
X56166666Y-57075295D02*
X56119047Y-56980057D01*
X56119047Y-56980057D02*
X56071428Y-56932438D01*
X56071428Y-56932438D02*
X55976190Y-56884819D01*
X55214285Y-57884819D02*
X55214285Y-56884819D01*
X55119047Y-57503866D02*
X54833333Y-57884819D01*
X54833333Y-57218152D02*
X55214285Y-57599104D01*
D11*
X56066666Y-56181927D02*
X56199999Y-55991451D01*
X56295237Y-56181927D02*
X56295237Y-55781927D01*
X56295237Y-55781927D02*
X56142856Y-55781927D01*
X56142856Y-55781927D02*
X56104761Y-55800975D01*
X56104761Y-55800975D02*
X56085714Y-55820022D01*
X56085714Y-55820022D02*
X56066666Y-55858118D01*
X56066666Y-55858118D02*
X56066666Y-55915260D01*
X56066666Y-55915260D02*
X56085714Y-55953356D01*
X56085714Y-55953356D02*
X56104761Y-55972403D01*
X56104761Y-55972403D02*
X56142856Y-55991451D01*
X56142856Y-55991451D02*
X56295237Y-55991451D01*
X55876190Y-56181927D02*
X55799999Y-56181927D01*
X55799999Y-56181927D02*
X55761904Y-56162880D01*
X55761904Y-56162880D02*
X55742856Y-56143832D01*
X55742856Y-56143832D02*
X55704761Y-56086689D01*
X55704761Y-56086689D02*
X55685714Y-56010499D01*
X55685714Y-56010499D02*
X55685714Y-55858118D01*
X55685714Y-55858118D02*
X55704761Y-55820022D01*
X55704761Y-55820022D02*
X55723809Y-55800975D01*
X55723809Y-55800975D02*
X55761904Y-55781927D01*
X55761904Y-55781927D02*
X55838095Y-55781927D01*
X55838095Y-55781927D02*
X55876190Y-55800975D01*
X55876190Y-55800975D02*
X55895237Y-55820022D01*
X55895237Y-55820022D02*
X55914285Y-55858118D01*
X55914285Y-55858118D02*
X55914285Y-55953356D01*
X55914285Y-55953356D02*
X55895237Y-55991451D01*
X55895237Y-55991451D02*
X55876190Y-56010499D01*
X55876190Y-56010499D02*
X55838095Y-56029546D01*
X55838095Y-56029546D02*
X55761904Y-56029546D01*
X55761904Y-56029546D02*
X55723809Y-56010499D01*
X55723809Y-56010499D02*
X55704761Y-55991451D01*
X55704761Y-55991451D02*
X55685714Y-55953356D01*
D10*
X91547619Y-57884819D02*
X92119047Y-57884819D01*
X91833333Y-57884819D02*
X91833333Y-56884819D01*
X91833333Y-56884819D02*
X91928571Y-57027676D01*
X91928571Y-57027676D02*
X92023809Y-57122914D01*
X92023809Y-57122914D02*
X92119047Y-57170533D01*
X90928571Y-56884819D02*
X90833333Y-56884819D01*
X90833333Y-56884819D02*
X90738095Y-56932438D01*
X90738095Y-56932438D02*
X90690476Y-56980057D01*
X90690476Y-56980057D02*
X90642857Y-57075295D01*
X90642857Y-57075295D02*
X90595238Y-57265771D01*
X90595238Y-57265771D02*
X90595238Y-57503866D01*
X90595238Y-57503866D02*
X90642857Y-57694342D01*
X90642857Y-57694342D02*
X90690476Y-57789580D01*
X90690476Y-57789580D02*
X90738095Y-57837200D01*
X90738095Y-57837200D02*
X90833333Y-57884819D01*
X90833333Y-57884819D02*
X90928571Y-57884819D01*
X90928571Y-57884819D02*
X91023809Y-57837200D01*
X91023809Y-57837200D02*
X91071428Y-57789580D01*
X91071428Y-57789580D02*
X91119047Y-57694342D01*
X91119047Y-57694342D02*
X91166666Y-57503866D01*
X91166666Y-57503866D02*
X91166666Y-57265771D01*
X91166666Y-57265771D02*
X91119047Y-57075295D01*
X91119047Y-57075295D02*
X91071428Y-56980057D01*
X91071428Y-56980057D02*
X91023809Y-56932438D01*
X91023809Y-56932438D02*
X90928571Y-56884819D01*
X89976190Y-56884819D02*
X89880952Y-56884819D01*
X89880952Y-56884819D02*
X89785714Y-56932438D01*
X89785714Y-56932438D02*
X89738095Y-56980057D01*
X89738095Y-56980057D02*
X89690476Y-57075295D01*
X89690476Y-57075295D02*
X89642857Y-57265771D01*
X89642857Y-57265771D02*
X89642857Y-57503866D01*
X89642857Y-57503866D02*
X89690476Y-57694342D01*
X89690476Y-57694342D02*
X89738095Y-57789580D01*
X89738095Y-57789580D02*
X89785714Y-57837200D01*
X89785714Y-57837200D02*
X89880952Y-57884819D01*
X89880952Y-57884819D02*
X89976190Y-57884819D01*
X89976190Y-57884819D02*
X90071428Y-57837200D01*
X90071428Y-57837200D02*
X90119047Y-57789580D01*
X90119047Y-57789580D02*
X90166666Y-57694342D01*
X90166666Y-57694342D02*
X90214285Y-57503866D01*
X90214285Y-57503866D02*
X90214285Y-57265771D01*
X90214285Y-57265771D02*
X90166666Y-57075295D01*
X90166666Y-57075295D02*
X90119047Y-56980057D01*
X90119047Y-56980057D02*
X90071428Y-56932438D01*
X90071428Y-56932438D02*
X89976190Y-56884819D01*
X89214285Y-57218152D02*
X89214285Y-57884819D01*
X89214285Y-57313390D02*
X89166666Y-57265771D01*
X89166666Y-57265771D02*
X89071428Y-57218152D01*
X89071428Y-57218152D02*
X88928571Y-57218152D01*
X88928571Y-57218152D02*
X88833333Y-57265771D01*
X88833333Y-57265771D02*
X88785714Y-57361009D01*
X88785714Y-57361009D02*
X88785714Y-57884819D01*
X87976190Y-57361009D02*
X88309523Y-57361009D01*
X88309523Y-57884819D02*
X88309523Y-56884819D01*
X88309523Y-56884819D02*
X87833333Y-56884819D01*
D11*
X90257142Y-56143832D02*
X90276190Y-56162880D01*
X90276190Y-56162880D02*
X90333332Y-56181927D01*
X90333332Y-56181927D02*
X90371428Y-56181927D01*
X90371428Y-56181927D02*
X90428571Y-56162880D01*
X90428571Y-56162880D02*
X90466666Y-56124784D01*
X90466666Y-56124784D02*
X90485713Y-56086689D01*
X90485713Y-56086689D02*
X90504761Y-56010499D01*
X90504761Y-56010499D02*
X90504761Y-55953356D01*
X90504761Y-55953356D02*
X90485713Y-55877165D01*
X90485713Y-55877165D02*
X90466666Y-55839070D01*
X90466666Y-55839070D02*
X90428571Y-55800975D01*
X90428571Y-55800975D02*
X90371428Y-55781927D01*
X90371428Y-55781927D02*
X90333332Y-55781927D01*
X90333332Y-55781927D02*
X90276190Y-55800975D01*
X90276190Y-55800975D02*
X90257142Y-55820022D01*
X90123809Y-55781927D02*
X89876190Y-55781927D01*
X89876190Y-55781927D02*
X90009523Y-55934308D01*
X90009523Y-55934308D02*
X89952380Y-55934308D01*
X89952380Y-55934308D02*
X89914285Y-55953356D01*
X89914285Y-55953356D02*
X89895237Y-55972403D01*
X89895237Y-55972403D02*
X89876190Y-56010499D01*
X89876190Y-56010499D02*
X89876190Y-56105737D01*
X89876190Y-56105737D02*
X89895237Y-56143832D01*
X89895237Y-56143832D02*
X89914285Y-56162880D01*
X89914285Y-56162880D02*
X89952380Y-56181927D01*
X89952380Y-56181927D02*
X90066666Y-56181927D01*
X90066666Y-56181927D02*
X90104761Y-56162880D01*
X90104761Y-56162880D02*
X90123809Y-56143832D01*
X89628571Y-55781927D02*
X89590476Y-55781927D01*
X89590476Y-55781927D02*
X89552380Y-55800975D01*
X89552380Y-55800975D02*
X89533333Y-55820022D01*
X89533333Y-55820022D02*
X89514285Y-55858118D01*
X89514285Y-55858118D02*
X89495238Y-55934308D01*
X89495238Y-55934308D02*
X89495238Y-56029546D01*
X89495238Y-56029546D02*
X89514285Y-56105737D01*
X89514285Y-56105737D02*
X89533333Y-56143832D01*
X89533333Y-56143832D02*
X89552380Y-56162880D01*
X89552380Y-56162880D02*
X89590476Y-56181927D01*
X89590476Y-56181927D02*
X89628571Y-56181927D01*
X89628571Y-56181927D02*
X89666666Y-56162880D01*
X89666666Y-56162880D02*
X89685714Y-56143832D01*
X89685714Y-56143832D02*
X89704761Y-56105737D01*
X89704761Y-56105737D02*
X89723809Y-56029546D01*
X89723809Y-56029546D02*
X89723809Y-55934308D01*
X89723809Y-55934308D02*
X89704761Y-55858118D01*
X89704761Y-55858118D02*
X89685714Y-55820022D01*
X89685714Y-55820022D02*
X89666666Y-55800975D01*
X89666666Y-55800975D02*
X89628571Y-55781927D01*
D10*
X104595238Y-69884819D02*
X105166666Y-69884819D01*
X104880952Y-69884819D02*
X104880952Y-68884819D01*
X104880952Y-68884819D02*
X104976190Y-69027676D01*
X104976190Y-69027676D02*
X105071428Y-69122914D01*
X105071428Y-69122914D02*
X105166666Y-69170533D01*
X103976190Y-68884819D02*
X103880952Y-68884819D01*
X103880952Y-68884819D02*
X103785714Y-68932438D01*
X103785714Y-68932438D02*
X103738095Y-68980057D01*
X103738095Y-68980057D02*
X103690476Y-69075295D01*
X103690476Y-69075295D02*
X103642857Y-69265771D01*
X103642857Y-69265771D02*
X103642857Y-69503866D01*
X103642857Y-69503866D02*
X103690476Y-69694342D01*
X103690476Y-69694342D02*
X103738095Y-69789580D01*
X103738095Y-69789580D02*
X103785714Y-69837200D01*
X103785714Y-69837200D02*
X103880952Y-69884819D01*
X103880952Y-69884819D02*
X103976190Y-69884819D01*
X103976190Y-69884819D02*
X104071428Y-69837200D01*
X104071428Y-69837200D02*
X104119047Y-69789580D01*
X104119047Y-69789580D02*
X104166666Y-69694342D01*
X104166666Y-69694342D02*
X104214285Y-69503866D01*
X104214285Y-69503866D02*
X104214285Y-69265771D01*
X104214285Y-69265771D02*
X104166666Y-69075295D01*
X104166666Y-69075295D02*
X104119047Y-68980057D01*
X104119047Y-68980057D02*
X104071428Y-68932438D01*
X104071428Y-68932438D02*
X103976190Y-68884819D01*
X103214285Y-69884819D02*
X103214285Y-68884819D01*
X103119047Y-69503866D02*
X102833333Y-69884819D01*
X102833333Y-69218152D02*
X103214285Y-69599104D01*
D11*
X104257142Y-68181927D02*
X104390475Y-67991451D01*
X104485713Y-68181927D02*
X104485713Y-67781927D01*
X104485713Y-67781927D02*
X104333332Y-67781927D01*
X104333332Y-67781927D02*
X104295237Y-67800975D01*
X104295237Y-67800975D02*
X104276190Y-67820022D01*
X104276190Y-67820022D02*
X104257142Y-67858118D01*
X104257142Y-67858118D02*
X104257142Y-67915260D01*
X104257142Y-67915260D02*
X104276190Y-67953356D01*
X104276190Y-67953356D02*
X104295237Y-67972403D01*
X104295237Y-67972403D02*
X104333332Y-67991451D01*
X104333332Y-67991451D02*
X104485713Y-67991451D01*
X103876190Y-68181927D02*
X104104761Y-68181927D01*
X103990475Y-68181927D02*
X103990475Y-67781927D01*
X103990475Y-67781927D02*
X104028571Y-67839070D01*
X104028571Y-67839070D02*
X104066666Y-67877165D01*
X104066666Y-67877165D02*
X104104761Y-67896213D01*
X103742857Y-67781927D02*
X103495238Y-67781927D01*
X103495238Y-67781927D02*
X103628571Y-67934308D01*
X103628571Y-67934308D02*
X103571428Y-67934308D01*
X103571428Y-67934308D02*
X103533333Y-67953356D01*
X103533333Y-67953356D02*
X103514285Y-67972403D01*
X103514285Y-67972403D02*
X103495238Y-68010499D01*
X103495238Y-68010499D02*
X103495238Y-68105737D01*
X103495238Y-68105737D02*
X103514285Y-68143832D01*
X103514285Y-68143832D02*
X103533333Y-68162880D01*
X103533333Y-68162880D02*
X103571428Y-68181927D01*
X103571428Y-68181927D02*
X103685714Y-68181927D01*
X103685714Y-68181927D02*
X103723809Y-68162880D01*
X103723809Y-68162880D02*
X103742857Y-68143832D01*
D10*
X169547619Y-56884819D02*
X170119047Y-56884819D01*
X169833333Y-56884819D02*
X169833333Y-55884819D01*
X169833333Y-55884819D02*
X169928571Y-56027676D01*
X169928571Y-56027676D02*
X170023809Y-56122914D01*
X170023809Y-56122914D02*
X170119047Y-56170533D01*
X168928571Y-55884819D02*
X168833333Y-55884819D01*
X168833333Y-55884819D02*
X168738095Y-55932438D01*
X168738095Y-55932438D02*
X168690476Y-55980057D01*
X168690476Y-55980057D02*
X168642857Y-56075295D01*
X168642857Y-56075295D02*
X168595238Y-56265771D01*
X168595238Y-56265771D02*
X168595238Y-56503866D01*
X168595238Y-56503866D02*
X168642857Y-56694342D01*
X168642857Y-56694342D02*
X168690476Y-56789580D01*
X168690476Y-56789580D02*
X168738095Y-56837200D01*
X168738095Y-56837200D02*
X168833333Y-56884819D01*
X168833333Y-56884819D02*
X168928571Y-56884819D01*
X168928571Y-56884819D02*
X169023809Y-56837200D01*
X169023809Y-56837200D02*
X169071428Y-56789580D01*
X169071428Y-56789580D02*
X169119047Y-56694342D01*
X169119047Y-56694342D02*
X169166666Y-56503866D01*
X169166666Y-56503866D02*
X169166666Y-56265771D01*
X169166666Y-56265771D02*
X169119047Y-56075295D01*
X169119047Y-56075295D02*
X169071428Y-55980057D01*
X169071428Y-55980057D02*
X169023809Y-55932438D01*
X169023809Y-55932438D02*
X168928571Y-55884819D01*
X167976190Y-55884819D02*
X167880952Y-55884819D01*
X167880952Y-55884819D02*
X167785714Y-55932438D01*
X167785714Y-55932438D02*
X167738095Y-55980057D01*
X167738095Y-55980057D02*
X167690476Y-56075295D01*
X167690476Y-56075295D02*
X167642857Y-56265771D01*
X167642857Y-56265771D02*
X167642857Y-56503866D01*
X167642857Y-56503866D02*
X167690476Y-56694342D01*
X167690476Y-56694342D02*
X167738095Y-56789580D01*
X167738095Y-56789580D02*
X167785714Y-56837200D01*
X167785714Y-56837200D02*
X167880952Y-56884819D01*
X167880952Y-56884819D02*
X167976190Y-56884819D01*
X167976190Y-56884819D02*
X168071428Y-56837200D01*
X168071428Y-56837200D02*
X168119047Y-56789580D01*
X168119047Y-56789580D02*
X168166666Y-56694342D01*
X168166666Y-56694342D02*
X168214285Y-56503866D01*
X168214285Y-56503866D02*
X168214285Y-56265771D01*
X168214285Y-56265771D02*
X168166666Y-56075295D01*
X168166666Y-56075295D02*
X168119047Y-55980057D01*
X168119047Y-55980057D02*
X168071428Y-55932438D01*
X168071428Y-55932438D02*
X167976190Y-55884819D01*
X167214285Y-56218152D02*
X167214285Y-56884819D01*
X167214285Y-56313390D02*
X167166666Y-56265771D01*
X167166666Y-56265771D02*
X167071428Y-56218152D01*
X167071428Y-56218152D02*
X166928571Y-56218152D01*
X166928571Y-56218152D02*
X166833333Y-56265771D01*
X166833333Y-56265771D02*
X166785714Y-56361009D01*
X166785714Y-56361009D02*
X166785714Y-56884819D01*
X165976190Y-56361009D02*
X166309523Y-56361009D01*
X166309523Y-56884819D02*
X166309523Y-55884819D01*
X166309523Y-55884819D02*
X165833333Y-55884819D01*
D11*
X168257142Y-55143832D02*
X168276190Y-55162880D01*
X168276190Y-55162880D02*
X168333332Y-55181927D01*
X168333332Y-55181927D02*
X168371428Y-55181927D01*
X168371428Y-55181927D02*
X168428571Y-55162880D01*
X168428571Y-55162880D02*
X168466666Y-55124784D01*
X168466666Y-55124784D02*
X168485713Y-55086689D01*
X168485713Y-55086689D02*
X168504761Y-55010499D01*
X168504761Y-55010499D02*
X168504761Y-54953356D01*
X168504761Y-54953356D02*
X168485713Y-54877165D01*
X168485713Y-54877165D02*
X168466666Y-54839070D01*
X168466666Y-54839070D02*
X168428571Y-54800975D01*
X168428571Y-54800975D02*
X168371428Y-54781927D01*
X168371428Y-54781927D02*
X168333332Y-54781927D01*
X168333332Y-54781927D02*
X168276190Y-54800975D01*
X168276190Y-54800975D02*
X168257142Y-54820022D01*
X167876190Y-55181927D02*
X168104761Y-55181927D01*
X167990475Y-55181927D02*
X167990475Y-54781927D01*
X167990475Y-54781927D02*
X168028571Y-54839070D01*
X168028571Y-54839070D02*
X168066666Y-54877165D01*
X168066666Y-54877165D02*
X168104761Y-54896213D01*
X167495238Y-55181927D02*
X167723809Y-55181927D01*
X167609523Y-55181927D02*
X167609523Y-54781927D01*
X167609523Y-54781927D02*
X167647619Y-54839070D01*
X167647619Y-54839070D02*
X167685714Y-54877165D01*
X167685714Y-54877165D02*
X167723809Y-54896213D01*
D10*
X110595238Y-57884819D02*
X111166666Y-57884819D01*
X110880952Y-57884819D02*
X110880952Y-56884819D01*
X110880952Y-56884819D02*
X110976190Y-57027676D01*
X110976190Y-57027676D02*
X111071428Y-57122914D01*
X111071428Y-57122914D02*
X111166666Y-57170533D01*
X109976190Y-56884819D02*
X109880952Y-56884819D01*
X109880952Y-56884819D02*
X109785714Y-56932438D01*
X109785714Y-56932438D02*
X109738095Y-56980057D01*
X109738095Y-56980057D02*
X109690476Y-57075295D01*
X109690476Y-57075295D02*
X109642857Y-57265771D01*
X109642857Y-57265771D02*
X109642857Y-57503866D01*
X109642857Y-57503866D02*
X109690476Y-57694342D01*
X109690476Y-57694342D02*
X109738095Y-57789580D01*
X109738095Y-57789580D02*
X109785714Y-57837200D01*
X109785714Y-57837200D02*
X109880952Y-57884819D01*
X109880952Y-57884819D02*
X109976190Y-57884819D01*
X109976190Y-57884819D02*
X110071428Y-57837200D01*
X110071428Y-57837200D02*
X110119047Y-57789580D01*
X110119047Y-57789580D02*
X110166666Y-57694342D01*
X110166666Y-57694342D02*
X110214285Y-57503866D01*
X110214285Y-57503866D02*
X110214285Y-57265771D01*
X110214285Y-57265771D02*
X110166666Y-57075295D01*
X110166666Y-57075295D02*
X110119047Y-56980057D01*
X110119047Y-56980057D02*
X110071428Y-56932438D01*
X110071428Y-56932438D02*
X109976190Y-56884819D01*
X109214285Y-57884819D02*
X109214285Y-56884819D01*
X109119047Y-57503866D02*
X108833333Y-57884819D01*
X108833333Y-57218152D02*
X109214285Y-57599104D01*
D11*
X110257142Y-56181927D02*
X110390475Y-55991451D01*
X110485713Y-56181927D02*
X110485713Y-55781927D01*
X110485713Y-55781927D02*
X110333332Y-55781927D01*
X110333332Y-55781927D02*
X110295237Y-55800975D01*
X110295237Y-55800975D02*
X110276190Y-55820022D01*
X110276190Y-55820022D02*
X110257142Y-55858118D01*
X110257142Y-55858118D02*
X110257142Y-55915260D01*
X110257142Y-55915260D02*
X110276190Y-55953356D01*
X110276190Y-55953356D02*
X110295237Y-55972403D01*
X110295237Y-55972403D02*
X110333332Y-55991451D01*
X110333332Y-55991451D02*
X110485713Y-55991451D01*
X109914285Y-55915260D02*
X109914285Y-56181927D01*
X110009523Y-55762880D02*
X110104761Y-56048594D01*
X110104761Y-56048594D02*
X109857142Y-56048594D01*
X109628571Y-55781927D02*
X109590476Y-55781927D01*
X109590476Y-55781927D02*
X109552380Y-55800975D01*
X109552380Y-55800975D02*
X109533333Y-55820022D01*
X109533333Y-55820022D02*
X109514285Y-55858118D01*
X109514285Y-55858118D02*
X109495238Y-55934308D01*
X109495238Y-55934308D02*
X109495238Y-56029546D01*
X109495238Y-56029546D02*
X109514285Y-56105737D01*
X109514285Y-56105737D02*
X109533333Y-56143832D01*
X109533333Y-56143832D02*
X109552380Y-56162880D01*
X109552380Y-56162880D02*
X109590476Y-56181927D01*
X109590476Y-56181927D02*
X109628571Y-56181927D01*
X109628571Y-56181927D02*
X109666666Y-56162880D01*
X109666666Y-56162880D02*
X109685714Y-56143832D01*
X109685714Y-56143832D02*
X109704761Y-56105737D01*
X109704761Y-56105737D02*
X109723809Y-56029546D01*
X109723809Y-56029546D02*
X109723809Y-55934308D01*
X109723809Y-55934308D02*
X109704761Y-55858118D01*
X109704761Y-55858118D02*
X109685714Y-55820022D01*
X109685714Y-55820022D02*
X109666666Y-55800975D01*
X109666666Y-55800975D02*
X109628571Y-55781927D01*
D10*
X108595238Y-65884819D02*
X109166666Y-65884819D01*
X108880952Y-65884819D02*
X108880952Y-64884819D01*
X108880952Y-64884819D02*
X108976190Y-65027676D01*
X108976190Y-65027676D02*
X109071428Y-65122914D01*
X109071428Y-65122914D02*
X109166666Y-65170533D01*
X107976190Y-64884819D02*
X107880952Y-64884819D01*
X107880952Y-64884819D02*
X107785714Y-64932438D01*
X107785714Y-64932438D02*
X107738095Y-64980057D01*
X107738095Y-64980057D02*
X107690476Y-65075295D01*
X107690476Y-65075295D02*
X107642857Y-65265771D01*
X107642857Y-65265771D02*
X107642857Y-65503866D01*
X107642857Y-65503866D02*
X107690476Y-65694342D01*
X107690476Y-65694342D02*
X107738095Y-65789580D01*
X107738095Y-65789580D02*
X107785714Y-65837200D01*
X107785714Y-65837200D02*
X107880952Y-65884819D01*
X107880952Y-65884819D02*
X107976190Y-65884819D01*
X107976190Y-65884819D02*
X108071428Y-65837200D01*
X108071428Y-65837200D02*
X108119047Y-65789580D01*
X108119047Y-65789580D02*
X108166666Y-65694342D01*
X108166666Y-65694342D02*
X108214285Y-65503866D01*
X108214285Y-65503866D02*
X108214285Y-65265771D01*
X108214285Y-65265771D02*
X108166666Y-65075295D01*
X108166666Y-65075295D02*
X108119047Y-64980057D01*
X108119047Y-64980057D02*
X108071428Y-64932438D01*
X108071428Y-64932438D02*
X107976190Y-64884819D01*
X107214285Y-65884819D02*
X107214285Y-64884819D01*
X107119047Y-65503866D02*
X106833333Y-65884819D01*
X106833333Y-65218152D02*
X107214285Y-65599104D01*
D11*
X108257142Y-64181927D02*
X108390475Y-63991451D01*
X108485713Y-64181927D02*
X108485713Y-63781927D01*
X108485713Y-63781927D02*
X108333332Y-63781927D01*
X108333332Y-63781927D02*
X108295237Y-63800975D01*
X108295237Y-63800975D02*
X108276190Y-63820022D01*
X108276190Y-63820022D02*
X108257142Y-63858118D01*
X108257142Y-63858118D02*
X108257142Y-63915260D01*
X108257142Y-63915260D02*
X108276190Y-63953356D01*
X108276190Y-63953356D02*
X108295237Y-63972403D01*
X108295237Y-63972403D02*
X108333332Y-63991451D01*
X108333332Y-63991451D02*
X108485713Y-63991451D01*
X107876190Y-64181927D02*
X108104761Y-64181927D01*
X107990475Y-64181927D02*
X107990475Y-63781927D01*
X107990475Y-63781927D02*
X108028571Y-63839070D01*
X108028571Y-63839070D02*
X108066666Y-63877165D01*
X108066666Y-63877165D02*
X108104761Y-63896213D01*
X107533333Y-63915260D02*
X107533333Y-64181927D01*
X107628571Y-63762880D02*
X107723809Y-64048594D01*
X107723809Y-64048594D02*
X107476190Y-64048594D01*
D10*
X103190475Y-39907200D02*
X103047618Y-39954819D01*
X103047618Y-39954819D02*
X102809523Y-39954819D01*
X102809523Y-39954819D02*
X102714285Y-39907200D01*
X102714285Y-39907200D02*
X102666666Y-39859580D01*
X102666666Y-39859580D02*
X102619047Y-39764342D01*
X102619047Y-39764342D02*
X102619047Y-39669104D01*
X102619047Y-39669104D02*
X102666666Y-39573866D01*
X102666666Y-39573866D02*
X102714285Y-39526247D01*
X102714285Y-39526247D02*
X102809523Y-39478628D01*
X102809523Y-39478628D02*
X102999999Y-39431009D01*
X102999999Y-39431009D02*
X103095237Y-39383390D01*
X103095237Y-39383390D02*
X103142856Y-39335771D01*
X103142856Y-39335771D02*
X103190475Y-39240533D01*
X103190475Y-39240533D02*
X103190475Y-39145295D01*
X103190475Y-39145295D02*
X103142856Y-39050057D01*
X103142856Y-39050057D02*
X103095237Y-39002438D01*
X103095237Y-39002438D02*
X102999999Y-38954819D01*
X102999999Y-38954819D02*
X102761904Y-38954819D01*
X102761904Y-38954819D02*
X102619047Y-39002438D01*
X102238094Y-39669104D02*
X101761904Y-39669104D01*
X102333332Y-39954819D02*
X101999999Y-38954819D01*
X101999999Y-38954819D02*
X101666666Y-39954819D01*
X101190475Y-39383390D02*
X101285713Y-39335771D01*
X101285713Y-39335771D02*
X101333332Y-39288152D01*
X101333332Y-39288152D02*
X101380951Y-39192914D01*
X101380951Y-39192914D02*
X101380951Y-39145295D01*
X101380951Y-39145295D02*
X101333332Y-39050057D01*
X101333332Y-39050057D02*
X101285713Y-39002438D01*
X101285713Y-39002438D02*
X101190475Y-38954819D01*
X101190475Y-38954819D02*
X100999999Y-38954819D01*
X100999999Y-38954819D02*
X100904761Y-39002438D01*
X100904761Y-39002438D02*
X100857142Y-39050057D01*
X100857142Y-39050057D02*
X100809523Y-39145295D01*
X100809523Y-39145295D02*
X100809523Y-39192914D01*
X100809523Y-39192914D02*
X100857142Y-39288152D01*
X100857142Y-39288152D02*
X100904761Y-39335771D01*
X100904761Y-39335771D02*
X100999999Y-39383390D01*
X100999999Y-39383390D02*
X101190475Y-39383390D01*
X101190475Y-39383390D02*
X101285713Y-39431009D01*
X101285713Y-39431009D02*
X101333332Y-39478628D01*
X101333332Y-39478628D02*
X101380951Y-39573866D01*
X101380951Y-39573866D02*
X101380951Y-39764342D01*
X101380951Y-39764342D02*
X101333332Y-39859580D01*
X101333332Y-39859580D02*
X101285713Y-39907200D01*
X101285713Y-39907200D02*
X101190475Y-39954819D01*
X101190475Y-39954819D02*
X100999999Y-39954819D01*
X100999999Y-39954819D02*
X100904761Y-39907200D01*
X100904761Y-39907200D02*
X100857142Y-39859580D01*
X100857142Y-39859580D02*
X100809523Y-39764342D01*
X100809523Y-39764342D02*
X100809523Y-39573866D01*
X100809523Y-39573866D02*
X100857142Y-39478628D01*
X100857142Y-39478628D02*
X100904761Y-39431009D01*
X100904761Y-39431009D02*
X100999999Y-39383390D01*
X99952380Y-38954819D02*
X100142856Y-38954819D01*
X100142856Y-38954819D02*
X100238094Y-39002438D01*
X100238094Y-39002438D02*
X100285713Y-39050057D01*
X100285713Y-39050057D02*
X100380951Y-39192914D01*
X100380951Y-39192914D02*
X100428570Y-39383390D01*
X100428570Y-39383390D02*
X100428570Y-39764342D01*
X100428570Y-39764342D02*
X100380951Y-39859580D01*
X100380951Y-39859580D02*
X100333332Y-39907200D01*
X100333332Y-39907200D02*
X100238094Y-39954819D01*
X100238094Y-39954819D02*
X100047618Y-39954819D01*
X100047618Y-39954819D02*
X99952380Y-39907200D01*
X99952380Y-39907200D02*
X99904761Y-39859580D01*
X99904761Y-39859580D02*
X99857142Y-39764342D01*
X99857142Y-39764342D02*
X99857142Y-39526247D01*
X99857142Y-39526247D02*
X99904761Y-39431009D01*
X99904761Y-39431009D02*
X99952380Y-39383390D01*
X99952380Y-39383390D02*
X100047618Y-39335771D01*
X100047618Y-39335771D02*
X100238094Y-39335771D01*
X100238094Y-39335771D02*
X100333332Y-39383390D01*
X100333332Y-39383390D02*
X100380951Y-39431009D01*
X100380951Y-39431009D02*
X100428570Y-39526247D01*
X99285713Y-39383390D02*
X99380951Y-39335771D01*
X99380951Y-39335771D02*
X99428570Y-39288152D01*
X99428570Y-39288152D02*
X99476189Y-39192914D01*
X99476189Y-39192914D02*
X99476189Y-39145295D01*
X99476189Y-39145295D02*
X99428570Y-39050057D01*
X99428570Y-39050057D02*
X99380951Y-39002438D01*
X99380951Y-39002438D02*
X99285713Y-38954819D01*
X99285713Y-38954819D02*
X99095237Y-38954819D01*
X99095237Y-38954819D02*
X98999999Y-39002438D01*
X98999999Y-39002438D02*
X98952380Y-39050057D01*
X98952380Y-39050057D02*
X98904761Y-39145295D01*
X98904761Y-39145295D02*
X98904761Y-39192914D01*
X98904761Y-39192914D02*
X98952380Y-39288152D01*
X98952380Y-39288152D02*
X98999999Y-39335771D01*
X98999999Y-39335771D02*
X99095237Y-39383390D01*
X99095237Y-39383390D02*
X99285713Y-39383390D01*
X99285713Y-39383390D02*
X99380951Y-39431009D01*
X99380951Y-39431009D02*
X99428570Y-39478628D01*
X99428570Y-39478628D02*
X99476189Y-39573866D01*
X99476189Y-39573866D02*
X99476189Y-39764342D01*
X99476189Y-39764342D02*
X99428570Y-39859580D01*
X99428570Y-39859580D02*
X99380951Y-39907200D01*
X99380951Y-39907200D02*
X99285713Y-39954819D01*
X99285713Y-39954819D02*
X99095237Y-39954819D01*
X99095237Y-39954819D02*
X98999999Y-39907200D01*
X98999999Y-39907200D02*
X98952380Y-39859580D01*
X98952380Y-39859580D02*
X98904761Y-39764342D01*
X98904761Y-39764342D02*
X98904761Y-39573866D01*
X98904761Y-39573866D02*
X98952380Y-39478628D01*
X98952380Y-39478628D02*
X98999999Y-39431009D01*
X98999999Y-39431009D02*
X99095237Y-39383390D01*
X98476189Y-39573866D02*
X97714285Y-39573866D01*
X97380951Y-38954819D02*
X97047618Y-39954819D01*
X97047618Y-39954819D02*
X96714285Y-38954819D01*
X106595238Y-57884819D02*
X107166666Y-57884819D01*
X106880952Y-57884819D02*
X106880952Y-56884819D01*
X106880952Y-56884819D02*
X106976190Y-57027676D01*
X106976190Y-57027676D02*
X107071428Y-57122914D01*
X107071428Y-57122914D02*
X107166666Y-57170533D01*
X105738095Y-57218152D02*
X105738095Y-57884819D01*
X106166666Y-57218152D02*
X106166666Y-57741961D01*
X106166666Y-57741961D02*
X106119047Y-57837200D01*
X106119047Y-57837200D02*
X106023809Y-57884819D01*
X106023809Y-57884819D02*
X105880952Y-57884819D01*
X105880952Y-57884819D02*
X105785714Y-57837200D01*
X105785714Y-57837200D02*
X105738095Y-57789580D01*
X104928571Y-57361009D02*
X105261904Y-57361009D01*
X105261904Y-57884819D02*
X105261904Y-56884819D01*
X105261904Y-56884819D02*
X104785714Y-56884819D01*
D11*
X106257142Y-56143832D02*
X106276190Y-56162880D01*
X106276190Y-56162880D02*
X106333332Y-56181927D01*
X106333332Y-56181927D02*
X106371428Y-56181927D01*
X106371428Y-56181927D02*
X106428571Y-56162880D01*
X106428571Y-56162880D02*
X106466666Y-56124784D01*
X106466666Y-56124784D02*
X106485713Y-56086689D01*
X106485713Y-56086689D02*
X106504761Y-56010499D01*
X106504761Y-56010499D02*
X106504761Y-55953356D01*
X106504761Y-55953356D02*
X106485713Y-55877165D01*
X106485713Y-55877165D02*
X106466666Y-55839070D01*
X106466666Y-55839070D02*
X106428571Y-55800975D01*
X106428571Y-55800975D02*
X106371428Y-55781927D01*
X106371428Y-55781927D02*
X106333332Y-55781927D01*
X106333332Y-55781927D02*
X106276190Y-55800975D01*
X106276190Y-55800975D02*
X106257142Y-55820022D01*
X105914285Y-55915260D02*
X105914285Y-56181927D01*
X106009523Y-55762880D02*
X106104761Y-56048594D01*
X106104761Y-56048594D02*
X105857142Y-56048594D01*
X105628571Y-55781927D02*
X105590476Y-55781927D01*
X105590476Y-55781927D02*
X105552380Y-55800975D01*
X105552380Y-55800975D02*
X105533333Y-55820022D01*
X105533333Y-55820022D02*
X105514285Y-55858118D01*
X105514285Y-55858118D02*
X105495238Y-55934308D01*
X105495238Y-55934308D02*
X105495238Y-56029546D01*
X105495238Y-56029546D02*
X105514285Y-56105737D01*
X105514285Y-56105737D02*
X105533333Y-56143832D01*
X105533333Y-56143832D02*
X105552380Y-56162880D01*
X105552380Y-56162880D02*
X105590476Y-56181927D01*
X105590476Y-56181927D02*
X105628571Y-56181927D01*
X105628571Y-56181927D02*
X105666666Y-56162880D01*
X105666666Y-56162880D02*
X105685714Y-56143832D01*
X105685714Y-56143832D02*
X105704761Y-56105737D01*
X105704761Y-56105737D02*
X105723809Y-56029546D01*
X105723809Y-56029546D02*
X105723809Y-55934308D01*
X105723809Y-55934308D02*
X105704761Y-55858118D01*
X105704761Y-55858118D02*
X105685714Y-55820022D01*
X105685714Y-55820022D02*
X105666666Y-55800975D01*
X105666666Y-55800975D02*
X105628571Y-55781927D01*
D10*
X102595238Y-57884819D02*
X103166666Y-57884819D01*
X102880952Y-57884819D02*
X102880952Y-56884819D01*
X102880952Y-56884819D02*
X102976190Y-57027676D01*
X102976190Y-57027676D02*
X103071428Y-57122914D01*
X103071428Y-57122914D02*
X103166666Y-57170533D01*
X101738095Y-57218152D02*
X101738095Y-57884819D01*
X102166666Y-57218152D02*
X102166666Y-57741961D01*
X102166666Y-57741961D02*
X102119047Y-57837200D01*
X102119047Y-57837200D02*
X102023809Y-57884819D01*
X102023809Y-57884819D02*
X101880952Y-57884819D01*
X101880952Y-57884819D02*
X101785714Y-57837200D01*
X101785714Y-57837200D02*
X101738095Y-57789580D01*
X100928571Y-57361009D02*
X101261904Y-57361009D01*
X101261904Y-57884819D02*
X101261904Y-56884819D01*
X101261904Y-56884819D02*
X100785714Y-56884819D01*
D11*
X102257142Y-56143832D02*
X102276190Y-56162880D01*
X102276190Y-56162880D02*
X102333332Y-56181927D01*
X102333332Y-56181927D02*
X102371428Y-56181927D01*
X102371428Y-56181927D02*
X102428571Y-56162880D01*
X102428571Y-56162880D02*
X102466666Y-56124784D01*
X102466666Y-56124784D02*
X102485713Y-56086689D01*
X102485713Y-56086689D02*
X102504761Y-56010499D01*
X102504761Y-56010499D02*
X102504761Y-55953356D01*
X102504761Y-55953356D02*
X102485713Y-55877165D01*
X102485713Y-55877165D02*
X102466666Y-55839070D01*
X102466666Y-55839070D02*
X102428571Y-55800975D01*
X102428571Y-55800975D02*
X102371428Y-55781927D01*
X102371428Y-55781927D02*
X102333332Y-55781927D01*
X102333332Y-55781927D02*
X102276190Y-55800975D01*
X102276190Y-55800975D02*
X102257142Y-55820022D01*
X102123809Y-55781927D02*
X101876190Y-55781927D01*
X101876190Y-55781927D02*
X102009523Y-55934308D01*
X102009523Y-55934308D02*
X101952380Y-55934308D01*
X101952380Y-55934308D02*
X101914285Y-55953356D01*
X101914285Y-55953356D02*
X101895237Y-55972403D01*
X101895237Y-55972403D02*
X101876190Y-56010499D01*
X101876190Y-56010499D02*
X101876190Y-56105737D01*
X101876190Y-56105737D02*
X101895237Y-56143832D01*
X101895237Y-56143832D02*
X101914285Y-56162880D01*
X101914285Y-56162880D02*
X101952380Y-56181927D01*
X101952380Y-56181927D02*
X102066666Y-56181927D01*
X102066666Y-56181927D02*
X102104761Y-56162880D01*
X102104761Y-56162880D02*
X102123809Y-56143832D01*
X101723809Y-55820022D02*
X101704761Y-55800975D01*
X101704761Y-55800975D02*
X101666666Y-55781927D01*
X101666666Y-55781927D02*
X101571428Y-55781927D01*
X101571428Y-55781927D02*
X101533333Y-55800975D01*
X101533333Y-55800975D02*
X101514285Y-55820022D01*
X101514285Y-55820022D02*
X101495238Y-55858118D01*
X101495238Y-55858118D02*
X101495238Y-55896213D01*
X101495238Y-55896213D02*
X101514285Y-55953356D01*
X101514285Y-55953356D02*
X101742857Y-56181927D01*
X101742857Y-56181927D02*
X101495238Y-56181927D01*
D10*
X29968094Y-63867200D02*
X29825237Y-63914819D01*
X29825237Y-63914819D02*
X29587142Y-63914819D01*
X29587142Y-63914819D02*
X29491904Y-63867200D01*
X29491904Y-63867200D02*
X29444285Y-63819580D01*
X29444285Y-63819580D02*
X29396666Y-63724342D01*
X29396666Y-63724342D02*
X29396666Y-63629104D01*
X29396666Y-63629104D02*
X29444285Y-63533866D01*
X29444285Y-63533866D02*
X29491904Y-63486247D01*
X29491904Y-63486247D02*
X29587142Y-63438628D01*
X29587142Y-63438628D02*
X29777618Y-63391009D01*
X29777618Y-63391009D02*
X29872856Y-63343390D01*
X29872856Y-63343390D02*
X29920475Y-63295771D01*
X29920475Y-63295771D02*
X29968094Y-63200533D01*
X29968094Y-63200533D02*
X29968094Y-63105295D01*
X29968094Y-63105295D02*
X29920475Y-63010057D01*
X29920475Y-63010057D02*
X29872856Y-62962438D01*
X29872856Y-62962438D02*
X29777618Y-62914819D01*
X29777618Y-62914819D02*
X29539523Y-62914819D01*
X29539523Y-62914819D02*
X29396666Y-62962438D01*
X29015713Y-63629104D02*
X28539523Y-63629104D01*
X29110951Y-63914819D02*
X28777618Y-62914819D01*
X28777618Y-62914819D02*
X28444285Y-63914819D01*
X27920475Y-62914819D02*
X27729999Y-62914819D01*
X27729999Y-62914819D02*
X27634761Y-62962438D01*
X27634761Y-62962438D02*
X27539523Y-63057676D01*
X27539523Y-63057676D02*
X27491904Y-63248152D01*
X27491904Y-63248152D02*
X27491904Y-63581485D01*
X27491904Y-63581485D02*
X27539523Y-63771961D01*
X27539523Y-63771961D02*
X27634761Y-63867200D01*
X27634761Y-63867200D02*
X27729999Y-63914819D01*
X27729999Y-63914819D02*
X27920475Y-63914819D01*
X27920475Y-63914819D02*
X28015713Y-63867200D01*
X28015713Y-63867200D02*
X28110951Y-63771961D01*
X28110951Y-63771961D02*
X28158570Y-63581485D01*
X28158570Y-63581485D02*
X28158570Y-63248152D01*
X28158570Y-63248152D02*
X28110951Y-63057676D01*
X28110951Y-63057676D02*
X28015713Y-62962438D01*
X28015713Y-62962438D02*
X27920475Y-62914819D01*
X28184819Y-58206666D02*
X28899104Y-58206666D01*
X28899104Y-58206666D02*
X29041961Y-58159047D01*
X29041961Y-58159047D02*
X29137200Y-58063809D01*
X29137200Y-58063809D02*
X29184819Y-57920952D01*
X29184819Y-57920952D02*
X29184819Y-57825714D01*
X28280057Y-58635238D02*
X28232438Y-58682857D01*
X28232438Y-58682857D02*
X28184819Y-58778095D01*
X28184819Y-58778095D02*
X28184819Y-59016190D01*
X28184819Y-59016190D02*
X28232438Y-59111428D01*
X28232438Y-59111428D02*
X28280057Y-59159047D01*
X28280057Y-59159047D02*
X28375295Y-59206666D01*
X28375295Y-59206666D02*
X28470533Y-59206666D01*
X28470533Y-59206666D02*
X28613390Y-59159047D01*
X28613390Y-59159047D02*
X29184819Y-58587619D01*
X29184819Y-58587619D02*
X29184819Y-59206666D01*
X41071428Y-57884819D02*
X41642856Y-57884819D01*
X41357142Y-57884819D02*
X41357142Y-56884819D01*
X41357142Y-56884819D02*
X41452380Y-57027676D01*
X41452380Y-57027676D02*
X41547618Y-57122914D01*
X41547618Y-57122914D02*
X41642856Y-57170533D01*
X40452380Y-56884819D02*
X40357142Y-56884819D01*
X40357142Y-56884819D02*
X40261904Y-56932438D01*
X40261904Y-56932438D02*
X40214285Y-56980057D01*
X40214285Y-56980057D02*
X40166666Y-57075295D01*
X40166666Y-57075295D02*
X40119047Y-57265771D01*
X40119047Y-57265771D02*
X40119047Y-57503866D01*
X40119047Y-57503866D02*
X40166666Y-57694342D01*
X40166666Y-57694342D02*
X40214285Y-57789580D01*
X40214285Y-57789580D02*
X40261904Y-57837200D01*
X40261904Y-57837200D02*
X40357142Y-57884819D01*
X40357142Y-57884819D02*
X40452380Y-57884819D01*
X40452380Y-57884819D02*
X40547618Y-57837200D01*
X40547618Y-57837200D02*
X40595237Y-57789580D01*
X40595237Y-57789580D02*
X40642856Y-57694342D01*
X40642856Y-57694342D02*
X40690475Y-57503866D01*
X40690475Y-57503866D02*
X40690475Y-57265771D01*
X40690475Y-57265771D02*
X40642856Y-57075295D01*
X40642856Y-57075295D02*
X40595237Y-56980057D01*
X40595237Y-56980057D02*
X40547618Y-56932438D01*
X40547618Y-56932438D02*
X40452380Y-56884819D01*
X39261904Y-57218152D02*
X39261904Y-57884819D01*
X39690475Y-57218152D02*
X39690475Y-57741961D01*
X39690475Y-57741961D02*
X39642856Y-57837200D01*
X39642856Y-57837200D02*
X39547618Y-57884819D01*
X39547618Y-57884819D02*
X39404761Y-57884819D01*
X39404761Y-57884819D02*
X39309523Y-57837200D01*
X39309523Y-57837200D02*
X39261904Y-57789580D01*
X38452380Y-57361009D02*
X38785713Y-57361009D01*
X38785713Y-57884819D02*
X38785713Y-56884819D01*
X38785713Y-56884819D02*
X38309523Y-56884819D01*
D11*
X40257142Y-56143832D02*
X40276190Y-56162880D01*
X40276190Y-56162880D02*
X40333332Y-56181927D01*
X40333332Y-56181927D02*
X40371428Y-56181927D01*
X40371428Y-56181927D02*
X40428571Y-56162880D01*
X40428571Y-56162880D02*
X40466666Y-56124784D01*
X40466666Y-56124784D02*
X40485713Y-56086689D01*
X40485713Y-56086689D02*
X40504761Y-56010499D01*
X40504761Y-56010499D02*
X40504761Y-55953356D01*
X40504761Y-55953356D02*
X40485713Y-55877165D01*
X40485713Y-55877165D02*
X40466666Y-55839070D01*
X40466666Y-55839070D02*
X40428571Y-55800975D01*
X40428571Y-55800975D02*
X40371428Y-55781927D01*
X40371428Y-55781927D02*
X40333332Y-55781927D01*
X40333332Y-55781927D02*
X40276190Y-55800975D01*
X40276190Y-55800975D02*
X40257142Y-55820022D01*
X39876190Y-56181927D02*
X40104761Y-56181927D01*
X39990475Y-56181927D02*
X39990475Y-55781927D01*
X39990475Y-55781927D02*
X40028571Y-55839070D01*
X40028571Y-55839070D02*
X40066666Y-55877165D01*
X40066666Y-55877165D02*
X40104761Y-55896213D01*
X39723809Y-55820022D02*
X39704761Y-55800975D01*
X39704761Y-55800975D02*
X39666666Y-55781927D01*
X39666666Y-55781927D02*
X39571428Y-55781927D01*
X39571428Y-55781927D02*
X39533333Y-55800975D01*
X39533333Y-55800975D02*
X39514285Y-55820022D01*
X39514285Y-55820022D02*
X39495238Y-55858118D01*
X39495238Y-55858118D02*
X39495238Y-55896213D01*
X39495238Y-55896213D02*
X39514285Y-55953356D01*
X39514285Y-55953356D02*
X39742857Y-56181927D01*
X39742857Y-56181927D02*
X39495238Y-56181927D01*
D10*
X96595238Y-47884819D02*
X97166666Y-47884819D01*
X96880952Y-47884819D02*
X96880952Y-46884819D01*
X96880952Y-46884819D02*
X96976190Y-47027676D01*
X96976190Y-47027676D02*
X97071428Y-47122914D01*
X97071428Y-47122914D02*
X97166666Y-47170533D01*
X95738095Y-47218152D02*
X95738095Y-47884819D01*
X96166666Y-47218152D02*
X96166666Y-47741961D01*
X96166666Y-47741961D02*
X96119047Y-47837200D01*
X96119047Y-47837200D02*
X96023809Y-47884819D01*
X96023809Y-47884819D02*
X95880952Y-47884819D01*
X95880952Y-47884819D02*
X95785714Y-47837200D01*
X95785714Y-47837200D02*
X95738095Y-47789580D01*
X94928571Y-47361009D02*
X95261904Y-47361009D01*
X95261904Y-47884819D02*
X95261904Y-46884819D01*
X95261904Y-46884819D02*
X94785714Y-46884819D01*
D11*
X96066666Y-46143832D02*
X96085714Y-46162880D01*
X96085714Y-46162880D02*
X96142856Y-46181927D01*
X96142856Y-46181927D02*
X96180952Y-46181927D01*
X96180952Y-46181927D02*
X96238095Y-46162880D01*
X96238095Y-46162880D02*
X96276190Y-46124784D01*
X96276190Y-46124784D02*
X96295237Y-46086689D01*
X96295237Y-46086689D02*
X96314285Y-46010499D01*
X96314285Y-46010499D02*
X96314285Y-45953356D01*
X96314285Y-45953356D02*
X96295237Y-45877165D01*
X96295237Y-45877165D02*
X96276190Y-45839070D01*
X96276190Y-45839070D02*
X96238095Y-45800975D01*
X96238095Y-45800975D02*
X96180952Y-45781927D01*
X96180952Y-45781927D02*
X96142856Y-45781927D01*
X96142856Y-45781927D02*
X96085714Y-45800975D01*
X96085714Y-45800975D02*
X96066666Y-45820022D01*
X95685714Y-46181927D02*
X95914285Y-46181927D01*
X95799999Y-46181927D02*
X95799999Y-45781927D01*
X95799999Y-45781927D02*
X95838095Y-45839070D01*
X95838095Y-45839070D02*
X95876190Y-45877165D01*
X95876190Y-45877165D02*
X95914285Y-45896213D01*
D10*
X108595238Y-11884819D02*
X109166666Y-11884819D01*
X108880952Y-11884819D02*
X108880952Y-10884819D01*
X108880952Y-10884819D02*
X108976190Y-11027676D01*
X108976190Y-11027676D02*
X109071428Y-11122914D01*
X109071428Y-11122914D02*
X109166666Y-11170533D01*
X107976190Y-10884819D02*
X107880952Y-10884819D01*
X107880952Y-10884819D02*
X107785714Y-10932438D01*
X107785714Y-10932438D02*
X107738095Y-10980057D01*
X107738095Y-10980057D02*
X107690476Y-11075295D01*
X107690476Y-11075295D02*
X107642857Y-11265771D01*
X107642857Y-11265771D02*
X107642857Y-11503866D01*
X107642857Y-11503866D02*
X107690476Y-11694342D01*
X107690476Y-11694342D02*
X107738095Y-11789580D01*
X107738095Y-11789580D02*
X107785714Y-11837200D01*
X107785714Y-11837200D02*
X107880952Y-11884819D01*
X107880952Y-11884819D02*
X107976190Y-11884819D01*
X107976190Y-11884819D02*
X108071428Y-11837200D01*
X108071428Y-11837200D02*
X108119047Y-11789580D01*
X108119047Y-11789580D02*
X108166666Y-11694342D01*
X108166666Y-11694342D02*
X108214285Y-11503866D01*
X108214285Y-11503866D02*
X108214285Y-11265771D01*
X108214285Y-11265771D02*
X108166666Y-11075295D01*
X108166666Y-11075295D02*
X108119047Y-10980057D01*
X108119047Y-10980057D02*
X108071428Y-10932438D01*
X108071428Y-10932438D02*
X107976190Y-10884819D01*
X107214285Y-11884819D02*
X107214285Y-10884819D01*
X107119047Y-11503866D02*
X106833333Y-11884819D01*
X106833333Y-11218152D02*
X107214285Y-11599104D01*
D11*
X108066666Y-10181927D02*
X108199999Y-9991451D01*
X108295237Y-10181927D02*
X108295237Y-9781927D01*
X108295237Y-9781927D02*
X108142856Y-9781927D01*
X108142856Y-9781927D02*
X108104761Y-9800975D01*
X108104761Y-9800975D02*
X108085714Y-9820022D01*
X108085714Y-9820022D02*
X108066666Y-9858118D01*
X108066666Y-9858118D02*
X108066666Y-9915260D01*
X108066666Y-9915260D02*
X108085714Y-9953356D01*
X108085714Y-9953356D02*
X108104761Y-9972403D01*
X108104761Y-9972403D02*
X108142856Y-9991451D01*
X108142856Y-9991451D02*
X108295237Y-9991451D01*
X107838095Y-9953356D02*
X107876190Y-9934308D01*
X107876190Y-9934308D02*
X107895237Y-9915260D01*
X107895237Y-9915260D02*
X107914285Y-9877165D01*
X107914285Y-9877165D02*
X107914285Y-9858118D01*
X107914285Y-9858118D02*
X107895237Y-9820022D01*
X107895237Y-9820022D02*
X107876190Y-9800975D01*
X107876190Y-9800975D02*
X107838095Y-9781927D01*
X107838095Y-9781927D02*
X107761904Y-9781927D01*
X107761904Y-9781927D02*
X107723809Y-9800975D01*
X107723809Y-9800975D02*
X107704761Y-9820022D01*
X107704761Y-9820022D02*
X107685714Y-9858118D01*
X107685714Y-9858118D02*
X107685714Y-9877165D01*
X107685714Y-9877165D02*
X107704761Y-9915260D01*
X107704761Y-9915260D02*
X107723809Y-9934308D01*
X107723809Y-9934308D02*
X107761904Y-9953356D01*
X107761904Y-9953356D02*
X107838095Y-9953356D01*
X107838095Y-9953356D02*
X107876190Y-9972403D01*
X107876190Y-9972403D02*
X107895237Y-9991451D01*
X107895237Y-9991451D02*
X107914285Y-10029546D01*
X107914285Y-10029546D02*
X107914285Y-10105737D01*
X107914285Y-10105737D02*
X107895237Y-10143832D01*
X107895237Y-10143832D02*
X107876190Y-10162880D01*
X107876190Y-10162880D02*
X107838095Y-10181927D01*
X107838095Y-10181927D02*
X107761904Y-10181927D01*
X107761904Y-10181927D02*
X107723809Y-10162880D01*
X107723809Y-10162880D02*
X107704761Y-10143832D01*
X107704761Y-10143832D02*
X107685714Y-10105737D01*
X107685714Y-10105737D02*
X107685714Y-10029546D01*
X107685714Y-10029546D02*
X107704761Y-9991451D01*
X107704761Y-9991451D02*
X107723809Y-9972403D01*
X107723809Y-9972403D02*
X107761904Y-9953356D01*
D10*
X136071429Y-65381009D02*
X135928572Y-65428628D01*
X135928572Y-65428628D02*
X135880953Y-65476247D01*
X135880953Y-65476247D02*
X135833334Y-65571485D01*
X135833334Y-65571485D02*
X135833334Y-65714342D01*
X135833334Y-65714342D02*
X135880953Y-65809580D01*
X135880953Y-65809580D02*
X135928572Y-65857200D01*
X135928572Y-65857200D02*
X136023810Y-65904819D01*
X136023810Y-65904819D02*
X136404762Y-65904819D01*
X136404762Y-65904819D02*
X136404762Y-64904819D01*
X136404762Y-64904819D02*
X136071429Y-64904819D01*
X136071429Y-64904819D02*
X135976191Y-64952438D01*
X135976191Y-64952438D02*
X135928572Y-65000057D01*
X135928572Y-65000057D02*
X135880953Y-65095295D01*
X135880953Y-65095295D02*
X135880953Y-65190533D01*
X135880953Y-65190533D02*
X135928572Y-65285771D01*
X135928572Y-65285771D02*
X135976191Y-65333390D01*
X135976191Y-65333390D02*
X136071429Y-65381009D01*
X136071429Y-65381009D02*
X136404762Y-65381009D01*
X134976191Y-65904819D02*
X134976191Y-65381009D01*
X134976191Y-65381009D02*
X135023810Y-65285771D01*
X135023810Y-65285771D02*
X135119048Y-65238152D01*
X135119048Y-65238152D02*
X135309524Y-65238152D01*
X135309524Y-65238152D02*
X135404762Y-65285771D01*
X134976191Y-65857200D02*
X135071429Y-65904819D01*
X135071429Y-65904819D02*
X135309524Y-65904819D01*
X135309524Y-65904819D02*
X135404762Y-65857200D01*
X135404762Y-65857200D02*
X135452381Y-65761961D01*
X135452381Y-65761961D02*
X135452381Y-65666723D01*
X135452381Y-65666723D02*
X135404762Y-65571485D01*
X135404762Y-65571485D02*
X135309524Y-65523866D01*
X135309524Y-65523866D02*
X135071429Y-65523866D01*
X135071429Y-65523866D02*
X134976191Y-65476247D01*
X134642857Y-65238152D02*
X134261905Y-65238152D01*
X134500000Y-64904819D02*
X134500000Y-65761961D01*
X134500000Y-65761961D02*
X134452381Y-65857200D01*
X134452381Y-65857200D02*
X134357143Y-65904819D01*
X134357143Y-65904819D02*
X134261905Y-65904819D01*
X134071428Y-65238152D02*
X133690476Y-65238152D01*
X133928571Y-64904819D02*
X133928571Y-65761961D01*
X133928571Y-65761961D02*
X133880952Y-65857200D01*
X133880952Y-65857200D02*
X133785714Y-65904819D01*
X133785714Y-65904819D02*
X133690476Y-65904819D01*
X132976190Y-65857200D02*
X133071428Y-65904819D01*
X133071428Y-65904819D02*
X133261904Y-65904819D01*
X133261904Y-65904819D02*
X133357142Y-65857200D01*
X133357142Y-65857200D02*
X133404761Y-65761961D01*
X133404761Y-65761961D02*
X133404761Y-65381009D01*
X133404761Y-65381009D02*
X133357142Y-65285771D01*
X133357142Y-65285771D02*
X133261904Y-65238152D01*
X133261904Y-65238152D02*
X133071428Y-65238152D01*
X133071428Y-65238152D02*
X132976190Y-65285771D01*
X132976190Y-65285771D02*
X132928571Y-65381009D01*
X132928571Y-65381009D02*
X132928571Y-65476247D01*
X132928571Y-65476247D02*
X133404761Y-65571485D01*
X132499999Y-65904819D02*
X132499999Y-65238152D01*
X132499999Y-65428628D02*
X132452380Y-65333390D01*
X132452380Y-65333390D02*
X132404761Y-65285771D01*
X132404761Y-65285771D02*
X132309523Y-65238152D01*
X132309523Y-65238152D02*
X132214285Y-65238152D01*
X131976189Y-65238152D02*
X131738094Y-65904819D01*
X131499999Y-65238152D02*
X131738094Y-65904819D01*
X131738094Y-65904819D02*
X131833332Y-66142914D01*
X131833332Y-66142914D02*
X131880951Y-66190533D01*
X131880951Y-66190533D02*
X131976189Y-66238152D01*
X134333333Y-59954819D02*
X134333333Y-60669104D01*
X134333333Y-60669104D02*
X134380952Y-60811961D01*
X134380952Y-60811961D02*
X134476190Y-60907200D01*
X134476190Y-60907200D02*
X134619047Y-60954819D01*
X134619047Y-60954819D02*
X134714285Y-60954819D01*
X133428571Y-60288152D02*
X133428571Y-60954819D01*
X133666666Y-59907200D02*
X133904761Y-60621485D01*
X133904761Y-60621485D02*
X133285714Y-60621485D01*
X171285713Y-58884819D02*
X171285713Y-57884819D01*
X171285713Y-57884819D02*
X171047618Y-57884819D01*
X171047618Y-57884819D02*
X170904761Y-57932438D01*
X170904761Y-57932438D02*
X170809523Y-58027676D01*
X170809523Y-58027676D02*
X170761904Y-58122914D01*
X170761904Y-58122914D02*
X170714285Y-58313390D01*
X170714285Y-58313390D02*
X170714285Y-58456247D01*
X170714285Y-58456247D02*
X170761904Y-58646723D01*
X170761904Y-58646723D02*
X170809523Y-58741961D01*
X170809523Y-58741961D02*
X170904761Y-58837200D01*
X170904761Y-58837200D02*
X171047618Y-58884819D01*
X171047618Y-58884819D02*
X171285713Y-58884819D01*
X170285713Y-58884819D02*
X170285713Y-57884819D01*
X170285713Y-57884819D02*
X169714285Y-58884819D01*
X169714285Y-58884819D02*
X169714285Y-57884819D01*
X169238094Y-58884819D02*
X169238094Y-57884819D01*
X169238094Y-57884819D02*
X168857142Y-57884819D01*
X168857142Y-57884819D02*
X168761904Y-57932438D01*
X168761904Y-57932438D02*
X168714285Y-57980057D01*
X168714285Y-57980057D02*
X168666666Y-58075295D01*
X168666666Y-58075295D02*
X168666666Y-58218152D01*
X168666666Y-58218152D02*
X168714285Y-58313390D01*
X168714285Y-58313390D02*
X168761904Y-58361009D01*
X168761904Y-58361009D02*
X168857142Y-58408628D01*
X168857142Y-58408628D02*
X169238094Y-58408628D01*
D11*
X170257142Y-57143832D02*
X170276190Y-57162880D01*
X170276190Y-57162880D02*
X170333332Y-57181927D01*
X170333332Y-57181927D02*
X170371428Y-57181927D01*
X170371428Y-57181927D02*
X170428571Y-57162880D01*
X170428571Y-57162880D02*
X170466666Y-57124784D01*
X170466666Y-57124784D02*
X170485713Y-57086689D01*
X170485713Y-57086689D02*
X170504761Y-57010499D01*
X170504761Y-57010499D02*
X170504761Y-56953356D01*
X170504761Y-56953356D02*
X170485713Y-56877165D01*
X170485713Y-56877165D02*
X170466666Y-56839070D01*
X170466666Y-56839070D02*
X170428571Y-56800975D01*
X170428571Y-56800975D02*
X170371428Y-56781927D01*
X170371428Y-56781927D02*
X170333332Y-56781927D01*
X170333332Y-56781927D02*
X170276190Y-56800975D01*
X170276190Y-56800975D02*
X170257142Y-56820022D01*
X169895237Y-56781927D02*
X170085713Y-56781927D01*
X170085713Y-56781927D02*
X170104761Y-56972403D01*
X170104761Y-56972403D02*
X170085713Y-56953356D01*
X170085713Y-56953356D02*
X170047618Y-56934308D01*
X170047618Y-56934308D02*
X169952380Y-56934308D01*
X169952380Y-56934308D02*
X169914285Y-56953356D01*
X169914285Y-56953356D02*
X169895237Y-56972403D01*
X169895237Y-56972403D02*
X169876190Y-57010499D01*
X169876190Y-57010499D02*
X169876190Y-57105737D01*
X169876190Y-57105737D02*
X169895237Y-57143832D01*
X169895237Y-57143832D02*
X169914285Y-57162880D01*
X169914285Y-57162880D02*
X169952380Y-57181927D01*
X169952380Y-57181927D02*
X170047618Y-57181927D01*
X170047618Y-57181927D02*
X170085713Y-57162880D01*
X170085713Y-57162880D02*
X170104761Y-57143832D01*
X169628571Y-56781927D02*
X169590476Y-56781927D01*
X169590476Y-56781927D02*
X169552380Y-56800975D01*
X169552380Y-56800975D02*
X169533333Y-56820022D01*
X169533333Y-56820022D02*
X169514285Y-56858118D01*
X169514285Y-56858118D02*
X169495238Y-56934308D01*
X169495238Y-56934308D02*
X169495238Y-57029546D01*
X169495238Y-57029546D02*
X169514285Y-57105737D01*
X169514285Y-57105737D02*
X169533333Y-57143832D01*
X169533333Y-57143832D02*
X169552380Y-57162880D01*
X169552380Y-57162880D02*
X169590476Y-57181927D01*
X169590476Y-57181927D02*
X169628571Y-57181927D01*
X169628571Y-57181927D02*
X169666666Y-57162880D01*
X169666666Y-57162880D02*
X169685714Y-57143832D01*
X169685714Y-57143832D02*
X169704761Y-57105737D01*
X169704761Y-57105737D02*
X169723809Y-57029546D01*
X169723809Y-57029546D02*
X169723809Y-56934308D01*
X169723809Y-56934308D02*
X169704761Y-56858118D01*
X169704761Y-56858118D02*
X169685714Y-56820022D01*
X169685714Y-56820022D02*
X169666666Y-56800975D01*
X169666666Y-56800975D02*
X169628571Y-56781927D01*
D10*
X92595238Y-65884819D02*
X93166666Y-65884819D01*
X92880952Y-65884819D02*
X92880952Y-64884819D01*
X92880952Y-64884819D02*
X92976190Y-65027676D01*
X92976190Y-65027676D02*
X93071428Y-65122914D01*
X93071428Y-65122914D02*
X93166666Y-65170533D01*
X91976190Y-64884819D02*
X91880952Y-64884819D01*
X91880952Y-64884819D02*
X91785714Y-64932438D01*
X91785714Y-64932438D02*
X91738095Y-64980057D01*
X91738095Y-64980057D02*
X91690476Y-65075295D01*
X91690476Y-65075295D02*
X91642857Y-65265771D01*
X91642857Y-65265771D02*
X91642857Y-65503866D01*
X91642857Y-65503866D02*
X91690476Y-65694342D01*
X91690476Y-65694342D02*
X91738095Y-65789580D01*
X91738095Y-65789580D02*
X91785714Y-65837200D01*
X91785714Y-65837200D02*
X91880952Y-65884819D01*
X91880952Y-65884819D02*
X91976190Y-65884819D01*
X91976190Y-65884819D02*
X92071428Y-65837200D01*
X92071428Y-65837200D02*
X92119047Y-65789580D01*
X92119047Y-65789580D02*
X92166666Y-65694342D01*
X92166666Y-65694342D02*
X92214285Y-65503866D01*
X92214285Y-65503866D02*
X92214285Y-65265771D01*
X92214285Y-65265771D02*
X92166666Y-65075295D01*
X92166666Y-65075295D02*
X92119047Y-64980057D01*
X92119047Y-64980057D02*
X92071428Y-64932438D01*
X92071428Y-64932438D02*
X91976190Y-64884819D01*
X91214285Y-65884819D02*
X91214285Y-64884819D01*
X91119047Y-65503866D02*
X90833333Y-65884819D01*
X90833333Y-65218152D02*
X91214285Y-65599104D01*
D11*
X92257142Y-64181927D02*
X92390475Y-63991451D01*
X92485713Y-64181927D02*
X92485713Y-63781927D01*
X92485713Y-63781927D02*
X92333332Y-63781927D01*
X92333332Y-63781927D02*
X92295237Y-63800975D01*
X92295237Y-63800975D02*
X92276190Y-63820022D01*
X92276190Y-63820022D02*
X92257142Y-63858118D01*
X92257142Y-63858118D02*
X92257142Y-63915260D01*
X92257142Y-63915260D02*
X92276190Y-63953356D01*
X92276190Y-63953356D02*
X92295237Y-63972403D01*
X92295237Y-63972403D02*
X92333332Y-63991451D01*
X92333332Y-63991451D02*
X92485713Y-63991451D01*
X91876190Y-64181927D02*
X92104761Y-64181927D01*
X91990475Y-64181927D02*
X91990475Y-63781927D01*
X91990475Y-63781927D02*
X92028571Y-63839070D01*
X92028571Y-63839070D02*
X92066666Y-63877165D01*
X92066666Y-63877165D02*
X92104761Y-63896213D01*
X91723809Y-63820022D02*
X91704761Y-63800975D01*
X91704761Y-63800975D02*
X91666666Y-63781927D01*
X91666666Y-63781927D02*
X91571428Y-63781927D01*
X91571428Y-63781927D02*
X91533333Y-63800975D01*
X91533333Y-63800975D02*
X91514285Y-63820022D01*
X91514285Y-63820022D02*
X91495238Y-63858118D01*
X91495238Y-63858118D02*
X91495238Y-63896213D01*
X91495238Y-63896213D02*
X91514285Y-63953356D01*
X91514285Y-63953356D02*
X91742857Y-64181927D01*
X91742857Y-64181927D02*
X91495238Y-64181927D01*
D10*
X170547618Y-60884819D02*
X170452380Y-60884819D01*
X170452380Y-60884819D02*
X170357142Y-60932438D01*
X170357142Y-60932438D02*
X170309523Y-60980057D01*
X170309523Y-60980057D02*
X170261904Y-61075295D01*
X170261904Y-61075295D02*
X170214285Y-61265771D01*
X170214285Y-61265771D02*
X170214285Y-61503866D01*
X170214285Y-61503866D02*
X170261904Y-61694342D01*
X170261904Y-61694342D02*
X170309523Y-61789580D01*
X170309523Y-61789580D02*
X170357142Y-61837200D01*
X170357142Y-61837200D02*
X170452380Y-61884819D01*
X170452380Y-61884819D02*
X170547618Y-61884819D01*
X170547618Y-61884819D02*
X170642856Y-61837200D01*
X170642856Y-61837200D02*
X170690475Y-61789580D01*
X170690475Y-61789580D02*
X170738094Y-61694342D01*
X170738094Y-61694342D02*
X170785713Y-61503866D01*
X170785713Y-61503866D02*
X170785713Y-61265771D01*
X170785713Y-61265771D02*
X170738094Y-61075295D01*
X170738094Y-61075295D02*
X170690475Y-60980057D01*
X170690475Y-60980057D02*
X170642856Y-60932438D01*
X170642856Y-60932438D02*
X170547618Y-60884819D01*
X169214285Y-61884819D02*
X169547618Y-61408628D01*
X169785713Y-61884819D02*
X169785713Y-60884819D01*
X169785713Y-60884819D02*
X169404761Y-60884819D01*
X169404761Y-60884819D02*
X169309523Y-60932438D01*
X169309523Y-60932438D02*
X169261904Y-60980057D01*
X169261904Y-60980057D02*
X169214285Y-61075295D01*
X169214285Y-61075295D02*
X169214285Y-61218152D01*
X169214285Y-61218152D02*
X169261904Y-61313390D01*
X169261904Y-61313390D02*
X169309523Y-61361009D01*
X169309523Y-61361009D02*
X169404761Y-61408628D01*
X169404761Y-61408628D02*
X169785713Y-61408628D01*
D11*
X170066666Y-60181927D02*
X170257142Y-60181927D01*
X170257142Y-60181927D02*
X170257142Y-59781927D01*
X169723809Y-60181927D02*
X169952380Y-60181927D01*
X169838094Y-60181927D02*
X169838094Y-59781927D01*
X169838094Y-59781927D02*
X169876190Y-59839070D01*
X169876190Y-59839070D02*
X169914285Y-59877165D01*
X169914285Y-59877165D02*
X169952380Y-59896213D01*
D10*
X136547619Y-39884819D02*
X137119047Y-39884819D01*
X136833333Y-39884819D02*
X136833333Y-38884819D01*
X136833333Y-38884819D02*
X136928571Y-39027676D01*
X136928571Y-39027676D02*
X137023809Y-39122914D01*
X137023809Y-39122914D02*
X137119047Y-39170533D01*
X135928571Y-38884819D02*
X135833333Y-38884819D01*
X135833333Y-38884819D02*
X135738095Y-38932438D01*
X135738095Y-38932438D02*
X135690476Y-38980057D01*
X135690476Y-38980057D02*
X135642857Y-39075295D01*
X135642857Y-39075295D02*
X135595238Y-39265771D01*
X135595238Y-39265771D02*
X135595238Y-39503866D01*
X135595238Y-39503866D02*
X135642857Y-39694342D01*
X135642857Y-39694342D02*
X135690476Y-39789580D01*
X135690476Y-39789580D02*
X135738095Y-39837200D01*
X135738095Y-39837200D02*
X135833333Y-39884819D01*
X135833333Y-39884819D02*
X135928571Y-39884819D01*
X135928571Y-39884819D02*
X136023809Y-39837200D01*
X136023809Y-39837200D02*
X136071428Y-39789580D01*
X136071428Y-39789580D02*
X136119047Y-39694342D01*
X136119047Y-39694342D02*
X136166666Y-39503866D01*
X136166666Y-39503866D02*
X136166666Y-39265771D01*
X136166666Y-39265771D02*
X136119047Y-39075295D01*
X136119047Y-39075295D02*
X136071428Y-38980057D01*
X136071428Y-38980057D02*
X136023809Y-38932438D01*
X136023809Y-38932438D02*
X135928571Y-38884819D01*
X134976190Y-38884819D02*
X134880952Y-38884819D01*
X134880952Y-38884819D02*
X134785714Y-38932438D01*
X134785714Y-38932438D02*
X134738095Y-38980057D01*
X134738095Y-38980057D02*
X134690476Y-39075295D01*
X134690476Y-39075295D02*
X134642857Y-39265771D01*
X134642857Y-39265771D02*
X134642857Y-39503866D01*
X134642857Y-39503866D02*
X134690476Y-39694342D01*
X134690476Y-39694342D02*
X134738095Y-39789580D01*
X134738095Y-39789580D02*
X134785714Y-39837200D01*
X134785714Y-39837200D02*
X134880952Y-39884819D01*
X134880952Y-39884819D02*
X134976190Y-39884819D01*
X134976190Y-39884819D02*
X135071428Y-39837200D01*
X135071428Y-39837200D02*
X135119047Y-39789580D01*
X135119047Y-39789580D02*
X135166666Y-39694342D01*
X135166666Y-39694342D02*
X135214285Y-39503866D01*
X135214285Y-39503866D02*
X135214285Y-39265771D01*
X135214285Y-39265771D02*
X135166666Y-39075295D01*
X135166666Y-39075295D02*
X135119047Y-38980057D01*
X135119047Y-38980057D02*
X135071428Y-38932438D01*
X135071428Y-38932438D02*
X134976190Y-38884819D01*
X134214285Y-39218152D02*
X134214285Y-39884819D01*
X134214285Y-39313390D02*
X134166666Y-39265771D01*
X134166666Y-39265771D02*
X134071428Y-39218152D01*
X134071428Y-39218152D02*
X133928571Y-39218152D01*
X133928571Y-39218152D02*
X133833333Y-39265771D01*
X133833333Y-39265771D02*
X133785714Y-39361009D01*
X133785714Y-39361009D02*
X133785714Y-39884819D01*
X132976190Y-39361009D02*
X133309523Y-39361009D01*
X133309523Y-39884819D02*
X133309523Y-38884819D01*
X133309523Y-38884819D02*
X132833333Y-38884819D01*
D11*
X135257142Y-38143832D02*
X135276190Y-38162880D01*
X135276190Y-38162880D02*
X135333332Y-38181927D01*
X135333332Y-38181927D02*
X135371428Y-38181927D01*
X135371428Y-38181927D02*
X135428571Y-38162880D01*
X135428571Y-38162880D02*
X135466666Y-38124784D01*
X135466666Y-38124784D02*
X135485713Y-38086689D01*
X135485713Y-38086689D02*
X135504761Y-38010499D01*
X135504761Y-38010499D02*
X135504761Y-37953356D01*
X135504761Y-37953356D02*
X135485713Y-37877165D01*
X135485713Y-37877165D02*
X135466666Y-37839070D01*
X135466666Y-37839070D02*
X135428571Y-37800975D01*
X135428571Y-37800975D02*
X135371428Y-37781927D01*
X135371428Y-37781927D02*
X135333332Y-37781927D01*
X135333332Y-37781927D02*
X135276190Y-37800975D01*
X135276190Y-37800975D02*
X135257142Y-37820022D01*
X134876190Y-38181927D02*
X135104761Y-38181927D01*
X134990475Y-38181927D02*
X134990475Y-37781927D01*
X134990475Y-37781927D02*
X135028571Y-37839070D01*
X135028571Y-37839070D02*
X135066666Y-37877165D01*
X135066666Y-37877165D02*
X135104761Y-37896213D01*
X134628571Y-37781927D02*
X134590476Y-37781927D01*
X134590476Y-37781927D02*
X134552380Y-37800975D01*
X134552380Y-37800975D02*
X134533333Y-37820022D01*
X134533333Y-37820022D02*
X134514285Y-37858118D01*
X134514285Y-37858118D02*
X134495238Y-37934308D01*
X134495238Y-37934308D02*
X134495238Y-38029546D01*
X134495238Y-38029546D02*
X134514285Y-38105737D01*
X134514285Y-38105737D02*
X134533333Y-38143832D01*
X134533333Y-38143832D02*
X134552380Y-38162880D01*
X134552380Y-38162880D02*
X134590476Y-38181927D01*
X134590476Y-38181927D02*
X134628571Y-38181927D01*
X134628571Y-38181927D02*
X134666666Y-38162880D01*
X134666666Y-38162880D02*
X134685714Y-38143832D01*
X134685714Y-38143832D02*
X134704761Y-38105737D01*
X134704761Y-38105737D02*
X134723809Y-38029546D01*
X134723809Y-38029546D02*
X134723809Y-37934308D01*
X134723809Y-37934308D02*
X134704761Y-37858118D01*
X134704761Y-37858118D02*
X134685714Y-37820022D01*
X134685714Y-37820022D02*
X134666666Y-37800975D01*
X134666666Y-37800975D02*
X134628571Y-37781927D01*
D10*
X112119047Y-11884819D02*
X112690475Y-11884819D01*
X112404761Y-11884819D02*
X112404761Y-10884819D01*
X112404761Y-10884819D02*
X112499999Y-11027676D01*
X112499999Y-11027676D02*
X112595237Y-11122914D01*
X112595237Y-11122914D02*
X112690475Y-11170533D01*
X111690475Y-11884819D02*
X111690475Y-10884819D01*
X111595237Y-11503866D02*
X111309523Y-11884819D01*
X111309523Y-11218152D02*
X111690475Y-11599104D01*
D11*
X112257142Y-10181927D02*
X112390475Y-9991451D01*
X112485713Y-10181927D02*
X112485713Y-9781927D01*
X112485713Y-9781927D02*
X112333332Y-9781927D01*
X112333332Y-9781927D02*
X112295237Y-9800975D01*
X112295237Y-9800975D02*
X112276190Y-9820022D01*
X112276190Y-9820022D02*
X112257142Y-9858118D01*
X112257142Y-9858118D02*
X112257142Y-9915260D01*
X112257142Y-9915260D02*
X112276190Y-9953356D01*
X112276190Y-9953356D02*
X112295237Y-9972403D01*
X112295237Y-9972403D02*
X112333332Y-9991451D01*
X112333332Y-9991451D02*
X112485713Y-9991451D01*
X112123809Y-9781927D02*
X111876190Y-9781927D01*
X111876190Y-9781927D02*
X112009523Y-9934308D01*
X112009523Y-9934308D02*
X111952380Y-9934308D01*
X111952380Y-9934308D02*
X111914285Y-9953356D01*
X111914285Y-9953356D02*
X111895237Y-9972403D01*
X111895237Y-9972403D02*
X111876190Y-10010499D01*
X111876190Y-10010499D02*
X111876190Y-10105737D01*
X111876190Y-10105737D02*
X111895237Y-10143832D01*
X111895237Y-10143832D02*
X111914285Y-10162880D01*
X111914285Y-10162880D02*
X111952380Y-10181927D01*
X111952380Y-10181927D02*
X112066666Y-10181927D01*
X112066666Y-10181927D02*
X112104761Y-10162880D01*
X112104761Y-10162880D02*
X112123809Y-10143832D01*
X111628571Y-9781927D02*
X111590476Y-9781927D01*
X111590476Y-9781927D02*
X111552380Y-9800975D01*
X111552380Y-9800975D02*
X111533333Y-9820022D01*
X111533333Y-9820022D02*
X111514285Y-9858118D01*
X111514285Y-9858118D02*
X111495238Y-9934308D01*
X111495238Y-9934308D02*
X111495238Y-10029546D01*
X111495238Y-10029546D02*
X111514285Y-10105737D01*
X111514285Y-10105737D02*
X111533333Y-10143832D01*
X111533333Y-10143832D02*
X111552380Y-10162880D01*
X111552380Y-10162880D02*
X111590476Y-10181927D01*
X111590476Y-10181927D02*
X111628571Y-10181927D01*
X111628571Y-10181927D02*
X111666666Y-10162880D01*
X111666666Y-10162880D02*
X111685714Y-10143832D01*
X111685714Y-10143832D02*
X111704761Y-10105737D01*
X111704761Y-10105737D02*
X111723809Y-10029546D01*
X111723809Y-10029546D02*
X111723809Y-9934308D01*
X111723809Y-9934308D02*
X111704761Y-9858118D01*
X111704761Y-9858118D02*
X111685714Y-9820022D01*
X111685714Y-9820022D02*
X111666666Y-9800975D01*
X111666666Y-9800975D02*
X111628571Y-9781927D01*
D10*
X104595238Y-11884819D02*
X105166666Y-11884819D01*
X104880952Y-11884819D02*
X104880952Y-10884819D01*
X104880952Y-10884819D02*
X104976190Y-11027676D01*
X104976190Y-11027676D02*
X105071428Y-11122914D01*
X105071428Y-11122914D02*
X105166666Y-11170533D01*
X103976190Y-10884819D02*
X103880952Y-10884819D01*
X103880952Y-10884819D02*
X103785714Y-10932438D01*
X103785714Y-10932438D02*
X103738095Y-10980057D01*
X103738095Y-10980057D02*
X103690476Y-11075295D01*
X103690476Y-11075295D02*
X103642857Y-11265771D01*
X103642857Y-11265771D02*
X103642857Y-11503866D01*
X103642857Y-11503866D02*
X103690476Y-11694342D01*
X103690476Y-11694342D02*
X103738095Y-11789580D01*
X103738095Y-11789580D02*
X103785714Y-11837200D01*
X103785714Y-11837200D02*
X103880952Y-11884819D01*
X103880952Y-11884819D02*
X103976190Y-11884819D01*
X103976190Y-11884819D02*
X104071428Y-11837200D01*
X104071428Y-11837200D02*
X104119047Y-11789580D01*
X104119047Y-11789580D02*
X104166666Y-11694342D01*
X104166666Y-11694342D02*
X104214285Y-11503866D01*
X104214285Y-11503866D02*
X104214285Y-11265771D01*
X104214285Y-11265771D02*
X104166666Y-11075295D01*
X104166666Y-11075295D02*
X104119047Y-10980057D01*
X104119047Y-10980057D02*
X104071428Y-10932438D01*
X104071428Y-10932438D02*
X103976190Y-10884819D01*
X103214285Y-11884819D02*
X103214285Y-10884819D01*
X103119047Y-11503866D02*
X102833333Y-11884819D01*
X102833333Y-11218152D02*
X103214285Y-11599104D01*
D11*
X104066666Y-10181927D02*
X104199999Y-9991451D01*
X104295237Y-10181927D02*
X104295237Y-9781927D01*
X104295237Y-9781927D02*
X104142856Y-9781927D01*
X104142856Y-9781927D02*
X104104761Y-9800975D01*
X104104761Y-9800975D02*
X104085714Y-9820022D01*
X104085714Y-9820022D02*
X104066666Y-9858118D01*
X104066666Y-9858118D02*
X104066666Y-9915260D01*
X104066666Y-9915260D02*
X104085714Y-9953356D01*
X104085714Y-9953356D02*
X104104761Y-9972403D01*
X104104761Y-9972403D02*
X104142856Y-9991451D01*
X104142856Y-9991451D02*
X104295237Y-9991451D01*
X103933333Y-9781927D02*
X103666666Y-9781927D01*
X103666666Y-9781927D02*
X103838095Y-10181927D01*
D10*
X96595238Y-69884819D02*
X97166666Y-69884819D01*
X96880952Y-69884819D02*
X96880952Y-68884819D01*
X96880952Y-68884819D02*
X96976190Y-69027676D01*
X96976190Y-69027676D02*
X97071428Y-69122914D01*
X97071428Y-69122914D02*
X97166666Y-69170533D01*
X95976190Y-68884819D02*
X95880952Y-68884819D01*
X95880952Y-68884819D02*
X95785714Y-68932438D01*
X95785714Y-68932438D02*
X95738095Y-68980057D01*
X95738095Y-68980057D02*
X95690476Y-69075295D01*
X95690476Y-69075295D02*
X95642857Y-69265771D01*
X95642857Y-69265771D02*
X95642857Y-69503866D01*
X95642857Y-69503866D02*
X95690476Y-69694342D01*
X95690476Y-69694342D02*
X95738095Y-69789580D01*
X95738095Y-69789580D02*
X95785714Y-69837200D01*
X95785714Y-69837200D02*
X95880952Y-69884819D01*
X95880952Y-69884819D02*
X95976190Y-69884819D01*
X95976190Y-69884819D02*
X96071428Y-69837200D01*
X96071428Y-69837200D02*
X96119047Y-69789580D01*
X96119047Y-69789580D02*
X96166666Y-69694342D01*
X96166666Y-69694342D02*
X96214285Y-69503866D01*
X96214285Y-69503866D02*
X96214285Y-69265771D01*
X96214285Y-69265771D02*
X96166666Y-69075295D01*
X96166666Y-69075295D02*
X96119047Y-68980057D01*
X96119047Y-68980057D02*
X96071428Y-68932438D01*
X96071428Y-68932438D02*
X95976190Y-68884819D01*
X95214285Y-69884819D02*
X95214285Y-68884819D01*
X95119047Y-69503866D02*
X94833333Y-69884819D01*
X94833333Y-69218152D02*
X95214285Y-69599104D01*
D11*
X96066666Y-68181927D02*
X96199999Y-67991451D01*
X96295237Y-68181927D02*
X96295237Y-67781927D01*
X96295237Y-67781927D02*
X96142856Y-67781927D01*
X96142856Y-67781927D02*
X96104761Y-67800975D01*
X96104761Y-67800975D02*
X96085714Y-67820022D01*
X96085714Y-67820022D02*
X96066666Y-67858118D01*
X96066666Y-67858118D02*
X96066666Y-67915260D01*
X96066666Y-67915260D02*
X96085714Y-67953356D01*
X96085714Y-67953356D02*
X96104761Y-67972403D01*
X96104761Y-67972403D02*
X96142856Y-67991451D01*
X96142856Y-67991451D02*
X96295237Y-67991451D01*
X95704761Y-67781927D02*
X95895237Y-67781927D01*
X95895237Y-67781927D02*
X95914285Y-67972403D01*
X95914285Y-67972403D02*
X95895237Y-67953356D01*
X95895237Y-67953356D02*
X95857142Y-67934308D01*
X95857142Y-67934308D02*
X95761904Y-67934308D01*
X95761904Y-67934308D02*
X95723809Y-67953356D01*
X95723809Y-67953356D02*
X95704761Y-67972403D01*
X95704761Y-67972403D02*
X95685714Y-68010499D01*
X95685714Y-68010499D02*
X95685714Y-68105737D01*
X95685714Y-68105737D02*
X95704761Y-68143832D01*
X95704761Y-68143832D02*
X95723809Y-68162880D01*
X95723809Y-68162880D02*
X95761904Y-68181927D01*
X95761904Y-68181927D02*
X95857142Y-68181927D01*
X95857142Y-68181927D02*
X95895237Y-68162880D01*
X95895237Y-68162880D02*
X95914285Y-68143832D01*
D10*
X104952380Y-48569104D02*
X104476190Y-48569104D01*
X105047618Y-48854819D02*
X104714285Y-47854819D01*
X104714285Y-47854819D02*
X104380952Y-48854819D01*
X104047618Y-48854819D02*
X104047618Y-47854819D01*
X104047618Y-47854819D02*
X103666666Y-47854819D01*
X103666666Y-47854819D02*
X103571428Y-47902438D01*
X103571428Y-47902438D02*
X103523809Y-47950057D01*
X103523809Y-47950057D02*
X103476190Y-48045295D01*
X103476190Y-48045295D02*
X103476190Y-48188152D01*
X103476190Y-48188152D02*
X103523809Y-48283390D01*
X103523809Y-48283390D02*
X103571428Y-48331009D01*
X103571428Y-48331009D02*
X103666666Y-48378628D01*
X103666666Y-48378628D02*
X104047618Y-48378628D01*
X103095237Y-47950057D02*
X103047618Y-47902438D01*
X103047618Y-47902438D02*
X102952380Y-47854819D01*
X102952380Y-47854819D02*
X102714285Y-47854819D01*
X102714285Y-47854819D02*
X102619047Y-47902438D01*
X102619047Y-47902438D02*
X102571428Y-47950057D01*
X102571428Y-47950057D02*
X102523809Y-48045295D01*
X102523809Y-48045295D02*
X102523809Y-48140533D01*
X102523809Y-48140533D02*
X102571428Y-48283390D01*
X102571428Y-48283390D02*
X103142856Y-48854819D01*
X103142856Y-48854819D02*
X102523809Y-48854819D01*
X101571428Y-48854819D02*
X102142856Y-48854819D01*
X101857142Y-48854819D02*
X101857142Y-47854819D01*
X101857142Y-47854819D02*
X101952380Y-47997676D01*
X101952380Y-47997676D02*
X102047618Y-48092914D01*
X102047618Y-48092914D02*
X102142856Y-48140533D01*
X100619047Y-48854819D02*
X101190475Y-48854819D01*
X100904761Y-48854819D02*
X100904761Y-47854819D01*
X100904761Y-47854819D02*
X100999999Y-47997676D01*
X100999999Y-47997676D02*
X101095237Y-48092914D01*
X101095237Y-48092914D02*
X101190475Y-48140533D01*
X100238094Y-47950057D02*
X100190475Y-47902438D01*
X100190475Y-47902438D02*
X100095237Y-47854819D01*
X100095237Y-47854819D02*
X99857142Y-47854819D01*
X99857142Y-47854819D02*
X99761904Y-47902438D01*
X99761904Y-47902438D02*
X99714285Y-47950057D01*
X99714285Y-47950057D02*
X99666666Y-48045295D01*
X99666666Y-48045295D02*
X99666666Y-48140533D01*
X99666666Y-48140533D02*
X99714285Y-48283390D01*
X99714285Y-48283390D02*
X100285713Y-48854819D01*
X100285713Y-48854819D02*
X99666666Y-48854819D01*
X99238094Y-48854819D02*
X99238094Y-47854819D01*
X98666666Y-48854819D02*
X99095237Y-48283390D01*
X98666666Y-47854819D02*
X99238094Y-48426247D01*
X98238094Y-48473866D02*
X97476190Y-48473866D01*
X97095237Y-47854819D02*
X96476190Y-47854819D01*
X96476190Y-47854819D02*
X96809523Y-48235771D01*
X96809523Y-48235771D02*
X96666666Y-48235771D01*
X96666666Y-48235771D02*
X96571428Y-48283390D01*
X96571428Y-48283390D02*
X96523809Y-48331009D01*
X96523809Y-48331009D02*
X96476190Y-48426247D01*
X96476190Y-48426247D02*
X96476190Y-48664342D01*
X96476190Y-48664342D02*
X96523809Y-48759580D01*
X96523809Y-48759580D02*
X96571428Y-48807200D01*
X96571428Y-48807200D02*
X96666666Y-48854819D01*
X96666666Y-48854819D02*
X96952380Y-48854819D01*
X96952380Y-48854819D02*
X97047618Y-48807200D01*
X97047618Y-48807200D02*
X97095237Y-48759580D01*
X96047618Y-48759580D02*
X95999999Y-48807200D01*
X95999999Y-48807200D02*
X96047618Y-48854819D01*
X96047618Y-48854819D02*
X96095237Y-48807200D01*
X96095237Y-48807200D02*
X96047618Y-48759580D01*
X96047618Y-48759580D02*
X96047618Y-48854819D01*
X95666666Y-47854819D02*
X95047619Y-47854819D01*
X95047619Y-47854819D02*
X95380952Y-48235771D01*
X95380952Y-48235771D02*
X95238095Y-48235771D01*
X95238095Y-48235771D02*
X95142857Y-48283390D01*
X95142857Y-48283390D02*
X95095238Y-48331009D01*
X95095238Y-48331009D02*
X95047619Y-48426247D01*
X95047619Y-48426247D02*
X95047619Y-48664342D01*
X95047619Y-48664342D02*
X95095238Y-48759580D01*
X95095238Y-48759580D02*
X95142857Y-48807200D01*
X95142857Y-48807200D02*
X95238095Y-48854819D01*
X95238095Y-48854819D02*
X95523809Y-48854819D01*
X95523809Y-48854819D02*
X95619047Y-48807200D01*
X95619047Y-48807200D02*
X95666666Y-48759580D01*
D12*
X99607365Y-45451428D02*
X100190222Y-45451428D01*
X100190222Y-45451428D02*
X100258794Y-45485714D01*
X100258794Y-45485714D02*
X100293080Y-45520000D01*
X100293080Y-45520000D02*
X100327365Y-45588571D01*
X100327365Y-45588571D02*
X100327365Y-45725714D01*
X100327365Y-45725714D02*
X100293080Y-45794285D01*
X100293080Y-45794285D02*
X100258794Y-45828571D01*
X100258794Y-45828571D02*
X100190222Y-45862857D01*
X100190222Y-45862857D02*
X99607365Y-45862857D01*
X100327365Y-46582857D02*
X100327365Y-46171428D01*
X100327365Y-46377143D02*
X99607365Y-46377143D01*
X99607365Y-46377143D02*
X99710222Y-46308571D01*
X99710222Y-46308571D02*
X99778794Y-46240000D01*
X99778794Y-46240000D02*
X99813080Y-46171428D01*
D10*
X100595238Y-73884819D02*
X101166666Y-73884819D01*
X100880952Y-73884819D02*
X100880952Y-72884819D01*
X100880952Y-72884819D02*
X100976190Y-73027676D01*
X100976190Y-73027676D02*
X101071428Y-73122914D01*
X101071428Y-73122914D02*
X101166666Y-73170533D01*
X99976190Y-72884819D02*
X99880952Y-72884819D01*
X99880952Y-72884819D02*
X99785714Y-72932438D01*
X99785714Y-72932438D02*
X99738095Y-72980057D01*
X99738095Y-72980057D02*
X99690476Y-73075295D01*
X99690476Y-73075295D02*
X99642857Y-73265771D01*
X99642857Y-73265771D02*
X99642857Y-73503866D01*
X99642857Y-73503866D02*
X99690476Y-73694342D01*
X99690476Y-73694342D02*
X99738095Y-73789580D01*
X99738095Y-73789580D02*
X99785714Y-73837200D01*
X99785714Y-73837200D02*
X99880952Y-73884819D01*
X99880952Y-73884819D02*
X99976190Y-73884819D01*
X99976190Y-73884819D02*
X100071428Y-73837200D01*
X100071428Y-73837200D02*
X100119047Y-73789580D01*
X100119047Y-73789580D02*
X100166666Y-73694342D01*
X100166666Y-73694342D02*
X100214285Y-73503866D01*
X100214285Y-73503866D02*
X100214285Y-73265771D01*
X100214285Y-73265771D02*
X100166666Y-73075295D01*
X100166666Y-73075295D02*
X100119047Y-72980057D01*
X100119047Y-72980057D02*
X100071428Y-72932438D01*
X100071428Y-72932438D02*
X99976190Y-72884819D01*
X99214285Y-73884819D02*
X99214285Y-72884819D01*
X99119047Y-73503866D02*
X98833333Y-73884819D01*
X98833333Y-73218152D02*
X99214285Y-73599104D01*
D11*
X100066666Y-72181927D02*
X100199999Y-71991451D01*
X100295237Y-72181927D02*
X100295237Y-71781927D01*
X100295237Y-71781927D02*
X100142856Y-71781927D01*
X100142856Y-71781927D02*
X100104761Y-71800975D01*
X100104761Y-71800975D02*
X100085714Y-71820022D01*
X100085714Y-71820022D02*
X100066666Y-71858118D01*
X100066666Y-71858118D02*
X100066666Y-71915260D01*
X100066666Y-71915260D02*
X100085714Y-71953356D01*
X100085714Y-71953356D02*
X100104761Y-71972403D01*
X100104761Y-71972403D02*
X100142856Y-71991451D01*
X100142856Y-71991451D02*
X100295237Y-71991451D01*
X99723809Y-71781927D02*
X99799999Y-71781927D01*
X99799999Y-71781927D02*
X99838095Y-71800975D01*
X99838095Y-71800975D02*
X99857142Y-71820022D01*
X99857142Y-71820022D02*
X99895237Y-71877165D01*
X99895237Y-71877165D02*
X99914285Y-71953356D01*
X99914285Y-71953356D02*
X99914285Y-72105737D01*
X99914285Y-72105737D02*
X99895237Y-72143832D01*
X99895237Y-72143832D02*
X99876190Y-72162880D01*
X99876190Y-72162880D02*
X99838095Y-72181927D01*
X99838095Y-72181927D02*
X99761904Y-72181927D01*
X99761904Y-72181927D02*
X99723809Y-72162880D01*
X99723809Y-72162880D02*
X99704761Y-72143832D01*
X99704761Y-72143832D02*
X99685714Y-72105737D01*
X99685714Y-72105737D02*
X99685714Y-72010499D01*
X99685714Y-72010499D02*
X99704761Y-71972403D01*
X99704761Y-71972403D02*
X99723809Y-71953356D01*
X99723809Y-71953356D02*
X99761904Y-71934308D01*
X99761904Y-71934308D02*
X99838095Y-71934308D01*
X99838095Y-71934308D02*
X99876190Y-71953356D01*
X99876190Y-71953356D02*
X99895237Y-71972403D01*
X99895237Y-71972403D02*
X99914285Y-72010499D01*
D10*
X77690476Y-60454819D02*
X77119048Y-60454819D01*
X77404762Y-61454819D02*
X77404762Y-60454819D01*
X76785714Y-61454819D02*
X76785714Y-60454819D01*
X76785714Y-60454819D02*
X76404762Y-60454819D01*
X76404762Y-60454819D02*
X76309524Y-60502438D01*
X76309524Y-60502438D02*
X76261905Y-60550057D01*
X76261905Y-60550057D02*
X76214286Y-60645295D01*
X76214286Y-60645295D02*
X76214286Y-60788152D01*
X76214286Y-60788152D02*
X76261905Y-60883390D01*
X76261905Y-60883390D02*
X76309524Y-60931009D01*
X76309524Y-60931009D02*
X76404762Y-60978628D01*
X76404762Y-60978628D02*
X76785714Y-60978628D01*
X75357143Y-60788152D02*
X75357143Y-61454819D01*
X75595238Y-60407200D02*
X75833333Y-61121485D01*
X75833333Y-61121485D02*
X75214286Y-61121485D01*
X74642857Y-60454819D02*
X74547619Y-60454819D01*
X74547619Y-60454819D02*
X74452381Y-60502438D01*
X74452381Y-60502438D02*
X74404762Y-60550057D01*
X74404762Y-60550057D02*
X74357143Y-60645295D01*
X74357143Y-60645295D02*
X74309524Y-60835771D01*
X74309524Y-60835771D02*
X74309524Y-61073866D01*
X74309524Y-61073866D02*
X74357143Y-61264342D01*
X74357143Y-61264342D02*
X74404762Y-61359580D01*
X74404762Y-61359580D02*
X74452381Y-61407200D01*
X74452381Y-61407200D02*
X74547619Y-61454819D01*
X74547619Y-61454819D02*
X74642857Y-61454819D01*
X74642857Y-61454819D02*
X74738095Y-61407200D01*
X74738095Y-61407200D02*
X74785714Y-61359580D01*
X74785714Y-61359580D02*
X74833333Y-61264342D01*
X74833333Y-61264342D02*
X74880952Y-61073866D01*
X74880952Y-61073866D02*
X74880952Y-60835771D01*
X74880952Y-60835771D02*
X74833333Y-60645295D01*
X74833333Y-60645295D02*
X74785714Y-60550057D01*
X74785714Y-60550057D02*
X74738095Y-60502438D01*
X74738095Y-60502438D02*
X74642857Y-60454819D01*
X73404762Y-60454819D02*
X73880952Y-60454819D01*
X73880952Y-60454819D02*
X73928571Y-60931009D01*
X73928571Y-60931009D02*
X73880952Y-60883390D01*
X73880952Y-60883390D02*
X73785714Y-60835771D01*
X73785714Y-60835771D02*
X73547619Y-60835771D01*
X73547619Y-60835771D02*
X73452381Y-60883390D01*
X73452381Y-60883390D02*
X73404762Y-60931009D01*
X73404762Y-60931009D02*
X73357143Y-61026247D01*
X73357143Y-61026247D02*
X73357143Y-61264342D01*
X73357143Y-61264342D02*
X73404762Y-61359580D01*
X73404762Y-61359580D02*
X73452381Y-61407200D01*
X73452381Y-61407200D02*
X73547619Y-61454819D01*
X73547619Y-61454819D02*
X73785714Y-61454819D01*
X73785714Y-61454819D02*
X73880952Y-61407200D01*
X73880952Y-61407200D02*
X73928571Y-61359580D01*
X72500000Y-60454819D02*
X72690476Y-60454819D01*
X72690476Y-60454819D02*
X72785714Y-60502438D01*
X72785714Y-60502438D02*
X72833333Y-60550057D01*
X72833333Y-60550057D02*
X72928571Y-60692914D01*
X72928571Y-60692914D02*
X72976190Y-60883390D01*
X72976190Y-60883390D02*
X72976190Y-61264342D01*
X72976190Y-61264342D02*
X72928571Y-61359580D01*
X72928571Y-61359580D02*
X72880952Y-61407200D01*
X72880952Y-61407200D02*
X72785714Y-61454819D01*
X72785714Y-61454819D02*
X72595238Y-61454819D01*
X72595238Y-61454819D02*
X72500000Y-61407200D01*
X72500000Y-61407200D02*
X72452381Y-61359580D01*
X72452381Y-61359580D02*
X72404762Y-61264342D01*
X72404762Y-61264342D02*
X72404762Y-61026247D01*
X72404762Y-61026247D02*
X72452381Y-60931009D01*
X72452381Y-60931009D02*
X72500000Y-60883390D01*
X72500000Y-60883390D02*
X72595238Y-60835771D01*
X72595238Y-60835771D02*
X72785714Y-60835771D01*
X72785714Y-60835771D02*
X72880952Y-60883390D01*
X72880952Y-60883390D02*
X72928571Y-60931009D01*
X72928571Y-60931009D02*
X72976190Y-61026247D01*
X72214286Y-61550057D02*
X71452381Y-61550057D01*
X71214285Y-61454819D02*
X71214285Y-60454819D01*
X71214285Y-60454819D02*
X70880952Y-61169104D01*
X70880952Y-61169104D02*
X70547619Y-60454819D01*
X70547619Y-60454819D02*
X70547619Y-61454819D01*
X69928571Y-61454819D02*
X70023809Y-61407200D01*
X70023809Y-61407200D02*
X70071428Y-61359580D01*
X70071428Y-61359580D02*
X70119047Y-61264342D01*
X70119047Y-61264342D02*
X70119047Y-60978628D01*
X70119047Y-60978628D02*
X70071428Y-60883390D01*
X70071428Y-60883390D02*
X70023809Y-60835771D01*
X70023809Y-60835771D02*
X69928571Y-60788152D01*
X69928571Y-60788152D02*
X69785714Y-60788152D01*
X69785714Y-60788152D02*
X69690476Y-60835771D01*
X69690476Y-60835771D02*
X69642857Y-60883390D01*
X69642857Y-60883390D02*
X69595238Y-60978628D01*
X69595238Y-60978628D02*
X69595238Y-61264342D01*
X69595238Y-61264342D02*
X69642857Y-61359580D01*
X69642857Y-61359580D02*
X69690476Y-61407200D01*
X69690476Y-61407200D02*
X69785714Y-61454819D01*
X69785714Y-61454819D02*
X69928571Y-61454819D01*
X68738095Y-61454819D02*
X68738095Y-60454819D01*
X68738095Y-61407200D02*
X68833333Y-61454819D01*
X68833333Y-61454819D02*
X69023809Y-61454819D01*
X69023809Y-61454819D02*
X69119047Y-61407200D01*
X69119047Y-61407200D02*
X69166666Y-61359580D01*
X69166666Y-61359580D02*
X69214285Y-61264342D01*
X69214285Y-61264342D02*
X69214285Y-60978628D01*
X69214285Y-60978628D02*
X69166666Y-60883390D01*
X69166666Y-60883390D02*
X69119047Y-60835771D01*
X69119047Y-60835771D02*
X69023809Y-60788152D01*
X69023809Y-60788152D02*
X68833333Y-60788152D01*
X68833333Y-60788152D02*
X68738095Y-60835771D01*
X67833333Y-60788152D02*
X67833333Y-61454819D01*
X68261904Y-60788152D02*
X68261904Y-61311961D01*
X68261904Y-61311961D02*
X68214285Y-61407200D01*
X68214285Y-61407200D02*
X68119047Y-61454819D01*
X68119047Y-61454819D02*
X67976190Y-61454819D01*
X67976190Y-61454819D02*
X67880952Y-61407200D01*
X67880952Y-61407200D02*
X67833333Y-61359580D01*
X67214285Y-61454819D02*
X67309523Y-61407200D01*
X67309523Y-61407200D02*
X67357142Y-61311961D01*
X67357142Y-61311961D02*
X67357142Y-60454819D01*
X66452380Y-61407200D02*
X66547618Y-61454819D01*
X66547618Y-61454819D02*
X66738094Y-61454819D01*
X66738094Y-61454819D02*
X66833332Y-61407200D01*
X66833332Y-61407200D02*
X66880951Y-61311961D01*
X66880951Y-61311961D02*
X66880951Y-60931009D01*
X66880951Y-60931009D02*
X66833332Y-60835771D01*
X66833332Y-60835771D02*
X66738094Y-60788152D01*
X66738094Y-60788152D02*
X66547618Y-60788152D01*
X66547618Y-60788152D02*
X66452380Y-60835771D01*
X66452380Y-60835771D02*
X66404761Y-60931009D01*
X66404761Y-60931009D02*
X66404761Y-61026247D01*
X66404761Y-61026247D02*
X66880951Y-61121485D01*
X113595238Y-51884819D02*
X114166666Y-51884819D01*
X113880952Y-51884819D02*
X113880952Y-50884819D01*
X113880952Y-50884819D02*
X113976190Y-51027676D01*
X113976190Y-51027676D02*
X114071428Y-51122914D01*
X114071428Y-51122914D02*
X114166666Y-51170533D01*
X112738095Y-51218152D02*
X112738095Y-51884819D01*
X113166666Y-51218152D02*
X113166666Y-51741961D01*
X113166666Y-51741961D02*
X113119047Y-51837200D01*
X113119047Y-51837200D02*
X113023809Y-51884819D01*
X113023809Y-51884819D02*
X112880952Y-51884819D01*
X112880952Y-51884819D02*
X112785714Y-51837200D01*
X112785714Y-51837200D02*
X112738095Y-51789580D01*
X111928571Y-51361009D02*
X112261904Y-51361009D01*
X112261904Y-51884819D02*
X112261904Y-50884819D01*
X112261904Y-50884819D02*
X111785714Y-50884819D01*
D11*
X113066666Y-50143832D02*
X113085714Y-50162880D01*
X113085714Y-50162880D02*
X113142856Y-50181927D01*
X113142856Y-50181927D02*
X113180952Y-50181927D01*
X113180952Y-50181927D02*
X113238095Y-50162880D01*
X113238095Y-50162880D02*
X113276190Y-50124784D01*
X113276190Y-50124784D02*
X113295237Y-50086689D01*
X113295237Y-50086689D02*
X113314285Y-50010499D01*
X113314285Y-50010499D02*
X113314285Y-49953356D01*
X113314285Y-49953356D02*
X113295237Y-49877165D01*
X113295237Y-49877165D02*
X113276190Y-49839070D01*
X113276190Y-49839070D02*
X113238095Y-49800975D01*
X113238095Y-49800975D02*
X113180952Y-49781927D01*
X113180952Y-49781927D02*
X113142856Y-49781927D01*
X113142856Y-49781927D02*
X113085714Y-49800975D01*
X113085714Y-49800975D02*
X113066666Y-49820022D01*
X112723809Y-49781927D02*
X112799999Y-49781927D01*
X112799999Y-49781927D02*
X112838095Y-49800975D01*
X112838095Y-49800975D02*
X112857142Y-49820022D01*
X112857142Y-49820022D02*
X112895237Y-49877165D01*
X112895237Y-49877165D02*
X112914285Y-49953356D01*
X112914285Y-49953356D02*
X112914285Y-50105737D01*
X112914285Y-50105737D02*
X112895237Y-50143832D01*
X112895237Y-50143832D02*
X112876190Y-50162880D01*
X112876190Y-50162880D02*
X112838095Y-50181927D01*
X112838095Y-50181927D02*
X112761904Y-50181927D01*
X112761904Y-50181927D02*
X112723809Y-50162880D01*
X112723809Y-50162880D02*
X112704761Y-50143832D01*
X112704761Y-50143832D02*
X112685714Y-50105737D01*
X112685714Y-50105737D02*
X112685714Y-50010499D01*
X112685714Y-50010499D02*
X112704761Y-49972403D01*
X112704761Y-49972403D02*
X112723809Y-49953356D01*
X112723809Y-49953356D02*
X112761904Y-49934308D01*
X112761904Y-49934308D02*
X112838095Y-49934308D01*
X112838095Y-49934308D02*
X112876190Y-49953356D01*
X112876190Y-49953356D02*
X112895237Y-49972403D01*
X112895237Y-49972403D02*
X112914285Y-50010499D01*
D10*
X94119047Y-57884819D02*
X94690475Y-57884819D01*
X94404761Y-57884819D02*
X94404761Y-56884819D01*
X94404761Y-56884819D02*
X94499999Y-57027676D01*
X94499999Y-57027676D02*
X94595237Y-57122914D01*
X94595237Y-57122914D02*
X94690475Y-57170533D01*
X93690475Y-57884819D02*
X93690475Y-56884819D01*
X93595237Y-57503866D02*
X93309523Y-57884819D01*
X93309523Y-57218152D02*
X93690475Y-57599104D01*
D11*
X94257142Y-56181927D02*
X94390475Y-55991451D01*
X94485713Y-56181927D02*
X94485713Y-55781927D01*
X94485713Y-55781927D02*
X94333332Y-55781927D01*
X94333332Y-55781927D02*
X94295237Y-55800975D01*
X94295237Y-55800975D02*
X94276190Y-55820022D01*
X94276190Y-55820022D02*
X94257142Y-55858118D01*
X94257142Y-55858118D02*
X94257142Y-55915260D01*
X94257142Y-55915260D02*
X94276190Y-55953356D01*
X94276190Y-55953356D02*
X94295237Y-55972403D01*
X94295237Y-55972403D02*
X94333332Y-55991451D01*
X94333332Y-55991451D02*
X94485713Y-55991451D01*
X94123809Y-55781927D02*
X93876190Y-55781927D01*
X93876190Y-55781927D02*
X94009523Y-55934308D01*
X94009523Y-55934308D02*
X93952380Y-55934308D01*
X93952380Y-55934308D02*
X93914285Y-55953356D01*
X93914285Y-55953356D02*
X93895237Y-55972403D01*
X93895237Y-55972403D02*
X93876190Y-56010499D01*
X93876190Y-56010499D02*
X93876190Y-56105737D01*
X93876190Y-56105737D02*
X93895237Y-56143832D01*
X93895237Y-56143832D02*
X93914285Y-56162880D01*
X93914285Y-56162880D02*
X93952380Y-56181927D01*
X93952380Y-56181927D02*
X94066666Y-56181927D01*
X94066666Y-56181927D02*
X94104761Y-56162880D01*
X94104761Y-56162880D02*
X94123809Y-56143832D01*
X93723809Y-55820022D02*
X93704761Y-55800975D01*
X93704761Y-55800975D02*
X93666666Y-55781927D01*
X93666666Y-55781927D02*
X93571428Y-55781927D01*
X93571428Y-55781927D02*
X93533333Y-55800975D01*
X93533333Y-55800975D02*
X93514285Y-55820022D01*
X93514285Y-55820022D02*
X93495238Y-55858118D01*
X93495238Y-55858118D02*
X93495238Y-55896213D01*
X93495238Y-55896213D02*
X93514285Y-55953356D01*
X93514285Y-55953356D02*
X93742857Y-56181927D01*
X93742857Y-56181927D02*
X93495238Y-56181927D01*
D10*
X93547619Y-48988152D02*
X93547619Y-49654819D01*
X93785714Y-48607200D02*
X94023809Y-49321485D01*
X94023809Y-49321485D02*
X93404762Y-49321485D01*
X93119047Y-48654819D02*
X92452381Y-48654819D01*
X92452381Y-48654819D02*
X92880952Y-49654819D01*
X91880952Y-48654819D02*
X91785714Y-48654819D01*
X91785714Y-48654819D02*
X91690476Y-48702438D01*
X91690476Y-48702438D02*
X91642857Y-48750057D01*
X91642857Y-48750057D02*
X91595238Y-48845295D01*
X91595238Y-48845295D02*
X91547619Y-49035771D01*
X91547619Y-49035771D02*
X91547619Y-49273866D01*
X91547619Y-49273866D02*
X91595238Y-49464342D01*
X91595238Y-49464342D02*
X91642857Y-49559580D01*
X91642857Y-49559580D02*
X91690476Y-49607200D01*
X91690476Y-49607200D02*
X91785714Y-49654819D01*
X91785714Y-49654819D02*
X91880952Y-49654819D01*
X91880952Y-49654819D02*
X91976190Y-49607200D01*
X91976190Y-49607200D02*
X92023809Y-49559580D01*
X92023809Y-49559580D02*
X92071428Y-49464342D01*
X92071428Y-49464342D02*
X92119047Y-49273866D01*
X92119047Y-49273866D02*
X92119047Y-49035771D01*
X92119047Y-49035771D02*
X92071428Y-48845295D01*
X92071428Y-48845295D02*
X92023809Y-48750057D01*
X92023809Y-48750057D02*
X91976190Y-48702438D01*
X91976190Y-48702438D02*
X91880952Y-48654819D01*
X90690476Y-48988152D02*
X90690476Y-49654819D01*
X91119047Y-48988152D02*
X91119047Y-49511961D01*
X91119047Y-49511961D02*
X91071428Y-49607200D01*
X91071428Y-49607200D02*
X90976190Y-49654819D01*
X90976190Y-49654819D02*
X90833333Y-49654819D01*
X90833333Y-49654819D02*
X90738095Y-49607200D01*
X90738095Y-49607200D02*
X90690476Y-49559580D01*
X89880952Y-49131009D02*
X90214285Y-49131009D01*
X90214285Y-49654819D02*
X90214285Y-48654819D01*
X90214285Y-48654819D02*
X89738095Y-48654819D01*
X88642857Y-48607200D02*
X89499999Y-49892914D01*
X87785714Y-49654819D02*
X88357142Y-49654819D01*
X88071428Y-49654819D02*
X88071428Y-48654819D01*
X88071428Y-48654819D02*
X88166666Y-48797676D01*
X88166666Y-48797676D02*
X88261904Y-48892914D01*
X88261904Y-48892914D02*
X88357142Y-48940533D01*
X87166666Y-48654819D02*
X87071428Y-48654819D01*
X87071428Y-48654819D02*
X86976190Y-48702438D01*
X86976190Y-48702438D02*
X86928571Y-48750057D01*
X86928571Y-48750057D02*
X86880952Y-48845295D01*
X86880952Y-48845295D02*
X86833333Y-49035771D01*
X86833333Y-49035771D02*
X86833333Y-49273866D01*
X86833333Y-49273866D02*
X86880952Y-49464342D01*
X86880952Y-49464342D02*
X86928571Y-49559580D01*
X86928571Y-49559580D02*
X86976190Y-49607200D01*
X86976190Y-49607200D02*
X87071428Y-49654819D01*
X87071428Y-49654819D02*
X87166666Y-49654819D01*
X87166666Y-49654819D02*
X87261904Y-49607200D01*
X87261904Y-49607200D02*
X87309523Y-49559580D01*
X87309523Y-49559580D02*
X87357142Y-49464342D01*
X87357142Y-49464342D02*
X87404761Y-49273866D01*
X87404761Y-49273866D02*
X87404761Y-49035771D01*
X87404761Y-49035771D02*
X87357142Y-48845295D01*
X87357142Y-48845295D02*
X87309523Y-48750057D01*
X87309523Y-48750057D02*
X87261904Y-48702438D01*
X87261904Y-48702438D02*
X87166666Y-48654819D01*
X86547618Y-48654819D02*
X86214285Y-49654819D01*
X86214285Y-49654819D02*
X85880952Y-48654819D01*
X90642857Y-44359580D02*
X90690476Y-44407200D01*
X90690476Y-44407200D02*
X90833333Y-44454819D01*
X90833333Y-44454819D02*
X90928571Y-44454819D01*
X90928571Y-44454819D02*
X91071428Y-44407200D01*
X91071428Y-44407200D02*
X91166666Y-44311961D01*
X91166666Y-44311961D02*
X91214285Y-44216723D01*
X91214285Y-44216723D02*
X91261904Y-44026247D01*
X91261904Y-44026247D02*
X91261904Y-43883390D01*
X91261904Y-43883390D02*
X91214285Y-43692914D01*
X91214285Y-43692914D02*
X91166666Y-43597676D01*
X91166666Y-43597676D02*
X91071428Y-43502438D01*
X91071428Y-43502438D02*
X90928571Y-43454819D01*
X90928571Y-43454819D02*
X90833333Y-43454819D01*
X90833333Y-43454819D02*
X90690476Y-43502438D01*
X90690476Y-43502438D02*
X90642857Y-43550057D01*
X90261904Y-43550057D02*
X90214285Y-43502438D01*
X90214285Y-43502438D02*
X90119047Y-43454819D01*
X90119047Y-43454819D02*
X89880952Y-43454819D01*
X89880952Y-43454819D02*
X89785714Y-43502438D01*
X89785714Y-43502438D02*
X89738095Y-43550057D01*
X89738095Y-43550057D02*
X89690476Y-43645295D01*
X89690476Y-43645295D02*
X89690476Y-43740533D01*
X89690476Y-43740533D02*
X89738095Y-43883390D01*
X89738095Y-43883390D02*
X90309523Y-44454819D01*
X90309523Y-44454819D02*
X89690476Y-44454819D01*
X89071428Y-43454819D02*
X88976190Y-43454819D01*
X88976190Y-43454819D02*
X88880952Y-43502438D01*
X88880952Y-43502438D02*
X88833333Y-43550057D01*
X88833333Y-43550057D02*
X88785714Y-43645295D01*
X88785714Y-43645295D02*
X88738095Y-43835771D01*
X88738095Y-43835771D02*
X88738095Y-44073866D01*
X88738095Y-44073866D02*
X88785714Y-44264342D01*
X88785714Y-44264342D02*
X88833333Y-44359580D01*
X88833333Y-44359580D02*
X88880952Y-44407200D01*
X88880952Y-44407200D02*
X88976190Y-44454819D01*
X88976190Y-44454819D02*
X89071428Y-44454819D01*
X89071428Y-44454819D02*
X89166666Y-44407200D01*
X89166666Y-44407200D02*
X89214285Y-44359580D01*
X89214285Y-44359580D02*
X89261904Y-44264342D01*
X89261904Y-44264342D02*
X89309523Y-44073866D01*
X89309523Y-44073866D02*
X89309523Y-43835771D01*
X89309523Y-43835771D02*
X89261904Y-43645295D01*
X89261904Y-43645295D02*
X89214285Y-43550057D01*
X89214285Y-43550057D02*
X89166666Y-43502438D01*
X89166666Y-43502438D02*
X89071428Y-43454819D01*
%TO.C,C9*%
D13*
X65800000Y-37600000D02*
X64200000Y-37600000D01*
X64200000Y-38400000D01*
X65800000Y-38400000D01*
X65800000Y-37600000D01*
%TO.C,C21*%
X113800000Y-52600000D02*
X112200000Y-52600000D01*
X112200000Y-53400000D01*
X113800000Y-53400000D01*
X113800000Y-52600000D01*
%TO.C,R4*%
X88800000Y-9587500D02*
X87200000Y-9587500D01*
X87200000Y-10412500D01*
X88800000Y-10412500D01*
X88800000Y-9587500D01*
%TO.C,R31*%
X86800000Y-55587500D02*
X85200000Y-55587500D01*
X85200000Y-56412500D01*
X86800000Y-56412500D01*
X86800000Y-55587500D01*
%TO.C,C31*%
X98800000Y-55600000D02*
X97200000Y-55600000D01*
X97200000Y-56400000D01*
X98800000Y-56400000D01*
X98800000Y-55600000D01*
%TO.C,C7*%
X92800000Y-9600000D02*
X91200000Y-9600000D01*
X91200000Y-10400000D01*
X92800000Y-10400000D01*
X92800000Y-9600000D01*
%TO.C,J3*%
X58730000Y-30730000D02*
X58730000Y-40890000D01*
X58730000Y-40890000D02*
X61270000Y-40890000D01*
X60635000Y-30730000D02*
X58730000Y-30730000D01*
X61270000Y-31365000D02*
X60635000Y-30730000D01*
X61270000Y-40890000D02*
X61270000Y-31365000D01*
%TO.C,R41*%
X114800000Y-55587500D02*
X113200000Y-55587500D01*
X113200000Y-56412500D01*
X114800000Y-56412500D01*
X114800000Y-55587500D01*
%TO.C,C51*%
X170800000Y-62600000D02*
X169200000Y-62600000D01*
X169200000Y-63400000D01*
X170800000Y-63400000D01*
X170800000Y-62600000D01*
%TO.C,C8*%
X32800000Y-54600000D02*
X31200000Y-54600000D01*
X31200000Y-55400000D01*
X32800000Y-55400000D01*
X32800000Y-54600000D01*
%TO.C,C5*%
X113800000Y-46600000D02*
X112200000Y-46600000D01*
X112200000Y-47400000D01*
X113800000Y-47400000D01*
X113800000Y-46600000D01*
%TO.C,C2*%
X104800000Y-45600000D02*
X103200000Y-45600000D01*
X103200000Y-46400000D01*
X104800000Y-46400000D01*
X104800000Y-45600000D01*
%TO.C,R9*%
X56800000Y-55587500D02*
X55200000Y-55587500D01*
X55200000Y-56412500D01*
X56800000Y-56412500D01*
X56800000Y-55587500D01*
%TO.C,C30*%
X90800000Y-55600000D02*
X89200000Y-55600000D01*
X89200000Y-56400000D01*
X90800000Y-56400000D01*
X90800000Y-55600000D01*
%TO.C,R13*%
X104800000Y-67587500D02*
X103200000Y-67587500D01*
X103200000Y-68412500D01*
X104800000Y-68412500D01*
X104800000Y-67587500D01*
%TO.C,C11*%
X168800000Y-54600000D02*
X167200000Y-54600000D01*
X167200000Y-55400000D01*
X168800000Y-55400000D01*
X168800000Y-54600000D01*
%TO.C,R40*%
X110800000Y-55587500D02*
X109200000Y-55587500D01*
X109200000Y-56412500D01*
X110800000Y-56412500D01*
X110800000Y-55587500D01*
%TO.C,R14*%
X108800000Y-63587500D02*
X107200000Y-63587500D01*
X107200000Y-64412500D01*
X108800000Y-64412500D01*
X108800000Y-63587500D01*
%TO.C,U3*%
X82000000Y-16000000D02*
X82000000Y-38000000D01*
X82000000Y-38000000D02*
X118000000Y-38000000D01*
X118000000Y-16000000D02*
X82000000Y-16000000D01*
X118000000Y-38000000D02*
X118000000Y-16000000D01*
%TO.C,C40*%
X106800000Y-55600000D02*
X105200000Y-55600000D01*
X105200000Y-56400000D01*
X106800000Y-56400000D01*
X106800000Y-55600000D01*
%TO.C,C32*%
X102800000Y-55600000D02*
X101200000Y-55600000D01*
X101200000Y-56400000D01*
X102800000Y-56400000D01*
X102800000Y-55600000D01*
%TO.C,J2*%
X26190000Y-54730000D02*
X26190000Y-62350000D01*
X26190000Y-62350000D02*
X31270000Y-62350000D01*
X30000000Y-54730000D02*
X26190000Y-54730000D01*
X31270000Y-56000000D02*
X30000000Y-54730000D01*
X31270000Y-62350000D02*
X31270000Y-56000000D01*
%TO.C,C12*%
X40800000Y-55600000D02*
X39200000Y-55600000D01*
X39200000Y-56400000D01*
X40800000Y-56400000D01*
X40800000Y-55600000D01*
%TO.C,C1*%
X96800000Y-45600000D02*
X95200000Y-45600000D01*
X95200000Y-46400000D01*
X96800000Y-46400000D01*
X96800000Y-45600000D01*
%TO.C,R8*%
X108800000Y-9587500D02*
X107200000Y-9587500D01*
X107200000Y-10412500D01*
X108800000Y-10412500D01*
X108800000Y-9587500D01*
%TO.C,J4*%
X131050000Y-56650000D02*
X131750000Y-56650000D01*
X131050000Y-64250000D02*
X131050000Y-56650000D01*
X131750000Y-56650000D02*
X131750000Y-58250000D01*
X131750000Y-58250000D02*
X136250000Y-58250000D01*
X134500000Y-59375000D02*
X135000000Y-58875000D01*
X135000000Y-58875000D02*
X135500000Y-59375000D01*
X135500000Y-59375000D02*
X134500000Y-59375000D01*
X136250000Y-56650000D02*
X136950000Y-56650000D01*
X136250000Y-58250000D02*
X136250000Y-56650000D01*
X136950000Y-56650000D02*
X136950000Y-64250000D01*
X136950000Y-64250000D02*
X131050000Y-64250000D01*
%TO.C,C50*%
X170800000Y-56600000D02*
X169200000Y-56600000D01*
X169200000Y-57400000D01*
X170800000Y-57400000D01*
X170800000Y-56600000D01*
%TO.C,R12*%
X92800000Y-63587500D02*
X91200000Y-63587500D01*
X91200000Y-64412500D01*
X92800000Y-64412500D01*
X92800000Y-63587500D01*
%TO.C,L1*%
X170800000Y-59587500D02*
X169200000Y-59587500D01*
X169200000Y-60412500D01*
X170800000Y-60412500D01*
X170800000Y-59587500D01*
%TO.C,C10*%
X135800000Y-37600000D02*
X134200000Y-37600000D01*
X134200000Y-38400000D01*
X135800000Y-38400000D01*
X135800000Y-37600000D01*
%TO.C,R30*%
X112800000Y-9587500D02*
X111200000Y-9587500D01*
X111200000Y-10412500D01*
X112800000Y-10412500D01*
X112800000Y-9587500D01*
%TO.C,R7*%
X104800000Y-9587500D02*
X103200000Y-9587500D01*
X103200000Y-10412500D01*
X104800000Y-10412500D01*
X104800000Y-9587500D01*
%TO.C,R5*%
X96800000Y-67587500D02*
X95200000Y-67587500D01*
X95200000Y-68412500D01*
X96800000Y-68412500D01*
X96800000Y-67587500D01*
%TO.C,U1*%
X100800000Y-44950000D02*
X100800000Y-47450000D01*
X99200000Y-47450000D01*
X99200000Y-44550000D01*
X100400000Y-44550000D01*
X100800000Y-44950000D01*
%TO.C,R6*%
X100800000Y-71587500D02*
X99200000Y-71587500D01*
X99200000Y-72412500D01*
X100800000Y-72412500D01*
X100800000Y-71587500D01*
%TO.C,U4*%
X75000000Y-37500000D02*
X75000000Y-54500000D01*
X75000000Y-54500000D02*
X99000000Y-54500000D01*
X99000000Y-37500000D02*
X75000000Y-37500000D01*
X99000000Y-54500000D02*
X99000000Y-37500000D01*
%TO.C,C6*%
X113800000Y-49600000D02*
X112200000Y-49600000D01*
X112200000Y-50400000D01*
X113800000Y-50400000D01*
X113800000Y-49600000D01*
%TO.C,R32*%
X94800000Y-55587500D02*
X93200000Y-55587500D01*
X93200000Y-56412500D01*
X94800000Y-56412500D01*
X94800000Y-55587500D01*
%TO.C,C20*%
X85850000Y-39850000D02*
X85850000Y-48150000D01*
X93150000Y-39850000D02*
X85850000Y-39850000D01*
X93150000Y-48150000D02*
X85850000Y-48150000D01*
X93162278Y-42100000D02*
X93162278Y-42900000D01*
X93562278Y-42500000D02*
X92762278Y-42500000D01*
X94150000Y-40850000D02*
X93150000Y-39850000D01*
X94150000Y-40850000D02*
X94150000Y-47150000D01*
X94150000Y-47150000D02*
X93150000Y-48150000D01*
X94000000Y-44000000D02*
G75*
G02*
X86000000Y-44000000I-4000000J0D01*
G01*
X86000000Y-44000000D02*
G75*
G02*
X94000000Y-44000000I4000000J0D01*
G01*
%TD*%
M02*
