%TF.GenerationSoftware,KiCad,Pcbnew,9.0.7-1.fc42*%
%TF.CreationDate,2026-04-25T18:33:30-07:00*%
%TF.ProjectId,foxhunt-badge,666f7868-756e-4742-9d62-616467652e6b,rev?*%
%TF.SameCoordinates,Original*%
%TF.FileFunction,AssemblyDrawing,Top*%
%FSLAX46Y46*%
G04 Gerber Fmt 4.6, Leading zero omitted, Abs format (unit mm)*
G04 Created by KiCad (PCBNEW 9.0.7-1.fc42) date 2026-04-25 18:33:30*
%MOMM*%
%LPD*%
G01*
G04 APERTURE LIST*
%ADD10C,0.150000*%
%ADD11C,0.075000*%
%ADD12C,0.060000*%
%ADD13C,0.100000*%
G04 APERTURE END LIST*
D10*
X158285714Y-46507200D02*
X158428571Y-46554819D01*
X158428571Y-46554819D02*
X158666666Y-46554819D01*
X158666666Y-46554819D02*
X158761904Y-46507200D01*
X158761904Y-46507200D02*
X158809523Y-46459580D01*
X158809523Y-46459580D02*
X158857142Y-46364342D01*
X158857142Y-46364342D02*
X158857142Y-46269104D01*
X158857142Y-46269104D02*
X158809523Y-46173866D01*
X158809523Y-46173866D02*
X158761904Y-46126247D01*
X158761904Y-46126247D02*
X158666666Y-46078628D01*
X158666666Y-46078628D02*
X158476190Y-46031009D01*
X158476190Y-46031009D02*
X158380952Y-45983390D01*
X158380952Y-45983390D02*
X158333333Y-45935771D01*
X158333333Y-45935771D02*
X158285714Y-45840533D01*
X158285714Y-45840533D02*
X158285714Y-45745295D01*
X158285714Y-45745295D02*
X158333333Y-45650057D01*
X158333333Y-45650057D02*
X158380952Y-45602438D01*
X158380952Y-45602438D02*
X158476190Y-45554819D01*
X158476190Y-45554819D02*
X158714285Y-45554819D01*
X158714285Y-45554819D02*
X158857142Y-45602438D01*
X159238095Y-46507200D02*
X159380952Y-46554819D01*
X159380952Y-46554819D02*
X159619047Y-46554819D01*
X159619047Y-46554819D02*
X159714285Y-46507200D01*
X159714285Y-46507200D02*
X159761904Y-46459580D01*
X159761904Y-46459580D02*
X159809523Y-46364342D01*
X159809523Y-46364342D02*
X159809523Y-46269104D01*
X159809523Y-46269104D02*
X159761904Y-46173866D01*
X159761904Y-46173866D02*
X159714285Y-46126247D01*
X159714285Y-46126247D02*
X159619047Y-46078628D01*
X159619047Y-46078628D02*
X159428571Y-46031009D01*
X159428571Y-46031009D02*
X159333333Y-45983390D01*
X159333333Y-45983390D02*
X159285714Y-45935771D01*
X159285714Y-45935771D02*
X159238095Y-45840533D01*
X159238095Y-45840533D02*
X159238095Y-45745295D01*
X159238095Y-45745295D02*
X159285714Y-45650057D01*
X159285714Y-45650057D02*
X159333333Y-45602438D01*
X159333333Y-45602438D02*
X159428571Y-45554819D01*
X159428571Y-45554819D02*
X159666666Y-45554819D01*
X159666666Y-45554819D02*
X159809523Y-45602438D01*
X160761904Y-46554819D02*
X160190476Y-46554819D01*
X160476190Y-46554819D02*
X160476190Y-45554819D01*
X160476190Y-45554819D02*
X160380952Y-45697676D01*
X160380952Y-45697676D02*
X160285714Y-45792914D01*
X160285714Y-45792914D02*
X160190476Y-45840533D01*
X161619047Y-45888152D02*
X161619047Y-46554819D01*
X161380952Y-45507200D02*
X161142857Y-46221485D01*
X161142857Y-46221485D02*
X161761904Y-46221485D01*
X159261905Y-42454819D02*
X159261905Y-41454819D01*
X159261905Y-41454819D02*
X159500000Y-41454819D01*
X159500000Y-41454819D02*
X159642857Y-41502438D01*
X159642857Y-41502438D02*
X159738095Y-41597676D01*
X159738095Y-41597676D02*
X159785714Y-41692914D01*
X159785714Y-41692914D02*
X159833333Y-41883390D01*
X159833333Y-41883390D02*
X159833333Y-42026247D01*
X159833333Y-42026247D02*
X159785714Y-42216723D01*
X159785714Y-42216723D02*
X159738095Y-42311961D01*
X159738095Y-42311961D02*
X159642857Y-42407200D01*
X159642857Y-42407200D02*
X159500000Y-42454819D01*
X159500000Y-42454819D02*
X159261905Y-42454819D01*
X160785714Y-42454819D02*
X160214286Y-42454819D01*
X160500000Y-42454819D02*
X160500000Y-41454819D01*
X160500000Y-41454819D02*
X160404762Y-41597676D01*
X160404762Y-41597676D02*
X160309524Y-41692914D01*
X160309524Y-41692914D02*
X160214286Y-41740533D01*
X82309524Y-67904819D02*
X82309524Y-66904819D01*
X82309524Y-66904819D02*
X82642857Y-67619104D01*
X82642857Y-67619104D02*
X82976190Y-66904819D01*
X82976190Y-66904819D02*
X82976190Y-67904819D01*
X83595238Y-67904819D02*
X83500000Y-67857200D01*
X83500000Y-67857200D02*
X83452381Y-67809580D01*
X83452381Y-67809580D02*
X83404762Y-67714342D01*
X83404762Y-67714342D02*
X83404762Y-67428628D01*
X83404762Y-67428628D02*
X83452381Y-67333390D01*
X83452381Y-67333390D02*
X83500000Y-67285771D01*
X83500000Y-67285771D02*
X83595238Y-67238152D01*
X83595238Y-67238152D02*
X83738095Y-67238152D01*
X83738095Y-67238152D02*
X83833333Y-67285771D01*
X83833333Y-67285771D02*
X83880952Y-67333390D01*
X83880952Y-67333390D02*
X83928571Y-67428628D01*
X83928571Y-67428628D02*
X83928571Y-67714342D01*
X83928571Y-67714342D02*
X83880952Y-67809580D01*
X83880952Y-67809580D02*
X83833333Y-67857200D01*
X83833333Y-67857200D02*
X83738095Y-67904819D01*
X83738095Y-67904819D02*
X83595238Y-67904819D01*
X84785714Y-67238152D02*
X84785714Y-67904819D01*
X84357143Y-67238152D02*
X84357143Y-67761961D01*
X84357143Y-67761961D02*
X84404762Y-67857200D01*
X84404762Y-67857200D02*
X84500000Y-67904819D01*
X84500000Y-67904819D02*
X84642857Y-67904819D01*
X84642857Y-67904819D02*
X84738095Y-67857200D01*
X84738095Y-67857200D02*
X84785714Y-67809580D01*
X85261905Y-67238152D02*
X85261905Y-67904819D01*
X85261905Y-67333390D02*
X85309524Y-67285771D01*
X85309524Y-67285771D02*
X85404762Y-67238152D01*
X85404762Y-67238152D02*
X85547619Y-67238152D01*
X85547619Y-67238152D02*
X85642857Y-67285771D01*
X85642857Y-67285771D02*
X85690476Y-67381009D01*
X85690476Y-67381009D02*
X85690476Y-67904819D01*
X86023810Y-67238152D02*
X86404762Y-67238152D01*
X86166667Y-66904819D02*
X86166667Y-67761961D01*
X86166667Y-67761961D02*
X86214286Y-67857200D01*
X86214286Y-67857200D02*
X86309524Y-67904819D01*
X86309524Y-67904819D02*
X86404762Y-67904819D01*
X86738096Y-67904819D02*
X86738096Y-67238152D01*
X86738096Y-66904819D02*
X86690477Y-66952438D01*
X86690477Y-66952438D02*
X86738096Y-67000057D01*
X86738096Y-67000057D02*
X86785715Y-66952438D01*
X86785715Y-66952438D02*
X86738096Y-66904819D01*
X86738096Y-66904819D02*
X86738096Y-67000057D01*
X87214286Y-67238152D02*
X87214286Y-67904819D01*
X87214286Y-67333390D02*
X87261905Y-67285771D01*
X87261905Y-67285771D02*
X87357143Y-67238152D01*
X87357143Y-67238152D02*
X87500000Y-67238152D01*
X87500000Y-67238152D02*
X87595238Y-67285771D01*
X87595238Y-67285771D02*
X87642857Y-67381009D01*
X87642857Y-67381009D02*
X87642857Y-67904819D01*
X88547619Y-67238152D02*
X88547619Y-68047676D01*
X88547619Y-68047676D02*
X88500000Y-68142914D01*
X88500000Y-68142914D02*
X88452381Y-68190533D01*
X88452381Y-68190533D02*
X88357143Y-68238152D01*
X88357143Y-68238152D02*
X88214286Y-68238152D01*
X88214286Y-68238152D02*
X88119048Y-68190533D01*
X88547619Y-67857200D02*
X88452381Y-67904819D01*
X88452381Y-67904819D02*
X88261905Y-67904819D01*
X88261905Y-67904819D02*
X88166667Y-67857200D01*
X88166667Y-67857200D02*
X88119048Y-67809580D01*
X88119048Y-67809580D02*
X88071429Y-67714342D01*
X88071429Y-67714342D02*
X88071429Y-67428628D01*
X88071429Y-67428628D02*
X88119048Y-67333390D01*
X88119048Y-67333390D02*
X88166667Y-67285771D01*
X88166667Y-67285771D02*
X88261905Y-67238152D01*
X88261905Y-67238152D02*
X88452381Y-67238152D01*
X88452381Y-67238152D02*
X88547619Y-67285771D01*
X89023810Y-67904819D02*
X89023810Y-66904819D01*
X89023810Y-67381009D02*
X89595238Y-67381009D01*
X89595238Y-67904819D02*
X89595238Y-66904819D01*
X90214286Y-67904819D02*
X90119048Y-67857200D01*
X90119048Y-67857200D02*
X90071429Y-67809580D01*
X90071429Y-67809580D02*
X90023810Y-67714342D01*
X90023810Y-67714342D02*
X90023810Y-67428628D01*
X90023810Y-67428628D02*
X90071429Y-67333390D01*
X90071429Y-67333390D02*
X90119048Y-67285771D01*
X90119048Y-67285771D02*
X90214286Y-67238152D01*
X90214286Y-67238152D02*
X90357143Y-67238152D01*
X90357143Y-67238152D02*
X90452381Y-67285771D01*
X90452381Y-67285771D02*
X90500000Y-67333390D01*
X90500000Y-67333390D02*
X90547619Y-67428628D01*
X90547619Y-67428628D02*
X90547619Y-67714342D01*
X90547619Y-67714342D02*
X90500000Y-67809580D01*
X90500000Y-67809580D02*
X90452381Y-67857200D01*
X90452381Y-67857200D02*
X90357143Y-67904819D01*
X90357143Y-67904819D02*
X90214286Y-67904819D01*
X91119048Y-67904819D02*
X91023810Y-67857200D01*
X91023810Y-67857200D02*
X90976191Y-67761961D01*
X90976191Y-67761961D02*
X90976191Y-66904819D01*
X91880953Y-67857200D02*
X91785715Y-67904819D01*
X91785715Y-67904819D02*
X91595239Y-67904819D01*
X91595239Y-67904819D02*
X91500001Y-67857200D01*
X91500001Y-67857200D02*
X91452382Y-67761961D01*
X91452382Y-67761961D02*
X91452382Y-67381009D01*
X91452382Y-67381009D02*
X91500001Y-67285771D01*
X91500001Y-67285771D02*
X91595239Y-67238152D01*
X91595239Y-67238152D02*
X91785715Y-67238152D01*
X91785715Y-67238152D02*
X91880953Y-67285771D01*
X91880953Y-67285771D02*
X91928572Y-67381009D01*
X91928572Y-67381009D02*
X91928572Y-67476247D01*
X91928572Y-67476247D02*
X91452382Y-67571485D01*
X92119049Y-68000057D02*
X92880953Y-68000057D01*
X93071430Y-67000057D02*
X93119049Y-66952438D01*
X93119049Y-66952438D02*
X93214287Y-66904819D01*
X93214287Y-66904819D02*
X93452382Y-66904819D01*
X93452382Y-66904819D02*
X93547620Y-66952438D01*
X93547620Y-66952438D02*
X93595239Y-67000057D01*
X93595239Y-67000057D02*
X93642858Y-67095295D01*
X93642858Y-67095295D02*
X93642858Y-67190533D01*
X93642858Y-67190533D02*
X93595239Y-67333390D01*
X93595239Y-67333390D02*
X93023811Y-67904819D01*
X93023811Y-67904819D02*
X93642858Y-67904819D01*
X94071430Y-67809580D02*
X94119049Y-67857200D01*
X94119049Y-67857200D02*
X94071430Y-67904819D01*
X94071430Y-67904819D02*
X94023811Y-67857200D01*
X94023811Y-67857200D02*
X94071430Y-67809580D01*
X94071430Y-67809580D02*
X94071430Y-67904819D01*
X95023810Y-66904819D02*
X94547620Y-66904819D01*
X94547620Y-66904819D02*
X94500001Y-67381009D01*
X94500001Y-67381009D02*
X94547620Y-67333390D01*
X94547620Y-67333390D02*
X94642858Y-67285771D01*
X94642858Y-67285771D02*
X94880953Y-67285771D01*
X94880953Y-67285771D02*
X94976191Y-67333390D01*
X94976191Y-67333390D02*
X95023810Y-67381009D01*
X95023810Y-67381009D02*
X95071429Y-67476247D01*
X95071429Y-67476247D02*
X95071429Y-67714342D01*
X95071429Y-67714342D02*
X95023810Y-67809580D01*
X95023810Y-67809580D02*
X94976191Y-67857200D01*
X94976191Y-67857200D02*
X94880953Y-67904819D01*
X94880953Y-67904819D02*
X94642858Y-67904819D01*
X94642858Y-67904819D02*
X94547620Y-67857200D01*
X94547620Y-67857200D02*
X94500001Y-67809580D01*
X95500001Y-67904819D02*
X95500001Y-67238152D01*
X95500001Y-67333390D02*
X95547620Y-67285771D01*
X95547620Y-67285771D02*
X95642858Y-67238152D01*
X95642858Y-67238152D02*
X95785715Y-67238152D01*
X95785715Y-67238152D02*
X95880953Y-67285771D01*
X95880953Y-67285771D02*
X95928572Y-67381009D01*
X95928572Y-67381009D02*
X95928572Y-67904819D01*
X95928572Y-67381009D02*
X95976191Y-67285771D01*
X95976191Y-67285771D02*
X96071429Y-67238152D01*
X96071429Y-67238152D02*
X96214286Y-67238152D01*
X96214286Y-67238152D02*
X96309525Y-67285771D01*
X96309525Y-67285771D02*
X96357144Y-67381009D01*
X96357144Y-67381009D02*
X96357144Y-67904819D01*
X96833334Y-67904819D02*
X96833334Y-67238152D01*
X96833334Y-67333390D02*
X96880953Y-67285771D01*
X96880953Y-67285771D02*
X96976191Y-67238152D01*
X96976191Y-67238152D02*
X97119048Y-67238152D01*
X97119048Y-67238152D02*
X97214286Y-67285771D01*
X97214286Y-67285771D02*
X97261905Y-67381009D01*
X97261905Y-67381009D02*
X97261905Y-67904819D01*
X97261905Y-67381009D02*
X97309524Y-67285771D01*
X97309524Y-67285771D02*
X97404762Y-67238152D01*
X97404762Y-67238152D02*
X97547619Y-67238152D01*
X97547619Y-67238152D02*
X97642858Y-67285771D01*
X97642858Y-67285771D02*
X97690477Y-67381009D01*
X97690477Y-67381009D02*
X97690477Y-67904819D01*
X89238095Y-64454819D02*
X89238095Y-63454819D01*
X89238095Y-63931009D02*
X89809523Y-63931009D01*
X89809523Y-64454819D02*
X89809523Y-63454819D01*
X90190476Y-63454819D02*
X90809523Y-63454819D01*
X90809523Y-63454819D02*
X90476190Y-63835771D01*
X90476190Y-63835771D02*
X90619047Y-63835771D01*
X90619047Y-63835771D02*
X90714285Y-63883390D01*
X90714285Y-63883390D02*
X90761904Y-63931009D01*
X90761904Y-63931009D02*
X90809523Y-64026247D01*
X90809523Y-64026247D02*
X90809523Y-64264342D01*
X90809523Y-64264342D02*
X90761904Y-64359580D01*
X90761904Y-64359580D02*
X90714285Y-64407200D01*
X90714285Y-64407200D02*
X90619047Y-64454819D01*
X90619047Y-64454819D02*
X90333333Y-64454819D01*
X90333333Y-64454819D02*
X90238095Y-64407200D01*
X90238095Y-64407200D02*
X90190476Y-64359580D01*
X129166667Y-36654819D02*
X129404762Y-37654819D01*
X129404762Y-37654819D02*
X129595238Y-36940533D01*
X129595238Y-36940533D02*
X129785714Y-37654819D01*
X129785714Y-37654819D02*
X130023810Y-36654819D01*
X130357143Y-37607200D02*
X130500000Y-37654819D01*
X130500000Y-37654819D02*
X130738095Y-37654819D01*
X130738095Y-37654819D02*
X130833333Y-37607200D01*
X130833333Y-37607200D02*
X130880952Y-37559580D01*
X130880952Y-37559580D02*
X130928571Y-37464342D01*
X130928571Y-37464342D02*
X130928571Y-37369104D01*
X130928571Y-37369104D02*
X130880952Y-37273866D01*
X130880952Y-37273866D02*
X130833333Y-37226247D01*
X130833333Y-37226247D02*
X130738095Y-37178628D01*
X130738095Y-37178628D02*
X130547619Y-37131009D01*
X130547619Y-37131009D02*
X130452381Y-37083390D01*
X130452381Y-37083390D02*
X130404762Y-37035771D01*
X130404762Y-37035771D02*
X130357143Y-36940533D01*
X130357143Y-36940533D02*
X130357143Y-36845295D01*
X130357143Y-36845295D02*
X130404762Y-36750057D01*
X130404762Y-36750057D02*
X130452381Y-36702438D01*
X130452381Y-36702438D02*
X130547619Y-36654819D01*
X130547619Y-36654819D02*
X130785714Y-36654819D01*
X130785714Y-36654819D02*
X130928571Y-36702438D01*
X131309524Y-36750057D02*
X131357143Y-36702438D01*
X131357143Y-36702438D02*
X131452381Y-36654819D01*
X131452381Y-36654819D02*
X131690476Y-36654819D01*
X131690476Y-36654819D02*
X131785714Y-36702438D01*
X131785714Y-36702438D02*
X131833333Y-36750057D01*
X131833333Y-36750057D02*
X131880952Y-36845295D01*
X131880952Y-36845295D02*
X131880952Y-36940533D01*
X131880952Y-36940533D02*
X131833333Y-37083390D01*
X131833333Y-37083390D02*
X131261905Y-37654819D01*
X131261905Y-37654819D02*
X131880952Y-37654819D01*
X132452381Y-37083390D02*
X132357143Y-37035771D01*
X132357143Y-37035771D02*
X132309524Y-36988152D01*
X132309524Y-36988152D02*
X132261905Y-36892914D01*
X132261905Y-36892914D02*
X132261905Y-36845295D01*
X132261905Y-36845295D02*
X132309524Y-36750057D01*
X132309524Y-36750057D02*
X132357143Y-36702438D01*
X132357143Y-36702438D02*
X132452381Y-36654819D01*
X132452381Y-36654819D02*
X132642857Y-36654819D01*
X132642857Y-36654819D02*
X132738095Y-36702438D01*
X132738095Y-36702438D02*
X132785714Y-36750057D01*
X132785714Y-36750057D02*
X132833333Y-36845295D01*
X132833333Y-36845295D02*
X132833333Y-36892914D01*
X132833333Y-36892914D02*
X132785714Y-36988152D01*
X132785714Y-36988152D02*
X132738095Y-37035771D01*
X132738095Y-37035771D02*
X132642857Y-37083390D01*
X132642857Y-37083390D02*
X132452381Y-37083390D01*
X132452381Y-37083390D02*
X132357143Y-37131009D01*
X132357143Y-37131009D02*
X132309524Y-37178628D01*
X132309524Y-37178628D02*
X132261905Y-37273866D01*
X132261905Y-37273866D02*
X132261905Y-37464342D01*
X132261905Y-37464342D02*
X132309524Y-37559580D01*
X132309524Y-37559580D02*
X132357143Y-37607200D01*
X132357143Y-37607200D02*
X132452381Y-37654819D01*
X132452381Y-37654819D02*
X132642857Y-37654819D01*
X132642857Y-37654819D02*
X132738095Y-37607200D01*
X132738095Y-37607200D02*
X132785714Y-37559580D01*
X132785714Y-37559580D02*
X132833333Y-37464342D01*
X132833333Y-37464342D02*
X132833333Y-37273866D01*
X132833333Y-37273866D02*
X132785714Y-37178628D01*
X132785714Y-37178628D02*
X132738095Y-37131009D01*
X132738095Y-37131009D02*
X132642857Y-37083390D01*
X133785714Y-37654819D02*
X133214286Y-37654819D01*
X133500000Y-37654819D02*
X133500000Y-36654819D01*
X133500000Y-36654819D02*
X133404762Y-36797676D01*
X133404762Y-36797676D02*
X133309524Y-36892914D01*
X133309524Y-36892914D02*
X133214286Y-36940533D01*
X134166667Y-36750057D02*
X134214286Y-36702438D01*
X134214286Y-36702438D02*
X134309524Y-36654819D01*
X134309524Y-36654819D02*
X134547619Y-36654819D01*
X134547619Y-36654819D02*
X134642857Y-36702438D01*
X134642857Y-36702438D02*
X134690476Y-36750057D01*
X134690476Y-36750057D02*
X134738095Y-36845295D01*
X134738095Y-36845295D02*
X134738095Y-36940533D01*
X134738095Y-36940533D02*
X134690476Y-37083390D01*
X134690476Y-37083390D02*
X134119048Y-37654819D01*
X134119048Y-37654819D02*
X134738095Y-37654819D01*
X135500000Y-37131009D02*
X135642857Y-37178628D01*
X135642857Y-37178628D02*
X135690476Y-37226247D01*
X135690476Y-37226247D02*
X135738095Y-37321485D01*
X135738095Y-37321485D02*
X135738095Y-37464342D01*
X135738095Y-37464342D02*
X135690476Y-37559580D01*
X135690476Y-37559580D02*
X135642857Y-37607200D01*
X135642857Y-37607200D02*
X135547619Y-37654819D01*
X135547619Y-37654819D02*
X135166667Y-37654819D01*
X135166667Y-37654819D02*
X135166667Y-36654819D01*
X135166667Y-36654819D02*
X135500000Y-36654819D01*
X135500000Y-36654819D02*
X135595238Y-36702438D01*
X135595238Y-36702438D02*
X135642857Y-36750057D01*
X135642857Y-36750057D02*
X135690476Y-36845295D01*
X135690476Y-36845295D02*
X135690476Y-36940533D01*
X135690476Y-36940533D02*
X135642857Y-37035771D01*
X135642857Y-37035771D02*
X135595238Y-37083390D01*
X135595238Y-37083390D02*
X135500000Y-37131009D01*
X135500000Y-37131009D02*
X135166667Y-37131009D01*
X136166667Y-37273866D02*
X136928572Y-37273866D01*
X137357143Y-36750057D02*
X137404762Y-36702438D01*
X137404762Y-36702438D02*
X137500000Y-36654819D01*
X137500000Y-36654819D02*
X137738095Y-36654819D01*
X137738095Y-36654819D02*
X137833333Y-36702438D01*
X137833333Y-36702438D02*
X137880952Y-36750057D01*
X137880952Y-36750057D02*
X137928571Y-36845295D01*
X137928571Y-36845295D02*
X137928571Y-36940533D01*
X137928571Y-36940533D02*
X137880952Y-37083390D01*
X137880952Y-37083390D02*
X137309524Y-37654819D01*
X137309524Y-37654819D02*
X137928571Y-37654819D01*
X138547619Y-36654819D02*
X138642857Y-36654819D01*
X138642857Y-36654819D02*
X138738095Y-36702438D01*
X138738095Y-36702438D02*
X138785714Y-36750057D01*
X138785714Y-36750057D02*
X138833333Y-36845295D01*
X138833333Y-36845295D02*
X138880952Y-37035771D01*
X138880952Y-37035771D02*
X138880952Y-37273866D01*
X138880952Y-37273866D02*
X138833333Y-37464342D01*
X138833333Y-37464342D02*
X138785714Y-37559580D01*
X138785714Y-37559580D02*
X138738095Y-37607200D01*
X138738095Y-37607200D02*
X138642857Y-37654819D01*
X138642857Y-37654819D02*
X138547619Y-37654819D01*
X138547619Y-37654819D02*
X138452381Y-37607200D01*
X138452381Y-37607200D02*
X138404762Y-37559580D01*
X138404762Y-37559580D02*
X138357143Y-37464342D01*
X138357143Y-37464342D02*
X138309524Y-37273866D01*
X138309524Y-37273866D02*
X138309524Y-37035771D01*
X138309524Y-37035771D02*
X138357143Y-36845295D01*
X138357143Y-36845295D02*
X138404762Y-36750057D01*
X138404762Y-36750057D02*
X138452381Y-36702438D01*
X138452381Y-36702438D02*
X138547619Y-36654819D01*
X139261905Y-36750057D02*
X139309524Y-36702438D01*
X139309524Y-36702438D02*
X139404762Y-36654819D01*
X139404762Y-36654819D02*
X139642857Y-36654819D01*
X139642857Y-36654819D02*
X139738095Y-36702438D01*
X139738095Y-36702438D02*
X139785714Y-36750057D01*
X139785714Y-36750057D02*
X139833333Y-36845295D01*
X139833333Y-36845295D02*
X139833333Y-36940533D01*
X139833333Y-36940533D02*
X139785714Y-37083390D01*
X139785714Y-37083390D02*
X139214286Y-37654819D01*
X139214286Y-37654819D02*
X139833333Y-37654819D01*
X140452381Y-36654819D02*
X140547619Y-36654819D01*
X140547619Y-36654819D02*
X140642857Y-36702438D01*
X140642857Y-36702438D02*
X140690476Y-36750057D01*
X140690476Y-36750057D02*
X140738095Y-36845295D01*
X140738095Y-36845295D02*
X140785714Y-37035771D01*
X140785714Y-37035771D02*
X140785714Y-37273866D01*
X140785714Y-37273866D02*
X140738095Y-37464342D01*
X140738095Y-37464342D02*
X140690476Y-37559580D01*
X140690476Y-37559580D02*
X140642857Y-37607200D01*
X140642857Y-37607200D02*
X140547619Y-37654819D01*
X140547619Y-37654819D02*
X140452381Y-37654819D01*
X140452381Y-37654819D02*
X140357143Y-37607200D01*
X140357143Y-37607200D02*
X140309524Y-37559580D01*
X140309524Y-37559580D02*
X140261905Y-37464342D01*
X140261905Y-37464342D02*
X140214286Y-37273866D01*
X140214286Y-37273866D02*
X140214286Y-37035771D01*
X140214286Y-37035771D02*
X140261905Y-36845295D01*
X140261905Y-36845295D02*
X140309524Y-36750057D01*
X140309524Y-36750057D02*
X140357143Y-36702438D01*
X140357143Y-36702438D02*
X140452381Y-36654819D01*
D11*
X134630952Y-35227409D02*
X134630952Y-34727409D01*
X134630952Y-34727409D02*
X134750000Y-34727409D01*
X134750000Y-34727409D02*
X134821428Y-34751219D01*
X134821428Y-34751219D02*
X134869047Y-34798838D01*
X134869047Y-34798838D02*
X134892857Y-34846457D01*
X134892857Y-34846457D02*
X134916666Y-34941695D01*
X134916666Y-34941695D02*
X134916666Y-35013123D01*
X134916666Y-35013123D02*
X134892857Y-35108361D01*
X134892857Y-35108361D02*
X134869047Y-35155980D01*
X134869047Y-35155980D02*
X134821428Y-35203600D01*
X134821428Y-35203600D02*
X134750000Y-35227409D01*
X134750000Y-35227409D02*
X134630952Y-35227409D01*
X135369047Y-34727409D02*
X135130952Y-34727409D01*
X135130952Y-34727409D02*
X135107143Y-34965504D01*
X135107143Y-34965504D02*
X135130952Y-34941695D01*
X135130952Y-34941695D02*
X135178571Y-34917885D01*
X135178571Y-34917885D02*
X135297619Y-34917885D01*
X135297619Y-34917885D02*
X135345238Y-34941695D01*
X135345238Y-34941695D02*
X135369047Y-34965504D01*
X135369047Y-34965504D02*
X135392857Y-35013123D01*
X135392857Y-35013123D02*
X135392857Y-35132171D01*
X135392857Y-35132171D02*
X135369047Y-35179790D01*
X135369047Y-35179790D02*
X135345238Y-35203600D01*
X135345238Y-35203600D02*
X135297619Y-35227409D01*
X135297619Y-35227409D02*
X135178571Y-35227409D01*
X135178571Y-35227409D02*
X135130952Y-35203600D01*
X135130952Y-35203600D02*
X135107143Y-35179790D01*
D10*
X159119047Y-50884819D02*
X158642857Y-50884819D01*
X158642857Y-50884819D02*
X158595238Y-51361009D01*
X158595238Y-51361009D02*
X158642857Y-51313390D01*
X158642857Y-51313390D02*
X158738095Y-51265771D01*
X158738095Y-51265771D02*
X158976190Y-51265771D01*
X158976190Y-51265771D02*
X159071428Y-51313390D01*
X159071428Y-51313390D02*
X159119047Y-51361009D01*
X159119047Y-51361009D02*
X159166666Y-51456247D01*
X159166666Y-51456247D02*
X159166666Y-51694342D01*
X159166666Y-51694342D02*
X159119047Y-51789580D01*
X159119047Y-51789580D02*
X159071428Y-51837200D01*
X159071428Y-51837200D02*
X158976190Y-51884819D01*
X158976190Y-51884819D02*
X158738095Y-51884819D01*
X158738095Y-51884819D02*
X158642857Y-51837200D01*
X158642857Y-51837200D02*
X158595238Y-51789580D01*
X159595238Y-51789580D02*
X159642857Y-51837200D01*
X159642857Y-51837200D02*
X159595238Y-51884819D01*
X159595238Y-51884819D02*
X159547619Y-51837200D01*
X159547619Y-51837200D02*
X159595238Y-51789580D01*
X159595238Y-51789580D02*
X159595238Y-51884819D01*
X160595237Y-51884819D02*
X160023809Y-51884819D01*
X160309523Y-51884819D02*
X160309523Y-50884819D01*
X160309523Y-50884819D02*
X160214285Y-51027676D01*
X160214285Y-51027676D02*
X160119047Y-51122914D01*
X160119047Y-51122914D02*
X160023809Y-51170533D01*
X161023809Y-51884819D02*
X161023809Y-50884819D01*
X161119047Y-51503866D02*
X161404761Y-51884819D01*
X161404761Y-51218152D02*
X161023809Y-51599104D01*
D12*
X159933333Y-50181927D02*
X159800000Y-49991451D01*
X159704762Y-50181927D02*
X159704762Y-49781927D01*
X159704762Y-49781927D02*
X159857143Y-49781927D01*
X159857143Y-49781927D02*
X159895238Y-49800975D01*
X159895238Y-49800975D02*
X159914285Y-49820022D01*
X159914285Y-49820022D02*
X159933333Y-49858118D01*
X159933333Y-49858118D02*
X159933333Y-49915260D01*
X159933333Y-49915260D02*
X159914285Y-49953356D01*
X159914285Y-49953356D02*
X159895238Y-49972403D01*
X159895238Y-49972403D02*
X159857143Y-49991451D01*
X159857143Y-49991451D02*
X159704762Y-49991451D01*
X160085714Y-49820022D02*
X160104762Y-49800975D01*
X160104762Y-49800975D02*
X160142857Y-49781927D01*
X160142857Y-49781927D02*
X160238095Y-49781927D01*
X160238095Y-49781927D02*
X160276190Y-49800975D01*
X160276190Y-49800975D02*
X160295238Y-49820022D01*
X160295238Y-49820022D02*
X160314285Y-49858118D01*
X160314285Y-49858118D02*
X160314285Y-49896213D01*
X160314285Y-49896213D02*
X160295238Y-49953356D01*
X160295238Y-49953356D02*
X160066666Y-50181927D01*
X160066666Y-50181927D02*
X160314285Y-50181927D01*
D10*
X98547618Y-13204819D02*
X98214285Y-12728628D01*
X97976190Y-13204819D02*
X97976190Y-12204819D01*
X97976190Y-12204819D02*
X98357142Y-12204819D01*
X98357142Y-12204819D02*
X98452380Y-12252438D01*
X98452380Y-12252438D02*
X98499999Y-12300057D01*
X98499999Y-12300057D02*
X98547618Y-12395295D01*
X98547618Y-12395295D02*
X98547618Y-12538152D01*
X98547618Y-12538152D02*
X98499999Y-12633390D01*
X98499999Y-12633390D02*
X98452380Y-12681009D01*
X98452380Y-12681009D02*
X98357142Y-12728628D01*
X98357142Y-12728628D02*
X97976190Y-12728628D01*
X98976190Y-12681009D02*
X99309523Y-12681009D01*
X99452380Y-13204819D02*
X98976190Y-13204819D01*
X98976190Y-13204819D02*
X98976190Y-12204819D01*
X98976190Y-12204819D02*
X99452380Y-12204819D01*
X99833333Y-13157200D02*
X99976190Y-13204819D01*
X99976190Y-13204819D02*
X100214285Y-13204819D01*
X100214285Y-13204819D02*
X100309523Y-13157200D01*
X100309523Y-13157200D02*
X100357142Y-13109580D01*
X100357142Y-13109580D02*
X100404761Y-13014342D01*
X100404761Y-13014342D02*
X100404761Y-12919104D01*
X100404761Y-12919104D02*
X100357142Y-12823866D01*
X100357142Y-12823866D02*
X100309523Y-12776247D01*
X100309523Y-12776247D02*
X100214285Y-12728628D01*
X100214285Y-12728628D02*
X100023809Y-12681009D01*
X100023809Y-12681009D02*
X99928571Y-12633390D01*
X99928571Y-12633390D02*
X99880952Y-12585771D01*
X99880952Y-12585771D02*
X99833333Y-12490533D01*
X99833333Y-12490533D02*
X99833333Y-12395295D01*
X99833333Y-12395295D02*
X99880952Y-12300057D01*
X99880952Y-12300057D02*
X99928571Y-12252438D01*
X99928571Y-12252438D02*
X100023809Y-12204819D01*
X100023809Y-12204819D02*
X100261904Y-12204819D01*
X100261904Y-12204819D02*
X100404761Y-12252438D01*
X100833333Y-12681009D02*
X101166666Y-12681009D01*
X101309523Y-13204819D02*
X100833333Y-13204819D01*
X100833333Y-13204819D02*
X100833333Y-12204819D01*
X100833333Y-12204819D02*
X101309523Y-12204819D01*
X101595238Y-12204819D02*
X102166666Y-12204819D01*
X101880952Y-13204819D02*
X101880952Y-12204819D01*
X99238095Y-5657200D02*
X99380952Y-5704819D01*
X99380952Y-5704819D02*
X99619047Y-5704819D01*
X99619047Y-5704819D02*
X99714285Y-5657200D01*
X99714285Y-5657200D02*
X99761904Y-5609580D01*
X99761904Y-5609580D02*
X99809523Y-5514342D01*
X99809523Y-5514342D02*
X99809523Y-5419104D01*
X99809523Y-5419104D02*
X99761904Y-5323866D01*
X99761904Y-5323866D02*
X99714285Y-5276247D01*
X99714285Y-5276247D02*
X99619047Y-5228628D01*
X99619047Y-5228628D02*
X99428571Y-5181009D01*
X99428571Y-5181009D02*
X99333333Y-5133390D01*
X99333333Y-5133390D02*
X99285714Y-5085771D01*
X99285714Y-5085771D02*
X99238095Y-4990533D01*
X99238095Y-4990533D02*
X99238095Y-4895295D01*
X99238095Y-4895295D02*
X99285714Y-4800057D01*
X99285714Y-4800057D02*
X99333333Y-4752438D01*
X99333333Y-4752438D02*
X99428571Y-4704819D01*
X99428571Y-4704819D02*
X99666666Y-4704819D01*
X99666666Y-4704819D02*
X99809523Y-4752438D01*
X100761904Y-5704819D02*
X100190476Y-5704819D01*
X100476190Y-5704819D02*
X100476190Y-4704819D01*
X100476190Y-4704819D02*
X100380952Y-4847676D01*
X100380952Y-4847676D02*
X100285714Y-4942914D01*
X100285714Y-4942914D02*
X100190476Y-4990533D01*
X27309524Y-58904819D02*
X27309524Y-57904819D01*
X27309524Y-57904819D02*
X27642857Y-58619104D01*
X27642857Y-58619104D02*
X27976190Y-57904819D01*
X27976190Y-57904819D02*
X27976190Y-58904819D01*
X28595238Y-58904819D02*
X28500000Y-58857200D01*
X28500000Y-58857200D02*
X28452381Y-58809580D01*
X28452381Y-58809580D02*
X28404762Y-58714342D01*
X28404762Y-58714342D02*
X28404762Y-58428628D01*
X28404762Y-58428628D02*
X28452381Y-58333390D01*
X28452381Y-58333390D02*
X28500000Y-58285771D01*
X28500000Y-58285771D02*
X28595238Y-58238152D01*
X28595238Y-58238152D02*
X28738095Y-58238152D01*
X28738095Y-58238152D02*
X28833333Y-58285771D01*
X28833333Y-58285771D02*
X28880952Y-58333390D01*
X28880952Y-58333390D02*
X28928571Y-58428628D01*
X28928571Y-58428628D02*
X28928571Y-58714342D01*
X28928571Y-58714342D02*
X28880952Y-58809580D01*
X28880952Y-58809580D02*
X28833333Y-58857200D01*
X28833333Y-58857200D02*
X28738095Y-58904819D01*
X28738095Y-58904819D02*
X28595238Y-58904819D01*
X29785714Y-58238152D02*
X29785714Y-58904819D01*
X29357143Y-58238152D02*
X29357143Y-58761961D01*
X29357143Y-58761961D02*
X29404762Y-58857200D01*
X29404762Y-58857200D02*
X29500000Y-58904819D01*
X29500000Y-58904819D02*
X29642857Y-58904819D01*
X29642857Y-58904819D02*
X29738095Y-58857200D01*
X29738095Y-58857200D02*
X29785714Y-58809580D01*
X30261905Y-58238152D02*
X30261905Y-58904819D01*
X30261905Y-58333390D02*
X30309524Y-58285771D01*
X30309524Y-58285771D02*
X30404762Y-58238152D01*
X30404762Y-58238152D02*
X30547619Y-58238152D01*
X30547619Y-58238152D02*
X30642857Y-58285771D01*
X30642857Y-58285771D02*
X30690476Y-58381009D01*
X30690476Y-58381009D02*
X30690476Y-58904819D01*
X31023810Y-58238152D02*
X31404762Y-58238152D01*
X31166667Y-57904819D02*
X31166667Y-58761961D01*
X31166667Y-58761961D02*
X31214286Y-58857200D01*
X31214286Y-58857200D02*
X31309524Y-58904819D01*
X31309524Y-58904819D02*
X31404762Y-58904819D01*
X31738096Y-58904819D02*
X31738096Y-58238152D01*
X31738096Y-57904819D02*
X31690477Y-57952438D01*
X31690477Y-57952438D02*
X31738096Y-58000057D01*
X31738096Y-58000057D02*
X31785715Y-57952438D01*
X31785715Y-57952438D02*
X31738096Y-57904819D01*
X31738096Y-57904819D02*
X31738096Y-58000057D01*
X32214286Y-58238152D02*
X32214286Y-58904819D01*
X32214286Y-58333390D02*
X32261905Y-58285771D01*
X32261905Y-58285771D02*
X32357143Y-58238152D01*
X32357143Y-58238152D02*
X32500000Y-58238152D01*
X32500000Y-58238152D02*
X32595238Y-58285771D01*
X32595238Y-58285771D02*
X32642857Y-58381009D01*
X32642857Y-58381009D02*
X32642857Y-58904819D01*
X33547619Y-58238152D02*
X33547619Y-59047676D01*
X33547619Y-59047676D02*
X33500000Y-59142914D01*
X33500000Y-59142914D02*
X33452381Y-59190533D01*
X33452381Y-59190533D02*
X33357143Y-59238152D01*
X33357143Y-59238152D02*
X33214286Y-59238152D01*
X33214286Y-59238152D02*
X33119048Y-59190533D01*
X33547619Y-58857200D02*
X33452381Y-58904819D01*
X33452381Y-58904819D02*
X33261905Y-58904819D01*
X33261905Y-58904819D02*
X33166667Y-58857200D01*
X33166667Y-58857200D02*
X33119048Y-58809580D01*
X33119048Y-58809580D02*
X33071429Y-58714342D01*
X33071429Y-58714342D02*
X33071429Y-58428628D01*
X33071429Y-58428628D02*
X33119048Y-58333390D01*
X33119048Y-58333390D02*
X33166667Y-58285771D01*
X33166667Y-58285771D02*
X33261905Y-58238152D01*
X33261905Y-58238152D02*
X33452381Y-58238152D01*
X33452381Y-58238152D02*
X33547619Y-58285771D01*
X34023810Y-58904819D02*
X34023810Y-57904819D01*
X34023810Y-58381009D02*
X34595238Y-58381009D01*
X34595238Y-58904819D02*
X34595238Y-57904819D01*
X35214286Y-58904819D02*
X35119048Y-58857200D01*
X35119048Y-58857200D02*
X35071429Y-58809580D01*
X35071429Y-58809580D02*
X35023810Y-58714342D01*
X35023810Y-58714342D02*
X35023810Y-58428628D01*
X35023810Y-58428628D02*
X35071429Y-58333390D01*
X35071429Y-58333390D02*
X35119048Y-58285771D01*
X35119048Y-58285771D02*
X35214286Y-58238152D01*
X35214286Y-58238152D02*
X35357143Y-58238152D01*
X35357143Y-58238152D02*
X35452381Y-58285771D01*
X35452381Y-58285771D02*
X35500000Y-58333390D01*
X35500000Y-58333390D02*
X35547619Y-58428628D01*
X35547619Y-58428628D02*
X35547619Y-58714342D01*
X35547619Y-58714342D02*
X35500000Y-58809580D01*
X35500000Y-58809580D02*
X35452381Y-58857200D01*
X35452381Y-58857200D02*
X35357143Y-58904819D01*
X35357143Y-58904819D02*
X35214286Y-58904819D01*
X36119048Y-58904819D02*
X36023810Y-58857200D01*
X36023810Y-58857200D02*
X35976191Y-58761961D01*
X35976191Y-58761961D02*
X35976191Y-57904819D01*
X36880953Y-58857200D02*
X36785715Y-58904819D01*
X36785715Y-58904819D02*
X36595239Y-58904819D01*
X36595239Y-58904819D02*
X36500001Y-58857200D01*
X36500001Y-58857200D02*
X36452382Y-58761961D01*
X36452382Y-58761961D02*
X36452382Y-58381009D01*
X36452382Y-58381009D02*
X36500001Y-58285771D01*
X36500001Y-58285771D02*
X36595239Y-58238152D01*
X36595239Y-58238152D02*
X36785715Y-58238152D01*
X36785715Y-58238152D02*
X36880953Y-58285771D01*
X36880953Y-58285771D02*
X36928572Y-58381009D01*
X36928572Y-58381009D02*
X36928572Y-58476247D01*
X36928572Y-58476247D02*
X36452382Y-58571485D01*
X37119049Y-59000057D02*
X37880953Y-59000057D01*
X38071430Y-58000057D02*
X38119049Y-57952438D01*
X38119049Y-57952438D02*
X38214287Y-57904819D01*
X38214287Y-57904819D02*
X38452382Y-57904819D01*
X38452382Y-57904819D02*
X38547620Y-57952438D01*
X38547620Y-57952438D02*
X38595239Y-58000057D01*
X38595239Y-58000057D02*
X38642858Y-58095295D01*
X38642858Y-58095295D02*
X38642858Y-58190533D01*
X38642858Y-58190533D02*
X38595239Y-58333390D01*
X38595239Y-58333390D02*
X38023811Y-58904819D01*
X38023811Y-58904819D02*
X38642858Y-58904819D01*
X39071430Y-58809580D02*
X39119049Y-58857200D01*
X39119049Y-58857200D02*
X39071430Y-58904819D01*
X39071430Y-58904819D02*
X39023811Y-58857200D01*
X39023811Y-58857200D02*
X39071430Y-58809580D01*
X39071430Y-58809580D02*
X39071430Y-58904819D01*
X40023810Y-57904819D02*
X39547620Y-57904819D01*
X39547620Y-57904819D02*
X39500001Y-58381009D01*
X39500001Y-58381009D02*
X39547620Y-58333390D01*
X39547620Y-58333390D02*
X39642858Y-58285771D01*
X39642858Y-58285771D02*
X39880953Y-58285771D01*
X39880953Y-58285771D02*
X39976191Y-58333390D01*
X39976191Y-58333390D02*
X40023810Y-58381009D01*
X40023810Y-58381009D02*
X40071429Y-58476247D01*
X40071429Y-58476247D02*
X40071429Y-58714342D01*
X40071429Y-58714342D02*
X40023810Y-58809580D01*
X40023810Y-58809580D02*
X39976191Y-58857200D01*
X39976191Y-58857200D02*
X39880953Y-58904819D01*
X39880953Y-58904819D02*
X39642858Y-58904819D01*
X39642858Y-58904819D02*
X39547620Y-58857200D01*
X39547620Y-58857200D02*
X39500001Y-58809580D01*
X40500001Y-58904819D02*
X40500001Y-58238152D01*
X40500001Y-58333390D02*
X40547620Y-58285771D01*
X40547620Y-58285771D02*
X40642858Y-58238152D01*
X40642858Y-58238152D02*
X40785715Y-58238152D01*
X40785715Y-58238152D02*
X40880953Y-58285771D01*
X40880953Y-58285771D02*
X40928572Y-58381009D01*
X40928572Y-58381009D02*
X40928572Y-58904819D01*
X40928572Y-58381009D02*
X40976191Y-58285771D01*
X40976191Y-58285771D02*
X41071429Y-58238152D01*
X41071429Y-58238152D02*
X41214286Y-58238152D01*
X41214286Y-58238152D02*
X41309525Y-58285771D01*
X41309525Y-58285771D02*
X41357144Y-58381009D01*
X41357144Y-58381009D02*
X41357144Y-58904819D01*
X41833334Y-58904819D02*
X41833334Y-58238152D01*
X41833334Y-58333390D02*
X41880953Y-58285771D01*
X41880953Y-58285771D02*
X41976191Y-58238152D01*
X41976191Y-58238152D02*
X42119048Y-58238152D01*
X42119048Y-58238152D02*
X42214286Y-58285771D01*
X42214286Y-58285771D02*
X42261905Y-58381009D01*
X42261905Y-58381009D02*
X42261905Y-58904819D01*
X42261905Y-58381009D02*
X42309524Y-58285771D01*
X42309524Y-58285771D02*
X42404762Y-58238152D01*
X42404762Y-58238152D02*
X42547619Y-58238152D01*
X42547619Y-58238152D02*
X42642858Y-58285771D01*
X42642858Y-58285771D02*
X42690477Y-58381009D01*
X42690477Y-58381009D02*
X42690477Y-58904819D01*
X34238095Y-55454819D02*
X34238095Y-54454819D01*
X34238095Y-54931009D02*
X34809523Y-54931009D01*
X34809523Y-55454819D02*
X34809523Y-54454819D01*
X35809523Y-55454819D02*
X35238095Y-55454819D01*
X35523809Y-55454819D02*
X35523809Y-54454819D01*
X35523809Y-54454819D02*
X35428571Y-54597676D01*
X35428571Y-54597676D02*
X35333333Y-54692914D01*
X35333333Y-54692914D02*
X35238095Y-54740533D01*
X95880952Y-19884819D02*
X95309524Y-19884819D01*
X95595238Y-19884819D02*
X95595238Y-18884819D01*
X95595238Y-18884819D02*
X95500000Y-19027676D01*
X95500000Y-19027676D02*
X95404762Y-19122914D01*
X95404762Y-19122914D02*
X95309524Y-19170533D01*
X96309524Y-19884819D02*
X96309524Y-18884819D01*
X96404762Y-19503866D02*
X96690476Y-19884819D01*
X96690476Y-19218152D02*
X96309524Y-19599104D01*
D12*
X95933333Y-18181927D02*
X95800000Y-17991451D01*
X95704762Y-18181927D02*
X95704762Y-17781927D01*
X95704762Y-17781927D02*
X95857143Y-17781927D01*
X95857143Y-17781927D02*
X95895238Y-17800975D01*
X95895238Y-17800975D02*
X95914285Y-17820022D01*
X95914285Y-17820022D02*
X95933333Y-17858118D01*
X95933333Y-17858118D02*
X95933333Y-17915260D01*
X95933333Y-17915260D02*
X95914285Y-17953356D01*
X95914285Y-17953356D02*
X95895238Y-17972403D01*
X95895238Y-17972403D02*
X95857143Y-17991451D01*
X95857143Y-17991451D02*
X95704762Y-17991451D01*
X96066666Y-17781927D02*
X96314285Y-17781927D01*
X96314285Y-17781927D02*
X96180952Y-17934308D01*
X96180952Y-17934308D02*
X96238095Y-17934308D01*
X96238095Y-17934308D02*
X96276190Y-17953356D01*
X96276190Y-17953356D02*
X96295238Y-17972403D01*
X96295238Y-17972403D02*
X96314285Y-18010499D01*
X96314285Y-18010499D02*
X96314285Y-18105737D01*
X96314285Y-18105737D02*
X96295238Y-18143832D01*
X96295238Y-18143832D02*
X96276190Y-18162880D01*
X96276190Y-18162880D02*
X96238095Y-18181927D01*
X96238095Y-18181927D02*
X96123809Y-18181927D01*
X96123809Y-18181927D02*
X96085714Y-18162880D01*
X96085714Y-18162880D02*
X96066666Y-18143832D01*
D10*
X59166667Y-36654819D02*
X59404762Y-37654819D01*
X59404762Y-37654819D02*
X59595238Y-36940533D01*
X59595238Y-36940533D02*
X59785714Y-37654819D01*
X59785714Y-37654819D02*
X60023810Y-36654819D01*
X60357143Y-37607200D02*
X60500000Y-37654819D01*
X60500000Y-37654819D02*
X60738095Y-37654819D01*
X60738095Y-37654819D02*
X60833333Y-37607200D01*
X60833333Y-37607200D02*
X60880952Y-37559580D01*
X60880952Y-37559580D02*
X60928571Y-37464342D01*
X60928571Y-37464342D02*
X60928571Y-37369104D01*
X60928571Y-37369104D02*
X60880952Y-37273866D01*
X60880952Y-37273866D02*
X60833333Y-37226247D01*
X60833333Y-37226247D02*
X60738095Y-37178628D01*
X60738095Y-37178628D02*
X60547619Y-37131009D01*
X60547619Y-37131009D02*
X60452381Y-37083390D01*
X60452381Y-37083390D02*
X60404762Y-37035771D01*
X60404762Y-37035771D02*
X60357143Y-36940533D01*
X60357143Y-36940533D02*
X60357143Y-36845295D01*
X60357143Y-36845295D02*
X60404762Y-36750057D01*
X60404762Y-36750057D02*
X60452381Y-36702438D01*
X60452381Y-36702438D02*
X60547619Y-36654819D01*
X60547619Y-36654819D02*
X60785714Y-36654819D01*
X60785714Y-36654819D02*
X60928571Y-36702438D01*
X61309524Y-36750057D02*
X61357143Y-36702438D01*
X61357143Y-36702438D02*
X61452381Y-36654819D01*
X61452381Y-36654819D02*
X61690476Y-36654819D01*
X61690476Y-36654819D02*
X61785714Y-36702438D01*
X61785714Y-36702438D02*
X61833333Y-36750057D01*
X61833333Y-36750057D02*
X61880952Y-36845295D01*
X61880952Y-36845295D02*
X61880952Y-36940533D01*
X61880952Y-36940533D02*
X61833333Y-37083390D01*
X61833333Y-37083390D02*
X61261905Y-37654819D01*
X61261905Y-37654819D02*
X61880952Y-37654819D01*
X62452381Y-37083390D02*
X62357143Y-37035771D01*
X62357143Y-37035771D02*
X62309524Y-36988152D01*
X62309524Y-36988152D02*
X62261905Y-36892914D01*
X62261905Y-36892914D02*
X62261905Y-36845295D01*
X62261905Y-36845295D02*
X62309524Y-36750057D01*
X62309524Y-36750057D02*
X62357143Y-36702438D01*
X62357143Y-36702438D02*
X62452381Y-36654819D01*
X62452381Y-36654819D02*
X62642857Y-36654819D01*
X62642857Y-36654819D02*
X62738095Y-36702438D01*
X62738095Y-36702438D02*
X62785714Y-36750057D01*
X62785714Y-36750057D02*
X62833333Y-36845295D01*
X62833333Y-36845295D02*
X62833333Y-36892914D01*
X62833333Y-36892914D02*
X62785714Y-36988152D01*
X62785714Y-36988152D02*
X62738095Y-37035771D01*
X62738095Y-37035771D02*
X62642857Y-37083390D01*
X62642857Y-37083390D02*
X62452381Y-37083390D01*
X62452381Y-37083390D02*
X62357143Y-37131009D01*
X62357143Y-37131009D02*
X62309524Y-37178628D01*
X62309524Y-37178628D02*
X62261905Y-37273866D01*
X62261905Y-37273866D02*
X62261905Y-37464342D01*
X62261905Y-37464342D02*
X62309524Y-37559580D01*
X62309524Y-37559580D02*
X62357143Y-37607200D01*
X62357143Y-37607200D02*
X62452381Y-37654819D01*
X62452381Y-37654819D02*
X62642857Y-37654819D01*
X62642857Y-37654819D02*
X62738095Y-37607200D01*
X62738095Y-37607200D02*
X62785714Y-37559580D01*
X62785714Y-37559580D02*
X62833333Y-37464342D01*
X62833333Y-37464342D02*
X62833333Y-37273866D01*
X62833333Y-37273866D02*
X62785714Y-37178628D01*
X62785714Y-37178628D02*
X62738095Y-37131009D01*
X62738095Y-37131009D02*
X62642857Y-37083390D01*
X63785714Y-37654819D02*
X63214286Y-37654819D01*
X63500000Y-37654819D02*
X63500000Y-36654819D01*
X63500000Y-36654819D02*
X63404762Y-36797676D01*
X63404762Y-36797676D02*
X63309524Y-36892914D01*
X63309524Y-36892914D02*
X63214286Y-36940533D01*
X64166667Y-36750057D02*
X64214286Y-36702438D01*
X64214286Y-36702438D02*
X64309524Y-36654819D01*
X64309524Y-36654819D02*
X64547619Y-36654819D01*
X64547619Y-36654819D02*
X64642857Y-36702438D01*
X64642857Y-36702438D02*
X64690476Y-36750057D01*
X64690476Y-36750057D02*
X64738095Y-36845295D01*
X64738095Y-36845295D02*
X64738095Y-36940533D01*
X64738095Y-36940533D02*
X64690476Y-37083390D01*
X64690476Y-37083390D02*
X64119048Y-37654819D01*
X64119048Y-37654819D02*
X64738095Y-37654819D01*
X65500000Y-37131009D02*
X65642857Y-37178628D01*
X65642857Y-37178628D02*
X65690476Y-37226247D01*
X65690476Y-37226247D02*
X65738095Y-37321485D01*
X65738095Y-37321485D02*
X65738095Y-37464342D01*
X65738095Y-37464342D02*
X65690476Y-37559580D01*
X65690476Y-37559580D02*
X65642857Y-37607200D01*
X65642857Y-37607200D02*
X65547619Y-37654819D01*
X65547619Y-37654819D02*
X65166667Y-37654819D01*
X65166667Y-37654819D02*
X65166667Y-36654819D01*
X65166667Y-36654819D02*
X65500000Y-36654819D01*
X65500000Y-36654819D02*
X65595238Y-36702438D01*
X65595238Y-36702438D02*
X65642857Y-36750057D01*
X65642857Y-36750057D02*
X65690476Y-36845295D01*
X65690476Y-36845295D02*
X65690476Y-36940533D01*
X65690476Y-36940533D02*
X65642857Y-37035771D01*
X65642857Y-37035771D02*
X65595238Y-37083390D01*
X65595238Y-37083390D02*
X65500000Y-37131009D01*
X65500000Y-37131009D02*
X65166667Y-37131009D01*
X66166667Y-37273866D02*
X66928572Y-37273866D01*
X67357143Y-36750057D02*
X67404762Y-36702438D01*
X67404762Y-36702438D02*
X67500000Y-36654819D01*
X67500000Y-36654819D02*
X67738095Y-36654819D01*
X67738095Y-36654819D02*
X67833333Y-36702438D01*
X67833333Y-36702438D02*
X67880952Y-36750057D01*
X67880952Y-36750057D02*
X67928571Y-36845295D01*
X67928571Y-36845295D02*
X67928571Y-36940533D01*
X67928571Y-36940533D02*
X67880952Y-37083390D01*
X67880952Y-37083390D02*
X67309524Y-37654819D01*
X67309524Y-37654819D02*
X67928571Y-37654819D01*
X68547619Y-36654819D02*
X68642857Y-36654819D01*
X68642857Y-36654819D02*
X68738095Y-36702438D01*
X68738095Y-36702438D02*
X68785714Y-36750057D01*
X68785714Y-36750057D02*
X68833333Y-36845295D01*
X68833333Y-36845295D02*
X68880952Y-37035771D01*
X68880952Y-37035771D02*
X68880952Y-37273866D01*
X68880952Y-37273866D02*
X68833333Y-37464342D01*
X68833333Y-37464342D02*
X68785714Y-37559580D01*
X68785714Y-37559580D02*
X68738095Y-37607200D01*
X68738095Y-37607200D02*
X68642857Y-37654819D01*
X68642857Y-37654819D02*
X68547619Y-37654819D01*
X68547619Y-37654819D02*
X68452381Y-37607200D01*
X68452381Y-37607200D02*
X68404762Y-37559580D01*
X68404762Y-37559580D02*
X68357143Y-37464342D01*
X68357143Y-37464342D02*
X68309524Y-37273866D01*
X68309524Y-37273866D02*
X68309524Y-37035771D01*
X68309524Y-37035771D02*
X68357143Y-36845295D01*
X68357143Y-36845295D02*
X68404762Y-36750057D01*
X68404762Y-36750057D02*
X68452381Y-36702438D01*
X68452381Y-36702438D02*
X68547619Y-36654819D01*
X69261905Y-36750057D02*
X69309524Y-36702438D01*
X69309524Y-36702438D02*
X69404762Y-36654819D01*
X69404762Y-36654819D02*
X69642857Y-36654819D01*
X69642857Y-36654819D02*
X69738095Y-36702438D01*
X69738095Y-36702438D02*
X69785714Y-36750057D01*
X69785714Y-36750057D02*
X69833333Y-36845295D01*
X69833333Y-36845295D02*
X69833333Y-36940533D01*
X69833333Y-36940533D02*
X69785714Y-37083390D01*
X69785714Y-37083390D02*
X69214286Y-37654819D01*
X69214286Y-37654819D02*
X69833333Y-37654819D01*
X70452381Y-36654819D02*
X70547619Y-36654819D01*
X70547619Y-36654819D02*
X70642857Y-36702438D01*
X70642857Y-36702438D02*
X70690476Y-36750057D01*
X70690476Y-36750057D02*
X70738095Y-36845295D01*
X70738095Y-36845295D02*
X70785714Y-37035771D01*
X70785714Y-37035771D02*
X70785714Y-37273866D01*
X70785714Y-37273866D02*
X70738095Y-37464342D01*
X70738095Y-37464342D02*
X70690476Y-37559580D01*
X70690476Y-37559580D02*
X70642857Y-37607200D01*
X70642857Y-37607200D02*
X70547619Y-37654819D01*
X70547619Y-37654819D02*
X70452381Y-37654819D01*
X70452381Y-37654819D02*
X70357143Y-37607200D01*
X70357143Y-37607200D02*
X70309524Y-37559580D01*
X70309524Y-37559580D02*
X70261905Y-37464342D01*
X70261905Y-37464342D02*
X70214286Y-37273866D01*
X70214286Y-37273866D02*
X70214286Y-37035771D01*
X70214286Y-37035771D02*
X70261905Y-36845295D01*
X70261905Y-36845295D02*
X70309524Y-36750057D01*
X70309524Y-36750057D02*
X70357143Y-36702438D01*
X70357143Y-36702438D02*
X70452381Y-36654819D01*
D11*
X64630952Y-35227409D02*
X64630952Y-34727409D01*
X64630952Y-34727409D02*
X64750000Y-34727409D01*
X64750000Y-34727409D02*
X64821428Y-34751219D01*
X64821428Y-34751219D02*
X64869047Y-34798838D01*
X64869047Y-34798838D02*
X64892857Y-34846457D01*
X64892857Y-34846457D02*
X64916666Y-34941695D01*
X64916666Y-34941695D02*
X64916666Y-35013123D01*
X64916666Y-35013123D02*
X64892857Y-35108361D01*
X64892857Y-35108361D02*
X64869047Y-35155980D01*
X64869047Y-35155980D02*
X64821428Y-35203600D01*
X64821428Y-35203600D02*
X64750000Y-35227409D01*
X64750000Y-35227409D02*
X64630952Y-35227409D01*
X65345238Y-34894076D02*
X65345238Y-35227409D01*
X65226190Y-34703600D02*
X65107143Y-35060742D01*
X65107143Y-35060742D02*
X65416666Y-35060742D01*
D10*
X162166667Y-53654819D02*
X162404762Y-54654819D01*
X162404762Y-54654819D02*
X162595238Y-53940533D01*
X162595238Y-53940533D02*
X162785714Y-54654819D01*
X162785714Y-54654819D02*
X163023810Y-53654819D01*
X163357143Y-54607200D02*
X163500000Y-54654819D01*
X163500000Y-54654819D02*
X163738095Y-54654819D01*
X163738095Y-54654819D02*
X163833333Y-54607200D01*
X163833333Y-54607200D02*
X163880952Y-54559580D01*
X163880952Y-54559580D02*
X163928571Y-54464342D01*
X163928571Y-54464342D02*
X163928571Y-54369104D01*
X163928571Y-54369104D02*
X163880952Y-54273866D01*
X163880952Y-54273866D02*
X163833333Y-54226247D01*
X163833333Y-54226247D02*
X163738095Y-54178628D01*
X163738095Y-54178628D02*
X163547619Y-54131009D01*
X163547619Y-54131009D02*
X163452381Y-54083390D01*
X163452381Y-54083390D02*
X163404762Y-54035771D01*
X163404762Y-54035771D02*
X163357143Y-53940533D01*
X163357143Y-53940533D02*
X163357143Y-53845295D01*
X163357143Y-53845295D02*
X163404762Y-53750057D01*
X163404762Y-53750057D02*
X163452381Y-53702438D01*
X163452381Y-53702438D02*
X163547619Y-53654819D01*
X163547619Y-53654819D02*
X163785714Y-53654819D01*
X163785714Y-53654819D02*
X163928571Y-53702438D01*
X164309524Y-53750057D02*
X164357143Y-53702438D01*
X164357143Y-53702438D02*
X164452381Y-53654819D01*
X164452381Y-53654819D02*
X164690476Y-53654819D01*
X164690476Y-53654819D02*
X164785714Y-53702438D01*
X164785714Y-53702438D02*
X164833333Y-53750057D01*
X164833333Y-53750057D02*
X164880952Y-53845295D01*
X164880952Y-53845295D02*
X164880952Y-53940533D01*
X164880952Y-53940533D02*
X164833333Y-54083390D01*
X164833333Y-54083390D02*
X164261905Y-54654819D01*
X164261905Y-54654819D02*
X164880952Y-54654819D01*
X165452381Y-54083390D02*
X165357143Y-54035771D01*
X165357143Y-54035771D02*
X165309524Y-53988152D01*
X165309524Y-53988152D02*
X165261905Y-53892914D01*
X165261905Y-53892914D02*
X165261905Y-53845295D01*
X165261905Y-53845295D02*
X165309524Y-53750057D01*
X165309524Y-53750057D02*
X165357143Y-53702438D01*
X165357143Y-53702438D02*
X165452381Y-53654819D01*
X165452381Y-53654819D02*
X165642857Y-53654819D01*
X165642857Y-53654819D02*
X165738095Y-53702438D01*
X165738095Y-53702438D02*
X165785714Y-53750057D01*
X165785714Y-53750057D02*
X165833333Y-53845295D01*
X165833333Y-53845295D02*
X165833333Y-53892914D01*
X165833333Y-53892914D02*
X165785714Y-53988152D01*
X165785714Y-53988152D02*
X165738095Y-54035771D01*
X165738095Y-54035771D02*
X165642857Y-54083390D01*
X165642857Y-54083390D02*
X165452381Y-54083390D01*
X165452381Y-54083390D02*
X165357143Y-54131009D01*
X165357143Y-54131009D02*
X165309524Y-54178628D01*
X165309524Y-54178628D02*
X165261905Y-54273866D01*
X165261905Y-54273866D02*
X165261905Y-54464342D01*
X165261905Y-54464342D02*
X165309524Y-54559580D01*
X165309524Y-54559580D02*
X165357143Y-54607200D01*
X165357143Y-54607200D02*
X165452381Y-54654819D01*
X165452381Y-54654819D02*
X165642857Y-54654819D01*
X165642857Y-54654819D02*
X165738095Y-54607200D01*
X165738095Y-54607200D02*
X165785714Y-54559580D01*
X165785714Y-54559580D02*
X165833333Y-54464342D01*
X165833333Y-54464342D02*
X165833333Y-54273866D01*
X165833333Y-54273866D02*
X165785714Y-54178628D01*
X165785714Y-54178628D02*
X165738095Y-54131009D01*
X165738095Y-54131009D02*
X165642857Y-54083390D01*
X166785714Y-54654819D02*
X166214286Y-54654819D01*
X166500000Y-54654819D02*
X166500000Y-53654819D01*
X166500000Y-53654819D02*
X166404762Y-53797676D01*
X166404762Y-53797676D02*
X166309524Y-53892914D01*
X166309524Y-53892914D02*
X166214286Y-53940533D01*
X167166667Y-53750057D02*
X167214286Y-53702438D01*
X167214286Y-53702438D02*
X167309524Y-53654819D01*
X167309524Y-53654819D02*
X167547619Y-53654819D01*
X167547619Y-53654819D02*
X167642857Y-53702438D01*
X167642857Y-53702438D02*
X167690476Y-53750057D01*
X167690476Y-53750057D02*
X167738095Y-53845295D01*
X167738095Y-53845295D02*
X167738095Y-53940533D01*
X167738095Y-53940533D02*
X167690476Y-54083390D01*
X167690476Y-54083390D02*
X167119048Y-54654819D01*
X167119048Y-54654819D02*
X167738095Y-54654819D01*
X168500000Y-54131009D02*
X168642857Y-54178628D01*
X168642857Y-54178628D02*
X168690476Y-54226247D01*
X168690476Y-54226247D02*
X168738095Y-54321485D01*
X168738095Y-54321485D02*
X168738095Y-54464342D01*
X168738095Y-54464342D02*
X168690476Y-54559580D01*
X168690476Y-54559580D02*
X168642857Y-54607200D01*
X168642857Y-54607200D02*
X168547619Y-54654819D01*
X168547619Y-54654819D02*
X168166667Y-54654819D01*
X168166667Y-54654819D02*
X168166667Y-53654819D01*
X168166667Y-53654819D02*
X168500000Y-53654819D01*
X168500000Y-53654819D02*
X168595238Y-53702438D01*
X168595238Y-53702438D02*
X168642857Y-53750057D01*
X168642857Y-53750057D02*
X168690476Y-53845295D01*
X168690476Y-53845295D02*
X168690476Y-53940533D01*
X168690476Y-53940533D02*
X168642857Y-54035771D01*
X168642857Y-54035771D02*
X168595238Y-54083390D01*
X168595238Y-54083390D02*
X168500000Y-54131009D01*
X168500000Y-54131009D02*
X168166667Y-54131009D01*
X169166667Y-54273866D02*
X169928572Y-54273866D01*
X170357143Y-53750057D02*
X170404762Y-53702438D01*
X170404762Y-53702438D02*
X170500000Y-53654819D01*
X170500000Y-53654819D02*
X170738095Y-53654819D01*
X170738095Y-53654819D02*
X170833333Y-53702438D01*
X170833333Y-53702438D02*
X170880952Y-53750057D01*
X170880952Y-53750057D02*
X170928571Y-53845295D01*
X170928571Y-53845295D02*
X170928571Y-53940533D01*
X170928571Y-53940533D02*
X170880952Y-54083390D01*
X170880952Y-54083390D02*
X170309524Y-54654819D01*
X170309524Y-54654819D02*
X170928571Y-54654819D01*
X171547619Y-53654819D02*
X171642857Y-53654819D01*
X171642857Y-53654819D02*
X171738095Y-53702438D01*
X171738095Y-53702438D02*
X171785714Y-53750057D01*
X171785714Y-53750057D02*
X171833333Y-53845295D01*
X171833333Y-53845295D02*
X171880952Y-54035771D01*
X171880952Y-54035771D02*
X171880952Y-54273866D01*
X171880952Y-54273866D02*
X171833333Y-54464342D01*
X171833333Y-54464342D02*
X171785714Y-54559580D01*
X171785714Y-54559580D02*
X171738095Y-54607200D01*
X171738095Y-54607200D02*
X171642857Y-54654819D01*
X171642857Y-54654819D02*
X171547619Y-54654819D01*
X171547619Y-54654819D02*
X171452381Y-54607200D01*
X171452381Y-54607200D02*
X171404762Y-54559580D01*
X171404762Y-54559580D02*
X171357143Y-54464342D01*
X171357143Y-54464342D02*
X171309524Y-54273866D01*
X171309524Y-54273866D02*
X171309524Y-54035771D01*
X171309524Y-54035771D02*
X171357143Y-53845295D01*
X171357143Y-53845295D02*
X171404762Y-53750057D01*
X171404762Y-53750057D02*
X171452381Y-53702438D01*
X171452381Y-53702438D02*
X171547619Y-53654819D01*
X172261905Y-53750057D02*
X172309524Y-53702438D01*
X172309524Y-53702438D02*
X172404762Y-53654819D01*
X172404762Y-53654819D02*
X172642857Y-53654819D01*
X172642857Y-53654819D02*
X172738095Y-53702438D01*
X172738095Y-53702438D02*
X172785714Y-53750057D01*
X172785714Y-53750057D02*
X172833333Y-53845295D01*
X172833333Y-53845295D02*
X172833333Y-53940533D01*
X172833333Y-53940533D02*
X172785714Y-54083390D01*
X172785714Y-54083390D02*
X172214286Y-54654819D01*
X172214286Y-54654819D02*
X172833333Y-54654819D01*
X173452381Y-53654819D02*
X173547619Y-53654819D01*
X173547619Y-53654819D02*
X173642857Y-53702438D01*
X173642857Y-53702438D02*
X173690476Y-53750057D01*
X173690476Y-53750057D02*
X173738095Y-53845295D01*
X173738095Y-53845295D02*
X173785714Y-54035771D01*
X173785714Y-54035771D02*
X173785714Y-54273866D01*
X173785714Y-54273866D02*
X173738095Y-54464342D01*
X173738095Y-54464342D02*
X173690476Y-54559580D01*
X173690476Y-54559580D02*
X173642857Y-54607200D01*
X173642857Y-54607200D02*
X173547619Y-54654819D01*
X173547619Y-54654819D02*
X173452381Y-54654819D01*
X173452381Y-54654819D02*
X173357143Y-54607200D01*
X173357143Y-54607200D02*
X173309524Y-54559580D01*
X173309524Y-54559580D02*
X173261905Y-54464342D01*
X173261905Y-54464342D02*
X173214286Y-54273866D01*
X173214286Y-54273866D02*
X173214286Y-54035771D01*
X173214286Y-54035771D02*
X173261905Y-53845295D01*
X173261905Y-53845295D02*
X173309524Y-53750057D01*
X173309524Y-53750057D02*
X173357143Y-53702438D01*
X173357143Y-53702438D02*
X173452381Y-53654819D01*
D11*
X167630952Y-52227409D02*
X167630952Y-51727409D01*
X167630952Y-51727409D02*
X167750000Y-51727409D01*
X167750000Y-51727409D02*
X167821428Y-51751219D01*
X167821428Y-51751219D02*
X167869047Y-51798838D01*
X167869047Y-51798838D02*
X167892857Y-51846457D01*
X167892857Y-51846457D02*
X167916666Y-51941695D01*
X167916666Y-51941695D02*
X167916666Y-52013123D01*
X167916666Y-52013123D02*
X167892857Y-52108361D01*
X167892857Y-52108361D02*
X167869047Y-52155980D01*
X167869047Y-52155980D02*
X167821428Y-52203600D01*
X167821428Y-52203600D02*
X167750000Y-52227409D01*
X167750000Y-52227409D02*
X167630952Y-52227409D01*
X168345238Y-51727409D02*
X168250000Y-51727409D01*
X168250000Y-51727409D02*
X168202381Y-51751219D01*
X168202381Y-51751219D02*
X168178571Y-51775028D01*
X168178571Y-51775028D02*
X168130952Y-51846457D01*
X168130952Y-51846457D02*
X168107143Y-51941695D01*
X168107143Y-51941695D02*
X168107143Y-52132171D01*
X168107143Y-52132171D02*
X168130952Y-52179790D01*
X168130952Y-52179790D02*
X168154762Y-52203600D01*
X168154762Y-52203600D02*
X168202381Y-52227409D01*
X168202381Y-52227409D02*
X168297619Y-52227409D01*
X168297619Y-52227409D02*
X168345238Y-52203600D01*
X168345238Y-52203600D02*
X168369047Y-52179790D01*
X168369047Y-52179790D02*
X168392857Y-52132171D01*
X168392857Y-52132171D02*
X168392857Y-52013123D01*
X168392857Y-52013123D02*
X168369047Y-51965504D01*
X168369047Y-51965504D02*
X168345238Y-51941695D01*
X168345238Y-51941695D02*
X168297619Y-51917885D01*
X168297619Y-51917885D02*
X168202381Y-51917885D01*
X168202381Y-51917885D02*
X168154762Y-51941695D01*
X168154762Y-51941695D02*
X168130952Y-51965504D01*
X168130952Y-51965504D02*
X168107143Y-52013123D01*
D10*
X107976191Y-52781009D02*
X108309524Y-52781009D01*
X108452381Y-53304819D02*
X107976191Y-53304819D01*
X107976191Y-53304819D02*
X107976191Y-52304819D01*
X107976191Y-52304819D02*
X108452381Y-52304819D01*
X108833334Y-53257200D02*
X108976191Y-53304819D01*
X108976191Y-53304819D02*
X109214286Y-53304819D01*
X109214286Y-53304819D02*
X109309524Y-53257200D01*
X109309524Y-53257200D02*
X109357143Y-53209580D01*
X109357143Y-53209580D02*
X109404762Y-53114342D01*
X109404762Y-53114342D02*
X109404762Y-53019104D01*
X109404762Y-53019104D02*
X109357143Y-52923866D01*
X109357143Y-52923866D02*
X109309524Y-52876247D01*
X109309524Y-52876247D02*
X109214286Y-52828628D01*
X109214286Y-52828628D02*
X109023810Y-52781009D01*
X109023810Y-52781009D02*
X108928572Y-52733390D01*
X108928572Y-52733390D02*
X108880953Y-52685771D01*
X108880953Y-52685771D02*
X108833334Y-52590533D01*
X108833334Y-52590533D02*
X108833334Y-52495295D01*
X108833334Y-52495295D02*
X108880953Y-52400057D01*
X108880953Y-52400057D02*
X108928572Y-52352438D01*
X108928572Y-52352438D02*
X109023810Y-52304819D01*
X109023810Y-52304819D02*
X109261905Y-52304819D01*
X109261905Y-52304819D02*
X109404762Y-52352438D01*
X109833334Y-53304819D02*
X109833334Y-52304819D01*
X109833334Y-52304819D02*
X110214286Y-52304819D01*
X110214286Y-52304819D02*
X110309524Y-52352438D01*
X110309524Y-52352438D02*
X110357143Y-52400057D01*
X110357143Y-52400057D02*
X110404762Y-52495295D01*
X110404762Y-52495295D02*
X110404762Y-52638152D01*
X110404762Y-52638152D02*
X110357143Y-52733390D01*
X110357143Y-52733390D02*
X110309524Y-52781009D01*
X110309524Y-52781009D02*
X110214286Y-52828628D01*
X110214286Y-52828628D02*
X109833334Y-52828628D01*
X110738096Y-52304819D02*
X111357143Y-52304819D01*
X111357143Y-52304819D02*
X111023810Y-52685771D01*
X111023810Y-52685771D02*
X111166667Y-52685771D01*
X111166667Y-52685771D02*
X111261905Y-52733390D01*
X111261905Y-52733390D02*
X111309524Y-52781009D01*
X111309524Y-52781009D02*
X111357143Y-52876247D01*
X111357143Y-52876247D02*
X111357143Y-53114342D01*
X111357143Y-53114342D02*
X111309524Y-53209580D01*
X111309524Y-53209580D02*
X111261905Y-53257200D01*
X111261905Y-53257200D02*
X111166667Y-53304819D01*
X111166667Y-53304819D02*
X110880953Y-53304819D01*
X110880953Y-53304819D02*
X110785715Y-53257200D01*
X110785715Y-53257200D02*
X110738096Y-53209580D01*
X111738096Y-52400057D02*
X111785715Y-52352438D01*
X111785715Y-52352438D02*
X111880953Y-52304819D01*
X111880953Y-52304819D02*
X112119048Y-52304819D01*
X112119048Y-52304819D02*
X112214286Y-52352438D01*
X112214286Y-52352438D02*
X112261905Y-52400057D01*
X112261905Y-52400057D02*
X112309524Y-52495295D01*
X112309524Y-52495295D02*
X112309524Y-52590533D01*
X112309524Y-52590533D02*
X112261905Y-52733390D01*
X112261905Y-52733390D02*
X111690477Y-53304819D01*
X111690477Y-53304819D02*
X112309524Y-53304819D01*
X112738096Y-52923866D02*
X113500001Y-52923866D01*
X114547619Y-53209580D02*
X114500000Y-53257200D01*
X114500000Y-53257200D02*
X114357143Y-53304819D01*
X114357143Y-53304819D02*
X114261905Y-53304819D01*
X114261905Y-53304819D02*
X114119048Y-53257200D01*
X114119048Y-53257200D02*
X114023810Y-53161961D01*
X114023810Y-53161961D02*
X113976191Y-53066723D01*
X113976191Y-53066723D02*
X113928572Y-52876247D01*
X113928572Y-52876247D02*
X113928572Y-52733390D01*
X113928572Y-52733390D02*
X113976191Y-52542914D01*
X113976191Y-52542914D02*
X114023810Y-52447676D01*
X114023810Y-52447676D02*
X114119048Y-52352438D01*
X114119048Y-52352438D02*
X114261905Y-52304819D01*
X114261905Y-52304819D02*
X114357143Y-52304819D01*
X114357143Y-52304819D02*
X114500000Y-52352438D01*
X114500000Y-52352438D02*
X114547619Y-52400057D01*
X114880953Y-52304819D02*
X115500000Y-52304819D01*
X115500000Y-52304819D02*
X115166667Y-52685771D01*
X115166667Y-52685771D02*
X115309524Y-52685771D01*
X115309524Y-52685771D02*
X115404762Y-52733390D01*
X115404762Y-52733390D02*
X115452381Y-52781009D01*
X115452381Y-52781009D02*
X115500000Y-52876247D01*
X115500000Y-52876247D02*
X115500000Y-53114342D01*
X115500000Y-53114342D02*
X115452381Y-53209580D01*
X115452381Y-53209580D02*
X115404762Y-53257200D01*
X115404762Y-53257200D02*
X115309524Y-53304819D01*
X115309524Y-53304819D02*
X115023810Y-53304819D01*
X115023810Y-53304819D02*
X114928572Y-53257200D01*
X114928572Y-53257200D02*
X114880953Y-53209580D01*
X115928572Y-52923866D02*
X116690477Y-52923866D01*
X117166667Y-53304819D02*
X117166667Y-52304819D01*
X117166667Y-52304819D02*
X117500000Y-53019104D01*
X117500000Y-53019104D02*
X117833333Y-52304819D01*
X117833333Y-52304819D02*
X117833333Y-53304819D01*
X118309524Y-53304819D02*
X118309524Y-52304819D01*
X118785714Y-53304819D02*
X118785714Y-52304819D01*
X118785714Y-52304819D02*
X119357142Y-53304819D01*
X119357142Y-53304819D02*
X119357142Y-52304819D01*
X119833333Y-53304819D02*
X119833333Y-52304819D01*
X120309523Y-52923866D02*
X121071428Y-52923866D01*
X122071427Y-53304819D02*
X121499999Y-53304819D01*
X121785713Y-53304819D02*
X121785713Y-52304819D01*
X121785713Y-52304819D02*
X121690475Y-52447676D01*
X121690475Y-52447676D02*
X121595237Y-52542914D01*
X121595237Y-52542914D02*
X121499999Y-52590533D01*
X114238095Y-45154819D02*
X114238095Y-45964342D01*
X114238095Y-45964342D02*
X114285714Y-46059580D01*
X114285714Y-46059580D02*
X114333333Y-46107200D01*
X114333333Y-46107200D02*
X114428571Y-46154819D01*
X114428571Y-46154819D02*
X114619047Y-46154819D01*
X114619047Y-46154819D02*
X114714285Y-46107200D01*
X114714285Y-46107200D02*
X114761904Y-46059580D01*
X114761904Y-46059580D02*
X114809523Y-45964342D01*
X114809523Y-45964342D02*
X114809523Y-45154819D01*
X115238095Y-45250057D02*
X115285714Y-45202438D01*
X115285714Y-45202438D02*
X115380952Y-45154819D01*
X115380952Y-45154819D02*
X115619047Y-45154819D01*
X115619047Y-45154819D02*
X115714285Y-45202438D01*
X115714285Y-45202438D02*
X115761904Y-45250057D01*
X115761904Y-45250057D02*
X115809523Y-45345295D01*
X115809523Y-45345295D02*
X115809523Y-45440533D01*
X115809523Y-45440533D02*
X115761904Y-45583390D01*
X115761904Y-45583390D02*
X115190476Y-46154819D01*
X115190476Y-46154819D02*
X115809523Y-46154819D01*
X34261905Y-56980057D02*
X34309524Y-56932438D01*
X34309524Y-56932438D02*
X34404762Y-56884819D01*
X34404762Y-56884819D02*
X34642857Y-56884819D01*
X34642857Y-56884819D02*
X34738095Y-56932438D01*
X34738095Y-56932438D02*
X34785714Y-56980057D01*
X34785714Y-56980057D02*
X34833333Y-57075295D01*
X34833333Y-57075295D02*
X34833333Y-57170533D01*
X34833333Y-57170533D02*
X34785714Y-57313390D01*
X34785714Y-57313390D02*
X34214286Y-57884819D01*
X34214286Y-57884819D02*
X34833333Y-57884819D01*
X35214286Y-56980057D02*
X35261905Y-56932438D01*
X35261905Y-56932438D02*
X35357143Y-56884819D01*
X35357143Y-56884819D02*
X35595238Y-56884819D01*
X35595238Y-56884819D02*
X35690476Y-56932438D01*
X35690476Y-56932438D02*
X35738095Y-56980057D01*
X35738095Y-56980057D02*
X35785714Y-57075295D01*
X35785714Y-57075295D02*
X35785714Y-57170533D01*
X35785714Y-57170533D02*
X35738095Y-57313390D01*
X35738095Y-57313390D02*
X35166667Y-57884819D01*
X35166667Y-57884819D02*
X35785714Y-57884819D01*
X36404762Y-56884819D02*
X36500000Y-56884819D01*
X36500000Y-56884819D02*
X36595238Y-56932438D01*
X36595238Y-56932438D02*
X36642857Y-56980057D01*
X36642857Y-56980057D02*
X36690476Y-57075295D01*
X36690476Y-57075295D02*
X36738095Y-57265771D01*
X36738095Y-57265771D02*
X36738095Y-57503866D01*
X36738095Y-57503866D02*
X36690476Y-57694342D01*
X36690476Y-57694342D02*
X36642857Y-57789580D01*
X36642857Y-57789580D02*
X36595238Y-57837200D01*
X36595238Y-57837200D02*
X36500000Y-57884819D01*
X36500000Y-57884819D02*
X36404762Y-57884819D01*
X36404762Y-57884819D02*
X36309524Y-57837200D01*
X36309524Y-57837200D02*
X36261905Y-57789580D01*
X36261905Y-57789580D02*
X36214286Y-57694342D01*
X36214286Y-57694342D02*
X36166667Y-57503866D01*
X36166667Y-57503866D02*
X36166667Y-57265771D01*
X36166667Y-57265771D02*
X36214286Y-57075295D01*
X36214286Y-57075295D02*
X36261905Y-56980057D01*
X36261905Y-56980057D02*
X36309524Y-56932438D01*
X36309524Y-56932438D02*
X36404762Y-56884819D01*
X37738095Y-57884819D02*
X37404762Y-57408628D01*
X37166667Y-57884819D02*
X37166667Y-56884819D01*
X37166667Y-56884819D02*
X37547619Y-56884819D01*
X37547619Y-56884819D02*
X37642857Y-56932438D01*
X37642857Y-56932438D02*
X37690476Y-56980057D01*
X37690476Y-56980057D02*
X37738095Y-57075295D01*
X37738095Y-57075295D02*
X37738095Y-57218152D01*
X37738095Y-57218152D02*
X37690476Y-57313390D01*
X37690476Y-57313390D02*
X37642857Y-57361009D01*
X37642857Y-57361009D02*
X37547619Y-57408628D01*
X37547619Y-57408628D02*
X37166667Y-57408628D01*
D12*
X35742857Y-56181927D02*
X35609524Y-55991451D01*
X35514286Y-56181927D02*
X35514286Y-55781927D01*
X35514286Y-55781927D02*
X35666667Y-55781927D01*
X35666667Y-55781927D02*
X35704762Y-55800975D01*
X35704762Y-55800975D02*
X35723809Y-55820022D01*
X35723809Y-55820022D02*
X35742857Y-55858118D01*
X35742857Y-55858118D02*
X35742857Y-55915260D01*
X35742857Y-55915260D02*
X35723809Y-55953356D01*
X35723809Y-55953356D02*
X35704762Y-55972403D01*
X35704762Y-55972403D02*
X35666667Y-55991451D01*
X35666667Y-55991451D02*
X35514286Y-55991451D01*
X36123809Y-56181927D02*
X35895238Y-56181927D01*
X36009524Y-56181927D02*
X36009524Y-55781927D01*
X36009524Y-55781927D02*
X35971428Y-55839070D01*
X35971428Y-55839070D02*
X35933333Y-55877165D01*
X35933333Y-55877165D02*
X35895238Y-55896213D01*
X36504761Y-56181927D02*
X36276190Y-56181927D01*
X36390476Y-56181927D02*
X36390476Y-55781927D01*
X36390476Y-55781927D02*
X36352380Y-55839070D01*
X36352380Y-55839070D02*
X36314285Y-55877165D01*
X36314285Y-55877165D02*
X36276190Y-55896213D01*
D10*
X157309524Y-58904819D02*
X157309524Y-57904819D01*
X157309524Y-57904819D02*
X157642857Y-58619104D01*
X157642857Y-58619104D02*
X157976190Y-57904819D01*
X157976190Y-57904819D02*
X157976190Y-58904819D01*
X158595238Y-58904819D02*
X158500000Y-58857200D01*
X158500000Y-58857200D02*
X158452381Y-58809580D01*
X158452381Y-58809580D02*
X158404762Y-58714342D01*
X158404762Y-58714342D02*
X158404762Y-58428628D01*
X158404762Y-58428628D02*
X158452381Y-58333390D01*
X158452381Y-58333390D02*
X158500000Y-58285771D01*
X158500000Y-58285771D02*
X158595238Y-58238152D01*
X158595238Y-58238152D02*
X158738095Y-58238152D01*
X158738095Y-58238152D02*
X158833333Y-58285771D01*
X158833333Y-58285771D02*
X158880952Y-58333390D01*
X158880952Y-58333390D02*
X158928571Y-58428628D01*
X158928571Y-58428628D02*
X158928571Y-58714342D01*
X158928571Y-58714342D02*
X158880952Y-58809580D01*
X158880952Y-58809580D02*
X158833333Y-58857200D01*
X158833333Y-58857200D02*
X158738095Y-58904819D01*
X158738095Y-58904819D02*
X158595238Y-58904819D01*
X159785714Y-58238152D02*
X159785714Y-58904819D01*
X159357143Y-58238152D02*
X159357143Y-58761961D01*
X159357143Y-58761961D02*
X159404762Y-58857200D01*
X159404762Y-58857200D02*
X159500000Y-58904819D01*
X159500000Y-58904819D02*
X159642857Y-58904819D01*
X159642857Y-58904819D02*
X159738095Y-58857200D01*
X159738095Y-58857200D02*
X159785714Y-58809580D01*
X160261905Y-58238152D02*
X160261905Y-58904819D01*
X160261905Y-58333390D02*
X160309524Y-58285771D01*
X160309524Y-58285771D02*
X160404762Y-58238152D01*
X160404762Y-58238152D02*
X160547619Y-58238152D01*
X160547619Y-58238152D02*
X160642857Y-58285771D01*
X160642857Y-58285771D02*
X160690476Y-58381009D01*
X160690476Y-58381009D02*
X160690476Y-58904819D01*
X161023810Y-58238152D02*
X161404762Y-58238152D01*
X161166667Y-57904819D02*
X161166667Y-58761961D01*
X161166667Y-58761961D02*
X161214286Y-58857200D01*
X161214286Y-58857200D02*
X161309524Y-58904819D01*
X161309524Y-58904819D02*
X161404762Y-58904819D01*
X161738096Y-58904819D02*
X161738096Y-58238152D01*
X161738096Y-57904819D02*
X161690477Y-57952438D01*
X161690477Y-57952438D02*
X161738096Y-58000057D01*
X161738096Y-58000057D02*
X161785715Y-57952438D01*
X161785715Y-57952438D02*
X161738096Y-57904819D01*
X161738096Y-57904819D02*
X161738096Y-58000057D01*
X162214286Y-58238152D02*
X162214286Y-58904819D01*
X162214286Y-58333390D02*
X162261905Y-58285771D01*
X162261905Y-58285771D02*
X162357143Y-58238152D01*
X162357143Y-58238152D02*
X162500000Y-58238152D01*
X162500000Y-58238152D02*
X162595238Y-58285771D01*
X162595238Y-58285771D02*
X162642857Y-58381009D01*
X162642857Y-58381009D02*
X162642857Y-58904819D01*
X163547619Y-58238152D02*
X163547619Y-59047676D01*
X163547619Y-59047676D02*
X163500000Y-59142914D01*
X163500000Y-59142914D02*
X163452381Y-59190533D01*
X163452381Y-59190533D02*
X163357143Y-59238152D01*
X163357143Y-59238152D02*
X163214286Y-59238152D01*
X163214286Y-59238152D02*
X163119048Y-59190533D01*
X163547619Y-58857200D02*
X163452381Y-58904819D01*
X163452381Y-58904819D02*
X163261905Y-58904819D01*
X163261905Y-58904819D02*
X163166667Y-58857200D01*
X163166667Y-58857200D02*
X163119048Y-58809580D01*
X163119048Y-58809580D02*
X163071429Y-58714342D01*
X163071429Y-58714342D02*
X163071429Y-58428628D01*
X163071429Y-58428628D02*
X163119048Y-58333390D01*
X163119048Y-58333390D02*
X163166667Y-58285771D01*
X163166667Y-58285771D02*
X163261905Y-58238152D01*
X163261905Y-58238152D02*
X163452381Y-58238152D01*
X163452381Y-58238152D02*
X163547619Y-58285771D01*
X164023810Y-58904819D02*
X164023810Y-57904819D01*
X164023810Y-58381009D02*
X164595238Y-58381009D01*
X164595238Y-58904819D02*
X164595238Y-57904819D01*
X165214286Y-58904819D02*
X165119048Y-58857200D01*
X165119048Y-58857200D02*
X165071429Y-58809580D01*
X165071429Y-58809580D02*
X165023810Y-58714342D01*
X165023810Y-58714342D02*
X165023810Y-58428628D01*
X165023810Y-58428628D02*
X165071429Y-58333390D01*
X165071429Y-58333390D02*
X165119048Y-58285771D01*
X165119048Y-58285771D02*
X165214286Y-58238152D01*
X165214286Y-58238152D02*
X165357143Y-58238152D01*
X165357143Y-58238152D02*
X165452381Y-58285771D01*
X165452381Y-58285771D02*
X165500000Y-58333390D01*
X165500000Y-58333390D02*
X165547619Y-58428628D01*
X165547619Y-58428628D02*
X165547619Y-58714342D01*
X165547619Y-58714342D02*
X165500000Y-58809580D01*
X165500000Y-58809580D02*
X165452381Y-58857200D01*
X165452381Y-58857200D02*
X165357143Y-58904819D01*
X165357143Y-58904819D02*
X165214286Y-58904819D01*
X166119048Y-58904819D02*
X166023810Y-58857200D01*
X166023810Y-58857200D02*
X165976191Y-58761961D01*
X165976191Y-58761961D02*
X165976191Y-57904819D01*
X166880953Y-58857200D02*
X166785715Y-58904819D01*
X166785715Y-58904819D02*
X166595239Y-58904819D01*
X166595239Y-58904819D02*
X166500001Y-58857200D01*
X166500001Y-58857200D02*
X166452382Y-58761961D01*
X166452382Y-58761961D02*
X166452382Y-58381009D01*
X166452382Y-58381009D02*
X166500001Y-58285771D01*
X166500001Y-58285771D02*
X166595239Y-58238152D01*
X166595239Y-58238152D02*
X166785715Y-58238152D01*
X166785715Y-58238152D02*
X166880953Y-58285771D01*
X166880953Y-58285771D02*
X166928572Y-58381009D01*
X166928572Y-58381009D02*
X166928572Y-58476247D01*
X166928572Y-58476247D02*
X166452382Y-58571485D01*
X167119049Y-59000057D02*
X167880953Y-59000057D01*
X168071430Y-58000057D02*
X168119049Y-57952438D01*
X168119049Y-57952438D02*
X168214287Y-57904819D01*
X168214287Y-57904819D02*
X168452382Y-57904819D01*
X168452382Y-57904819D02*
X168547620Y-57952438D01*
X168547620Y-57952438D02*
X168595239Y-58000057D01*
X168595239Y-58000057D02*
X168642858Y-58095295D01*
X168642858Y-58095295D02*
X168642858Y-58190533D01*
X168642858Y-58190533D02*
X168595239Y-58333390D01*
X168595239Y-58333390D02*
X168023811Y-58904819D01*
X168023811Y-58904819D02*
X168642858Y-58904819D01*
X169071430Y-58809580D02*
X169119049Y-58857200D01*
X169119049Y-58857200D02*
X169071430Y-58904819D01*
X169071430Y-58904819D02*
X169023811Y-58857200D01*
X169023811Y-58857200D02*
X169071430Y-58809580D01*
X169071430Y-58809580D02*
X169071430Y-58904819D01*
X170023810Y-57904819D02*
X169547620Y-57904819D01*
X169547620Y-57904819D02*
X169500001Y-58381009D01*
X169500001Y-58381009D02*
X169547620Y-58333390D01*
X169547620Y-58333390D02*
X169642858Y-58285771D01*
X169642858Y-58285771D02*
X169880953Y-58285771D01*
X169880953Y-58285771D02*
X169976191Y-58333390D01*
X169976191Y-58333390D02*
X170023810Y-58381009D01*
X170023810Y-58381009D02*
X170071429Y-58476247D01*
X170071429Y-58476247D02*
X170071429Y-58714342D01*
X170071429Y-58714342D02*
X170023810Y-58809580D01*
X170023810Y-58809580D02*
X169976191Y-58857200D01*
X169976191Y-58857200D02*
X169880953Y-58904819D01*
X169880953Y-58904819D02*
X169642858Y-58904819D01*
X169642858Y-58904819D02*
X169547620Y-58857200D01*
X169547620Y-58857200D02*
X169500001Y-58809580D01*
X170500001Y-58904819D02*
X170500001Y-58238152D01*
X170500001Y-58333390D02*
X170547620Y-58285771D01*
X170547620Y-58285771D02*
X170642858Y-58238152D01*
X170642858Y-58238152D02*
X170785715Y-58238152D01*
X170785715Y-58238152D02*
X170880953Y-58285771D01*
X170880953Y-58285771D02*
X170928572Y-58381009D01*
X170928572Y-58381009D02*
X170928572Y-58904819D01*
X170928572Y-58381009D02*
X170976191Y-58285771D01*
X170976191Y-58285771D02*
X171071429Y-58238152D01*
X171071429Y-58238152D02*
X171214286Y-58238152D01*
X171214286Y-58238152D02*
X171309525Y-58285771D01*
X171309525Y-58285771D02*
X171357144Y-58381009D01*
X171357144Y-58381009D02*
X171357144Y-58904819D01*
X171833334Y-58904819D02*
X171833334Y-58238152D01*
X171833334Y-58333390D02*
X171880953Y-58285771D01*
X171880953Y-58285771D02*
X171976191Y-58238152D01*
X171976191Y-58238152D02*
X172119048Y-58238152D01*
X172119048Y-58238152D02*
X172214286Y-58285771D01*
X172214286Y-58285771D02*
X172261905Y-58381009D01*
X172261905Y-58381009D02*
X172261905Y-58904819D01*
X172261905Y-58381009D02*
X172309524Y-58285771D01*
X172309524Y-58285771D02*
X172404762Y-58238152D01*
X172404762Y-58238152D02*
X172547619Y-58238152D01*
X172547619Y-58238152D02*
X172642858Y-58285771D01*
X172642858Y-58285771D02*
X172690477Y-58381009D01*
X172690477Y-58381009D02*
X172690477Y-58904819D01*
X164238095Y-55454819D02*
X164238095Y-54454819D01*
X164238095Y-54931009D02*
X164809523Y-54931009D01*
X164809523Y-55454819D02*
X164809523Y-54454819D01*
X165238095Y-54550057D02*
X165285714Y-54502438D01*
X165285714Y-54502438D02*
X165380952Y-54454819D01*
X165380952Y-54454819D02*
X165619047Y-54454819D01*
X165619047Y-54454819D02*
X165714285Y-54502438D01*
X165714285Y-54502438D02*
X165761904Y-54550057D01*
X165761904Y-54550057D02*
X165809523Y-54645295D01*
X165809523Y-54645295D02*
X165809523Y-54740533D01*
X165809523Y-54740533D02*
X165761904Y-54883390D01*
X165761904Y-54883390D02*
X165190476Y-55454819D01*
X165190476Y-55454819D02*
X165809523Y-55454819D01*
X106119048Y-64204819D02*
X106119048Y-63204819D01*
X106119048Y-63204819D02*
X106357143Y-63204819D01*
X106357143Y-63204819D02*
X106500000Y-63252438D01*
X106500000Y-63252438D02*
X106595238Y-63347676D01*
X106595238Y-63347676D02*
X106642857Y-63442914D01*
X106642857Y-63442914D02*
X106690476Y-63633390D01*
X106690476Y-63633390D02*
X106690476Y-63776247D01*
X106690476Y-63776247D02*
X106642857Y-63966723D01*
X106642857Y-63966723D02*
X106595238Y-64061961D01*
X106595238Y-64061961D02*
X106500000Y-64157200D01*
X106500000Y-64157200D02*
X106357143Y-64204819D01*
X106357143Y-64204819D02*
X106119048Y-64204819D01*
X107309524Y-63204819D02*
X107500000Y-63204819D01*
X107500000Y-63204819D02*
X107595238Y-63252438D01*
X107595238Y-63252438D02*
X107690476Y-63347676D01*
X107690476Y-63347676D02*
X107738095Y-63538152D01*
X107738095Y-63538152D02*
X107738095Y-63871485D01*
X107738095Y-63871485D02*
X107690476Y-64061961D01*
X107690476Y-64061961D02*
X107595238Y-64157200D01*
X107595238Y-64157200D02*
X107500000Y-64204819D01*
X107500000Y-64204819D02*
X107309524Y-64204819D01*
X107309524Y-64204819D02*
X107214286Y-64157200D01*
X107214286Y-64157200D02*
X107119048Y-64061961D01*
X107119048Y-64061961D02*
X107071429Y-63871485D01*
X107071429Y-63871485D02*
X107071429Y-63538152D01*
X107071429Y-63538152D02*
X107119048Y-63347676D01*
X107119048Y-63347676D02*
X107214286Y-63252438D01*
X107214286Y-63252438D02*
X107309524Y-63204819D01*
X108071429Y-63204819D02*
X108309524Y-64204819D01*
X108309524Y-64204819D02*
X108500000Y-63490533D01*
X108500000Y-63490533D02*
X108690476Y-64204819D01*
X108690476Y-64204819D02*
X108928572Y-63204819D01*
X109309524Y-64204819D02*
X109309524Y-63204819D01*
X109309524Y-63204819D02*
X109880952Y-64204819D01*
X109880952Y-64204819D02*
X109880952Y-63204819D01*
X107238095Y-56657200D02*
X107380952Y-56704819D01*
X107380952Y-56704819D02*
X107619047Y-56704819D01*
X107619047Y-56704819D02*
X107714285Y-56657200D01*
X107714285Y-56657200D02*
X107761904Y-56609580D01*
X107761904Y-56609580D02*
X107809523Y-56514342D01*
X107809523Y-56514342D02*
X107809523Y-56419104D01*
X107809523Y-56419104D02*
X107761904Y-56323866D01*
X107761904Y-56323866D02*
X107714285Y-56276247D01*
X107714285Y-56276247D02*
X107619047Y-56228628D01*
X107619047Y-56228628D02*
X107428571Y-56181009D01*
X107428571Y-56181009D02*
X107333333Y-56133390D01*
X107333333Y-56133390D02*
X107285714Y-56085771D01*
X107285714Y-56085771D02*
X107238095Y-55990533D01*
X107238095Y-55990533D02*
X107238095Y-55895295D01*
X107238095Y-55895295D02*
X107285714Y-55800057D01*
X107285714Y-55800057D02*
X107333333Y-55752438D01*
X107333333Y-55752438D02*
X107428571Y-55704819D01*
X107428571Y-55704819D02*
X107666666Y-55704819D01*
X107666666Y-55704819D02*
X107809523Y-55752438D01*
X108666666Y-56038152D02*
X108666666Y-56704819D01*
X108428571Y-55657200D02*
X108190476Y-56371485D01*
X108190476Y-56371485D02*
X108809523Y-56371485D01*
X102309524Y-67904819D02*
X102309524Y-66904819D01*
X102309524Y-66904819D02*
X102642857Y-67619104D01*
X102642857Y-67619104D02*
X102976190Y-66904819D01*
X102976190Y-66904819D02*
X102976190Y-67904819D01*
X103595238Y-67904819D02*
X103500000Y-67857200D01*
X103500000Y-67857200D02*
X103452381Y-67809580D01*
X103452381Y-67809580D02*
X103404762Y-67714342D01*
X103404762Y-67714342D02*
X103404762Y-67428628D01*
X103404762Y-67428628D02*
X103452381Y-67333390D01*
X103452381Y-67333390D02*
X103500000Y-67285771D01*
X103500000Y-67285771D02*
X103595238Y-67238152D01*
X103595238Y-67238152D02*
X103738095Y-67238152D01*
X103738095Y-67238152D02*
X103833333Y-67285771D01*
X103833333Y-67285771D02*
X103880952Y-67333390D01*
X103880952Y-67333390D02*
X103928571Y-67428628D01*
X103928571Y-67428628D02*
X103928571Y-67714342D01*
X103928571Y-67714342D02*
X103880952Y-67809580D01*
X103880952Y-67809580D02*
X103833333Y-67857200D01*
X103833333Y-67857200D02*
X103738095Y-67904819D01*
X103738095Y-67904819D02*
X103595238Y-67904819D01*
X104785714Y-67238152D02*
X104785714Y-67904819D01*
X104357143Y-67238152D02*
X104357143Y-67761961D01*
X104357143Y-67761961D02*
X104404762Y-67857200D01*
X104404762Y-67857200D02*
X104500000Y-67904819D01*
X104500000Y-67904819D02*
X104642857Y-67904819D01*
X104642857Y-67904819D02*
X104738095Y-67857200D01*
X104738095Y-67857200D02*
X104785714Y-67809580D01*
X105261905Y-67238152D02*
X105261905Y-67904819D01*
X105261905Y-67333390D02*
X105309524Y-67285771D01*
X105309524Y-67285771D02*
X105404762Y-67238152D01*
X105404762Y-67238152D02*
X105547619Y-67238152D01*
X105547619Y-67238152D02*
X105642857Y-67285771D01*
X105642857Y-67285771D02*
X105690476Y-67381009D01*
X105690476Y-67381009D02*
X105690476Y-67904819D01*
X106023810Y-67238152D02*
X106404762Y-67238152D01*
X106166667Y-66904819D02*
X106166667Y-67761961D01*
X106166667Y-67761961D02*
X106214286Y-67857200D01*
X106214286Y-67857200D02*
X106309524Y-67904819D01*
X106309524Y-67904819D02*
X106404762Y-67904819D01*
X106738096Y-67904819D02*
X106738096Y-67238152D01*
X106738096Y-66904819D02*
X106690477Y-66952438D01*
X106690477Y-66952438D02*
X106738096Y-67000057D01*
X106738096Y-67000057D02*
X106785715Y-66952438D01*
X106785715Y-66952438D02*
X106738096Y-66904819D01*
X106738096Y-66904819D02*
X106738096Y-67000057D01*
X107214286Y-67238152D02*
X107214286Y-67904819D01*
X107214286Y-67333390D02*
X107261905Y-67285771D01*
X107261905Y-67285771D02*
X107357143Y-67238152D01*
X107357143Y-67238152D02*
X107500000Y-67238152D01*
X107500000Y-67238152D02*
X107595238Y-67285771D01*
X107595238Y-67285771D02*
X107642857Y-67381009D01*
X107642857Y-67381009D02*
X107642857Y-67904819D01*
X108547619Y-67238152D02*
X108547619Y-68047676D01*
X108547619Y-68047676D02*
X108500000Y-68142914D01*
X108500000Y-68142914D02*
X108452381Y-68190533D01*
X108452381Y-68190533D02*
X108357143Y-68238152D01*
X108357143Y-68238152D02*
X108214286Y-68238152D01*
X108214286Y-68238152D02*
X108119048Y-68190533D01*
X108547619Y-67857200D02*
X108452381Y-67904819D01*
X108452381Y-67904819D02*
X108261905Y-67904819D01*
X108261905Y-67904819D02*
X108166667Y-67857200D01*
X108166667Y-67857200D02*
X108119048Y-67809580D01*
X108119048Y-67809580D02*
X108071429Y-67714342D01*
X108071429Y-67714342D02*
X108071429Y-67428628D01*
X108071429Y-67428628D02*
X108119048Y-67333390D01*
X108119048Y-67333390D02*
X108166667Y-67285771D01*
X108166667Y-67285771D02*
X108261905Y-67238152D01*
X108261905Y-67238152D02*
X108452381Y-67238152D01*
X108452381Y-67238152D02*
X108547619Y-67285771D01*
X109023810Y-67904819D02*
X109023810Y-66904819D01*
X109023810Y-67381009D02*
X109595238Y-67381009D01*
X109595238Y-67904819D02*
X109595238Y-66904819D01*
X110214286Y-67904819D02*
X110119048Y-67857200D01*
X110119048Y-67857200D02*
X110071429Y-67809580D01*
X110071429Y-67809580D02*
X110023810Y-67714342D01*
X110023810Y-67714342D02*
X110023810Y-67428628D01*
X110023810Y-67428628D02*
X110071429Y-67333390D01*
X110071429Y-67333390D02*
X110119048Y-67285771D01*
X110119048Y-67285771D02*
X110214286Y-67238152D01*
X110214286Y-67238152D02*
X110357143Y-67238152D01*
X110357143Y-67238152D02*
X110452381Y-67285771D01*
X110452381Y-67285771D02*
X110500000Y-67333390D01*
X110500000Y-67333390D02*
X110547619Y-67428628D01*
X110547619Y-67428628D02*
X110547619Y-67714342D01*
X110547619Y-67714342D02*
X110500000Y-67809580D01*
X110500000Y-67809580D02*
X110452381Y-67857200D01*
X110452381Y-67857200D02*
X110357143Y-67904819D01*
X110357143Y-67904819D02*
X110214286Y-67904819D01*
X111119048Y-67904819D02*
X111023810Y-67857200D01*
X111023810Y-67857200D02*
X110976191Y-67761961D01*
X110976191Y-67761961D02*
X110976191Y-66904819D01*
X111880953Y-67857200D02*
X111785715Y-67904819D01*
X111785715Y-67904819D02*
X111595239Y-67904819D01*
X111595239Y-67904819D02*
X111500001Y-67857200D01*
X111500001Y-67857200D02*
X111452382Y-67761961D01*
X111452382Y-67761961D02*
X111452382Y-67381009D01*
X111452382Y-67381009D02*
X111500001Y-67285771D01*
X111500001Y-67285771D02*
X111595239Y-67238152D01*
X111595239Y-67238152D02*
X111785715Y-67238152D01*
X111785715Y-67238152D02*
X111880953Y-67285771D01*
X111880953Y-67285771D02*
X111928572Y-67381009D01*
X111928572Y-67381009D02*
X111928572Y-67476247D01*
X111928572Y-67476247D02*
X111452382Y-67571485D01*
X112119049Y-68000057D02*
X112880953Y-68000057D01*
X113071430Y-67000057D02*
X113119049Y-66952438D01*
X113119049Y-66952438D02*
X113214287Y-66904819D01*
X113214287Y-66904819D02*
X113452382Y-66904819D01*
X113452382Y-66904819D02*
X113547620Y-66952438D01*
X113547620Y-66952438D02*
X113595239Y-67000057D01*
X113595239Y-67000057D02*
X113642858Y-67095295D01*
X113642858Y-67095295D02*
X113642858Y-67190533D01*
X113642858Y-67190533D02*
X113595239Y-67333390D01*
X113595239Y-67333390D02*
X113023811Y-67904819D01*
X113023811Y-67904819D02*
X113642858Y-67904819D01*
X114071430Y-67809580D02*
X114119049Y-67857200D01*
X114119049Y-67857200D02*
X114071430Y-67904819D01*
X114071430Y-67904819D02*
X114023811Y-67857200D01*
X114023811Y-67857200D02*
X114071430Y-67809580D01*
X114071430Y-67809580D02*
X114071430Y-67904819D01*
X115023810Y-66904819D02*
X114547620Y-66904819D01*
X114547620Y-66904819D02*
X114500001Y-67381009D01*
X114500001Y-67381009D02*
X114547620Y-67333390D01*
X114547620Y-67333390D02*
X114642858Y-67285771D01*
X114642858Y-67285771D02*
X114880953Y-67285771D01*
X114880953Y-67285771D02*
X114976191Y-67333390D01*
X114976191Y-67333390D02*
X115023810Y-67381009D01*
X115023810Y-67381009D02*
X115071429Y-67476247D01*
X115071429Y-67476247D02*
X115071429Y-67714342D01*
X115071429Y-67714342D02*
X115023810Y-67809580D01*
X115023810Y-67809580D02*
X114976191Y-67857200D01*
X114976191Y-67857200D02*
X114880953Y-67904819D01*
X114880953Y-67904819D02*
X114642858Y-67904819D01*
X114642858Y-67904819D02*
X114547620Y-67857200D01*
X114547620Y-67857200D02*
X114500001Y-67809580D01*
X115500001Y-67904819D02*
X115500001Y-67238152D01*
X115500001Y-67333390D02*
X115547620Y-67285771D01*
X115547620Y-67285771D02*
X115642858Y-67238152D01*
X115642858Y-67238152D02*
X115785715Y-67238152D01*
X115785715Y-67238152D02*
X115880953Y-67285771D01*
X115880953Y-67285771D02*
X115928572Y-67381009D01*
X115928572Y-67381009D02*
X115928572Y-67904819D01*
X115928572Y-67381009D02*
X115976191Y-67285771D01*
X115976191Y-67285771D02*
X116071429Y-67238152D01*
X116071429Y-67238152D02*
X116214286Y-67238152D01*
X116214286Y-67238152D02*
X116309525Y-67285771D01*
X116309525Y-67285771D02*
X116357144Y-67381009D01*
X116357144Y-67381009D02*
X116357144Y-67904819D01*
X116833334Y-67904819D02*
X116833334Y-67238152D01*
X116833334Y-67333390D02*
X116880953Y-67285771D01*
X116880953Y-67285771D02*
X116976191Y-67238152D01*
X116976191Y-67238152D02*
X117119048Y-67238152D01*
X117119048Y-67238152D02*
X117214286Y-67285771D01*
X117214286Y-67285771D02*
X117261905Y-67381009D01*
X117261905Y-67381009D02*
X117261905Y-67904819D01*
X117261905Y-67381009D02*
X117309524Y-67285771D01*
X117309524Y-67285771D02*
X117404762Y-67238152D01*
X117404762Y-67238152D02*
X117547619Y-67238152D01*
X117547619Y-67238152D02*
X117642858Y-67285771D01*
X117642858Y-67285771D02*
X117690477Y-67381009D01*
X117690477Y-67381009D02*
X117690477Y-67904819D01*
X109238095Y-64454819D02*
X109238095Y-63454819D01*
X109238095Y-63931009D02*
X109809523Y-63931009D01*
X109809523Y-64454819D02*
X109809523Y-63454819D01*
X110714285Y-63788152D02*
X110714285Y-64454819D01*
X110476190Y-63407200D02*
X110238095Y-64121485D01*
X110238095Y-64121485D02*
X110857142Y-64121485D01*
X72809523Y-50454819D02*
X72999999Y-50454819D01*
X72999999Y-50454819D02*
X73095237Y-50502438D01*
X73095237Y-50502438D02*
X73190475Y-50597676D01*
X73190475Y-50597676D02*
X73238094Y-50788152D01*
X73238094Y-50788152D02*
X73238094Y-51121485D01*
X73238094Y-51121485D02*
X73190475Y-51311961D01*
X73190475Y-51311961D02*
X73095237Y-51407200D01*
X73095237Y-51407200D02*
X72999999Y-51454819D01*
X72999999Y-51454819D02*
X72809523Y-51454819D01*
X72809523Y-51454819D02*
X72714285Y-51407200D01*
X72714285Y-51407200D02*
X72619047Y-51311961D01*
X72619047Y-51311961D02*
X72571428Y-51121485D01*
X72571428Y-51121485D02*
X72571428Y-50788152D01*
X72571428Y-50788152D02*
X72619047Y-50597676D01*
X72619047Y-50597676D02*
X72714285Y-50502438D01*
X72714285Y-50502438D02*
X72809523Y-50454819D01*
X74142856Y-51454819D02*
X73666666Y-51454819D01*
X73666666Y-51454819D02*
X73666666Y-50454819D01*
X74476190Y-50931009D02*
X74809523Y-50931009D01*
X74952380Y-51454819D02*
X74476190Y-51454819D01*
X74476190Y-51454819D02*
X74476190Y-50454819D01*
X74476190Y-50454819D02*
X74952380Y-50454819D01*
X75380952Y-51454819D02*
X75380952Y-50454819D01*
X75380952Y-50454819D02*
X75619047Y-50454819D01*
X75619047Y-50454819D02*
X75761904Y-50502438D01*
X75761904Y-50502438D02*
X75857142Y-50597676D01*
X75857142Y-50597676D02*
X75904761Y-50692914D01*
X75904761Y-50692914D02*
X75952380Y-50883390D01*
X75952380Y-50883390D02*
X75952380Y-51026247D01*
X75952380Y-51026247D02*
X75904761Y-51216723D01*
X75904761Y-51216723D02*
X75857142Y-51311961D01*
X75857142Y-51311961D02*
X75761904Y-51407200D01*
X75761904Y-51407200D02*
X75619047Y-51454819D01*
X75619047Y-51454819D02*
X75380952Y-51454819D01*
X76142857Y-51550057D02*
X76904761Y-51550057D01*
X77095238Y-51407200D02*
X77238095Y-51454819D01*
X77238095Y-51454819D02*
X77476190Y-51454819D01*
X77476190Y-51454819D02*
X77571428Y-51407200D01*
X77571428Y-51407200D02*
X77619047Y-51359580D01*
X77619047Y-51359580D02*
X77666666Y-51264342D01*
X77666666Y-51264342D02*
X77666666Y-51169104D01*
X77666666Y-51169104D02*
X77619047Y-51073866D01*
X77619047Y-51073866D02*
X77571428Y-51026247D01*
X77571428Y-51026247D02*
X77476190Y-50978628D01*
X77476190Y-50978628D02*
X77285714Y-50931009D01*
X77285714Y-50931009D02*
X77190476Y-50883390D01*
X77190476Y-50883390D02*
X77142857Y-50835771D01*
X77142857Y-50835771D02*
X77095238Y-50740533D01*
X77095238Y-50740533D02*
X77095238Y-50645295D01*
X77095238Y-50645295D02*
X77142857Y-50550057D01*
X77142857Y-50550057D02*
X77190476Y-50502438D01*
X77190476Y-50502438D02*
X77285714Y-50454819D01*
X77285714Y-50454819D02*
X77523809Y-50454819D01*
X77523809Y-50454819D02*
X77666666Y-50502438D01*
X78047619Y-51407200D02*
X78190476Y-51454819D01*
X78190476Y-51454819D02*
X78428571Y-51454819D01*
X78428571Y-51454819D02*
X78523809Y-51407200D01*
X78523809Y-51407200D02*
X78571428Y-51359580D01*
X78571428Y-51359580D02*
X78619047Y-51264342D01*
X78619047Y-51264342D02*
X78619047Y-51169104D01*
X78619047Y-51169104D02*
X78571428Y-51073866D01*
X78571428Y-51073866D02*
X78523809Y-51026247D01*
X78523809Y-51026247D02*
X78428571Y-50978628D01*
X78428571Y-50978628D02*
X78238095Y-50931009D01*
X78238095Y-50931009D02*
X78142857Y-50883390D01*
X78142857Y-50883390D02*
X78095238Y-50835771D01*
X78095238Y-50835771D02*
X78047619Y-50740533D01*
X78047619Y-50740533D02*
X78047619Y-50645295D01*
X78047619Y-50645295D02*
X78095238Y-50550057D01*
X78095238Y-50550057D02*
X78142857Y-50502438D01*
X78142857Y-50502438D02*
X78238095Y-50454819D01*
X78238095Y-50454819D02*
X78476190Y-50454819D01*
X78476190Y-50454819D02*
X78619047Y-50502438D01*
X79047619Y-51454819D02*
X79047619Y-50454819D01*
X79047619Y-50454819D02*
X79285714Y-50454819D01*
X79285714Y-50454819D02*
X79428571Y-50502438D01*
X79428571Y-50502438D02*
X79523809Y-50597676D01*
X79523809Y-50597676D02*
X79571428Y-50692914D01*
X79571428Y-50692914D02*
X79619047Y-50883390D01*
X79619047Y-50883390D02*
X79619047Y-51026247D01*
X79619047Y-51026247D02*
X79571428Y-51216723D01*
X79571428Y-51216723D02*
X79523809Y-51311961D01*
X79523809Y-51311961D02*
X79428571Y-51407200D01*
X79428571Y-51407200D02*
X79285714Y-51454819D01*
X79285714Y-51454819D02*
X79047619Y-51454819D01*
X80571428Y-51454819D02*
X80000000Y-51454819D01*
X80285714Y-51454819D02*
X80285714Y-50454819D01*
X80285714Y-50454819D02*
X80190476Y-50597676D01*
X80190476Y-50597676D02*
X80095238Y-50692914D01*
X80095238Y-50692914D02*
X80000000Y-50740533D01*
X80904762Y-50454819D02*
X81523809Y-50454819D01*
X81523809Y-50454819D02*
X81190476Y-50835771D01*
X81190476Y-50835771D02*
X81333333Y-50835771D01*
X81333333Y-50835771D02*
X81428571Y-50883390D01*
X81428571Y-50883390D02*
X81476190Y-50931009D01*
X81476190Y-50931009D02*
X81523809Y-51026247D01*
X81523809Y-51026247D02*
X81523809Y-51264342D01*
X81523809Y-51264342D02*
X81476190Y-51359580D01*
X81476190Y-51359580D02*
X81428571Y-51407200D01*
X81428571Y-51407200D02*
X81333333Y-51454819D01*
X81333333Y-51454819D02*
X81047619Y-51454819D01*
X81047619Y-51454819D02*
X80952381Y-51407200D01*
X80952381Y-51407200D02*
X80904762Y-51359580D01*
X82142857Y-50454819D02*
X82238095Y-50454819D01*
X82238095Y-50454819D02*
X82333333Y-50502438D01*
X82333333Y-50502438D02*
X82380952Y-50550057D01*
X82380952Y-50550057D02*
X82428571Y-50645295D01*
X82428571Y-50645295D02*
X82476190Y-50835771D01*
X82476190Y-50835771D02*
X82476190Y-51073866D01*
X82476190Y-51073866D02*
X82428571Y-51264342D01*
X82428571Y-51264342D02*
X82380952Y-51359580D01*
X82380952Y-51359580D02*
X82333333Y-51407200D01*
X82333333Y-51407200D02*
X82238095Y-51454819D01*
X82238095Y-51454819D02*
X82142857Y-51454819D01*
X82142857Y-51454819D02*
X82047619Y-51407200D01*
X82047619Y-51407200D02*
X82000000Y-51359580D01*
X82000000Y-51359580D02*
X81952381Y-51264342D01*
X81952381Y-51264342D02*
X81904762Y-51073866D01*
X81904762Y-51073866D02*
X81904762Y-50835771D01*
X81904762Y-50835771D02*
X81952381Y-50645295D01*
X81952381Y-50645295D02*
X82000000Y-50550057D01*
X82000000Y-50550057D02*
X82047619Y-50502438D01*
X82047619Y-50502438D02*
X82142857Y-50454819D01*
X83333333Y-50454819D02*
X83142857Y-50454819D01*
X83142857Y-50454819D02*
X83047619Y-50502438D01*
X83047619Y-50502438D02*
X83000000Y-50550057D01*
X83000000Y-50550057D02*
X82904762Y-50692914D01*
X82904762Y-50692914D02*
X82857143Y-50883390D01*
X82857143Y-50883390D02*
X82857143Y-51264342D01*
X82857143Y-51264342D02*
X82904762Y-51359580D01*
X82904762Y-51359580D02*
X82952381Y-51407200D01*
X82952381Y-51407200D02*
X83047619Y-51454819D01*
X83047619Y-51454819D02*
X83238095Y-51454819D01*
X83238095Y-51454819D02*
X83333333Y-51407200D01*
X83333333Y-51407200D02*
X83380952Y-51359580D01*
X83380952Y-51359580D02*
X83428571Y-51264342D01*
X83428571Y-51264342D02*
X83428571Y-51026247D01*
X83428571Y-51026247D02*
X83380952Y-50931009D01*
X83380952Y-50931009D02*
X83333333Y-50883390D01*
X83333333Y-50883390D02*
X83238095Y-50835771D01*
X83238095Y-50835771D02*
X83047619Y-50835771D01*
X83047619Y-50835771D02*
X82952381Y-50883390D01*
X82952381Y-50883390D02*
X82904762Y-50931009D01*
X82904762Y-50931009D02*
X82857143Y-51026247D01*
X91214286Y-63204819D02*
X91214286Y-64014342D01*
X91214286Y-64014342D02*
X91261905Y-64109580D01*
X91261905Y-64109580D02*
X91309524Y-64157200D01*
X91309524Y-64157200D02*
X91404762Y-64204819D01*
X91404762Y-64204819D02*
X91595238Y-64204819D01*
X91595238Y-64204819D02*
X91690476Y-64157200D01*
X91690476Y-64157200D02*
X91738095Y-64109580D01*
X91738095Y-64109580D02*
X91785714Y-64014342D01*
X91785714Y-64014342D02*
X91785714Y-63204819D01*
X92261905Y-64204819D02*
X92261905Y-63204819D01*
X92261905Y-63204819D02*
X92642857Y-63204819D01*
X92642857Y-63204819D02*
X92738095Y-63252438D01*
X92738095Y-63252438D02*
X92785714Y-63300057D01*
X92785714Y-63300057D02*
X92833333Y-63395295D01*
X92833333Y-63395295D02*
X92833333Y-63538152D01*
X92833333Y-63538152D02*
X92785714Y-63633390D01*
X92785714Y-63633390D02*
X92738095Y-63681009D01*
X92738095Y-63681009D02*
X92642857Y-63728628D01*
X92642857Y-63728628D02*
X92261905Y-63728628D01*
X91238095Y-56657200D02*
X91380952Y-56704819D01*
X91380952Y-56704819D02*
X91619047Y-56704819D01*
X91619047Y-56704819D02*
X91714285Y-56657200D01*
X91714285Y-56657200D02*
X91761904Y-56609580D01*
X91761904Y-56609580D02*
X91809523Y-56514342D01*
X91809523Y-56514342D02*
X91809523Y-56419104D01*
X91809523Y-56419104D02*
X91761904Y-56323866D01*
X91761904Y-56323866D02*
X91714285Y-56276247D01*
X91714285Y-56276247D02*
X91619047Y-56228628D01*
X91619047Y-56228628D02*
X91428571Y-56181009D01*
X91428571Y-56181009D02*
X91333333Y-56133390D01*
X91333333Y-56133390D02*
X91285714Y-56085771D01*
X91285714Y-56085771D02*
X91238095Y-55990533D01*
X91238095Y-55990533D02*
X91238095Y-55895295D01*
X91238095Y-55895295D02*
X91285714Y-55800057D01*
X91285714Y-55800057D02*
X91333333Y-55752438D01*
X91333333Y-55752438D02*
X91428571Y-55704819D01*
X91428571Y-55704819D02*
X91666666Y-55704819D01*
X91666666Y-55704819D02*
X91809523Y-55752438D01*
X92142857Y-55704819D02*
X92761904Y-55704819D01*
X92761904Y-55704819D02*
X92428571Y-56085771D01*
X92428571Y-56085771D02*
X92571428Y-56085771D01*
X92571428Y-56085771D02*
X92666666Y-56133390D01*
X92666666Y-56133390D02*
X92714285Y-56181009D01*
X92714285Y-56181009D02*
X92761904Y-56276247D01*
X92761904Y-56276247D02*
X92761904Y-56514342D01*
X92761904Y-56514342D02*
X92714285Y-56609580D01*
X92714285Y-56609580D02*
X92666666Y-56657200D01*
X92666666Y-56657200D02*
X92571428Y-56704819D01*
X92571428Y-56704819D02*
X92285714Y-56704819D01*
X92285714Y-56704819D02*
X92190476Y-56657200D01*
X92190476Y-56657200D02*
X92142857Y-56609580D01*
X26166667Y-53654819D02*
X26404762Y-54654819D01*
X26404762Y-54654819D02*
X26595238Y-53940533D01*
X26595238Y-53940533D02*
X26785714Y-54654819D01*
X26785714Y-54654819D02*
X27023810Y-53654819D01*
X27357143Y-54607200D02*
X27500000Y-54654819D01*
X27500000Y-54654819D02*
X27738095Y-54654819D01*
X27738095Y-54654819D02*
X27833333Y-54607200D01*
X27833333Y-54607200D02*
X27880952Y-54559580D01*
X27880952Y-54559580D02*
X27928571Y-54464342D01*
X27928571Y-54464342D02*
X27928571Y-54369104D01*
X27928571Y-54369104D02*
X27880952Y-54273866D01*
X27880952Y-54273866D02*
X27833333Y-54226247D01*
X27833333Y-54226247D02*
X27738095Y-54178628D01*
X27738095Y-54178628D02*
X27547619Y-54131009D01*
X27547619Y-54131009D02*
X27452381Y-54083390D01*
X27452381Y-54083390D02*
X27404762Y-54035771D01*
X27404762Y-54035771D02*
X27357143Y-53940533D01*
X27357143Y-53940533D02*
X27357143Y-53845295D01*
X27357143Y-53845295D02*
X27404762Y-53750057D01*
X27404762Y-53750057D02*
X27452381Y-53702438D01*
X27452381Y-53702438D02*
X27547619Y-53654819D01*
X27547619Y-53654819D02*
X27785714Y-53654819D01*
X27785714Y-53654819D02*
X27928571Y-53702438D01*
X28309524Y-53750057D02*
X28357143Y-53702438D01*
X28357143Y-53702438D02*
X28452381Y-53654819D01*
X28452381Y-53654819D02*
X28690476Y-53654819D01*
X28690476Y-53654819D02*
X28785714Y-53702438D01*
X28785714Y-53702438D02*
X28833333Y-53750057D01*
X28833333Y-53750057D02*
X28880952Y-53845295D01*
X28880952Y-53845295D02*
X28880952Y-53940533D01*
X28880952Y-53940533D02*
X28833333Y-54083390D01*
X28833333Y-54083390D02*
X28261905Y-54654819D01*
X28261905Y-54654819D02*
X28880952Y-54654819D01*
X29452381Y-54083390D02*
X29357143Y-54035771D01*
X29357143Y-54035771D02*
X29309524Y-53988152D01*
X29309524Y-53988152D02*
X29261905Y-53892914D01*
X29261905Y-53892914D02*
X29261905Y-53845295D01*
X29261905Y-53845295D02*
X29309524Y-53750057D01*
X29309524Y-53750057D02*
X29357143Y-53702438D01*
X29357143Y-53702438D02*
X29452381Y-53654819D01*
X29452381Y-53654819D02*
X29642857Y-53654819D01*
X29642857Y-53654819D02*
X29738095Y-53702438D01*
X29738095Y-53702438D02*
X29785714Y-53750057D01*
X29785714Y-53750057D02*
X29833333Y-53845295D01*
X29833333Y-53845295D02*
X29833333Y-53892914D01*
X29833333Y-53892914D02*
X29785714Y-53988152D01*
X29785714Y-53988152D02*
X29738095Y-54035771D01*
X29738095Y-54035771D02*
X29642857Y-54083390D01*
X29642857Y-54083390D02*
X29452381Y-54083390D01*
X29452381Y-54083390D02*
X29357143Y-54131009D01*
X29357143Y-54131009D02*
X29309524Y-54178628D01*
X29309524Y-54178628D02*
X29261905Y-54273866D01*
X29261905Y-54273866D02*
X29261905Y-54464342D01*
X29261905Y-54464342D02*
X29309524Y-54559580D01*
X29309524Y-54559580D02*
X29357143Y-54607200D01*
X29357143Y-54607200D02*
X29452381Y-54654819D01*
X29452381Y-54654819D02*
X29642857Y-54654819D01*
X29642857Y-54654819D02*
X29738095Y-54607200D01*
X29738095Y-54607200D02*
X29785714Y-54559580D01*
X29785714Y-54559580D02*
X29833333Y-54464342D01*
X29833333Y-54464342D02*
X29833333Y-54273866D01*
X29833333Y-54273866D02*
X29785714Y-54178628D01*
X29785714Y-54178628D02*
X29738095Y-54131009D01*
X29738095Y-54131009D02*
X29642857Y-54083390D01*
X30785714Y-54654819D02*
X30214286Y-54654819D01*
X30500000Y-54654819D02*
X30500000Y-53654819D01*
X30500000Y-53654819D02*
X30404762Y-53797676D01*
X30404762Y-53797676D02*
X30309524Y-53892914D01*
X30309524Y-53892914D02*
X30214286Y-53940533D01*
X31166667Y-53750057D02*
X31214286Y-53702438D01*
X31214286Y-53702438D02*
X31309524Y-53654819D01*
X31309524Y-53654819D02*
X31547619Y-53654819D01*
X31547619Y-53654819D02*
X31642857Y-53702438D01*
X31642857Y-53702438D02*
X31690476Y-53750057D01*
X31690476Y-53750057D02*
X31738095Y-53845295D01*
X31738095Y-53845295D02*
X31738095Y-53940533D01*
X31738095Y-53940533D02*
X31690476Y-54083390D01*
X31690476Y-54083390D02*
X31119048Y-54654819D01*
X31119048Y-54654819D02*
X31738095Y-54654819D01*
X32500000Y-54131009D02*
X32642857Y-54178628D01*
X32642857Y-54178628D02*
X32690476Y-54226247D01*
X32690476Y-54226247D02*
X32738095Y-54321485D01*
X32738095Y-54321485D02*
X32738095Y-54464342D01*
X32738095Y-54464342D02*
X32690476Y-54559580D01*
X32690476Y-54559580D02*
X32642857Y-54607200D01*
X32642857Y-54607200D02*
X32547619Y-54654819D01*
X32547619Y-54654819D02*
X32166667Y-54654819D01*
X32166667Y-54654819D02*
X32166667Y-53654819D01*
X32166667Y-53654819D02*
X32500000Y-53654819D01*
X32500000Y-53654819D02*
X32595238Y-53702438D01*
X32595238Y-53702438D02*
X32642857Y-53750057D01*
X32642857Y-53750057D02*
X32690476Y-53845295D01*
X32690476Y-53845295D02*
X32690476Y-53940533D01*
X32690476Y-53940533D02*
X32642857Y-54035771D01*
X32642857Y-54035771D02*
X32595238Y-54083390D01*
X32595238Y-54083390D02*
X32500000Y-54131009D01*
X32500000Y-54131009D02*
X32166667Y-54131009D01*
X33166667Y-54273866D02*
X33928572Y-54273866D01*
X34357143Y-53750057D02*
X34404762Y-53702438D01*
X34404762Y-53702438D02*
X34500000Y-53654819D01*
X34500000Y-53654819D02*
X34738095Y-53654819D01*
X34738095Y-53654819D02*
X34833333Y-53702438D01*
X34833333Y-53702438D02*
X34880952Y-53750057D01*
X34880952Y-53750057D02*
X34928571Y-53845295D01*
X34928571Y-53845295D02*
X34928571Y-53940533D01*
X34928571Y-53940533D02*
X34880952Y-54083390D01*
X34880952Y-54083390D02*
X34309524Y-54654819D01*
X34309524Y-54654819D02*
X34928571Y-54654819D01*
X35547619Y-53654819D02*
X35642857Y-53654819D01*
X35642857Y-53654819D02*
X35738095Y-53702438D01*
X35738095Y-53702438D02*
X35785714Y-53750057D01*
X35785714Y-53750057D02*
X35833333Y-53845295D01*
X35833333Y-53845295D02*
X35880952Y-54035771D01*
X35880952Y-54035771D02*
X35880952Y-54273866D01*
X35880952Y-54273866D02*
X35833333Y-54464342D01*
X35833333Y-54464342D02*
X35785714Y-54559580D01*
X35785714Y-54559580D02*
X35738095Y-54607200D01*
X35738095Y-54607200D02*
X35642857Y-54654819D01*
X35642857Y-54654819D02*
X35547619Y-54654819D01*
X35547619Y-54654819D02*
X35452381Y-54607200D01*
X35452381Y-54607200D02*
X35404762Y-54559580D01*
X35404762Y-54559580D02*
X35357143Y-54464342D01*
X35357143Y-54464342D02*
X35309524Y-54273866D01*
X35309524Y-54273866D02*
X35309524Y-54035771D01*
X35309524Y-54035771D02*
X35357143Y-53845295D01*
X35357143Y-53845295D02*
X35404762Y-53750057D01*
X35404762Y-53750057D02*
X35452381Y-53702438D01*
X35452381Y-53702438D02*
X35547619Y-53654819D01*
X36261905Y-53750057D02*
X36309524Y-53702438D01*
X36309524Y-53702438D02*
X36404762Y-53654819D01*
X36404762Y-53654819D02*
X36642857Y-53654819D01*
X36642857Y-53654819D02*
X36738095Y-53702438D01*
X36738095Y-53702438D02*
X36785714Y-53750057D01*
X36785714Y-53750057D02*
X36833333Y-53845295D01*
X36833333Y-53845295D02*
X36833333Y-53940533D01*
X36833333Y-53940533D02*
X36785714Y-54083390D01*
X36785714Y-54083390D02*
X36214286Y-54654819D01*
X36214286Y-54654819D02*
X36833333Y-54654819D01*
X37452381Y-53654819D02*
X37547619Y-53654819D01*
X37547619Y-53654819D02*
X37642857Y-53702438D01*
X37642857Y-53702438D02*
X37690476Y-53750057D01*
X37690476Y-53750057D02*
X37738095Y-53845295D01*
X37738095Y-53845295D02*
X37785714Y-54035771D01*
X37785714Y-54035771D02*
X37785714Y-54273866D01*
X37785714Y-54273866D02*
X37738095Y-54464342D01*
X37738095Y-54464342D02*
X37690476Y-54559580D01*
X37690476Y-54559580D02*
X37642857Y-54607200D01*
X37642857Y-54607200D02*
X37547619Y-54654819D01*
X37547619Y-54654819D02*
X37452381Y-54654819D01*
X37452381Y-54654819D02*
X37357143Y-54607200D01*
X37357143Y-54607200D02*
X37309524Y-54559580D01*
X37309524Y-54559580D02*
X37261905Y-54464342D01*
X37261905Y-54464342D02*
X37214286Y-54273866D01*
X37214286Y-54273866D02*
X37214286Y-54035771D01*
X37214286Y-54035771D02*
X37261905Y-53845295D01*
X37261905Y-53845295D02*
X37309524Y-53750057D01*
X37309524Y-53750057D02*
X37357143Y-53702438D01*
X37357143Y-53702438D02*
X37452381Y-53654819D01*
D11*
X31630952Y-52227409D02*
X31630952Y-51727409D01*
X31630952Y-51727409D02*
X31750000Y-51727409D01*
X31750000Y-51727409D02*
X31821428Y-51751219D01*
X31821428Y-51751219D02*
X31869047Y-51798838D01*
X31869047Y-51798838D02*
X31892857Y-51846457D01*
X31892857Y-51846457D02*
X31916666Y-51941695D01*
X31916666Y-51941695D02*
X31916666Y-52013123D01*
X31916666Y-52013123D02*
X31892857Y-52108361D01*
X31892857Y-52108361D02*
X31869047Y-52155980D01*
X31869047Y-52155980D02*
X31821428Y-52203600D01*
X31821428Y-52203600D02*
X31750000Y-52227409D01*
X31750000Y-52227409D02*
X31630952Y-52227409D01*
X32083333Y-51727409D02*
X32392857Y-51727409D01*
X32392857Y-51727409D02*
X32226190Y-51917885D01*
X32226190Y-51917885D02*
X32297619Y-51917885D01*
X32297619Y-51917885D02*
X32345238Y-51941695D01*
X32345238Y-51941695D02*
X32369047Y-51965504D01*
X32369047Y-51965504D02*
X32392857Y-52013123D01*
X32392857Y-52013123D02*
X32392857Y-52132171D01*
X32392857Y-52132171D02*
X32369047Y-52179790D01*
X32369047Y-52179790D02*
X32345238Y-52203600D01*
X32345238Y-52203600D02*
X32297619Y-52227409D01*
X32297619Y-52227409D02*
X32154762Y-52227409D01*
X32154762Y-52227409D02*
X32107143Y-52203600D01*
X32107143Y-52203600D02*
X32083333Y-52179790D01*
D10*
X159119047Y-47884819D02*
X158642857Y-47884819D01*
X158642857Y-47884819D02*
X158595238Y-48361009D01*
X158595238Y-48361009D02*
X158642857Y-48313390D01*
X158642857Y-48313390D02*
X158738095Y-48265771D01*
X158738095Y-48265771D02*
X158976190Y-48265771D01*
X158976190Y-48265771D02*
X159071428Y-48313390D01*
X159071428Y-48313390D02*
X159119047Y-48361009D01*
X159119047Y-48361009D02*
X159166666Y-48456247D01*
X159166666Y-48456247D02*
X159166666Y-48694342D01*
X159166666Y-48694342D02*
X159119047Y-48789580D01*
X159119047Y-48789580D02*
X159071428Y-48837200D01*
X159071428Y-48837200D02*
X158976190Y-48884819D01*
X158976190Y-48884819D02*
X158738095Y-48884819D01*
X158738095Y-48884819D02*
X158642857Y-48837200D01*
X158642857Y-48837200D02*
X158595238Y-48789580D01*
X159595238Y-48789580D02*
X159642857Y-48837200D01*
X159642857Y-48837200D02*
X159595238Y-48884819D01*
X159595238Y-48884819D02*
X159547619Y-48837200D01*
X159547619Y-48837200D02*
X159595238Y-48789580D01*
X159595238Y-48789580D02*
X159595238Y-48884819D01*
X160595237Y-48884819D02*
X160023809Y-48884819D01*
X160309523Y-48884819D02*
X160309523Y-47884819D01*
X160309523Y-47884819D02*
X160214285Y-48027676D01*
X160214285Y-48027676D02*
X160119047Y-48122914D01*
X160119047Y-48122914D02*
X160023809Y-48170533D01*
X161023809Y-48884819D02*
X161023809Y-47884819D01*
X161119047Y-48503866D02*
X161404761Y-48884819D01*
X161404761Y-48218152D02*
X161023809Y-48599104D01*
D12*
X159933333Y-47181927D02*
X159800000Y-46991451D01*
X159704762Y-47181927D02*
X159704762Y-46781927D01*
X159704762Y-46781927D02*
X159857143Y-46781927D01*
X159857143Y-46781927D02*
X159895238Y-46800975D01*
X159895238Y-46800975D02*
X159914285Y-46820022D01*
X159914285Y-46820022D02*
X159933333Y-46858118D01*
X159933333Y-46858118D02*
X159933333Y-46915260D01*
X159933333Y-46915260D02*
X159914285Y-46953356D01*
X159914285Y-46953356D02*
X159895238Y-46972403D01*
X159895238Y-46972403D02*
X159857143Y-46991451D01*
X159857143Y-46991451D02*
X159704762Y-46991451D01*
X160314285Y-47181927D02*
X160085714Y-47181927D01*
X160200000Y-47181927D02*
X160200000Y-46781927D01*
X160200000Y-46781927D02*
X160161904Y-46839070D01*
X160161904Y-46839070D02*
X160123809Y-46877165D01*
X160123809Y-46877165D02*
X160085714Y-46896213D01*
D10*
X169354819Y-67047618D02*
X170164342Y-67047618D01*
X170164342Y-67047618D02*
X170259580Y-66999999D01*
X170259580Y-66999999D02*
X170307200Y-66952380D01*
X170307200Y-66952380D02*
X170354819Y-66857142D01*
X170354819Y-66857142D02*
X170354819Y-66666666D01*
X170354819Y-66666666D02*
X170307200Y-66571428D01*
X170307200Y-66571428D02*
X170259580Y-66523809D01*
X170259580Y-66523809D02*
X170164342Y-66476190D01*
X170164342Y-66476190D02*
X169354819Y-66476190D01*
X170307200Y-66047618D02*
X170354819Y-65904761D01*
X170354819Y-65904761D02*
X170354819Y-65666666D01*
X170354819Y-65666666D02*
X170307200Y-65571428D01*
X170307200Y-65571428D02*
X170259580Y-65523809D01*
X170259580Y-65523809D02*
X170164342Y-65476190D01*
X170164342Y-65476190D02*
X170069104Y-65476190D01*
X170069104Y-65476190D02*
X169973866Y-65523809D01*
X169973866Y-65523809D02*
X169926247Y-65571428D01*
X169926247Y-65571428D02*
X169878628Y-65666666D01*
X169878628Y-65666666D02*
X169831009Y-65857142D01*
X169831009Y-65857142D02*
X169783390Y-65952380D01*
X169783390Y-65952380D02*
X169735771Y-65999999D01*
X169735771Y-65999999D02*
X169640533Y-66047618D01*
X169640533Y-66047618D02*
X169545295Y-66047618D01*
X169545295Y-66047618D02*
X169450057Y-65999999D01*
X169450057Y-65999999D02*
X169402438Y-65952380D01*
X169402438Y-65952380D02*
X169354819Y-65857142D01*
X169354819Y-65857142D02*
X169354819Y-65619047D01*
X169354819Y-65619047D02*
X169402438Y-65476190D01*
X169831009Y-64714285D02*
X169878628Y-64571428D01*
X169878628Y-64571428D02*
X169926247Y-64523809D01*
X169926247Y-64523809D02*
X170021485Y-64476190D01*
X170021485Y-64476190D02*
X170164342Y-64476190D01*
X170164342Y-64476190D02*
X170259580Y-64523809D01*
X170259580Y-64523809D02*
X170307200Y-64571428D01*
X170307200Y-64571428D02*
X170354819Y-64666666D01*
X170354819Y-64666666D02*
X170354819Y-65047618D01*
X170354819Y-65047618D02*
X169354819Y-65047618D01*
X169354819Y-65047618D02*
X169354819Y-64714285D01*
X169354819Y-64714285D02*
X169402438Y-64619047D01*
X169402438Y-64619047D02*
X169450057Y-64571428D01*
X169450057Y-64571428D02*
X169545295Y-64523809D01*
X169545295Y-64523809D02*
X169640533Y-64523809D01*
X169640533Y-64523809D02*
X169735771Y-64571428D01*
X169735771Y-64571428D02*
X169783390Y-64619047D01*
X169783390Y-64619047D02*
X169831009Y-64714285D01*
X169831009Y-64714285D02*
X169831009Y-65047618D01*
X170450057Y-64285714D02*
X170450057Y-63523809D01*
X170259580Y-62714285D02*
X170307200Y-62761904D01*
X170307200Y-62761904D02*
X170354819Y-62904761D01*
X170354819Y-62904761D02*
X170354819Y-62999999D01*
X170354819Y-62999999D02*
X170307200Y-63142856D01*
X170307200Y-63142856D02*
X170211961Y-63238094D01*
X170211961Y-63238094D02*
X170116723Y-63285713D01*
X170116723Y-63285713D02*
X169926247Y-63333332D01*
X169926247Y-63333332D02*
X169783390Y-63333332D01*
X169783390Y-63333332D02*
X169592914Y-63285713D01*
X169592914Y-63285713D02*
X169497676Y-63238094D01*
X169497676Y-63238094D02*
X169402438Y-63142856D01*
X169402438Y-63142856D02*
X169354819Y-62999999D01*
X169354819Y-62999999D02*
X169354819Y-62904761D01*
X169354819Y-62904761D02*
X169402438Y-62761904D01*
X169402438Y-62761904D02*
X169450057Y-62714285D01*
X170450057Y-62523809D02*
X170450057Y-61761904D01*
X169354819Y-61523808D02*
X170164342Y-61523808D01*
X170164342Y-61523808D02*
X170259580Y-61476189D01*
X170259580Y-61476189D02*
X170307200Y-61428570D01*
X170307200Y-61428570D02*
X170354819Y-61333332D01*
X170354819Y-61333332D02*
X170354819Y-61142856D01*
X170354819Y-61142856D02*
X170307200Y-61047618D01*
X170307200Y-61047618D02*
X170259580Y-60999999D01*
X170259580Y-60999999D02*
X170164342Y-60952380D01*
X170164342Y-60952380D02*
X169354819Y-60952380D01*
X170307200Y-60523808D02*
X170354819Y-60380951D01*
X170354819Y-60380951D02*
X170354819Y-60142856D01*
X170354819Y-60142856D02*
X170307200Y-60047618D01*
X170307200Y-60047618D02*
X170259580Y-59999999D01*
X170259580Y-59999999D02*
X170164342Y-59952380D01*
X170164342Y-59952380D02*
X170069104Y-59952380D01*
X170069104Y-59952380D02*
X169973866Y-59999999D01*
X169973866Y-59999999D02*
X169926247Y-60047618D01*
X169926247Y-60047618D02*
X169878628Y-60142856D01*
X169878628Y-60142856D02*
X169831009Y-60333332D01*
X169831009Y-60333332D02*
X169783390Y-60428570D01*
X169783390Y-60428570D02*
X169735771Y-60476189D01*
X169735771Y-60476189D02*
X169640533Y-60523808D01*
X169640533Y-60523808D02*
X169545295Y-60523808D01*
X169545295Y-60523808D02*
X169450057Y-60476189D01*
X169450057Y-60476189D02*
X169402438Y-60428570D01*
X169402438Y-60428570D02*
X169354819Y-60333332D01*
X169354819Y-60333332D02*
X169354819Y-60095237D01*
X169354819Y-60095237D02*
X169402438Y-59952380D01*
X169831009Y-59190475D02*
X169878628Y-59047618D01*
X169878628Y-59047618D02*
X169926247Y-58999999D01*
X169926247Y-58999999D02*
X170021485Y-58952380D01*
X170021485Y-58952380D02*
X170164342Y-58952380D01*
X170164342Y-58952380D02*
X170259580Y-58999999D01*
X170259580Y-58999999D02*
X170307200Y-59047618D01*
X170307200Y-59047618D02*
X170354819Y-59142856D01*
X170354819Y-59142856D02*
X170354819Y-59523808D01*
X170354819Y-59523808D02*
X169354819Y-59523808D01*
X169354819Y-59523808D02*
X169354819Y-59190475D01*
X169354819Y-59190475D02*
X169402438Y-59095237D01*
X169402438Y-59095237D02*
X169450057Y-59047618D01*
X169450057Y-59047618D02*
X169545295Y-58999999D01*
X169545295Y-58999999D02*
X169640533Y-58999999D01*
X169640533Y-58999999D02*
X169735771Y-59047618D01*
X169735771Y-59047618D02*
X169783390Y-59095237D01*
X169783390Y-59095237D02*
X169831009Y-59190475D01*
X169831009Y-59190475D02*
X169831009Y-59523808D01*
X169450057Y-58571427D02*
X169402438Y-58523808D01*
X169402438Y-58523808D02*
X169354819Y-58428570D01*
X169354819Y-58428570D02*
X169354819Y-58190475D01*
X169354819Y-58190475D02*
X169402438Y-58095237D01*
X169402438Y-58095237D02*
X169450057Y-58047618D01*
X169450057Y-58047618D02*
X169545295Y-57999999D01*
X169545295Y-57999999D02*
X169640533Y-57999999D01*
X169640533Y-57999999D02*
X169783390Y-58047618D01*
X169783390Y-58047618D02*
X170354819Y-58619046D01*
X170354819Y-58619046D02*
X170354819Y-57999999D01*
X170259580Y-57571427D02*
X170307200Y-57523808D01*
X170307200Y-57523808D02*
X170354819Y-57571427D01*
X170354819Y-57571427D02*
X170307200Y-57619046D01*
X170307200Y-57619046D02*
X170259580Y-57571427D01*
X170259580Y-57571427D02*
X170354819Y-57571427D01*
X169354819Y-56904761D02*
X169354819Y-56809523D01*
X169354819Y-56809523D02*
X169402438Y-56714285D01*
X169402438Y-56714285D02*
X169450057Y-56666666D01*
X169450057Y-56666666D02*
X169545295Y-56619047D01*
X169545295Y-56619047D02*
X169735771Y-56571428D01*
X169735771Y-56571428D02*
X169973866Y-56571428D01*
X169973866Y-56571428D02*
X170164342Y-56619047D01*
X170164342Y-56619047D02*
X170259580Y-56666666D01*
X170259580Y-56666666D02*
X170307200Y-56714285D01*
X170307200Y-56714285D02*
X170354819Y-56809523D01*
X170354819Y-56809523D02*
X170354819Y-56904761D01*
X170354819Y-56904761D02*
X170307200Y-56999999D01*
X170307200Y-56999999D02*
X170259580Y-57047618D01*
X170259580Y-57047618D02*
X170164342Y-57095237D01*
X170164342Y-57095237D02*
X169973866Y-57142856D01*
X169973866Y-57142856D02*
X169735771Y-57142856D01*
X169735771Y-57142856D02*
X169545295Y-57095237D01*
X169545295Y-57095237D02*
X169450057Y-57047618D01*
X169450057Y-57047618D02*
X169402438Y-56999999D01*
X169402438Y-56999999D02*
X169354819Y-56904761D01*
X170450057Y-56380952D02*
X170450057Y-55619047D01*
X170354819Y-54857142D02*
X170354819Y-55428570D01*
X170354819Y-55142856D02*
X169354819Y-55142856D01*
X169354819Y-55142856D02*
X169497676Y-55238094D01*
X169497676Y-55238094D02*
X169592914Y-55333332D01*
X169592914Y-55333332D02*
X169640533Y-55428570D01*
X169354819Y-53999999D02*
X169354819Y-54190475D01*
X169354819Y-54190475D02*
X169402438Y-54285713D01*
X169402438Y-54285713D02*
X169450057Y-54333332D01*
X169450057Y-54333332D02*
X169592914Y-54428570D01*
X169592914Y-54428570D02*
X169783390Y-54476189D01*
X169783390Y-54476189D02*
X170164342Y-54476189D01*
X170164342Y-54476189D02*
X170259580Y-54428570D01*
X170259580Y-54428570D02*
X170307200Y-54380951D01*
X170307200Y-54380951D02*
X170354819Y-54285713D01*
X170354819Y-54285713D02*
X170354819Y-54095237D01*
X170354819Y-54095237D02*
X170307200Y-53999999D01*
X170307200Y-53999999D02*
X170259580Y-53952380D01*
X170259580Y-53952380D02*
X170164342Y-53904761D01*
X170164342Y-53904761D02*
X169926247Y-53904761D01*
X169926247Y-53904761D02*
X169831009Y-53952380D01*
X169831009Y-53952380D02*
X169783390Y-53999999D01*
X169783390Y-53999999D02*
X169735771Y-54095237D01*
X169735771Y-54095237D02*
X169735771Y-54285713D01*
X169735771Y-54285713D02*
X169783390Y-54380951D01*
X169783390Y-54380951D02*
X169831009Y-54428570D01*
X169831009Y-54428570D02*
X169926247Y-54476189D01*
X170354819Y-53476189D02*
X169354819Y-53476189D01*
X169354819Y-53476189D02*
X169354819Y-53095237D01*
X169354819Y-53095237D02*
X169402438Y-52999999D01*
X169402438Y-52999999D02*
X169450057Y-52952380D01*
X169450057Y-52952380D02*
X169545295Y-52904761D01*
X169545295Y-52904761D02*
X169688152Y-52904761D01*
X169688152Y-52904761D02*
X169783390Y-52952380D01*
X169783390Y-52952380D02*
X169831009Y-52999999D01*
X169831009Y-52999999D02*
X169878628Y-53095237D01*
X169878628Y-53095237D02*
X169878628Y-53476189D01*
X174454819Y-60333333D02*
X175169104Y-60333333D01*
X175169104Y-60333333D02*
X175311961Y-60380952D01*
X175311961Y-60380952D02*
X175407200Y-60476190D01*
X175407200Y-60476190D02*
X175454819Y-60619047D01*
X175454819Y-60619047D02*
X175454819Y-60714285D01*
X175454819Y-59333333D02*
X175454819Y-59904761D01*
X175454819Y-59619047D02*
X174454819Y-59619047D01*
X174454819Y-59619047D02*
X174597676Y-59714285D01*
X174597676Y-59714285D02*
X174692914Y-59809523D01*
X174692914Y-59809523D02*
X174740533Y-59904761D01*
X90333333Y-18932438D02*
X90238095Y-18884819D01*
X90238095Y-18884819D02*
X90095238Y-18884819D01*
X90095238Y-18884819D02*
X89952381Y-18932438D01*
X89952381Y-18932438D02*
X89857143Y-19027676D01*
X89857143Y-19027676D02*
X89809524Y-19122914D01*
X89809524Y-19122914D02*
X89761905Y-19313390D01*
X89761905Y-19313390D02*
X89761905Y-19456247D01*
X89761905Y-19456247D02*
X89809524Y-19646723D01*
X89809524Y-19646723D02*
X89857143Y-19741961D01*
X89857143Y-19741961D02*
X89952381Y-19837200D01*
X89952381Y-19837200D02*
X90095238Y-19884819D01*
X90095238Y-19884819D02*
X90190476Y-19884819D01*
X90190476Y-19884819D02*
X90333333Y-19837200D01*
X90333333Y-19837200D02*
X90380952Y-19789580D01*
X90380952Y-19789580D02*
X90380952Y-19456247D01*
X90380952Y-19456247D02*
X90190476Y-19456247D01*
X91380952Y-19884819D02*
X91047619Y-19408628D01*
X90809524Y-19884819D02*
X90809524Y-18884819D01*
X90809524Y-18884819D02*
X91190476Y-18884819D01*
X91190476Y-18884819D02*
X91285714Y-18932438D01*
X91285714Y-18932438D02*
X91333333Y-18980057D01*
X91333333Y-18980057D02*
X91380952Y-19075295D01*
X91380952Y-19075295D02*
X91380952Y-19218152D01*
X91380952Y-19218152D02*
X91333333Y-19313390D01*
X91333333Y-19313390D02*
X91285714Y-19361009D01*
X91285714Y-19361009D02*
X91190476Y-19408628D01*
X91190476Y-19408628D02*
X90809524Y-19408628D01*
X91809524Y-19361009D02*
X92142857Y-19361009D01*
X92285714Y-19884819D02*
X91809524Y-19884819D01*
X91809524Y-19884819D02*
X91809524Y-18884819D01*
X91809524Y-18884819D02*
X92285714Y-18884819D01*
X92714286Y-19361009D02*
X93047619Y-19361009D01*
X93190476Y-19884819D02*
X92714286Y-19884819D01*
X92714286Y-19884819D02*
X92714286Y-18884819D01*
X92714286Y-18884819D02*
X93190476Y-18884819D01*
X93619048Y-19884819D02*
X93619048Y-18884819D01*
X93619048Y-18884819D02*
X94190476Y-19884819D01*
X94190476Y-19884819D02*
X94190476Y-18884819D01*
D12*
X91704762Y-18181927D02*
X91704762Y-17781927D01*
X91704762Y-17781927D02*
X91800000Y-17781927D01*
X91800000Y-17781927D02*
X91857143Y-17800975D01*
X91857143Y-17800975D02*
X91895238Y-17839070D01*
X91895238Y-17839070D02*
X91914285Y-17877165D01*
X91914285Y-17877165D02*
X91933333Y-17953356D01*
X91933333Y-17953356D02*
X91933333Y-18010499D01*
X91933333Y-18010499D02*
X91914285Y-18086689D01*
X91914285Y-18086689D02*
X91895238Y-18124784D01*
X91895238Y-18124784D02*
X91857143Y-18162880D01*
X91857143Y-18162880D02*
X91800000Y-18181927D01*
X91800000Y-18181927D02*
X91704762Y-18181927D01*
X92085714Y-17820022D02*
X92104762Y-17800975D01*
X92104762Y-17800975D02*
X92142857Y-17781927D01*
X92142857Y-17781927D02*
X92238095Y-17781927D01*
X92238095Y-17781927D02*
X92276190Y-17800975D01*
X92276190Y-17800975D02*
X92295238Y-17820022D01*
X92295238Y-17820022D02*
X92314285Y-17858118D01*
X92314285Y-17858118D02*
X92314285Y-17896213D01*
X92314285Y-17896213D02*
X92295238Y-17953356D01*
X92295238Y-17953356D02*
X92066666Y-18181927D01*
X92066666Y-18181927D02*
X92314285Y-18181927D01*
D10*
X96404762Y-72157200D02*
X96547619Y-72204819D01*
X96547619Y-72204819D02*
X96785714Y-72204819D01*
X96785714Y-72204819D02*
X96880952Y-72157200D01*
X96880952Y-72157200D02*
X96928571Y-72109580D01*
X96928571Y-72109580D02*
X96976190Y-72014342D01*
X96976190Y-72014342D02*
X96976190Y-71919104D01*
X96976190Y-71919104D02*
X96928571Y-71823866D01*
X96928571Y-71823866D02*
X96880952Y-71776247D01*
X96880952Y-71776247D02*
X96785714Y-71728628D01*
X96785714Y-71728628D02*
X96595238Y-71681009D01*
X96595238Y-71681009D02*
X96500000Y-71633390D01*
X96500000Y-71633390D02*
X96452381Y-71585771D01*
X96452381Y-71585771D02*
X96404762Y-71490533D01*
X96404762Y-71490533D02*
X96404762Y-71395295D01*
X96404762Y-71395295D02*
X96452381Y-71300057D01*
X96452381Y-71300057D02*
X96500000Y-71252438D01*
X96500000Y-71252438D02*
X96595238Y-71204819D01*
X96595238Y-71204819D02*
X96833333Y-71204819D01*
X96833333Y-71204819D02*
X96976190Y-71252438D01*
X97404762Y-71681009D02*
X97738095Y-71681009D01*
X97880952Y-72204819D02*
X97404762Y-72204819D01*
X97404762Y-72204819D02*
X97404762Y-71204819D01*
X97404762Y-71204819D02*
X97880952Y-71204819D01*
X98785714Y-72204819D02*
X98309524Y-72204819D01*
X98309524Y-72204819D02*
X98309524Y-71204819D01*
X99833333Y-71157200D02*
X98976191Y-72442914D01*
X100500000Y-71681009D02*
X100642857Y-71728628D01*
X100642857Y-71728628D02*
X100690476Y-71776247D01*
X100690476Y-71776247D02*
X100738095Y-71871485D01*
X100738095Y-71871485D02*
X100738095Y-72014342D01*
X100738095Y-72014342D02*
X100690476Y-72109580D01*
X100690476Y-72109580D02*
X100642857Y-72157200D01*
X100642857Y-72157200D02*
X100547619Y-72204819D01*
X100547619Y-72204819D02*
X100166667Y-72204819D01*
X100166667Y-72204819D02*
X100166667Y-71204819D01*
X100166667Y-71204819D02*
X100500000Y-71204819D01*
X100500000Y-71204819D02*
X100595238Y-71252438D01*
X100595238Y-71252438D02*
X100642857Y-71300057D01*
X100642857Y-71300057D02*
X100690476Y-71395295D01*
X100690476Y-71395295D02*
X100690476Y-71490533D01*
X100690476Y-71490533D02*
X100642857Y-71585771D01*
X100642857Y-71585771D02*
X100595238Y-71633390D01*
X100595238Y-71633390D02*
X100500000Y-71681009D01*
X100500000Y-71681009D02*
X100166667Y-71681009D01*
X101357143Y-71204819D02*
X101547619Y-71204819D01*
X101547619Y-71204819D02*
X101642857Y-71252438D01*
X101642857Y-71252438D02*
X101738095Y-71347676D01*
X101738095Y-71347676D02*
X101785714Y-71538152D01*
X101785714Y-71538152D02*
X101785714Y-71871485D01*
X101785714Y-71871485D02*
X101738095Y-72061961D01*
X101738095Y-72061961D02*
X101642857Y-72157200D01*
X101642857Y-72157200D02*
X101547619Y-72204819D01*
X101547619Y-72204819D02*
X101357143Y-72204819D01*
X101357143Y-72204819D02*
X101261905Y-72157200D01*
X101261905Y-72157200D02*
X101166667Y-72061961D01*
X101166667Y-72061961D02*
X101119048Y-71871485D01*
X101119048Y-71871485D02*
X101119048Y-71538152D01*
X101119048Y-71538152D02*
X101166667Y-71347676D01*
X101166667Y-71347676D02*
X101261905Y-71252438D01*
X101261905Y-71252438D02*
X101357143Y-71204819D01*
X102404762Y-71204819D02*
X102595238Y-71204819D01*
X102595238Y-71204819D02*
X102690476Y-71252438D01*
X102690476Y-71252438D02*
X102785714Y-71347676D01*
X102785714Y-71347676D02*
X102833333Y-71538152D01*
X102833333Y-71538152D02*
X102833333Y-71871485D01*
X102833333Y-71871485D02*
X102785714Y-72061961D01*
X102785714Y-72061961D02*
X102690476Y-72157200D01*
X102690476Y-72157200D02*
X102595238Y-72204819D01*
X102595238Y-72204819D02*
X102404762Y-72204819D01*
X102404762Y-72204819D02*
X102309524Y-72157200D01*
X102309524Y-72157200D02*
X102214286Y-72061961D01*
X102214286Y-72061961D02*
X102166667Y-71871485D01*
X102166667Y-71871485D02*
X102166667Y-71538152D01*
X102166667Y-71538152D02*
X102214286Y-71347676D01*
X102214286Y-71347676D02*
X102309524Y-71252438D01*
X102309524Y-71252438D02*
X102404762Y-71204819D01*
X103119048Y-71204819D02*
X103690476Y-71204819D01*
X103404762Y-72204819D02*
X103404762Y-71204819D01*
X99238095Y-64657200D02*
X99380952Y-64704819D01*
X99380952Y-64704819D02*
X99619047Y-64704819D01*
X99619047Y-64704819D02*
X99714285Y-64657200D01*
X99714285Y-64657200D02*
X99761904Y-64609580D01*
X99761904Y-64609580D02*
X99809523Y-64514342D01*
X99809523Y-64514342D02*
X99809523Y-64419104D01*
X99809523Y-64419104D02*
X99761904Y-64323866D01*
X99761904Y-64323866D02*
X99714285Y-64276247D01*
X99714285Y-64276247D02*
X99619047Y-64228628D01*
X99619047Y-64228628D02*
X99428571Y-64181009D01*
X99428571Y-64181009D02*
X99333333Y-64133390D01*
X99333333Y-64133390D02*
X99285714Y-64085771D01*
X99285714Y-64085771D02*
X99238095Y-63990533D01*
X99238095Y-63990533D02*
X99238095Y-63895295D01*
X99238095Y-63895295D02*
X99285714Y-63800057D01*
X99285714Y-63800057D02*
X99333333Y-63752438D01*
X99333333Y-63752438D02*
X99428571Y-63704819D01*
X99428571Y-63704819D02*
X99666666Y-63704819D01*
X99666666Y-63704819D02*
X99809523Y-63752438D01*
X100190476Y-63800057D02*
X100238095Y-63752438D01*
X100238095Y-63752438D02*
X100333333Y-63704819D01*
X100333333Y-63704819D02*
X100571428Y-63704819D01*
X100571428Y-63704819D02*
X100666666Y-63752438D01*
X100666666Y-63752438D02*
X100714285Y-63800057D01*
X100714285Y-63800057D02*
X100761904Y-63895295D01*
X100761904Y-63895295D02*
X100761904Y-63990533D01*
X100761904Y-63990533D02*
X100714285Y-64133390D01*
X100714285Y-64133390D02*
X100142857Y-64704819D01*
X100142857Y-64704819D02*
X100761904Y-64704819D01*
D13*
%TO.C,D1*%
X158600000Y-43100000D02*
X161400000Y-43100000D01*
X158600000Y-44900000D02*
X158600000Y-43100000D01*
X159250000Y-44000000D02*
X159650000Y-44000000D01*
X159650000Y-44000000D02*
X159650000Y-43450000D01*
X159650000Y-44000000D02*
X159650000Y-44550000D01*
X159650000Y-44000000D02*
X160250000Y-43600000D01*
X160250000Y-43600000D02*
X160250000Y-44400000D01*
X160250000Y-44000000D02*
X160750000Y-44000000D01*
X160250000Y-44400000D02*
X159650000Y-44000000D01*
X161400000Y-43100000D02*
X161400000Y-44900000D01*
X161400000Y-44900000D02*
X158600000Y-44900000D01*
%TO.C,D5*%
X133900000Y-34550000D02*
X133900000Y-36000000D01*
X133900000Y-36000000D02*
X136100000Y-36000000D01*
X134450000Y-34000000D02*
X133900000Y-34550000D01*
X136100000Y-34000000D02*
X134450000Y-34000000D01*
X136100000Y-34000000D02*
X136100000Y-36000000D01*
X134500000Y-34000000D02*
X134950000Y-34000000D01*
X134950000Y-34550000D01*
X134500000Y-34550000D01*
X134500000Y-34000000D01*
G36*
X134500000Y-34000000D02*
G01*
X134950000Y-34000000D01*
X134950000Y-34550000D01*
X134500000Y-34550000D01*
X134500000Y-34000000D01*
G37*
X134500000Y-35400000D02*
X134950000Y-35400000D01*
X134950000Y-36000000D01*
X134500000Y-36000000D01*
X134500000Y-35400000D01*
G36*
X134500000Y-35400000D02*
G01*
X134950000Y-35400000D01*
X134950000Y-36000000D01*
X134500000Y-36000000D01*
X134500000Y-35400000D01*
G37*
%TO.C,R2*%
X159200000Y-49587500D02*
X160800000Y-49587500D01*
X160800000Y-50412500D01*
X159200000Y-50412500D01*
X159200000Y-49587500D01*
%TO.C,S1*%
X96800000Y-6900000D02*
X96800000Y-7400000D01*
X96800000Y-7400000D02*
X97800000Y-7400000D01*
X96800000Y-10600000D02*
X97800000Y-10600000D01*
X96800000Y-11100000D02*
X96800000Y-10600000D01*
X97300000Y-6900000D02*
X97300000Y-7400000D01*
X97300000Y-11100000D02*
X97300000Y-10600000D01*
X97400000Y-7800000D02*
X97400000Y-10200000D01*
X97400000Y-10200000D02*
X98800000Y-11600000D01*
X98000000Y-8000000D02*
X99000000Y-7000000D01*
X98000000Y-10000000D02*
X98000000Y-8000000D01*
X98300000Y-6900000D02*
X96800000Y-6900000D01*
X98300000Y-11100000D02*
X96800000Y-11100000D01*
X98800000Y-6400000D02*
X97400000Y-7800000D01*
X98800000Y-11600000D02*
X101200000Y-11600000D01*
X99000000Y-7000000D02*
X101000000Y-7000000D01*
X99000000Y-11000000D02*
X98000000Y-10000000D01*
X101000000Y-7000000D02*
X102000000Y-8000000D01*
X101000000Y-11000000D02*
X99000000Y-11000000D01*
X101200000Y-6400000D02*
X98800000Y-6400000D01*
X101200000Y-11600000D02*
X102600000Y-10200000D01*
X101700000Y-6900000D02*
X103200000Y-6900000D01*
X101700000Y-11100000D02*
X103200000Y-11100000D01*
X102000000Y-8000000D02*
X102000000Y-10000000D01*
X102000000Y-10000000D02*
X101000000Y-11000000D01*
X102600000Y-7800000D02*
X101200000Y-6400000D01*
X102600000Y-10200000D02*
X102600000Y-7800000D01*
X102700000Y-6900000D02*
X102700000Y-7400000D01*
X102700000Y-11100000D02*
X102700000Y-10600000D01*
X103200000Y-6900000D02*
X103200000Y-7400000D01*
X103200000Y-7400000D02*
X102200000Y-7400000D01*
X103200000Y-10600000D02*
X102200000Y-10600000D01*
X103200000Y-11100000D02*
X103200000Y-10600000D01*
X101000000Y-9000000D02*
G75*
G02*
X99000000Y-9000000I-1000000J0D01*
G01*
X99000000Y-9000000D02*
G75*
G02*
X101000000Y-9000000I1000000J0D01*
G01*
%TO.C,R3*%
X95200000Y-17587500D02*
X96800000Y-17587500D01*
X96800000Y-18412500D01*
X95200000Y-18412500D01*
X95200000Y-17587500D01*
%TO.C,D4*%
X63900000Y-34550000D02*
X63900000Y-36000000D01*
X63900000Y-36000000D02*
X66100000Y-36000000D01*
X64450000Y-34000000D02*
X63900000Y-34550000D01*
X66100000Y-34000000D02*
X64450000Y-34000000D01*
X66100000Y-34000000D02*
X66100000Y-36000000D01*
X64500000Y-34000000D02*
X64950000Y-34000000D01*
X64950000Y-34550000D01*
X64500000Y-34550000D01*
X64500000Y-34000000D01*
G36*
X64500000Y-34000000D02*
G01*
X64950000Y-34000000D01*
X64950000Y-34550000D01*
X64500000Y-34550000D01*
X64500000Y-34000000D01*
G37*
X64500000Y-35400000D02*
X64950000Y-35400000D01*
X64950000Y-36000000D01*
X64500000Y-36000000D01*
X64500000Y-35400000D01*
G36*
X64500000Y-35400000D02*
G01*
X64950000Y-35400000D01*
X64950000Y-36000000D01*
X64500000Y-36000000D01*
X64500000Y-35400000D01*
G37*
%TO.C,D6*%
X166900000Y-51550000D02*
X166900000Y-53000000D01*
X166900000Y-53000000D02*
X169100000Y-53000000D01*
X167450000Y-51000000D02*
X166900000Y-51550000D01*
X169100000Y-51000000D02*
X167450000Y-51000000D01*
X169100000Y-51000000D02*
X169100000Y-53000000D01*
X167500000Y-51000000D02*
X167950000Y-51000000D01*
X167950000Y-51550000D01*
X167500000Y-51550000D01*
X167500000Y-51000000D01*
G36*
X167500000Y-51000000D02*
G01*
X167950000Y-51000000D01*
X167950000Y-51550000D01*
X167500000Y-51550000D01*
X167500000Y-51000000D01*
G37*
X167500000Y-52400000D02*
X167950000Y-52400000D01*
X167950000Y-53000000D01*
X167500000Y-53000000D01*
X167500000Y-52400000D01*
G36*
X167500000Y-52400000D02*
G01*
X167950000Y-52400000D01*
X167950000Y-53000000D01*
X167500000Y-53000000D01*
X167500000Y-52400000D01*
G37*
%TO.C,U2*%
X108400000Y-51300000D02*
X108400000Y-34700000D01*
X108400000Y-51300000D02*
X121600000Y-51300000D01*
X109200000Y-40100000D02*
X108400000Y-40900000D01*
X121600000Y-34700000D02*
X108400000Y-34700000D01*
X121600000Y-40100000D02*
X108400000Y-40100000D01*
X121600000Y-51300000D02*
X121600000Y-34700000D01*
%TO.C,R11*%
X35200000Y-55587500D02*
X36800000Y-55587500D01*
X36800000Y-56412500D01*
X35200000Y-56412500D01*
X35200000Y-55587500D01*
%TO.C,S4*%
X104800000Y-57900000D02*
X104800000Y-58400000D01*
X104800000Y-58400000D02*
X105800000Y-58400000D01*
X104800000Y-61600000D02*
X105800000Y-61600000D01*
X104800000Y-62100000D02*
X104800000Y-61600000D01*
X105300000Y-57900000D02*
X105300000Y-58400000D01*
X105300000Y-62100000D02*
X105300000Y-61600000D01*
X105400000Y-58800000D02*
X105400000Y-61200000D01*
X105400000Y-61200000D02*
X106800000Y-62600000D01*
X106000000Y-59000000D02*
X107000000Y-58000000D01*
X106000000Y-61000000D02*
X106000000Y-59000000D01*
X106300000Y-57900000D02*
X104800000Y-57900000D01*
X106300000Y-62100000D02*
X104800000Y-62100000D01*
X106800000Y-57400000D02*
X105400000Y-58800000D01*
X106800000Y-62600000D02*
X109200000Y-62600000D01*
X107000000Y-58000000D02*
X109000000Y-58000000D01*
X107000000Y-62000000D02*
X106000000Y-61000000D01*
X109000000Y-58000000D02*
X110000000Y-59000000D01*
X109000000Y-62000000D02*
X107000000Y-62000000D01*
X109200000Y-57400000D02*
X106800000Y-57400000D01*
X109200000Y-62600000D02*
X110600000Y-61200000D01*
X109700000Y-57900000D02*
X111200000Y-57900000D01*
X109700000Y-62100000D02*
X111200000Y-62100000D01*
X110000000Y-59000000D02*
X110000000Y-61000000D01*
X110000000Y-61000000D02*
X109000000Y-62000000D01*
X110600000Y-58800000D02*
X109200000Y-57400000D01*
X110600000Y-61200000D02*
X110600000Y-58800000D01*
X110700000Y-57900000D02*
X110700000Y-58400000D01*
X110700000Y-62100000D02*
X110700000Y-61600000D01*
X111200000Y-57900000D02*
X111200000Y-58400000D01*
X111200000Y-58400000D02*
X110200000Y-58400000D01*
X111200000Y-61600000D02*
X110200000Y-61600000D01*
X111200000Y-62100000D02*
X111200000Y-61600000D01*
X109000000Y-60000000D02*
G75*
G02*
X107000000Y-60000000I-1000000J0D01*
G01*
X107000000Y-60000000D02*
G75*
G02*
X109000000Y-60000000I1000000J0D01*
G01*
%TO.C,DISP1*%
X80500000Y-21500000D02*
X105500000Y-21500000D01*
X80500000Y-48500000D02*
X80500000Y-21500000D01*
X105500000Y-21500000D02*
X105500000Y-48500000D01*
X105500000Y-48500000D02*
X80500000Y-48500000D01*
%TO.C,S3*%
X88800000Y-57900000D02*
X88800000Y-58400000D01*
X88800000Y-58400000D02*
X89800000Y-58400000D01*
X88800000Y-61600000D02*
X89800000Y-61600000D01*
X88800000Y-62100000D02*
X88800000Y-61600000D01*
X89300000Y-57900000D02*
X89300000Y-58400000D01*
X89300000Y-62100000D02*
X89300000Y-61600000D01*
X89400000Y-58800000D02*
X89400000Y-61200000D01*
X89400000Y-61200000D02*
X90800000Y-62600000D01*
X90000000Y-59000000D02*
X91000000Y-58000000D01*
X90000000Y-61000000D02*
X90000000Y-59000000D01*
X90300000Y-57900000D02*
X88800000Y-57900000D01*
X90300000Y-62100000D02*
X88800000Y-62100000D01*
X90800000Y-57400000D02*
X89400000Y-58800000D01*
X90800000Y-62600000D02*
X93200000Y-62600000D01*
X91000000Y-58000000D02*
X93000000Y-58000000D01*
X91000000Y-62000000D02*
X90000000Y-61000000D01*
X93000000Y-58000000D02*
X94000000Y-59000000D01*
X93000000Y-62000000D02*
X91000000Y-62000000D01*
X93200000Y-57400000D02*
X90800000Y-57400000D01*
X93200000Y-62600000D02*
X94600000Y-61200000D01*
X93700000Y-57900000D02*
X95200000Y-57900000D01*
X93700000Y-62100000D02*
X95200000Y-62100000D01*
X94000000Y-59000000D02*
X94000000Y-61000000D01*
X94000000Y-61000000D02*
X93000000Y-62000000D01*
X94600000Y-58800000D02*
X93200000Y-57400000D01*
X94600000Y-61200000D02*
X94600000Y-58800000D01*
X94700000Y-57900000D02*
X94700000Y-58400000D01*
X94700000Y-62100000D02*
X94700000Y-61600000D01*
X95200000Y-57900000D02*
X95200000Y-58400000D01*
X95200000Y-58400000D02*
X94200000Y-58400000D01*
X95200000Y-61600000D02*
X94200000Y-61600000D01*
X95200000Y-62100000D02*
X95200000Y-61600000D01*
X93000000Y-60000000D02*
G75*
G02*
X91000000Y-60000000I-1000000J0D01*
G01*
X91000000Y-60000000D02*
G75*
G02*
X93000000Y-60000000I1000000J0D01*
G01*
%TO.C,D3*%
X30900000Y-51550000D02*
X30900000Y-53000000D01*
X30900000Y-53000000D02*
X33100000Y-53000000D01*
X31450000Y-51000000D02*
X30900000Y-51550000D01*
X33100000Y-51000000D02*
X31450000Y-51000000D01*
X33100000Y-51000000D02*
X33100000Y-53000000D01*
X31500000Y-51000000D02*
X31950000Y-51000000D01*
X31950000Y-51550000D01*
X31500000Y-51550000D01*
X31500000Y-51000000D01*
G36*
X31500000Y-51000000D02*
G01*
X31950000Y-51000000D01*
X31950000Y-51550000D01*
X31500000Y-51550000D01*
X31500000Y-51000000D01*
G37*
X31500000Y-52400000D02*
X31950000Y-52400000D01*
X31950000Y-53000000D01*
X31500000Y-53000000D01*
X31500000Y-52400000D01*
G36*
X31500000Y-52400000D02*
G01*
X31950000Y-52400000D01*
X31950000Y-53000000D01*
X31500000Y-53000000D01*
X31500000Y-52400000D01*
G37*
%TO.C,R1*%
X159200000Y-46587500D02*
X160800000Y-46587500D01*
X160800000Y-47412500D01*
X159200000Y-47412500D01*
X159200000Y-46587500D01*
%TO.C,J1*%
X171350000Y-55530000D02*
X171350000Y-64470000D01*
X178650000Y-55530000D02*
X171350000Y-55530000D01*
X178650000Y-55530000D02*
X178650000Y-64470000D01*
X178650000Y-64470000D02*
X171350000Y-64470000D01*
%TO.C,D2*%
X91200000Y-17900000D02*
X91200000Y-18400000D01*
X91200000Y-18400000D02*
X92800000Y-18400000D01*
X91500000Y-17600000D02*
X91200000Y-17900000D01*
X92800000Y-17600000D02*
X91500000Y-17600000D01*
X92800000Y-18400000D02*
X92800000Y-17600000D01*
%TO.C,S2*%
X96800000Y-65900000D02*
X96800000Y-66400000D01*
X96800000Y-66400000D02*
X97800000Y-66400000D01*
X96800000Y-69600000D02*
X97800000Y-69600000D01*
X96800000Y-70100000D02*
X96800000Y-69600000D01*
X97300000Y-65900000D02*
X97300000Y-66400000D01*
X97300000Y-70100000D02*
X97300000Y-69600000D01*
X97400000Y-66800000D02*
X97400000Y-69200000D01*
X97400000Y-69200000D02*
X98800000Y-70600000D01*
X98000000Y-67000000D02*
X99000000Y-66000000D01*
X98000000Y-69000000D02*
X98000000Y-67000000D01*
X98300000Y-65900000D02*
X96800000Y-65900000D01*
X98300000Y-70100000D02*
X96800000Y-70100000D01*
X98800000Y-65400000D02*
X97400000Y-66800000D01*
X98800000Y-70600000D02*
X101200000Y-70600000D01*
X99000000Y-66000000D02*
X101000000Y-66000000D01*
X99000000Y-70000000D02*
X98000000Y-69000000D01*
X101000000Y-66000000D02*
X102000000Y-67000000D01*
X101000000Y-70000000D02*
X99000000Y-70000000D01*
X101200000Y-65400000D02*
X98800000Y-65400000D01*
X101200000Y-70600000D02*
X102600000Y-69200000D01*
X101700000Y-65900000D02*
X103200000Y-65900000D01*
X101700000Y-70100000D02*
X103200000Y-70100000D01*
X102000000Y-67000000D02*
X102000000Y-69000000D01*
X102000000Y-69000000D02*
X101000000Y-70000000D01*
X102600000Y-66800000D02*
X101200000Y-65400000D01*
X102600000Y-69200000D02*
X102600000Y-66800000D01*
X102700000Y-65900000D02*
X102700000Y-66400000D01*
X102700000Y-70100000D02*
X102700000Y-69600000D01*
X103200000Y-65900000D02*
X103200000Y-66400000D01*
X103200000Y-66400000D02*
X102200000Y-66400000D01*
X103200000Y-69600000D02*
X102200000Y-69600000D01*
X103200000Y-70100000D02*
X103200000Y-69600000D01*
X101000000Y-68000000D02*
G75*
G02*
X99000000Y-68000000I-1000000J0D01*
G01*
X99000000Y-68000000D02*
G75*
G02*
X101000000Y-68000000I1000000J0D01*
G01*
%TD*%
M02*
